<svg width="21" height="16" viewBox="0 0 21 16" fill="none" xmlns="http://www.w3.org/2000/svg">
<path d="M15.125 4.2625V3.78125C15.125 1.62422 11.8766 0 7.5625 0C3.24844 0 0 1.62422 0 3.78125V7.21875C0 9.01484 2.25156 10.4414 5.5 10.8711V11.3438C5.5 13.5008 8.74844 15.125 13.0625 15.125C17.3766 15.125 20.625 13.5008 20.625 11.3438V7.90625C20.625 6.12734 18.4422 4.70078 15.125 4.2625ZM5.5 9.47031V7.43359C6.18395 7.52149 6.87292 7.56455 7.5625 7.5625C8.25208 7.56455 8.94105 7.52149 9.625 7.43359V9.47031C8.94271 9.57663 8.25302 9.62836 7.5625 9.625C6.87198 9.62836 6.18229 9.57663 5.5 9.47031ZM13.75 6.00703V7.21875C13.75 7.94063 12.6844 8.71406 11 9.18672V7.17578C12.1086 6.90938 13.0453 6.50547 13.75 6.00703ZM1.375 7.21875V6.00703C2.07969 6.50547 3.01641 6.90938 4.125 7.17578V9.18672C2.44062 8.71406 1.375 7.94063 1.375 7.21875ZM6.875 11.3438V10.9828L7.5625 11C7.90052 11 8.22708 10.9914 8.54219 10.9742C8.88594 11.0945 9.24687 11.1977 9.625 11.2922V13.3117C7.94063 12.8391 6.875 12.0656 6.875 11.3438ZM11 13.5953V11.55C11.6839 11.6397 12.3728 11.6856 13.0625 11.6875C13.7521 11.6895 14.441 11.6465 15.125 11.5586V13.5953C13.7577 13.8016 12.3673 13.8016 11 13.5953ZM16.5 13.3117V11.3008C17.6086 11.0344 18.5453 10.6305 19.25 10.132V11.3438C19.25 12.0656 18.1844 12.8391 16.5 13.3117Z" fill="url(#paint0_linear_37_46)"/>
<defs>
<linearGradient id="paint0_linear_37_46" x1="10.3125" y1="0" x2="10.3125" y2="15.125" gradientUnits="userSpaceOnUse">
<stop stop-color="#FFF500"/>
<stop offset="1" stop-color="#FFB800"/>
</linearGradient>
</defs>
</svg>
