<svg width="58" height="40" viewBox="0 0 58 40" fill="none" xmlns="http://www.w3.org/2000/svg">
<path fill-rule="evenodd" clip-rule="evenodd" d="M8.45103 37.2174L0 39.0752L48.7866 37.8179L41.0008 35.9539L8.45103 37.2174Z" fill="url(#paint0_radial_9_356)"/>
<path fill-rule="evenodd" clip-rule="evenodd" d="M0 39.0752L0.665186 40L47.942 39.2269L48.7866 37.818L0 39.0752Z" fill="url(#paint1_linear_9_356)"/>
<g style="mix-blend-mode:multiply" opacity="0.3">
<path fill-rule="evenodd" clip-rule="evenodd" d="M41.2753 39.335L41.8919 38.0154L45.1862 37.9219L44.5632 39.2415L41.2753 39.335Z" fill="#540041"/>
</g>
<path fill-rule="evenodd" clip-rule="evenodd" d="M6.71942 3.46011L7.50497 14.4223L40.7453 14.8649L41.3556 3.35413L6.71942 3.46011Z" fill="url(#paint2_linear_9_356)"/>
<g style="mix-blend-mode:multiply" opacity="0.2">
<path fill-rule="evenodd" clip-rule="evenodd" d="M6.71942 3.46011L7.55143 9.76726L40.9818 9.11057L40.8171 13.4809L7.43106 13.3853L6.71942 3.46011Z" fill="#B01734"/>
</g>
<path fill-rule="evenodd" clip-rule="evenodd" d="M9.08242 36.0598L8.09625 13.2959L40.0885 13.1941L39.039 36.1762L9.08242 36.0598Z" fill="url(#paint3_linear_9_356)"/>
<path fill-rule="evenodd" clip-rule="evenodd" d="M8.35178 35.825L8.46792 36.9119H39.3896L39.4698 35.7357L27.4394 36.0598L8.35178 35.825Z" fill="url(#paint4_radial_9_356)"/>
<g style="mix-blend-mode:soft-light">
<path fill-rule="evenodd" clip-rule="evenodd" d="M9.36539 33.8196L13.2932 33.6679L13.2889 35.0249H9.36961L9.36539 33.8196Z" fill="#FF9F57"/>
</g>
<g style="mix-blend-mode:soft-light">
<path fill-rule="evenodd" clip-rule="evenodd" d="M25.4692 32.5457L29.397 32.3961L29.3928 33.751H25.4735L25.4692 32.5457Z" fill="#FF9F57"/>
</g>
<g style="mix-blend-mode:soft-light">
<path fill-rule="evenodd" clip-rule="evenodd" d="M15.8906 35.2078L19.8183 35.0561L19.8162 35.9663L15.8948 35.9185L15.8906 35.2078Z" fill="#FF9F57"/>
</g>
<g style="mix-blend-mode:soft-light">
<path fill-rule="evenodd" clip-rule="evenodd" d="M34.2032 26.0453L38.1289 25.8957L38.1268 27.2506H34.2075L34.2032 26.0453Z" fill="#FF9F57"/>
</g>
<g style="mix-blend-mode:soft-light">
<path fill-rule="evenodd" clip-rule="evenodd" d="M27.6739 19.9668L31.6016 19.8171L31.5974 21.1721H27.6781L27.6739 19.9668Z" fill="#FF9F57"/>
</g>
<g style="mix-blend-mode:soft-light">
<path fill-rule="evenodd" clip-rule="evenodd" d="M10.6303 32.4626L14.5581 32.313L14.5538 33.6679H10.6345L10.6303 32.4626Z" fill="#FF9F57"/>
</g>
<g style="mix-blend-mode:multiply" opacity="0.2">
<path fill-rule="evenodd" clip-rule="evenodd" d="M10.2375 27.9177L14.1632 27.7681L14.1611 29.123H10.2417L10.2375 27.9177Z" fill="#811734"/>
</g>
<g style="mix-blend-mode:multiply" opacity="0.2">
<path fill-rule="evenodd" clip-rule="evenodd" d="M23.3132 33.9963L26.808 33.8612L26.8059 35.0686H23.3174L23.3132 33.9963Z" fill="#811734"/>
</g>
<g style="mix-blend-mode:multiply" opacity="0.2">
<path fill-rule="evenodd" clip-rule="evenodd" d="M11.5616 19.7506L15.0585 19.6155L15.0564 20.8229H11.5658L11.5616 19.7506Z" fill="#811734"/>
</g>
<g style="mix-blend-mode:multiply" opacity="0.2">
<path fill-rule="evenodd" clip-rule="evenodd" d="M25.6846 21.5441L29.1816 21.4111L29.1774 22.6185H25.6889L25.6846 21.5441Z" fill="#811734"/>
</g>
<g style="mix-blend-mode:multiply" opacity="0.2">
<path fill-rule="evenodd" clip-rule="evenodd" d="M35.8461 27.5624L39.4381 27.4252L39.341 28.6368H35.8504L35.8461 27.5624Z" fill="#811734"/>
</g>
<g style="mix-blend-mode:multiply" opacity="0.2">
<path fill-rule="evenodd" clip-rule="evenodd" d="M29.397 21.4859L32.989 21.3487L32.8898 22.5582H29.3991L29.397 21.4859Z" fill="#811734"/>
</g>
<g style="mix-blend-mode:soft-light">
<path fill-rule="evenodd" clip-rule="evenodd" d="M9.43509 26.5732L13.7408 26.6147V27.7286L9.43509 27.7681V26.5732Z" fill="#FFBF57"/>
</g>
<path fill-rule="evenodd" clip-rule="evenodd" d="M10.3473 21.835L7.08475 15.3429H8.09625L10.7844 21.835C10.7584 21.8674 10.7251 21.8937 10.6873 21.9117C10.6494 21.9297 10.6079 21.9391 10.5659 21.9391C10.5238 21.9391 10.4823 21.9297 10.4445 21.9117C10.4066 21.8937 10.3734 21.8674 10.3473 21.835Z" fill="url(#paint5_radial_9_356)"/>
<path fill-rule="evenodd" clip-rule="evenodd" d="M37.4468 21.835L40.6988 15.3429H39.6873L36.9991 21.835C36.9991 21.835 37.2398 22.101 37.4468 21.835Z" fill="url(#paint6_radial_9_356)"/>
<path fill-rule="evenodd" clip-rule="evenodd" d="M12.0916 33.7303L11.8192 21.1263H24.69L24.3923 33.5827L12.0916 33.7303Z" fill="#FFD1B3"/>
<path fill-rule="evenodd" clip-rule="evenodd" d="M12.6174 33.0736L23.7925 32.9572L24.0502 21.7519L12.459 21.756L12.6174 33.0736Z" fill="url(#paint7_radial_9_356)"/>
<path fill-rule="evenodd" clip-rule="evenodd" d="M24.69 21.1263H24.9012L24.69 33.5827H24.3923L24.69 21.1263Z" fill="#FF8D90"/>
<path fill-rule="evenodd" clip-rule="evenodd" d="M12.6174 33.0736L12.459 21.756L12.7378 21.7519V33.0736H12.6174Z" fill="#FF8D90"/>
<path fill-rule="evenodd" clip-rule="evenodd" d="M27.4331 36.8454L27.5281 23.7136L36.165 23.8279L35.523 36.9119L27.4331 36.8454Z" fill="#FFD1B3"/>
<path fill-rule="evenodd" clip-rule="evenodd" d="M28.0328 36.9119L28.263 24.4327H35.4998L34.936 36.9119H28.0328Z" fill="url(#paint8_linear_9_356)"/>
<path fill-rule="evenodd" clip-rule="evenodd" d="M35.4998 24.4327H35.1894L34.6889 36.9098L34.936 36.9119L35.4998 24.4327Z" fill="#FF8D90"/>
<path fill-rule="evenodd" clip-rule="evenodd" d="M28.8606 34.3911V25.054H34.6953L34.1927 34.3911H28.8606Z" fill="url(#paint9_radial_9_356)"/>
<g style="mix-blend-mode:multiply" opacity="0.5">
<path fill-rule="evenodd" clip-rule="evenodd" d="M39.6219 23.4081L39.9344 16.569L8.27576 17.4397L8.49537 22.5145L39.6219 23.4081Z" fill="#811734"/>
</g>
<path fill-rule="evenodd" clip-rule="evenodd" d="M8.71288 12.4189L8.46793 11.0391H39.6071L39.2143 12.2444L8.71288 12.4189Z" fill="url(#paint10_radial_9_356)"/>
<path fill-rule="evenodd" clip-rule="evenodd" d="M7.35296 19.3142C6.89328 19.2994 6.45464 19.1212 6.11836 18.8124C5.78209 18.5036 5.57099 18.0853 5.52422 17.6351L5.27927 15.0083H8.68544L8.89661 17.6351C8.91983 17.8476 8.89713 18.0627 8.82999 18.266C8.76285 18.4693 8.6528 18.6564 8.50704 18.815C8.36128 18.9735 8.18312 19.1 7.98423 19.186C7.78534 19.272 7.57021 19.3157 7.35296 19.3142Z" fill="url(#paint11_radial_9_356)"/>
<path fill-rule="evenodd" clip-rule="evenodd" d="M10.6873 19.3142C10.2299 19.3022 9.79321 19.124 9.46139 18.814C9.12956 18.5039 8.92612 18.084 8.89028 17.6351L8.67911 15.0083H12.098L12.2479 17.6351C12.2663 17.8481 12.2396 18.0625 12.1696 18.2649C12.0996 18.4672 11.9878 18.6531 11.8412 18.8109C11.6946 18.9686 11.5164 19.0948 11.3178 19.1814C11.1192 19.268 10.9046 19.3132 10.6873 19.3142Z" fill="url(#paint12_radial_9_356)"/>
<path fill-rule="evenodd" clip-rule="evenodd" d="M14.0217 19.3142C13.5655 19.3055 13.1294 19.1278 12.8006 18.8165C12.4718 18.5052 12.2744 18.0833 12.2479 17.6351L12.0916 15.0083H15.5083L15.6266 17.6351C15.6402 17.8506 15.6087 18.0667 15.5342 18.2698C15.4596 18.473 15.3436 18.6589 15.1932 18.8163C15.0428 18.9736 14.8613 19.0989 14.6598 19.1846C14.4584 19.2702 14.2412 19.3143 14.0217 19.3142Z" fill="url(#paint13_radial_9_356)"/>
<path fill-rule="evenodd" clip-rule="evenodd" d="M17.3561 19.3142C16.9047 19.3039 16.4743 19.1244 16.1528 18.8123C15.8314 18.5002 15.6432 18.0791 15.6266 17.6351L15.5168 15.0083H18.9208L18.9821 17.6351C18.9912 17.8513 18.9559 18.0672 18.8784 18.2697C18.8009 18.4723 18.6828 18.6574 18.5311 18.8141C18.3794 18.9708 18.1971 19.0958 17.9953 19.1818C17.7934 19.2677 17.576 19.3127 17.3561 19.3142Z" fill="url(#paint14_radial_9_356)"/>
<path fill-rule="evenodd" clip-rule="evenodd" d="M20.6947 19.3142C20.2445 19.3067 19.8149 19.1274 19.4966 18.8141C19.1782 18.5008 18.996 18.0781 18.9884 17.6351L18.9208 15.0083H22.3312L22.346 17.6351C22.3502 17.8522 22.3108 18.068 22.2299 18.27C22.1491 18.4721 22.0285 18.6564 21.875 18.8125C21.7216 18.9685 21.5383 19.0932 21.3357 19.1793C21.1332 19.2654 20.9153 19.3112 20.6947 19.3142Z" fill="url(#paint15_radial_9_356)"/>
<path fill-rule="evenodd" clip-rule="evenodd" d="M24.0227 19.3142C23.8005 19.3126 23.5808 19.2678 23.3762 19.1825C23.1716 19.0972 22.9861 18.973 22.8303 18.817C22.6746 18.661 22.5516 18.4763 22.4685 18.2735C22.3854 18.0707 22.3438 17.8537 22.346 17.6351L22.3312 15.0083H25.7437L25.7121 17.6351C25.7105 18.077 25.5325 18.5007 25.2165 18.8148C24.9005 19.1289 24.4718 19.3082 24.0227 19.3142Z" fill="url(#paint16_radial_9_356)"/>
<path fill-rule="evenodd" clip-rule="evenodd" d="M27.3571 19.3142C27.1365 19.3121 26.9185 19.2667 26.7159 19.1808C26.5133 19.095 26.3301 18.9702 26.177 18.8139C26.0239 18.6576 25.9039 18.4729 25.8241 18.2705C25.7443 18.0681 25.7062 17.8521 25.7121 17.6351L25.7438 15.0083H29.1542L29.076 17.6351C29.0647 18.079 28.8795 18.5015 28.5592 18.8144C28.239 19.1272 27.8083 19.3063 27.3571 19.3142Z" fill="url(#paint17_radial_9_356)"/>
<path fill-rule="evenodd" clip-rule="evenodd" d="M30.6915 19.3142C30.472 19.3128 30.2551 19.2677 30.0538 19.1816C29.8525 19.0956 29.6709 18.9704 29.52 18.8136C29.3691 18.6567 29.252 18.4715 29.1757 18.2689C29.0994 18.0664 29.0655 17.8508 29.076 17.6351L29.1542 15.0083H32.5667L32.44 17.6351C32.4192 18.081 32.2271 18.5024 31.9024 18.8142C31.5778 19.1259 31.145 19.3047 30.6915 19.3142Z" fill="url(#paint18_radial_9_356)"/>
<path fill-rule="evenodd" clip-rule="evenodd" d="M34.0259 19.3142C33.8074 19.3136 33.5915 19.2688 33.3914 19.1827C33.1913 19.0965 33.0113 18.9708 32.8626 18.8134C32.7139 18.6559 32.5996 18.4701 32.5269 18.2674C32.4542 18.0647 32.4246 17.8495 32.44 17.6351L32.5667 15.0083H35.9771L35.8039 17.6351C35.774 18.0829 35.575 18.5034 35.246 18.8142C34.9169 19.1249 34.4817 19.3032 34.0259 19.3142Z" fill="url(#paint19_radial_9_356)"/>
<path fill-rule="evenodd" clip-rule="evenodd" d="M37.3602 19.3142C37.1429 19.3142 36.9279 19.2697 36.7291 19.1833C36.5303 19.097 36.3519 18.9707 36.2054 18.8127C36.059 18.6547 35.9476 18.4683 35.8785 18.2656C35.8093 18.0628 35.7839 17.848 35.8039 17.6351L35.9771 15.0083H39.3896L39.1679 17.6351C39.1291 18.0847 38.9233 18.5045 38.5898 18.8143C38.2564 19.124 37.8186 19.302 37.3602 19.3142Z" fill="url(#paint20_radial_9_356)"/>
<path fill-rule="evenodd" clip-rule="evenodd" d="M40.6946 19.3142C40.4783 19.315 40.2642 19.2707 40.0666 19.1842C39.8689 19.0977 39.6921 18.9709 39.5478 18.8122C39.4036 18.6536 39.2951 18.4666 39.2296 18.2637C39.1641 18.0608 39.1431 17.8466 39.1678 17.6351L39.3896 15.0083H42.8L42.5339 17.6351C42.4869 18.0871 42.2743 18.5067 41.9358 18.8157C41.5973 19.1247 41.1561 19.3019 40.6946 19.3142Z" fill="url(#paint21_radial_9_356)"/>
<path fill-rule="evenodd" clip-rule="evenodd" d="M8.71289 12.4189L5.27927 15.0083C19.1658 15.7855 28.5692 15.8167 42.8042 15.0083L39.2143 12.2444L8.71289 12.4189Z" fill="url(#paint22_radial_9_356)"/>
<path d="M13.3101 12.394H8.70023V15.3429H13.3101V12.394Z" fill="#F9C78C"/>
<path fill-rule="evenodd" clip-rule="evenodd" d="M13.5212 14.867V15.5507H8.48904V12.1862H13.5212V14.867Z" fill="#F9C78C"/>
<path fill-rule="evenodd" clip-rule="evenodd" d="M13.5212 14.8628V15.5507H8.48904V12.1862H13.5212V14.8628Z" fill="#F9C88D"/>
<path fill-rule="evenodd" clip-rule="evenodd" d="M13.5212 14.8587V15.5507H8.48904V12.1862H13.5212V14.8587Z" fill="#F9C88E"/>
<path fill-rule="evenodd" clip-rule="evenodd" d="M13.5212 14.8545V15.5507H8.48904V12.1862H13.5212V14.8545Z" fill="#F9C98F"/>
<path fill-rule="evenodd" clip-rule="evenodd" d="M13.5212 14.8504V15.5507H8.48904V12.1862H13.5212V14.8504Z" fill="#F9CA90"/>
<path fill-rule="evenodd" clip-rule="evenodd" d="M13.5212 14.8462V15.5507H8.48904V12.1862H13.5212V14.8462Z" fill="#FACB91"/>
<path fill-rule="evenodd" clip-rule="evenodd" d="M13.5212 14.8421V15.5507H8.48904V12.1862H13.5212V14.8421Z" fill="#FACB92"/>
<path fill-rule="evenodd" clip-rule="evenodd" d="M13.5212 14.8379V15.5507H8.48904V12.1862H13.5212V14.8379Z" fill="#FACC93"/>
<path fill-rule="evenodd" clip-rule="evenodd" d="M13.5212 14.8337V15.5507H8.48904V12.1862H13.5212V14.8337Z" fill="#FACD94"/>
<path fill-rule="evenodd" clip-rule="evenodd" d="M13.5212 14.8296V15.5507H8.48904V12.1862H13.5212V14.8296Z" fill="#FACE95"/>
<path fill-rule="evenodd" clip-rule="evenodd" d="M13.5212 14.8254V15.5507H8.48904V12.1862H13.5212V14.8254Z" fill="#FACE96"/>
<path fill-rule="evenodd" clip-rule="evenodd" d="M13.5212 14.8213V15.5507H8.48904V12.1862H13.5212V14.8213Z" fill="#FACF97"/>
<path fill-rule="evenodd" clip-rule="evenodd" d="M13.5212 14.8171V15.5507H8.48904V12.1862H13.5212V14.8171Z" fill="#FAD098"/>
<path fill-rule="evenodd" clip-rule="evenodd" d="M13.5212 14.813V15.5507H8.48904V12.1862H13.5212V14.813Z" fill="#FBD099"/>
<path fill-rule="evenodd" clip-rule="evenodd" d="M13.5212 14.8088V15.5507H8.48904V12.1862H13.5212V14.8088Z" fill="#FBD19A"/>
<path fill-rule="evenodd" clip-rule="evenodd" d="M13.5212 14.8046V15.5507H8.48904V12.1862H13.5212V14.8046Z" fill="#FBD29B"/>
<path fill-rule="evenodd" clip-rule="evenodd" d="M13.5212 14.8005V15.5507H8.48904V12.1862H13.5212V14.8005Z" fill="#FBD39C"/>
<path fill-rule="evenodd" clip-rule="evenodd" d="M13.5149 14.7963V15.5507H8.50805V17.0054C8.09066 15.3662 8.10666 13.6492 8.5545 12.0179V12.1799H13.5149V14.7963Z" fill="#FBD39D"/>
<path fill-rule="evenodd" clip-rule="evenodd" d="M13.5149 14.7922V15.5507H8.95362V16.9347C8.55 15.3453 8.56526 13.6809 8.99796 12.0989V12.1862H13.5149V14.7922Z" fill="#FBD49E"/>
<path fill-rule="evenodd" clip-rule="evenodd" d="M13.5149 14.788V15.5507H9.39918V16.8662C9.20361 16.0985 9.10852 15.3093 9.11622 14.5179C9.12453 13.7262 9.23378 12.9386 9.44142 12.1737V12.1862H13.5149V14.788Z" fill="#FBD59F"/>
<path fill-rule="evenodd" clip-rule="evenodd" d="M13.5149 14.7839V15.5507H9.84476V16.7976C9.37349 14.9256 9.51691 12.9547 10.2544 11.1679V12.1841H13.5149V14.7839Z" fill="#FBD6A0"/>
<path fill-rule="evenodd" clip-rule="evenodd" d="M13.5149 14.7797V15.5507H10.2882V16.7332C9.83153 14.919 9.97127 13.0091 10.6873 11.278V12.1862H13.5149V14.7797Z" fill="#FBD6A1"/>
<path fill-rule="evenodd" clip-rule="evenodd" d="M13.5149 14.7755V15.5507H10.7338V16.6667C10.3782 15.2638 10.3905 13.795 10.7697 12.3982C10.8644 12.0552 10.9793 11.718 11.1139 11.3882V12.1862H13.5149V14.7755Z" fill="#FCD7A2"/>
<path fill-rule="evenodd" clip-rule="evenodd" d="M13.5149 14.7714V15.5507H11.1794V16.5898C11.0075 15.9152 10.9245 15.2216 10.9323 14.5262C10.9384 13.8313 11.0342 13.14 11.2174 12.4688C11.3089 12.137 11.4203 11.8109 11.551 11.4921V12.182H13.5149V14.7714Z" fill="#FCD8A3"/>
<path fill-rule="evenodd" clip-rule="evenodd" d="M13.5149 14.7672V15.5507H11.6144V16.5316C11.2834 15.2227 11.2965 13.8524 11.6524 12.5499C11.7393 12.2284 11.8465 11.9126 11.9734 11.6043V12.1862H13.5149V14.7672Z" fill="#FCD8A4"/>
<path fill-rule="evenodd" clip-rule="evenodd" d="M13.5149 14.7548V15.5424H12.0705V16.4568C11.9111 15.8324 11.8331 15.1907 11.8382 14.547C11.8542 13.2508 12.1974 11.979 12.837 10.8458V12.1904H13.5149V14.7548Z" fill="#FCD9A5"/>
<path fill-rule="evenodd" clip-rule="evenodd" d="M13.5149 14.7548V15.5465H12.5161V16.3965C12.3627 15.7917 12.2875 15.1703 12.2922 14.5469C12.3084 13.2991 12.6385 12.0746 13.2531 10.9829V12.1862H13.5149V14.7548Z" fill="#FCDAA7"/>
<path fill-rule="evenodd" clip-rule="evenodd" d="M13.5149 14.7548V15.5507H12.9616V16.33C12.8146 15.7483 12.7436 15.1505 12.7504 14.5511C12.7652 13.351 13.0831 12.1734 13.6754 11.1243L13.5149 12.1862V14.7548Z" fill="#FCDBA8"/>
<path fill-rule="evenodd" clip-rule="evenodd" d="M13.5149 14.7548V15.5549H13.3987V16.2677C13.2559 15.7092 13.185 15.1353 13.1876 14.5594C13.2017 13.4075 13.5065 12.2771 14.0745 11.2697L13.5149 12.1862V14.7548Z" fill="#FCDBA9"/>
<path d="M19.1595 12.3607H15.5273V15.5528H19.1595V12.3607Z" fill="#F9C78C"/>
<path fill-rule="evenodd" clip-rule="evenodd" d="M19.3727 15.027V15.7585H15.3162V12.153H19.3727V15.027Z" fill="#F9C78C"/>
<path fill-rule="evenodd" clip-rule="evenodd" d="M19.3727 15.0229V15.7585H15.3162V12.153H19.3727V15.0229Z" fill="#F9C88D"/>
<path fill-rule="evenodd" clip-rule="evenodd" d="M19.3727 15.0187V15.7585H15.3162V12.153H19.3727V15.0187Z" fill="#F9C88E"/>
<path fill-rule="evenodd" clip-rule="evenodd" d="M19.3727 15.0146V15.7585H15.3162V12.153H19.3727V15.0146Z" fill="#F9C98F"/>
<path fill-rule="evenodd" clip-rule="evenodd" d="M19.3727 15.0104V15.7585H15.3162V12.153H19.3727V15.0104Z" fill="#F9CA90"/>
<path fill-rule="evenodd" clip-rule="evenodd" d="M19.3727 15.0083V15.7585H15.3162V12.153H19.3727V15.0083Z" fill="#FACB91"/>
<path fill-rule="evenodd" clip-rule="evenodd" d="M19.3727 15.0021V15.7585H15.3162V12.153H19.3727V15.0021Z" fill="#FACB92"/>
<path fill-rule="evenodd" clip-rule="evenodd" d="M19.3727 15V15.7585H15.3162V12.153H19.3727V15Z" fill="#FACC93"/>
<path fill-rule="evenodd" clip-rule="evenodd" d="M19.3727 14.9959V15.7585H15.3162V12.153H19.3727V14.9959Z" fill="#FACD94"/>
<path fill-rule="evenodd" clip-rule="evenodd" d="M19.3727 14.9917V15.7585H15.3162V12.153H19.3727V14.9917Z" fill="#FACE95"/>
<path fill-rule="evenodd" clip-rule="evenodd" d="M19.3727 14.9875V15.7585H15.3162V12.153H19.3727V14.9875Z" fill="#FACE96"/>
<path fill-rule="evenodd" clip-rule="evenodd" d="M19.3727 14.9834V15.7585H15.3162V12.153H19.3727V14.9834Z" fill="#FACF97"/>
<path fill-rule="evenodd" clip-rule="evenodd" d="M19.3727 14.9792V15.7585H15.3162V12.153H19.3727V14.9792Z" fill="#FAD098"/>
<path fill-rule="evenodd" clip-rule="evenodd" d="M19.3727 14.9751V15.7585H15.3162V12.153H19.3727V14.9751Z" fill="#FBD099"/>
<path fill-rule="evenodd" clip-rule="evenodd" d="M19.3727 14.9709V15.7585H15.3162V12.153H19.3727V14.9709Z" fill="#FBD19A"/>
<path fill-rule="evenodd" clip-rule="evenodd" d="M19.3727 14.9668V15.7585H15.3162V12.153H19.3727V14.9668Z" fill="#FBD29B"/>
<path fill-rule="evenodd" clip-rule="evenodd" d="M19.3727 14.9626V15.7585H15.3162V12.153H19.3727V14.9626Z" fill="#FBD39C"/>
<path fill-rule="evenodd" clip-rule="evenodd" d="M19.3727 14.9584V15.7585H15.3162V12.153H19.3727V14.9584Z" fill="#FBD39D"/>
<path fill-rule="evenodd" clip-rule="evenodd" d="M19.3727 14.9543V15.7585H15.3162V12.153H19.3727V14.9543Z" fill="#FBD49E"/>
<path fill-rule="evenodd" clip-rule="evenodd" d="M19.3727 14.9501V15.7585H15.3162V12.153H19.3727V14.9501Z" fill="#FBD59F"/>
<path fill-rule="evenodd" clip-rule="evenodd" d="M19.3727 14.946V15.7585H15.3162V12.153H19.3727V14.946Z" fill="#FBD6A0"/>
<path fill-rule="evenodd" clip-rule="evenodd" d="M19.3727 14.9418V15.7585H15.3162V12.153H19.3727V14.9418Z" fill="#FBD6A1"/>
<path fill-rule="evenodd" clip-rule="evenodd" d="M19.3727 14.9377V15.7585H15.3162V12.153H19.3727V14.9377Z" fill="#FCD7A2"/>
<path fill-rule="evenodd" clip-rule="evenodd" d="M19.3727 14.9335V15.7585H15.3162V12.153H19.3727V14.9335Z" fill="#FCD8A3"/>
<path fill-rule="evenodd" clip-rule="evenodd" d="M19.3727 14.9293V15.7585H15.3162V12.153H19.3727V14.9293Z" fill="#FCD8A4"/>
<path fill-rule="evenodd" clip-rule="evenodd" d="M19.3727 14.9252V15.7585H15.3162V12.153H19.3727V14.9252Z" fill="#FCD9A5"/>
<path fill-rule="evenodd" clip-rule="evenodd" d="M19.3727 14.921V15.7585H15.3162V12.153H19.3727V14.921Z" fill="#FCDAA7"/>
<path fill-rule="evenodd" clip-rule="evenodd" d="M19.3727 14.9169V15.7585H15.3162V12.153H19.3727V14.9169Z" fill="#FCDBA8"/>
<path fill-rule="evenodd" clip-rule="evenodd" d="M19.3727 14.9127V15.7585H15.3162V12.153H19.3727V14.9127Z" fill="#FCDBA9"/>
<path fill-rule="evenodd" clip-rule="evenodd" d="M19.3727 14.9086V15.7585H15.3162V12.153H19.3727V14.9086Z" fill="#FCDCAA"/>
<path fill-rule="evenodd" clip-rule="evenodd" d="M19.3727 14.9044V15.7585H15.3162V12.153H19.3727V14.9044Z" fill="#FDDDAB"/>
<path fill-rule="evenodd" clip-rule="evenodd" d="M19.3727 14.9002V15.7585H15.3162V14.7194H14.5707C14.5798 13.7136 14.8433 12.7259 15.3373 11.8454V12.1509H19.3727V14.9002Z" fill="#FDDDAC"/>
<path fill-rule="evenodd" clip-rule="evenodd" d="M19.3727 14.8961V15.7585H15.3162V14.7319H15.0142C15.0259 13.7714 15.2799 12.8288 15.7533 11.9888V12.1529H19.3727V14.8961Z" fill="#FDDEAD"/>
<path fill-rule="evenodd" clip-rule="evenodd" d="M19.3727 14.8919V15.7585H15.6266V16.091C15.2881 14.7511 15.4815 13.3346 16.1672 12.1301V12.153H19.3727V14.8919Z" fill="#FDDFAE"/>
<path fill-rule="evenodd" clip-rule="evenodd" d="M19.3728 14.8878V15.7585H16.0764V16.0225C15.9696 15.6033 15.9178 15.1724 15.9222 14.7402C15.933 13.8758 16.1615 13.0275 16.5874 12.2714C16.8028 11.8883 17.059 11.5288 17.3519 11.1991V12.153H19.3728V14.8878Z" fill="#FDE0AF"/>
<path fill-rule="evenodd" clip-rule="evenodd" d="M19.3728 14.8836V15.7585H16.9612V17.0865C16.5697 16.3663 16.3685 15.5607 16.3763 14.744C16.384 13.9273 16.6004 13.1256 17.0055 12.4127C17.2118 12.0496 17.4575 11.7096 17.7383 11.3986V12.153H19.3833L19.3728 14.8836Z" fill="#FDE0B0"/>
<path fill-rule="evenodd" clip-rule="evenodd" d="M19.3728 14.8795V15.7585H17.3814V16.9534C17.0165 16.2764 16.8272 15.5212 16.8303 14.7548C16.845 13.1941 17.6749 11.7893 18.9969 10.7772V12.1592H19.3728V14.8795Z" fill="#FDE1B1"/>
<path fill-rule="evenodd" clip-rule="evenodd" d="M19.3728 14.8753V15.7585H17.8017V16.8204C17.4555 16.1812 17.2783 15.4666 17.2864 14.7423C17.2991 13.2876 18.0741 11.9618 19.3157 11.0141V12.1426H19.3728V14.8753Z" fill="#FDE2B2"/>
<path fill-rule="evenodd" clip-rule="evenodd" d="M19.3728 14.8711V15.7585H18.2219V16.6854C17.9002 16.0914 17.734 15.4278 17.7383 14.7548C17.751 13.3894 18.4732 12.1592 19.6388 11.276L19.377 12.1509L19.3728 14.8711Z" fill="#FDE3B3"/>
<path fill-rule="evenodd" clip-rule="evenodd" d="M19.3728 14.867V15.7585H18.6421V16.5524C18.3422 15.9995 18.1883 15.3814 18.1944 14.7548C18.1944 13.4871 18.8765 12.3441 19.9535 11.5233L19.3728 12.1467V14.867Z" fill="#FEE3B4"/>
<path fill-rule="evenodd" clip-rule="evenodd" d="M19.3727 14.8628V15.7585H19.0602V16.4173C18.781 15.9063 18.6358 15.3349 18.6379 14.7548C18.6379 13.5848 19.2714 12.5291 20.2618 11.7726L19.3622 12.1426L19.3727 14.8628Z" fill="#FEE4B5"/>
<path fill-rule="evenodd" clip-rule="evenodd" d="M19.3727 14.8587V15.7585L19.4804 16.2843C19.2298 15.8175 19.1 15.2972 19.1025 14.7693C19.113 13.697 19.6811 12.7307 20.5912 12.0345L19.3727 12.1529V14.8587Z" fill="#FEE5B6"/>
<path d="M25.71 12.3629H22.2447V15.6027H25.71V12.3629Z" fill="#F9C78C"/>
<path fill-rule="evenodd" clip-rule="evenodd" d="M25.9232 15.0727V15.8105H22.0335V12.155H25.9232V15.0727Z" fill="#F9C78C"/>
<path fill-rule="evenodd" clip-rule="evenodd" d="M25.9232 15.0686V15.8105H22.0335V12.155H25.9232V15.0686Z" fill="#F9C88D"/>
<path fill-rule="evenodd" clip-rule="evenodd" d="M25.9232 15.0644V15.8105H22.0335V12.155H25.9232V15.0644Z" fill="#F9C88E"/>
<path fill-rule="evenodd" clip-rule="evenodd" d="M25.9232 15.0603V15.8105H22.0335V12.155H25.9232V15.0603Z" fill="#F9C98F"/>
<path fill-rule="evenodd" clip-rule="evenodd" d="M25.9232 15.0561V15.8105H22.0335V12.155H25.9232V15.0561Z" fill="#F9CA90"/>
<path fill-rule="evenodd" clip-rule="evenodd" d="M25.9232 15.052V15.8105H22.0335V12.155H25.9232V15.052Z" fill="#FACB91"/>
<path fill-rule="evenodd" clip-rule="evenodd" d="M25.9232 15.0478V15.8105H22.0335V12.155H25.9232V15.0478Z" fill="#FACB92"/>
<path fill-rule="evenodd" clip-rule="evenodd" d="M25.9232 15.0436V15.8105H22.0335V12.155H25.9232V15.0436Z" fill="#FACC93"/>
<path fill-rule="evenodd" clip-rule="evenodd" d="M25.9232 15.0395V15.8105H22.0335V12.155H25.9232V15.0395Z" fill="#FACD94"/>
<path fill-rule="evenodd" clip-rule="evenodd" d="M25.9232 15.0353V15.8105H22.0335V12.155H25.9232V15.0353Z" fill="#FACE95"/>
<path fill-rule="evenodd" clip-rule="evenodd" d="M25.9232 15.0312V15.8105H22.0335V12.155H25.9232V15.0312Z" fill="#FACE96"/>
<path fill-rule="evenodd" clip-rule="evenodd" d="M25.9232 15.027V15.8105H22.0335V12.155H25.9232V15.027Z" fill="#FACF97"/>
<path fill-rule="evenodd" clip-rule="evenodd" d="M25.9232 15.0229V15.8105H22.0335V12.155H25.9232V15.0229Z" fill="#FAD098"/>
<path fill-rule="evenodd" clip-rule="evenodd" d="M25.9232 15.0187V15.8105H22.0335V12.155H25.9232V15.0187Z" fill="#FBD099"/>
<path fill-rule="evenodd" clip-rule="evenodd" d="M25.9232 15.0145V15.8105H22.0335V12.155H25.9232V15.0145Z" fill="#FBD19A"/>
<path fill-rule="evenodd" clip-rule="evenodd" d="M25.9232 15.0104V15.8105H22.0335V12.155H25.9232V15.0104Z" fill="#FBD29B"/>
<path fill-rule="evenodd" clip-rule="evenodd" d="M25.9232 15.0062V15.8105H22.0335V12.155H25.9232V15.0062Z" fill="#FBD39C"/>
<path fill-rule="evenodd" clip-rule="evenodd" d="M25.9232 15.0021V15.8105H22.0335V12.155H25.9232V15.0021Z" fill="#FBD39D"/>
<path fill-rule="evenodd" clip-rule="evenodd" d="M25.9232 14.9979V15.8105H22.0335V12.155H25.9232V14.9979Z" fill="#FBD49E"/>
<path fill-rule="evenodd" clip-rule="evenodd" d="M25.9232 14.9917V15.8105H22.0335V12.155H25.9232V14.9917Z" fill="#FBD59F"/>
<path fill-rule="evenodd" clip-rule="evenodd" d="M25.9232 14.9896V15.8105H22.0335V12.155H25.9232V14.9896Z" fill="#FBD6A0"/>
<path fill-rule="evenodd" clip-rule="evenodd" d="M25.9232 14.9855V15.8105H22.0335V12.155H25.9232V14.9855Z" fill="#FBD6A1"/>
<path fill-rule="evenodd" clip-rule="evenodd" d="M25.9232 14.9792V15.8105H22.0335V12.155H25.9232V14.9792Z" fill="#FCD7A2"/>
<path fill-rule="evenodd" clip-rule="evenodd" d="M25.9232 14.9751V15.8105H22.0335V12.155H25.9232V14.9751Z" fill="#FCD8A3"/>
<path fill-rule="evenodd" clip-rule="evenodd" d="M25.9232 14.9709V15.8105H22.0335V12.155H25.9232V14.9709Z" fill="#FCD8A4"/>
<path fill-rule="evenodd" clip-rule="evenodd" d="M25.9232 14.9667V15.8105H22.0335V12.155H25.9232V14.9667Z" fill="#FCD9A5"/>
<path fill-rule="evenodd" clip-rule="evenodd" d="M25.9232 14.9626V15.8105H22.0335V12.155H25.9232V14.9626Z" fill="#FCDAA7"/>
<path fill-rule="evenodd" clip-rule="evenodd" d="M25.9232 14.9584V15.8105H22.0335V12.155H25.9232V14.9584Z" fill="#FCDBA8"/>
<path fill-rule="evenodd" clip-rule="evenodd" d="M25.9232 14.9543V15.8105H22.0335V12.155H25.9232V14.9543Z" fill="#FCDBA9"/>
<path fill-rule="evenodd" clip-rule="evenodd" d="M25.9232 14.9501V15.8105H22.0335V12.155H25.9232V14.9501Z" fill="#FCDCAA"/>
<path fill-rule="evenodd" clip-rule="evenodd" d="M25.9232 14.946V15.8105H22.0335V12.155H25.9232V14.946Z" fill="#FDDDAB"/>
<path fill-rule="evenodd" clip-rule="evenodd" d="M25.9232 14.9418V15.8105H22.0335V12.155H25.9232V14.9418Z" fill="#FDDDAC"/>
<path fill-rule="evenodd" clip-rule="evenodd" d="M25.9232 14.9377V15.8105H22.0335V12.155H25.9232V14.9377Z" fill="#FDDEAD"/>
<path fill-rule="evenodd" clip-rule="evenodd" d="M25.9232 14.9335V15.8105H22.0335V12.155H25.9232V14.9335Z" fill="#FDDFAE"/>
<path fill-rule="evenodd" clip-rule="evenodd" d="M25.9232 14.9293V15.8105H22.0335V12.155H25.9232V14.9293Z" fill="#FDE0AF"/>
<path fill-rule="evenodd" clip-rule="evenodd" d="M25.9232 14.9252V15.8105H22.0335V12.155H25.9232V14.9252Z" fill="#FDE0B0"/>
<path fill-rule="evenodd" clip-rule="evenodd" d="M25.9232 14.921V15.8105H22.0335V12.155H25.9232V14.921Z" fill="#FDE1B1"/>
<path fill-rule="evenodd" clip-rule="evenodd" d="M25.9232 14.9169V15.8105H22.0335V12.155H25.9232V14.9169Z" fill="#FDE2B2"/>
<path fill-rule="evenodd" clip-rule="evenodd" d="M25.9232 14.9127V15.8105H22.0335V12.155H25.9232V14.9127Z" fill="#FDE3B3"/>
<path fill-rule="evenodd" clip-rule="evenodd" d="M25.9232 14.9086V15.8105H22.0335V12.155H25.9232V14.9086Z" fill="#FEE3B4"/>
<path fill-rule="evenodd" clip-rule="evenodd" d="M25.9232 14.9044V15.8105H22.0335V12.155H25.9232V14.9044Z" fill="#FEE4B5"/>
<path fill-rule="evenodd" clip-rule="evenodd" d="M25.9232 14.9002V15.8105H22.0335V12.155H25.9232V14.9002Z" fill="#FEE5B6"/>
<path fill-rule="evenodd" clip-rule="evenodd" d="M25.9232 14.8961V15.8105H22.0335V12.261H20.8383C21.7902 11.5611 22.953 11.1952 24.141 11.2219V12.1446H25.9232V14.8961Z" fill="#FEE5B7"/>
<path fill-rule="evenodd" clip-rule="evenodd" d="M25.9232 14.8919V15.8105H22.0335V12.5208H21.1635C22.0295 11.9089 23.0711 11.5843 24.1373 11.594C25.2034 11.6037 26.2387 11.9472 27.0931 12.5748H25.9232V14.8919Z" fill="#FEE6B8"/>
<path fill-rule="evenodd" clip-rule="evenodd" d="M25.9232 14.8878V15.8105H22.0335V12.7806H21.4908C22.2612 12.2341 23.1888 11.944 24.1384 11.9526C25.088 11.9612 26.01 12.268 26.77 12.8284H25.9254L25.9232 14.8878Z" fill="#FEE7B9"/>
<path fill-rule="evenodd" clip-rule="evenodd" d="M25.9232 14.8836V15.8105H22.0335V14.8234H20.8467C20.8594 13.4248 22.3249 12.3026 24.1304 12.3171C25.9359 12.3317 27.3824 13.483 27.3698 14.8836H25.9232Z" fill="#FEE8BA"/>
<path fill-rule="evenodd" clip-rule="evenodd" d="M26.9031 14.8795C26.8925 16.0785 25.636 17.0407 24.0882 17.0262C22.5403 17.0116 21.3007 16.0287 21.3134 14.8275C21.3261 13.6263 22.5952 12.6766 24.1283 12.6766C25.6614 12.6766 26.9136 13.6783 26.9031 14.8795Z" fill="#FEE8BB"/>
<path fill-rule="evenodd" clip-rule="evenodd" d="M26.4364 14.8753C26.4364 15.8749 25.3805 16.677 24.0903 16.6646C22.8 16.6521 21.7674 15.8333 21.7674 14.8317C21.7674 13.83 22.8232 13.0299 24.1135 13.0424C25.4037 13.0548 26.4469 13.8736 26.4364 14.8753Z" fill="#FFE9BC"/>
<path fill-rule="evenodd" clip-rule="evenodd" d="M25.9739 14.8712C25.9739 15.6712 25.1292 16.3113 24.0966 16.303C23.064 16.2947 22.2383 15.638 22.2468 14.8483C22.2552 14.0586 23.0914 13.4061 24.1241 13.4144C25.1567 13.4227 25.9739 14.0711 25.9739 14.8712Z" fill="#FFEABD"/>
<path fill-rule="evenodd" clip-rule="evenodd" d="M25.5051 14.867C25.5051 15.4655 24.8716 15.9476 24.0966 15.9414C23.3216 15.9352 22.705 15.4406 22.7092 14.8421C22.7134 14.2435 23.3427 13.7593 24.1177 13.7677C24.8927 13.776 25.5115 14.2664 25.5051 14.867Z" fill="#FFEBBE"/>
<path fill-rule="evenodd" clip-rule="evenodd" d="M25.0384 14.8628C25.0384 15.2618 24.6161 15.5819 24.1008 15.5777C23.5856 15.5736 23.1717 15.2452 23.1759 14.8462C23.1801 14.4472 23.5982 14.1251 24.1135 14.1293C24.6288 14.1334 25.0427 14.4618 25.0384 14.8628Z" fill="#FFEBBF"/>
<path fill-rule="evenodd" clip-rule="evenodd" d="M24.5738 14.8587C24.5953 14.9538 24.5862 15.0531 24.5478 15.1429C24.5093 15.2326 24.4435 15.3084 24.3594 15.3597C24.2752 15.411 24.1769 15.4353 24.0782 15.4293C23.9794 15.4232 23.8849 15.387 23.808 15.3258C23.731 15.2646 23.6752 15.1813 23.6485 15.0875C23.6217 14.9937 23.6252 14.8941 23.6586 14.8024C23.6919 14.7106 23.7534 14.6314 23.8345 14.5756C23.9157 14.5198 24.0124 14.4902 24.1114 14.4909C24.2222 14.4798 24.3329 14.5122 24.4195 14.5811C24.5062 14.65 24.5616 14.7498 24.5738 14.8587Z" fill="#FFECC0"/>
<path d="M32.5688 12.2901H28.3221V15.5528H32.5688V12.2901Z" fill="#F9C78C"/>
<path fill-rule="evenodd" clip-rule="evenodd" d="M32.7799 15.0333V15.7627H28.1131V12.0823H32.7799V15.0333Z" fill="#F9C78C"/>
<path fill-rule="evenodd" clip-rule="evenodd" d="M32.7799 15.0291V15.7627H28.1131V12.0823H32.7799V15.0291Z" fill="#F9C88D"/>
<path fill-rule="evenodd" clip-rule="evenodd" d="M32.7799 15.0249V15.7627H28.1131V12.0823H32.7799V15.0249Z" fill="#F9C88E"/>
<path fill-rule="evenodd" clip-rule="evenodd" d="M32.7799 15.0208V15.7627H28.1131V12.0823H32.7799V15.0208Z" fill="#F9C98F"/>
<path fill-rule="evenodd" clip-rule="evenodd" d="M32.7799 15.0166V15.7627H28.1131V12.0823H32.7799V15.0166Z" fill="#F9CA90"/>
<path fill-rule="evenodd" clip-rule="evenodd" d="M32.7799 15.0146V15.7627H28.1131V12.0823H32.7799V15.0146Z" fill="#FACB91"/>
<path fill-rule="evenodd" clip-rule="evenodd" d="M32.7799 15.0083V15.7627H28.1131V12.0823H32.7799V15.0083Z" fill="#FACB92"/>
<path fill-rule="evenodd" clip-rule="evenodd" d="M32.7799 15.0042V15.7627H28.1131V12.0823H32.7799V15.0042Z" fill="#FACC93"/>
<path fill-rule="evenodd" clip-rule="evenodd" d="M32.7799 15.0021V15.7627H28.1131V12.0823H32.7799V15.0021Z" fill="#FACD94"/>
<path fill-rule="evenodd" clip-rule="evenodd" d="M32.7799 14.9979V15.7627H28.1131V12.0823H32.7799V14.9979Z" fill="#FACE95"/>
<path fill-rule="evenodd" clip-rule="evenodd" d="M32.7799 14.9917V15.7627H28.1131V12.0823H32.7799V14.9917Z" fill="#FACE96"/>
<path fill-rule="evenodd" clip-rule="evenodd" d="M32.7799 14.9896V15.7627H28.1131V12.0823H32.7799V14.9896Z" fill="#FACF97"/>
<path fill-rule="evenodd" clip-rule="evenodd" d="M32.7799 14.9855V15.7627H28.1131V12.0823H32.7799V14.9855Z" fill="#FAD098"/>
<path fill-rule="evenodd" clip-rule="evenodd" d="M32.7799 14.9813V15.7627H28.1131V12.0823H32.7799V14.9813Z" fill="#FBD099"/>
<path fill-rule="evenodd" clip-rule="evenodd" d="M32.7799 14.9772V15.7627H28.1131V12.0823H32.7799V14.9772Z" fill="#FBD19A"/>
<path fill-rule="evenodd" clip-rule="evenodd" d="M32.7799 14.973V15.7627H28.1131V12.0823H32.7799V14.973Z" fill="#FBD29B"/>
<path fill-rule="evenodd" clip-rule="evenodd" d="M32.7799 14.9688V15.7627H28.1131V12.0823H32.7799V14.9688Z" fill="#FBD39C"/>
<path fill-rule="evenodd" clip-rule="evenodd" d="M32.7799 14.9647V15.7627H28.1131V12.0823H32.7799V14.9647Z" fill="#FBD39D"/>
<path fill-rule="evenodd" clip-rule="evenodd" d="M32.7799 14.9605V15.7627H28.1131V12.0823H32.7799V14.9605Z" fill="#FBD49E"/>
<path fill-rule="evenodd" clip-rule="evenodd" d="M32.7799 14.9564V15.7627H28.1131V12.0823H32.7799V14.9564Z" fill="#FBD59F"/>
<path fill-rule="evenodd" clip-rule="evenodd" d="M32.7799 14.9522V15.7627H28.1131V12.0823H32.7799V14.9522Z" fill="#FBD6A0"/>
<path fill-rule="evenodd" clip-rule="evenodd" d="M32.7799 14.9481V15.7627H28.1131V12.0823H32.7799V14.9481Z" fill="#FBD6A1"/>
<path fill-rule="evenodd" clip-rule="evenodd" d="M32.7799 14.9439V15.7627H28.1131V12.0823H32.7799V14.9439Z" fill="#FCD7A2"/>
<path fill-rule="evenodd" clip-rule="evenodd" d="M32.7799 14.9397V15.7627H28.1131V12.0823H32.7799V14.9397Z" fill="#FCD8A3"/>
<path fill-rule="evenodd" clip-rule="evenodd" d="M32.7799 14.9356V15.7627H28.1131V12.0823H32.7799V14.9356Z" fill="#FCD8A4"/>
<path fill-rule="evenodd" clip-rule="evenodd" d="M32.7799 14.9314V15.7627H28.1131V12.0823H32.7799V14.9314Z" fill="#FCD9A5"/>
<path fill-rule="evenodd" clip-rule="evenodd" d="M32.7799 14.9273V15.7627H28.1131V12.0823H32.7799V14.9273Z" fill="#FCDAA7"/>
<path fill-rule="evenodd" clip-rule="evenodd" d="M32.7799 14.9231V15.7627H28.1131V12.0823H32.7799V14.9231Z" fill="#FCDBA8"/>
<path fill-rule="evenodd" clip-rule="evenodd" d="M32.7799 14.919V15.7627H28.1131V12.0823H32.7799V14.919Z" fill="#FCDBA9"/>
<path fill-rule="evenodd" clip-rule="evenodd" d="M32.7799 14.9148V15.7627H28.1131V12.0823H32.7799V14.9148Z" fill="#FCDCAA"/>
<path fill-rule="evenodd" clip-rule="evenodd" d="M32.7799 14.9107V15.7627H28.1131V12.0823H32.7799V14.9107Z" fill="#FDDDAB"/>
<path fill-rule="evenodd" clip-rule="evenodd" d="M32.7799 14.9065V15.7627H28.1131V12.0823H32.7799V14.9065Z" fill="#FDDDAC"/>
<path fill-rule="evenodd" clip-rule="evenodd" d="M32.7799 14.9023V15.7627H28.111V12.0823H31.7156V10.9268C32.0363 11.2997 32.3146 11.706 32.5455 12.1384C33.0042 12.9894 33.2414 13.939 33.2361 14.9023H32.7799Z" fill="#FDDEAD"/>
<path fill-rule="evenodd" clip-rule="evenodd" d="M32.7799 14.8982C32.7754 15.3558 32.7122 15.811 32.592 16.2531V15.7627H28.111V12.0823H31.3376V11.1222C31.6405 11.4765 31.9039 11.8618 32.1232 12.2714C32.5598 13.08 32.7855 13.9826 32.7799 14.8982Z" fill="#FDDFAE"/>
<path fill-rule="evenodd" clip-rule="evenodd" d="M32.3238 14.894C32.3194 15.3277 32.2598 15.7592 32.1464 16.1783V15.7627H28.111V12.0823H30.9575V11.3175C31.2456 11.6527 31.4955 12.0179 31.703 12.4065C32.1164 13.1721 32.3297 14.027 32.3238 14.894Z" fill="#FDE0AF"/>
<path fill-rule="evenodd" clip-rule="evenodd" d="M31.8698 14.8899C31.8652 15.2991 31.8084 15.7061 31.7009 16.1014V15.7627H28.111V12.0823H30.5774V11.5108C30.8507 11.8305 31.0872 12.179 31.2827 12.5499C31.671 13.2705 31.8727 14.0742 31.8698 14.8899Z" fill="#FDE0B0"/>
<path fill-rule="evenodd" clip-rule="evenodd" d="M31.4137 14.8857C31.4064 15.6553 31.2062 16.4113 30.8308 17.0865V15.7627H28.111V12.0823H29.3167V10.8583C30.6197 11.8973 31.4285 13.3209 31.4137 14.8857Z" fill="#FDE1B1"/>
<path fill-rule="evenodd" clip-rule="evenodd" d="M30.9575 14.8816C30.9508 15.6035 30.7622 16.3126 30.4085 16.9452V15.7627H28.111V12.0823H28.9915V11.1077C30.2184 12.0802 30.9723 13.4144 30.9575 14.8816Z" fill="#FDE2B2"/>
<path fill-rule="evenodd" clip-rule="evenodd" d="M30.5014 14.8774C30.494 15.5516 30.317 16.2134 29.9862 16.8038V15.7648H28.1131V12.0823H28.6684V11.3549C29.813 12.261 30.5141 13.5079 30.5014 14.8774Z" fill="#FDE3B3"/>
<path fill-rule="evenodd" clip-rule="evenodd" d="M30.0474 14.8732C30.04 15.4993 29.8738 16.1136 29.5638 16.6604V15.7627H28.111V12.0823H28.3432V11.6022C29.4075 12.4439 30.0579 13.6014 30.0474 14.8732Z" fill="#FEE3B4"/>
<path fill-rule="evenodd" clip-rule="evenodd" d="M29.5913 14.8691C29.5821 15.4472 29.4276 16.0141 29.1415 16.5191V15.7627H28.1067V12.0823L28.018 11.8454C29 12.6268 29.6018 13.6949 29.5913 14.8691Z" fill="#FEE4B5"/>
<path fill-rule="evenodd" clip-rule="evenodd" d="M29.1415 14.8649C29.1311 15.396 28.9859 15.9161 28.7191 16.3778V15.7544H28.1025V12.0969H27.6802C28.5945 12.8097 29.1415 13.7885 29.1415 14.8649Z" fill="#FEE5B6"/>
<path fill-rule="evenodd" clip-rule="evenodd" d="M28.6811 14.8608C28.674 15.3424 28.5464 15.815 28.3095 16.2365V15.7627H28.111V12.3441H27.3698C28.187 12.9925 28.6896 13.882 28.6811 14.8608Z" fill="#FEE5B7"/>
<path fill-rule="evenodd" clip-rule="evenodd" d="M28.225 14.8566C28.2087 15.2977 28.09 15.7293 27.8781 16.1183C27.6662 16.5073 27.3666 16.8435 27.0023 17.101L28.111 15.7627V12.5914H27.0446C27.4039 12.8553 27.6972 13.1966 27.9018 13.5893C28.1064 13.9819 28.217 14.4154 28.225 14.8566Z" fill="#FEE6B8"/>
<path d="M39.3727 12.2444H34.6234V15.345H39.3727V12.2444Z" fill="#F9C78C"/>
<path fill-rule="evenodd" clip-rule="evenodd" d="M39.5839 14.8732V15.5528H34.4123V12.0366H39.5839V14.8732Z" fill="#F9C78C"/>
<path fill-rule="evenodd" clip-rule="evenodd" d="M39.5839 14.8691V15.5528H34.4123V12.0366H39.5839V14.8691Z" fill="#F9C88D"/>
<path fill-rule="evenodd" clip-rule="evenodd" d="M39.5839 14.8649V15.5528H34.4123V12.0366H39.5839V14.8649Z" fill="#F9C88E"/>
<path fill-rule="evenodd" clip-rule="evenodd" d="M39.5839 14.8607V15.5528H34.4123V12.0366H39.5839V14.8607Z" fill="#F9C98F"/>
<path fill-rule="evenodd" clip-rule="evenodd" d="M39.5839 14.8566V15.5528H34.4123V12.0366H39.5839V14.8566Z" fill="#F9CA90"/>
<path fill-rule="evenodd" clip-rule="evenodd" d="M39.5839 14.8524V15.5528H34.4123V12.0366H39.5839V14.8524Z" fill="#FACB91"/>
<path fill-rule="evenodd" clip-rule="evenodd" d="M39.5839 14.8483V15.5528H34.4123V12.0366H39.5839V14.8483Z" fill="#FACB92"/>
<path fill-rule="evenodd" clip-rule="evenodd" d="M39.5839 14.8441V15.5528H34.4123V12.0366H39.5839V14.8441Z" fill="#FACC93"/>
<path fill-rule="evenodd" clip-rule="evenodd" d="M39.5839 14.84V15.5528H34.4123V12.0366H39.5839V14.84Z" fill="#FACD94"/>
<path fill-rule="evenodd" clip-rule="evenodd" d="M39.5839 14.8358V15.5528H34.4123V12.0366H39.5839V14.8358Z" fill="#FACE95"/>
<path fill-rule="evenodd" clip-rule="evenodd" d="M39.5839 14.8317V15.5528H34.4123V12.0366H39.5839V14.8317Z" fill="#FACE96"/>
<path fill-rule="evenodd" clip-rule="evenodd" d="M39.5839 14.8275V15.5528H34.4123V12.0366H39.5839V14.8275Z" fill="#FACF97"/>
<path fill-rule="evenodd" clip-rule="evenodd" d="M39.5839 14.8233V15.5528H34.4123V12.0366H39.5839V14.8233Z" fill="#FAD098"/>
<path fill-rule="evenodd" clip-rule="evenodd" d="M39.5839 14.8192V15.5528H34.4123V12.0366H39.5839V14.8192Z" fill="#FBD099"/>
<path fill-rule="evenodd" clip-rule="evenodd" d="M39.5839 14.815V15.5528H34.4123V12.0366H39.5839V14.815Z" fill="#FBD19A"/>
<path fill-rule="evenodd" clip-rule="evenodd" d="M39.5839 14.8109V15.5528H34.4123V12.0366H39.5839V14.8109Z" fill="#FBD29B"/>
<path fill-rule="evenodd" clip-rule="evenodd" d="M39.5839 14.8067V15.5528H34.4123V12.0366H39.5839V14.8067Z" fill="#FBD39C"/>
<path fill-rule="evenodd" clip-rule="evenodd" d="M39.5838 14.8026V15.5528H34.4207V12.0366H39.3642V11.1263C39.5163 11.5136 39.6432 11.9099 39.7443 12.313H39.5923L39.5838 14.8026Z" fill="#FBD39D"/>
<path fill-rule="evenodd" clip-rule="evenodd" d="M39.5817 14.7984C39.5781 15.2086 39.5478 15.6181 39.4909 16.0245V15.5528H34.4207V12.0366H38.9292V11.2219C39.0762 11.5986 39.1996 11.9838 39.2988 12.3753C39.4978 13.1678 39.5929 13.9821 39.5817 14.7984Z" fill="#FBD49E"/>
<path fill-rule="evenodd" clip-rule="evenodd" d="M39.1277 14.7942C39.1238 15.1926 39.0942 15.5903 39.039 15.985V15.5528H34.4207V12.0366H38.4963V11.3279C38.6381 11.6933 38.758 12.0667 38.8553 12.4459C39.0471 13.2142 39.1386 14.0033 39.1277 14.7942Z" fill="#FBD59F"/>
<path fill-rule="evenodd" clip-rule="evenodd" d="M38.6737 14.7901C38.6712 15.176 38.643 15.5612 38.5892 15.9435V15.5528H34.4207V12.0366H38.0528V11.4297C38.4738 12.5019 38.6845 13.6428 38.6737 14.7922V14.7901Z" fill="#FBD6A0"/>
<path fill-rule="evenodd" clip-rule="evenodd" d="M38.2218 14.786C38.2136 15.5292 38.1107 16.2686 37.9156 16.9867V15.5528H34.4207V12.0366H37.6284V11.5295C37.7615 11.8731 37.8737 12.2243 37.9642 12.581C38.1448 13.3023 38.2313 14.0432 38.2218 14.786Z" fill="#FBD6A1"/>
<path fill-rule="evenodd" clip-rule="evenodd" d="M37.7678 14.7818C37.7612 15.5014 37.6611 16.2172 37.47 16.9119V15.5528H34.4207V12.0366H36.7436V10.6546C37.4265 11.9258 37.7784 13.3439 37.7678 14.7818Z" fill="#FCD7A2"/>
<path fill-rule="evenodd" clip-rule="evenodd" d="M37.3137 14.7776C37.307 15.4719 37.2105 16.1626 37.0266 16.8329V15.5528H34.4207V12.0366H36.3212V10.7897C36.9824 12.0176 37.3235 13.3879 37.3137 14.7776Z" fill="#FCD8A3"/>
<path fill-rule="evenodd" clip-rule="evenodd" d="M36.8597 14.7735C36.8535 15.4452 36.7606 16.1135 36.5831 16.7622V15.5528H34.4207V12.0366H35.8989V10.9206C36.5394 12.1064 36.8696 13.4306 36.8597 14.7735Z" fill="#FCD8A4"/>
<path fill-rule="evenodd" clip-rule="evenodd" d="M36.4057 14.7693C36.3999 15.4172 36.3105 16.0617 36.1396 16.6874V15.5528H34.4207V12.0365H35.4766V11.0536C36.0941 12.1974 36.4134 13.4741 36.4057 14.7693Z" fill="#FCD9A5"/>
<path fill-rule="evenodd" clip-rule="evenodd" d="M35.9538 14.7652C35.9448 15.3896 35.8554 16.0103 35.6877 16.6126V15.5528H34.4207V12.0366H35.0542V11.1887C35.6506 12.2891 35.9597 13.5181 35.9538 14.7652Z" fill="#FCDAA7"/>
<path fill-rule="evenodd" clip-rule="evenodd" d="M35.4998 14.7548C35.4938 15.3549 35.4108 15.9519 35.2528 16.5316V15.5528H34.4081V12.0366H34.6319V11.3217C35.2051 12.3779 35.5033 13.5574 35.4998 14.7548Z" fill="#FCDBA8"/>
<path fill-rule="evenodd" clip-rule="evenodd" d="M35.0542 14.7548C35.0488 15.3303 34.9693 15.9029 34.8177 16.4588V15.5528H34.4207V12.0366L34.2286 11.4547C34.7777 12.4703 35.0614 13.6044 35.0542 14.7548Z" fill="#FCDBA9"/>
<path fill-rule="evenodd" clip-rule="evenodd" d="M34.5918 14.7548C34.5878 15.306 34.5111 15.8543 34.3637 16.3861L34.4123 15.5548V12.0366L33.802 11.5877C34.3283 12.5625 34.5997 13.6509 34.5918 14.7548Z" fill="#FCDCAA"/>
<path fill-rule="evenodd" clip-rule="evenodd" d="M11.249 33.5827L11.2765 34.0669H24.7491V33.4206L11.249 33.5827Z" fill="#FFDEC8"/>
<g style="mix-blend-mode:multiply" opacity="0.5">
<path fill-rule="evenodd" clip-rule="evenodd" d="M12.0979 34.0669L12.5942 35.0686L24.1051 35.0561L24.6478 34.0669H12.0979Z" fill="#811734"/>
</g>
<path fill-rule="evenodd" clip-rule="evenodd" d="M24.7491 33.4206L25.1588 33.4954L25.1567 34.0669H24.7491V33.4206Z" fill="#FF8D90"/>
<path style="mix-blend-mode:screen" fill-rule="evenodd" clip-rule="evenodd" d="M14.2793 23.4081L14.7882 29.7215H17.1534L17.3054 32.1717H17.7742L17.5672 30.2785H20.3462L20.4772 32.1717H21.0241L21.1022 29.0732L23.8918 28.5619L24.0375 23.3375L14.2793 23.4081Z" fill="url(#paint23_linear_9_356)"/>
<path style="mix-blend-mode:screen" fill-rule="evenodd" clip-rule="evenodd" d="M29.397 25.3408L29.6377 29.9875H30.8203V31.8932H31.3039L31.192 30.5985H32.4885L32.4759 31.8932H33.5824L34.2032 32.7473L34.4841 25.2265L29.397 25.3408Z" fill="url(#paint24_linear_9_356)"/>
<g style="mix-blend-mode:multiply" opacity="0.5">
<path fill-rule="evenodd" clip-rule="evenodd" d="M13.7408 27.7286L14.3934 30.719L20.9333 30.106L21.2163 26.9742L13.7408 27.7286Z" fill="#816090"/>
</g>
<path fill-rule="evenodd" clip-rule="evenodd" d="M13.7408 27.7286L21.2163 26.9742L21.4992 29.7901L14.1632 30.478L13.7408 27.7286Z" fill="url(#paint25_radial_9_356)"/>
<path fill-rule="evenodd" clip-rule="evenodd" d="M21.2163 26.9742L18.5598 25.4364L13.7408 27.7286L14.0111 27.6953L18.5513 25.5341L21.0621 26.9888L21.2163 26.9742Z" fill="url(#paint26_radial_9_356)"/>
<path d="M15.5949 28.5723C15.636 28.4846 15.6993 28.4088 15.7786 28.352C15.8586 28.2982 15.9522 28.2673 16.0489 28.2627C16.1466 28.2524 16.2453 28.2689 16.334 28.3105C16.4228 28.3523 16.4997 28.4152 16.5579 28.4933C16.6163 28.5715 16.6521 28.6638 16.6614 28.7605C16.6707 28.8571 16.6531 28.9544 16.6107 29.042C16.5674 29.1284 16.5037 29.2032 16.4248 29.2602C16.3444 29.3155 16.2506 29.3493 16.1528 29.358C16.055 29.3668 15.9566 29.3502 15.8673 29.31C15.7826 29.2683 15.7099 29.2061 15.6562 29.1293C15.5974 29.0518 15.5623 28.9596 15.5548 28.8632C15.5397 28.7645 15.5536 28.6635 15.5949 28.5723ZM15.8378 29.0004C15.8718 29.049 15.9185 29.0878 15.9729 29.1126C16.0278 29.1396 16.0894 29.1504 16.1503 29.1438C16.2094 29.1385 16.2658 29.1169 16.3129 29.0815C16.3605 29.0468 16.3977 29.0001 16.4206 28.9464C16.4442 28.8906 16.4529 28.8298 16.4459 28.7697C16.4414 28.7086 16.4202 28.6497 16.3847 28.5993C16.3514 28.5503 16.3055 28.5108 16.2517 28.485C16.1979 28.4595 16.1379 28.4494 16.0785 28.4559C16.0188 28.4599 15.9616 28.4808 15.9138 28.5162C15.8655 28.5515 15.8276 28.5989 15.804 28.6534C15.78 28.7094 15.7705 28.7705 15.7764 28.8311C15.7823 28.8916 15.8034 28.9498 15.8378 29.0004Z" fill="white"/>
<path d="M17.4743 28.2294C17.5142 28.2599 17.547 28.2986 17.5703 28.3427C17.5937 28.3868 17.607 28.4354 17.6095 28.485C17.6142 28.5468 17.6071 28.6088 17.5884 28.6679C17.5669 28.727 17.5289 28.7789 17.4786 28.8175C17.4169 28.8619 17.3436 28.8879 17.2674 28.8923L17.1132 28.9048L17.1449 29.2456L16.9337 29.2643L16.8303 28.192L17.1618 28.1608C17.271 28.145 17.3823 28.1694 17.4743 28.2294ZM17.3371 28.645C17.3592 28.6269 17.376 28.6032 17.3856 28.5765C17.3907 28.5532 17.3907 28.5291 17.3856 28.5058C17.3812 28.4671 17.3659 28.4304 17.3413 28.3998C17.3244 28.3813 17.3027 28.3676 17.2785 28.3603C17.2543 28.353 17.2286 28.3523 17.204 28.3583L17.0499 28.3728L17.0816 28.6949L17.2336 28.6825C17.2709 28.6834 17.3075 28.6717 17.3371 28.6492V28.645Z" fill="white"/>
<path d="M18.5112 28.0362L18.5302 28.244L18.0023 28.2939L18.0234 28.5224L18.4922 28.4788L18.5112 28.6866L18.0424 28.7303L18.0635 28.963L18.6146 28.9111L18.6336 29.1189L17.8692 29.1895L17.7679 28.1151L18.5112 28.0362Z" fill="white"/>
<path d="M19.736 27.924L19.8437 29.0399L19.0053 28.4331L19.0708 29.0669L18.8596 29.0877L18.754 27.9717L19.5818 28.5952L19.5164 27.9489L19.736 27.924Z" fill="white"/>
<path fill-rule="evenodd" clip-rule="evenodd" d="M13.7408 11.0391L19.8183 1.74148L43.9889 0L43.4081 7.92602L29.076 11.0391H13.7408Z" fill="url(#paint27_linear_9_356)"/>
<path fill-rule="evenodd" clip-rule="evenodd" d="M43.4081 7.92603L40.9818 9.66127V9.11056L30.8203 11.0391H29.076L43.4081 7.92603Z" fill="url(#paint28_linear_9_356)"/>
<g style="mix-blend-mode:soft-light">
<path fill-rule="evenodd" clip-rule="evenodd" d="M29.076 11.0391L15.4196 8.47049L13.7408 11.0391H29.076Z" fill="#FFB657"/>
</g>
<g style="mix-blend-mode:soft-light">
<path fill-rule="evenodd" clip-rule="evenodd" d="M19.8183 1.74149L29.076 11.0391L17.62 5.10391L19.8183 1.74149Z" fill="#FFB657"/>
</g>
<g style="mix-blend-mode:soft-light">
<path fill-rule="evenodd" clip-rule="evenodd" d="M24.6478 1.39234L29.076 11.0391L28.3243 1.12842L24.6478 1.39234Z" fill="#FFB657"/>
</g>
<g style="mix-blend-mode:soft-light">
<path fill-rule="evenodd" clip-rule="evenodd" d="M33.4853 0.75643L29.076 11.0391L37.5946 0.461334L33.4853 0.75643Z" fill="#FFB657"/>
</g>
<g style="mix-blend-mode:soft-light">
<path fill-rule="evenodd" clip-rule="evenodd" d="M43.9889 0L29.076 11.0391L43.4081 5.51953L43.9889 0Z" fill="#FFB657"/>
</g>
<g style="mix-blend-mode:multiply" opacity="0.5">
<path fill-rule="evenodd" clip-rule="evenodd" d="M9.73284 37.1675L7.8302 38.1525L39.3896 36.9119H16.8155L9.73284 37.1675Z" fill="#AC2A41"/>
</g>
<path fill-rule="evenodd" clip-rule="evenodd" d="M46.6686 26.3924C47.1109 26.6723 47.6106 26.8526 48.132 26.9202C48.132 26.9202 49.9206 26.5752 51.251 23.0092C52.5814 19.4431 51.327 17.9489 51.327 17.9489C51.327 17.9489 50.4507 17.4169 49.5933 17.4522L46.6686 26.3924Z" fill="url(#paint29_linear_9_356)"/>
<path fill-rule="evenodd" clip-rule="evenodd" d="M50.3725 22.6808C49.4582 25.133 47.7984 26.7893 46.6686 26.382C45.5389 25.9747 45.3657 23.6534 46.2801 21.2012C47.1944 18.749 48.8542 17.0927 49.984 17.5021C51.1137 17.9115 51.2869 20.2286 50.3725 22.6808Z" fill="url(#paint30_linear_9_356)"/>
<g style="mix-blend-mode:soft-light">
<path fill-rule="evenodd" clip-rule="evenodd" d="M50.892 18.9422L45.6909 24.3454C45.6909 24.3454 45.7352 25.478 46.0562 25.8479L50.892 20.638C50.892 20.638 51.0778 19.5906 50.892 18.9422Z" fill="#FBF9FA"/>
</g>
<path fill-rule="evenodd" clip-rule="evenodd" d="M50.0875 22.5623C49.2956 24.6841 47.8913 26.1534 46.8713 25.9663C46.8201 25.9583 46.7699 25.9451 46.7214 25.9268C45.6951 25.5569 45.5346 23.4476 46.3666 21.2178C47.1986 18.9879 48.7064 17.4771 49.7454 17.8554C49.7937 17.8726 49.8404 17.8942 49.8847 17.9198C50.7738 18.4289 50.8793 20.4406 50.0875 22.5623Z" fill="url(#paint31_linear_9_356)"/>
<path fill-rule="evenodd" clip-rule="evenodd" d="M50.0874 22.5624C49.2956 24.6841 47.8913 26.1534 46.8713 25.9663C45.9696 25.4593 45.8662 23.4456 46.6602 21.3238C47.4542 19.202 48.8563 17.7348 49.8763 17.9198C50.7737 18.4289 50.8793 20.4406 50.0874 22.5624Z" fill="url(#paint32_linear_9_356)"/>
<path d="M47.6738 23.5578C47.6299 23.5441 47.591 23.5181 47.5619 23.483C47.4922 23.4227 47.3824 22.5914 47.3106 22.5104L47.6358 22.6247C47.6567 22.6803 47.6867 22.7323 47.7245 22.7785C47.788 22.8538 47.8636 22.9184 47.9483 22.9697C47.9826 22.9771 48.0181 22.9767 48.0522 22.9684C48.0862 22.9601 48.1179 22.9442 48.1447 22.9219C48.2169 22.8692 48.2719 22.797 48.3031 22.7141C48.3411 22.629 48.3598 22.5368 48.358 22.4439C48.3518 22.3656 48.3369 22.2883 48.3136 22.2132C48.2883 22.1384 48.2608 22.0594 48.2271 21.9805C48.1938 21.8961 48.1677 21.8093 48.1489 21.7207C48.1026 21.495 48.1216 21.2609 48.2038 21.0453C48.2453 20.9285 48.3044 20.8185 48.3791 20.719C48.4373 20.6387 48.5086 20.5685 48.5903 20.5112C48.6596 20.4634 48.7368 20.4276 48.8183 20.4052C48.8965 20.3865 48.6452 20.2639 48.7127 20.2702L49.1351 19.0669L49.7179 19.2747L49.2512 20.4281L49.3104 20.4572C49.3463 20.4744 49.3803 20.4953 49.4117 20.5195C49.4521 20.5508 49.4896 20.5856 49.5236 20.6234C49.5611 20.6688 49.5903 20.7201 49.6102 20.7752L49.342 21.4111C49.3122 21.3361 49.2709 21.266 49.2196 21.2032C49.1792 21.1572 49.1354 21.1142 49.0886 21.0744C49.044 21.0366 48.9943 21.0052 48.9408 20.9809C48.8814 20.9983 48.8273 21.0301 48.7834 21.0733C48.7395 21.1164 48.7073 21.1697 48.6895 21.2282C48.6645 21.2945 48.6558 21.3657 48.6642 21.436C48.6736 21.5157 48.6906 21.5943 48.7149 21.6708C48.7381 21.754 48.7655 21.8433 48.7951 21.9368C48.8262 22.0352 48.8488 22.136 48.8627 22.2382C48.8755 22.3514 48.8755 22.4657 48.8627 22.579C48.8518 22.7115 48.8212 22.8417 48.7719 22.9655C48.7058 23.1611 48.5894 23.3365 48.434 23.4747C48.3142 23.5835 48.1578 23.6449 47.9948 23.6471L47.5724 24.8047L47.2472 24.6904L47.6738 23.5578Z" fill="url(#paint33_linear_9_356)"/>
<path d="M47.4394 23.5079C47.3623 23.4723 47.2911 23.4253 47.2282 23.3687C47.1533 23.304 47.0828 23.2346 47.017 23.1609L47.3042 22.5146C47.3257 22.57 47.3556 22.6218 47.3929 22.6683C47.4243 22.7072 47.4597 22.7427 47.4985 22.7743C47.5355 22.8059 47.575 22.8344 47.6168 22.8595C47.6512 22.867 47.6869 22.8664 47.721 22.8577C47.7552 22.8491 47.7867 22.8326 47.8132 22.8097C47.8862 22.7578 47.9414 22.6853 47.9715 22.6018C48.0038 22.5219 48.0189 22.4363 48.0159 22.3504C48.0097 22.2721 47.9948 22.1948 47.9715 22.1197C47.9462 22.0449 47.9187 21.9659 47.885 21.8849C47.8514 21.8014 47.8253 21.7152 47.8068 21.6272C47.7869 21.5266 47.7791 21.4241 47.7836 21.3217C47.7909 21.1953 47.8172 21.0706 47.8617 20.9518C47.9032 20.8344 47.9623 20.7237 48.037 20.6235C48.095 20.543 48.1664 20.4727 48.2482 20.4156C48.3166 20.3662 48.394 20.3303 48.4762 20.3097C48.5449 20.2909 48.6163 20.2838 48.6874 20.2889L49.1098 19.0856L49.3674 19.1833L48.9007 20.3388L48.9598 20.3658C48.9958 20.3837 49.0298 20.4053 49.0612 20.4302C49.1021 20.4609 49.1396 20.4957 49.1731 20.5341C49.211 20.5792 49.2403 20.6305 49.2597 20.6858L48.9915 21.3217C48.9622 21.2465 48.9208 21.1763 48.869 21.1139C48.8286 21.0679 48.7849 21.0248 48.7381 20.9851C48.6935 20.9473 48.6437 20.9158 48.5903 20.8915C48.5308 20.909 48.4767 20.9407 48.4328 20.9839C48.389 21.0271 48.3567 21.0803 48.339 21.1388C48.3139 21.2051 48.3052 21.2764 48.3136 21.3466C48.3233 21.4263 48.3402 21.5049 48.3643 21.5815C48.3875 21.6646 48.415 21.7519 48.4446 21.8475C48.4757 21.9459 48.4983 22.0467 48.5121 22.1488C48.525 22.2621 48.525 22.3764 48.5121 22.4896C48.5008 22.6221 48.4703 22.7523 48.4213 22.8762C48.3555 23.0718 48.239 23.2473 48.0835 23.3853C47.9631 23.4933 47.807 23.5546 47.6442 23.5578L47.2219 24.7153L46.9664 24.6156L47.4394 23.5079Z" fill="url(#paint34_linear_9_356)"/>
<path d="M49.0126 21.3092L49.3378 21.4235L49.606 20.7876L49.2808 20.6733L49.0126 21.3092Z" fill="#D03B48"/>
<path d="M47.999 23.6721L47.6738 23.5578L47.2599 24.7153L47.5851 24.8296L47.999 23.6721Z" fill="#D03B48"/>
<path d="M49.247 20.4406L48.9218 20.3263L49.3885 19.1708L49.7137 19.2872L49.247 20.4406Z" fill="#D03B48"/>
<g style="mix-blend-mode:soft-light">
<path d="M50.892 18.9422L51.8043 19.2706C51.9016 19.831 51.8951 20.404 51.7853 20.9622L50.892 20.638C50.892 20.638 51.0799 19.5968 50.892 18.9422Z" fill="#FBE569"/>
</g>
<g style="mix-blend-mode:soft-light">
<path d="M47.5323 26.3446L48.5881 26.7228C48.7985 26.6055 48.9953 26.4661 49.1752 26.3071L48.32 25.8645C48.0936 26.0759 47.8255 26.2393 47.5323 26.3446Z" fill="#FBE569"/>
</g>
<path fill-rule="evenodd" clip-rule="evenodd" d="M48.339 18.0154C48.339 18.0154 49.2238 17.9219 49.4138 17.4564C49.0067 17.5324 48.6321 17.7271 48.339 18.0154Z" fill="#FBF9B8"/>
<path fill-rule="evenodd" clip-rule="evenodd" d="M53.785 15.5736C53.9577 15.8087 54.1813 16.0032 54.4397 16.143C54.4397 16.143 55.4448 16.3196 56.8766 14.7215C58.3083 13.1234 57.962 12.0906 57.962 12.0906C57.7521 11.8242 57.4756 11.6159 57.1595 11.4859L53.785 15.5736Z" fill="url(#paint35_linear_9_356)"/>
<path fill-rule="evenodd" clip-rule="evenodd" d="M56.4838 14.3807C55.4997 15.478 54.2897 16.0141 53.785 15.5736C53.2803 15.133 53.6668 13.8882 54.6508 12.7889C55.6349 11.6895 56.8449 11.1555 57.3496 11.5939C57.8543 12.0324 57.47 13.2814 56.4838 14.3807Z" fill="url(#paint36_linear_9_356)"/>
<g style="mix-blend-mode:soft-light">
<path fill-rule="evenodd" clip-rule="evenodd" d="M57.5312 12.5312L53.6964 14.3163C53.6964 14.3163 53.4852 14.9169 53.576 15.1745L57.1786 13.4164C57.3466 13.1433 57.4659 12.8439 57.5312 12.5312Z" fill="#FBF9FA"/>
</g>
<path fill-rule="evenodd" clip-rule="evenodd" d="M56.3592 14.2602C55.5145 15.212 54.4692 15.6983 53.9751 15.3969C53.9502 15.3827 53.9269 15.366 53.9054 15.3471C53.4451 14.9481 53.7977 13.8134 54.6931 12.8138C55.5884 11.8142 56.6865 11.33 57.1469 11.729C57.1682 11.7483 57.188 11.7691 57.206 11.7914C57.5713 12.2382 57.2123 13.3105 56.3592 14.2602Z" fill="url(#paint37_linear_9_356)"/>
<path fill-rule="evenodd" clip-rule="evenodd" d="M56.3592 14.2602C55.5145 15.212 54.4692 15.6983 53.9751 15.3969C53.6098 14.9522 53.9751 13.8778 54.8198 12.9281C55.6645 11.9784 56.7098 11.49 57.2039 11.7914C57.5713 12.2382 57.2123 13.3105 56.3592 14.2602Z" fill="url(#paint38_linear_9_356)"/>
<path d="M54.8916 14.2976C54.8723 14.2816 54.8577 14.2608 54.8493 14.2373C54.824 14.1916 54.9401 13.7344 54.919 13.6783L55.0647 13.803C55.065 13.8361 55.07 13.8689 55.0795 13.9007C55.0976 13.9529 55.1239 14.002 55.1577 14.0461C55.1741 14.0565 55.1926 14.0632 55.212 14.0657C55.2313 14.0682 55.251 14.0665 55.2696 14.0607C55.3198 14.046 55.3646 14.0171 55.3984 13.9776C55.4318 13.9425 55.457 13.9006 55.4723 13.8549C55.485 13.8122 55.4935 13.7684 55.4976 13.724C55.4976 13.6804 55.4976 13.6347 55.4976 13.5848C55.4978 13.5347 55.5021 13.4846 55.5103 13.4352C55.5214 13.3786 55.5391 13.3235 55.5631 13.271C55.5925 13.206 55.6316 13.1458 55.6792 13.0923C55.7249 13.0398 55.7783 12.9942 55.8376 12.9572C55.8845 12.926 55.9367 12.9034 55.9918 12.8907C56.0372 12.8791 56.0844 12.8756 56.1311 12.8803C56.1755 12.8803 56.0699 12.7722 56.1037 12.7889L56.5788 12.2444L56.8386 12.473L56.3571 12.9842L56.3824 13.0112C56.3971 13.0271 56.4098 13.0445 56.4204 13.0632C56.436 13.0873 56.4488 13.1131 56.4584 13.1401C56.469 13.1716 56.474 13.2046 56.4732 13.2377L56.2029 13.5079C56.2015 13.4648 56.1937 13.422 56.1797 13.3811C56.1685 13.3481 56.1543 13.3161 56.1375 13.2855C56.1219 13.2576 56.1028 13.2317 56.0805 13.2086C56.0456 13.2058 56.0105 13.2115 55.9785 13.2253C55.9464 13.2391 55.9183 13.2605 55.8967 13.2876C55.8707 13.3177 55.8519 13.3532 55.8418 13.3915C55.8295 13.4349 55.8217 13.4795 55.8186 13.5245C55.8186 13.5723 55.8186 13.6243 55.8059 13.6783C55.8016 13.7364 55.7925 13.7941 55.7785 13.8508C55.7629 13.9124 55.741 13.9723 55.713 14.0295C55.6797 14.0967 55.6371 14.1589 55.5863 14.2145C55.5126 14.3074 55.4149 14.3792 55.3034 14.4223C55.2177 14.4544 55.123 14.4544 55.0373 14.4223L54.5833 14.9439L54.4376 14.8192L54.8916 14.2976Z" fill="url(#paint39_linear_9_356)"/>
<path d="M54.7797 14.2249C54.749 14.1908 54.7228 14.1531 54.7015 14.1126C54.676 14.063 54.6542 14.0116 54.6361 13.9589L54.919 13.6783C54.9183 13.7115 54.9233 13.7445 54.9338 13.776C54.9422 13.8027 54.9535 13.8285 54.9676 13.8529C54.9799 13.8767 54.9941 13.8996 55.0098 13.9215C55.0266 13.9319 55.0455 13.9385 55.0652 13.941C55.0849 13.9436 55.1049 13.9418 55.1239 13.936C55.1741 13.9213 55.2189 13.8924 55.2527 13.8529C55.2866 13.8174 55.3119 13.7747 55.3266 13.7282C55.3396 13.6863 55.3474 13.6431 55.3498 13.5993C55.3531 13.553 55.3531 13.5065 55.3498 13.4601C55.3501 13.4093 55.3543 13.3586 55.3625 13.3084C55.3722 13.2524 55.3892 13.198 55.4132 13.1463C55.4429 13.081 55.4828 13.0207 55.5314 12.9676C55.5777 12.915 55.6309 12.8689 55.6898 12.8304C55.7366 12.8011 55.788 12.7793 55.8418 12.766C55.8886 12.7569 55.9366 12.7569 55.9833 12.766C56.0245 12.7698 56.0646 12.7811 56.1016 12.7993L56.5767 12.2548L56.6907 12.3587L56.2072 12.8699L56.2325 12.8949C56.2473 12.9118 56.2608 12.9298 56.2726 12.9489C56.2875 12.9731 56.2996 12.9989 56.3085 13.0258C56.3201 13.057 56.3251 13.0902 56.3233 13.1235L56.053 13.4019C56.0513 13.3581 56.0435 13.3148 56.0298 13.2731C56.0181 13.2409 56.004 13.2097 55.9875 13.1796C55.9715 13.1508 55.9516 13.1242 55.9284 13.1006C55.8939 13.0981 55.8593 13.104 55.8276 13.1178C55.7959 13.1315 55.7682 13.1528 55.7468 13.1796C55.7193 13.2098 55.6998 13.2462 55.6898 13.2855C55.679 13.3292 55.672 13.3737 55.6687 13.4185C55.6687 13.4663 55.6687 13.5183 55.656 13.5723C55.6517 13.6305 55.6425 13.6882 55.6286 13.7448C55.613 13.8064 55.5911 13.8663 55.5631 13.9235C55.5298 13.9912 55.4863 14.0535 55.4343 14.1085C55.3613 14.2013 55.2643 14.2731 55.1534 14.3163C55.0678 14.3486 54.973 14.3486 54.8874 14.3163L54.4333 14.84L54.3193 14.7361L54.7797 14.2249Z" fill="url(#paint40_linear_9_356)"/>
<path d="M56.0573 13.3915L56.203 13.5162L56.4754 13.2377L56.3297 13.111L56.0573 13.3915Z" fill="#D03B48"/>
<path d="M55.0373 14.4244L54.8916 14.2997L54.4376 14.8213L54.5833 14.946L55.0373 14.4244Z" fill="#D03B48"/>
<path d="M56.3571 12.9842L56.2114 12.8595L56.695 12.3483L56.8407 12.473L56.3571 12.9842Z" fill="#D03B48"/>
<g style="mix-blend-mode:soft-light">
<path d="M57.5312 12.5312L57.9409 12.8844C57.8752 13.1971 57.7529 13.4956 57.5798 13.7656L57.1785 13.4164C57.3474 13.1437 57.4668 12.8442 57.5312 12.5312Z" fill="#FBE569"/>
</g>
<g style="mix-blend-mode:soft-light">
<path d="M54.2433 15.7274L54.7121 16.143C54.8463 16.1247 54.978 16.092 55.1049 16.0453L54.7501 15.6422C54.5887 15.7037 54.4163 15.7326 54.2433 15.7274Z" fill="#FBE569"/>
</g>
<path fill-rule="evenodd" clip-rule="evenodd" d="M56.3824 11.5337C56.3824 11.5337 56.8639 11.6625 57.0603 11.4568C56.8316 11.4162 56.5958 11.4429 56.3824 11.5337Z" fill="#FBF9B8"/>
<g filter="url(#filter0_d_9_356)">
<path d="M24.2955 4.37322C24.2756 4.1727 24.1903 4.01693 24.0395 3.90589C23.8887 3.79486 23.684 3.73935 23.4255 3.73935C23.2498 3.73935 23.1015 3.7642 22.9805 3.81392C22.8595 3.86198 22.7667 3.9291 22.7021 4.01527C22.6391 4.10144 22.6076 4.19922 22.6076 4.30859C22.6043 4.39974 22.6234 4.47929 22.6648 4.54723C22.7079 4.61518 22.7667 4.67401 22.8413 4.72372C22.9159 4.77178 23.0021 4.81404 23.0998 4.8505C23.1976 4.8853 23.302 4.91513 23.413 4.93999L23.8704 5.04936C24.0925 5.09908 24.2963 5.16536 24.4819 5.24822C24.6675 5.33108 24.8283 5.433 24.9642 5.55398C25.1001 5.67495 25.2053 5.81747 25.2799 5.98153C25.3561 6.1456 25.395 6.33369 25.3967 6.54581C25.395 6.85736 25.3155 7.12749 25.1581 7.35618C25.0023 7.58321 24.7769 7.75971 24.4819 7.88565C24.1886 8.00994 23.8348 8.07209 23.4205 8.07209C23.0095 8.07209 22.6516 8.00911 22.3466 7.88317C22.0434 7.75722 21.8064 7.57079 21.6357 7.32386C21.4667 7.07528 21.378 6.76787 21.3697 6.40163H22.4113C22.4229 6.57232 22.4718 6.71484 22.5579 6.82919C22.6458 6.94188 22.7626 7.02723 22.9084 7.08523C23.0559 7.14157 23.2225 7.16974 23.4081 7.16974C23.5904 7.16974 23.7486 7.14323 23.8829 7.0902C24.0187 7.03717 24.124 6.96342 24.1986 6.86896C24.2731 6.7745 24.3104 6.66596 24.3104 6.54332C24.3104 6.42898 24.2764 6.33286 24.2085 6.25497C24.1422 6.17708 24.0444 6.1108 23.9152 6.05611C23.7876 6.00142 23.631 5.9517 23.4454 5.90696L22.891 5.76776C22.4618 5.66335 22.1229 5.50012 21.8743 5.27805C21.6258 5.05599 21.5023 4.75687 21.504 4.38068C21.5023 4.07244 21.5843 3.80315 21.75 3.5728C21.9174 3.34245 22.1469 3.16264 22.4386 3.03338C22.7303 2.90412 23.0617 2.83949 23.4329 2.83949C23.8108 2.83949 24.1406 2.90412 24.4223 3.03338C24.7057 3.16264 24.9261 3.34245 25.0835 3.5728C25.2409 3.80315 25.3221 4.06996 25.3271 4.37322H24.2955ZM26.1207 8V2.90909H27.197V5.00959H29.3821V2.90909H30.4559V8H29.3821V5.89702H27.197V8H26.1207ZM36.0216 5.45455C36.0216 6.00971 35.9164 6.48201 35.7059 6.87145C35.4971 7.26089 35.2121 7.55836 34.8508 7.76385C34.4912 7.96768 34.0868 8.0696 33.6377 8.0696C33.1853 8.0696 32.7793 7.96686 32.4197 7.76136C32.0601 7.55587 31.7759 7.2584 31.5671 6.86896C31.3583 6.47952 31.2539 6.00805 31.2539 5.45455C31.2539 4.89938 31.3583 4.42708 31.5671 4.03764C31.7759 3.6482 32.0601 3.35156 32.4197 3.14773C32.7793 2.94223 33.1853 2.83949 33.6377 2.83949C34.0868 2.83949 34.4912 2.94223 34.8508 3.14773C35.2121 3.35156 35.4971 3.6482 35.7059 4.03764C35.9164 4.42708 36.0216 4.89938 36.0216 5.45455ZM34.9304 5.45455C34.9304 5.09493 34.8765 4.79167 34.7688 4.54474C34.6627 4.29782 34.5127 4.11056 34.3188 3.98295C34.125 3.85535 33.8979 3.79155 33.6377 3.79155C33.3776 3.79155 33.1505 3.85535 32.9566 3.98295C32.7627 4.11056 32.6119 4.29782 32.5042 4.54474C32.3982 4.79167 32.3451 5.09493 32.3451 5.45455C32.3451 5.81416 32.3982 6.11742 32.5042 6.36435C32.6119 6.61127 32.7627 6.79853 32.9566 6.92614C33.1505 7.05374 33.3776 7.11754 33.6377 7.11754C33.8979 7.11754 34.125 7.05374 34.3188 6.92614C34.5127 6.79853 34.6627 6.61127 34.7688 6.36435C34.8765 6.11742 34.9304 5.81416 34.9304 5.45455ZM36.8189 8V2.90909H38.8275C39.2136 2.90909 39.5425 2.98284 39.8143 3.13033C40.0861 3.27616 40.2932 3.47917 40.4358 3.73935C40.5799 3.99787 40.652 4.29616 40.652 4.63423C40.652 4.9723 40.5791 5.2706 40.4333 5.52912C40.2874 5.78764 40.0762 5.98899 39.7994 6.13317C39.5243 6.27734 39.1912 6.34943 38.8001 6.34943H37.5199V5.48686H38.6261C38.8333 5.48686 39.004 5.45123 39.1382 5.37997C39.2741 5.30705 39.3752 5.20679 39.4415 5.07919C39.5094 4.94993 39.5434 4.80161 39.5434 4.63423C39.5434 4.4652 39.5094 4.31771 39.4415 4.19176C39.3752 4.06416 39.2741 3.96555 39.1382 3.89595C39.0023 3.82469 38.8299 3.78906 38.6211 3.78906H37.8953V8H36.8189Z" fill="#FFE006"/>
</g>
<defs>
<filter id="filter0_d_9_356" x="20.3697" y="2.83948" width="21.2823" height="7.2326" filterUnits="userSpaceOnUse" color-interpolation-filters="sRGB">
<feFlood flood-opacity="0" result="BackgroundImageFix"/>
<feColorMatrix in="SourceAlpha" type="matrix" values="0 0 0 0 0 0 0 0 0 0 0 0 0 0 0 0 0 0 127 0" result="hardAlpha"/>
<feOffset dy="1"/>
<feGaussianBlur stdDeviation="0.5"/>
<feComposite in2="hardAlpha" operator="out"/>
<feColorMatrix type="matrix" values="0 0 0 0 0 0 0 0 0 0 0 0 0 0 0 0 0 0 0.25 0"/>
<feBlend mode="normal" in2="BackgroundImageFix" result="effect1_dropShadow_9_356"/>
<feBlend mode="normal" in="SourceGraphic" in2="effect1_dropShadow_9_356" result="shape"/>
</filter>
<radialGradient id="paint0_radial_9_356" cx="0" cy="0" r="1" gradientUnits="userSpaceOnUse" gradientTransform="translate(24.356 37.543) rotate(-1.52356) scale(17.2461 15.2917)">
<stop stop-color="#7C65E0"/>
<stop offset="0.99" stop-color="#954CB8"/>
</radialGradient>
<linearGradient id="paint1_linear_9_356" x1="0.0189628" y1="39.8373" x2="48.7983" y2="38.3921" gradientUnits="userSpaceOnUse">
<stop stop-color="#603082"/>
<stop offset="0.99" stop-color="#2A0E51"/>
</linearGradient>
<linearGradient id="paint2_linear_9_356" x1="24.0375" y1="14.8649" x2="24.0375" y2="3.35413" gradientUnits="userSpaceOnUse">
<stop stop-color="#FFA700"/>
<stop offset="1" stop-color="#FFD328"/>
</linearGradient>
<linearGradient id="paint3_linear_9_356" x1="24.0924" y1="36.1762" x2="24.0924" y2="13.1941" gradientUnits="userSpaceOnUse">
<stop stop-color="#FF6E27"/>
<stop offset="1" stop-color="#E03347"/>
</linearGradient>
<radialGradient id="paint4_radial_9_356" cx="0" cy="0" r="1" gradientUnits="userSpaceOnUse" gradientTransform="translate(23.9108 36.3238) scale(11.0104 10.8354)">
<stop stop-color="#FFD1A9"/>
<stop offset="0.99" stop-color="#F9B7A0"/>
</radialGradient>
<radialGradient id="paint5_radial_9_356" cx="0" cy="0" r="1" gradientUnits="userSpaceOnUse" gradientTransform="translate(8.9346 18.6471) scale(2.71142 2.66833)">
<stop stop-color="#EBD7E3"/>
<stop offset="0.98" stop-color="#BDAFD2"/>
</radialGradient>
<radialGradient id="paint6_radial_9_356" cx="0" cy="0" r="1" gradientUnits="userSpaceOnUse" gradientTransform="translate(38.849 18.6471) rotate(180) scale(2.71142 2.66833)">
<stop stop-color="#EBD7E3"/>
<stop offset="0.98" stop-color="#BDAFD2"/>
</radialGradient>
<radialGradient id="paint7_radial_9_356" cx="0" cy="0" r="1" gradientUnits="userSpaceOnUse" gradientTransform="translate(17.9917 32.5353) scale(9.85953 9.70283)">
<stop stop-color="#00FFFF"/>
<stop offset="0.99" stop-color="#26A9FF"/>
</radialGradient>
<linearGradient id="paint8_linear_9_356" x1="31.7663" y1="37.0158" x2="31.7663" y2="24.506" gradientUnits="userSpaceOnUse">
<stop stop-color="#6D47D3"/>
<stop offset="0.99" stop-color="#713592"/>
</linearGradient>
<radialGradient id="paint9_radial_9_356" cx="0" cy="0" r="1" gradientUnits="userSpaceOnUse" gradientTransform="translate(31.7093 32.7556) scale(5.94655 5.85204)">
<stop stop-color="#00FFFF"/>
<stop offset="0.99" stop-color="#26A9FF"/>
</radialGradient>
<radialGradient id="paint10_radial_9_356" cx="0" cy="0" r="1" gradientUnits="userSpaceOnUse" gradientTransform="translate(24.0375 11.729) scale(11.021 10.8458)">
<stop stop-color="#6D47D3"/>
<stop offset="0.99" stop-color="#713592"/>
</radialGradient>
<radialGradient id="paint11_radial_9_356" cx="0" cy="0" r="1" gradientUnits="userSpaceOnUse" gradientTransform="translate(7.08794 20.1517) scale(2.58599 3.23005)">
<stop stop-color="#6D47D3"/>
<stop offset="0.99" stop-color="#713592"/>
</radialGradient>
<radialGradient id="paint12_radial_9_356" cx="0" cy="0" r="1" gradientUnits="userSpaceOnUse" gradientTransform="translate(10.4744 20.1517) scale(2.5514 3.18684)">
<stop stop-color="#FFD1A9"/>
<stop offset="0.99" stop-color="#F99B98"/>
</radialGradient>
<radialGradient id="paint13_radial_9_356" cx="0" cy="0" r="1" gradientUnits="userSpaceOnUse" gradientTransform="translate(13.8626 20.1517) scale(2.51681 3.14364)">
<stop stop-color="#6D47D3"/>
<stop offset="0.99" stop-color="#713592"/>
</radialGradient>
<radialGradient id="paint14_radial_9_356" cx="0" cy="0" r="1" gradientUnits="userSpaceOnUse" gradientTransform="translate(17.2524 20.1517) scale(2.48222 3.10044)">
<stop stop-color="#FFD1A9"/>
<stop offset="0.99" stop-color="#F99B98"/>
</radialGradient>
<radialGradient id="paint15_radial_9_356" cx="0" cy="0" r="1" gradientUnits="userSpaceOnUse" gradientTransform="translate(20.6405 20.1517) scale(2.44928 3.05929)">
<stop stop-color="#6D47D3"/>
<stop offset="0.99" stop-color="#713592"/>
</radialGradient>
<radialGradient id="paint16_radial_9_356" cx="0" cy="0" r="1" gradientUnits="userSpaceOnUse" gradientTransform="translate(24.0451 20.1517) scale(2.4394 3.04694)">
<stop stop-color="#FFD1A9"/>
<stop offset="0.99" stop-color="#F99B98"/>
</radialGradient>
<radialGradient id="paint17_radial_9_356" cx="0" cy="0" r="1" gradientUnits="userSpaceOnUse" gradientTransform="translate(27.4415 20.1517) scale(2.46081 3.07369)">
<stop stop-color="#6D47D3"/>
<stop offset="0.99" stop-color="#713592"/>
</radialGradient>
<radialGradient id="paint18_radial_9_356" cx="0" cy="0" r="1" gradientUnits="userSpaceOnUse" gradientTransform="translate(30.8296 20.1517) scale(2.4954 3.11689)">
<stop stop-color="#FFD1A9"/>
<stop offset="0.99" stop-color="#F99B98"/>
</radialGradient>
<radialGradient id="paint19_radial_9_356" cx="0" cy="0" r="1" gradientUnits="userSpaceOnUse" gradientTransform="translate(34.2178 20.1517) scale(2.52834 3.15804)">
<stop stop-color="#6D47D3"/>
<stop offset="0.99" stop-color="#713592"/>
</radialGradient>
<radialGradient id="paint20_radial_9_356" cx="0" cy="0" r="1" gradientUnits="userSpaceOnUse" gradientTransform="translate(37.6059 20.1517) scale(2.56293 3.20125)">
<stop stop-color="#FFD1A9"/>
<stop offset="0.99" stop-color="#F99B98"/>
</radialGradient>
<radialGradient id="paint21_radial_9_356" cx="0" cy="0" r="1" gradientUnits="userSpaceOnUse" gradientTransform="translate(40.994 20.1517) scale(2.59752 3.24445)">
<stop stop-color="#6D47D3"/>
<stop offset="0.99" stop-color="#713592"/>
</radialGradient>
<radialGradient id="paint22_radial_9_356" cx="0" cy="0" r="1" gradientUnits="userSpaceOnUse" gradientTransform="translate(23.987 13.9235) scale(13.2791 15.0208)">
<stop stop-color="#7C65E0"/>
<stop offset="0.99" stop-color="#954CB8"/>
</radialGradient>
<linearGradient id="paint23_linear_9_356" x1="19.1574" y1="32.1717" x2="19.1574" y2="23.3375" gradientUnits="userSpaceOnUse">
<stop stop-color="#953D5E"/>
<stop offset="1" stop-color="#86CCD9"/>
</linearGradient>
<linearGradient id="paint24_linear_9_356" x1="31.9395" y1="32.7473" x2="31.9395" y2="25.2265" gradientUnits="userSpaceOnUse">
<stop stop-color="#953D5E"/>
<stop offset="1" stop-color="#86CCD9"/>
</linearGradient>
<radialGradient id="paint25_radial_9_356" cx="0" cy="0" r="1" gradientUnits="userSpaceOnUse" gradientTransform="translate(17.62 28.7261) scale(3.01762 2.96966)">
<stop stop-color="#7C65E0"/>
<stop offset="0.99" stop-color="#954CB8"/>
</radialGradient>
<radialGradient id="paint26_radial_9_356" cx="0" cy="0" r="1" gradientUnits="userSpaceOnUse" gradientTransform="translate(17.4786 26.5835) scale(2.76844 2.72444)">
<stop stop-color="#7C65E0"/>
<stop offset="0.99" stop-color="#954CB8"/>
</radialGradient>
<linearGradient id="paint27_linear_9_356" x1="13.7408" y1="5.51953" x2="43.9889" y2="5.51953" gradientUnits="userSpaceOnUse">
<stop stop-color="#FF6E27"/>
<stop offset="1" stop-color="#E03347"/>
</linearGradient>
<linearGradient id="paint28_linear_9_356" x1="29.0739" y1="9.48255" x2="43.4081" y2="9.48255" gradientUnits="userSpaceOnUse">
<stop stop-color="#C73E27"/>
<stop offset="1" stop-color="#A4152C"/>
</linearGradient>
<linearGradient id="paint29_linear_9_356" x1="48.1335" y1="26.5577" x2="51.3745" y2="17.4527" gradientUnits="userSpaceOnUse">
<stop offset="0.04" stop-color="#FF8447"/>
<stop offset="0.26" stop-color="#ED3D47"/>
<stop offset="1" stop-color="#FF8427"/>
</linearGradient>
<linearGradient id="paint30_linear_9_356" x1="46.8799" y1="26.0232" x2="50.0567" y2="17.0985" gradientUnits="userSpaceOnUse">
<stop stop-color="#FFA700"/>
<stop offset="1" stop-color="#FFD328"/>
</linearGradient>
<linearGradient id="paint31_linear_9_356" x1="46.9296" y1="25.5703" x2="49.8175" y2="17.4573" gradientUnits="userSpaceOnUse">
<stop offset="0.04" stop-color="#FF8447"/>
<stop offset="0.26" stop-color="#ED3D47"/>
<stop offset="1" stop-color="#FF8427"/>
</linearGradient>
<linearGradient id="paint32_linear_9_356" x1="47.0795" y1="25.6082" x2="49.9576" y2="17.5227" gradientUnits="userSpaceOnUse">
<stop stop-color="#FFA700"/>
<stop offset="1" stop-color="#FF9C28"/>
</linearGradient>
<linearGradient id="paint33_linear_9_356" x1="49.7186" y1="19.5819" x2="47.748" y2="25.2042" gradientUnits="userSpaceOnUse">
<stop offset="0.04" stop-color="#FF8447"/>
<stop offset="0.26" stop-color="#ED3D47"/>
<stop offset="1" stop-color="#FF8427"/>
</linearGradient>
<linearGradient id="paint34_linear_9_356" x1="49.532" y1="19.5166" x2="47.5614" y2="25.1388" gradientUnits="userSpaceOnUse">
<stop stop-color="#FFA700"/>
<stop offset="1" stop-color="#FFD328"/>
</linearGradient>
<linearGradient id="paint35_linear_9_356" x1="54.3251" y1="16.1002" x2="57.8983" y2="11.9833" gradientUnits="userSpaceOnUse">
<stop offset="0.04" stop-color="#FF8447"/>
<stop offset="0.26" stop-color="#ED3D47"/>
<stop offset="1" stop-color="#FF8427"/>
</linearGradient>
<linearGradient id="paint36_linear_9_356" x1="53.7826" y1="15.5684" x2="57.2844" y2="11.5336" gradientUnits="userSpaceOnUse">
<stop stop-color="#FFA700"/>
<stop offset="1" stop-color="#FFD328"/>
</linearGradient>
<linearGradient id="paint37_linear_9_356" x1="53.9027" y1="15.3401" x2="57.0863" y2="11.672" gradientUnits="userSpaceOnUse">
<stop offset="0.04" stop-color="#FF8447"/>
<stop offset="0.26" stop-color="#ED3D47"/>
<stop offset="1" stop-color="#FF8427"/>
</linearGradient>
<linearGradient id="paint38_linear_9_356" x1="53.9748" y1="15.3916" x2="57.1474" y2="11.7361" gradientUnits="userSpaceOnUse">
<stop stop-color="#FFA700"/>
<stop offset="1" stop-color="#FF9C28"/>
</linearGradient>
<linearGradient id="paint39_linear_9_356" x1="56.8984" y1="12.4545" x2="54.7093" y2="14.9843" gradientUnits="userSpaceOnUse">
<stop offset="0.04" stop-color="#FF8447"/>
<stop offset="0.26" stop-color="#ED3D47"/>
<stop offset="1" stop-color="#FF8427"/>
</linearGradient>
<linearGradient id="paint40_linear_9_356" x1="56.8163" y1="12.3836" x2="54.6272" y2="14.9133" gradientUnits="userSpaceOnUse">
<stop stop-color="#FFA700"/>
<stop offset="1" stop-color="#FFD328"/>
</linearGradient>
</defs>
</svg>
