<svg width="79" height="236" viewBox="0 0 79 236" fill="none" xmlns="http://www.w3.org/2000/svg">
<rect width="79" height="158" fill="url(#paint0_linear_3_1141)"/>
<path d="M0 132C0 114.879 13.8792 101 31 101H48C65.1208 101 79 114.879 79 132V205C79 222.121 65.1208 236 48 236H31C13.8792 236 0 222.121 0 205V132Z" fill="url(#paint1_linear_3_1141)"/>
<path d="M0 132C0 114.879 13.8792 101 31 101H48C65.1208 101 79 114.879 79 132V205C79 222.121 65.1208 236 48 236H31C13.8792 236 0 222.121 0 205V132Z" fill="url(#paint2_linear_3_1141)"/>
<ellipse cx="39.5" cy="124.5" rx="39.5" ry="20.5" fill="url(#paint3_linear_3_1141)"/>
<ellipse cx="39.5" cy="120.5" rx="39.5" ry="21.5" fill="url(#paint4_linear_3_1141)"/>
<g filter="url(#filter0_d_3_1141)">
<ellipse cx="39.5" cy="119.5" rx="32.5" ry="17.5" fill="url(#paint5_linear_3_1141)"/>
</g>
<defs>
<filter id="filter0_d_3_1141" x="6" y="102" width="67" height="39" filterUnits="userSpaceOnUse" color-interpolation-filters="sRGB">
<feFlood flood-opacity="0" result="BackgroundImageFix"/>
<feColorMatrix in="SourceAlpha" type="matrix" values="0 0 0 0 0 0 0 0 0 0 0 0 0 0 0 0 0 0 127 0" result="hardAlpha"/>
<feOffset dy="3"/>
<feGaussianBlur stdDeviation="0.5"/>
<feComposite in2="hardAlpha" operator="out"/>
<feColorMatrix type="matrix" values="0 0 0 0 0.254902 0 0 0 0 0.596078 0 0 0 0 0.756863 0 0 0 1 0"/>
<feBlend mode="normal" in2="BackgroundImageFix" result="effect1_dropShadow_3_1141"/>
<feBlend mode="normal" in="SourceGraphic" in2="effect1_dropShadow_3_1141" result="shape"/>
</filter>
<linearGradient id="paint0_linear_3_1141" x1="39.5" y1="142.5" x2="39.5" y2="-8.12671e-07" gradientUnits="userSpaceOnUse">
<stop stop-color="#76ACFC"/>
<stop offset="0.159375" stop-color="#7794FA" stop-opacity="0.920051"/>
<stop offset="0.820833" stop-color="#829AF1" stop-opacity="0"/>
</linearGradient>
<linearGradient id="paint1_linear_3_1141" x1="74.5" y1="173.816" x2="3.49548" y2="172.992" gradientUnits="userSpaceOnUse">
<stop stop-color="#C5ADDC"/>
<stop offset="0.130208" stop-color="#9082D3"/>
<stop offset="0.223958" stop-color="#7E74CB"/>
<stop offset="0.322917" stop-color="#443BBD"/>
<stop offset="0.453125" stop-color="#433BB9"/>
<stop offset="0.567708" stop-color="#443BB8"/>
<stop offset="0.671875" stop-color="#6965D9"/>
<stop offset="0.78125" stop-color="#4344C0"/>
<stop offset="0.880208" stop-color="#5651CC"/>
<stop offset="1" stop-color="#483DCB"/>
</linearGradient>
<linearGradient id="paint2_linear_3_1141" x1="39.5" y1="101" x2="39.5" y2="236" gradientUnits="userSpaceOnUse">
<stop stop-color="#2C3CA6" stop-opacity="0"/>
<stop offset="0.529167" stop-color="#273CA0" stop-opacity="0"/>
<stop offset="0.888542" stop-color="#163A8C"/>
</linearGradient>
<linearGradient id="paint3_linear_3_1141" x1="-6.5" y1="124.023" x2="83.49" y2="127.169" gradientUnits="userSpaceOnUse">
<stop stop-color="#DAD3FD"/>
<stop offset="0.169792" stop-color="#E2DEFE"/>
<stop offset="0.341667" stop-color="#EBE5FF"/>
<stop offset="0.555208" stop-color="#D4D6FA"/>
<stop offset="0.648958" stop-color="#988DE2"/>
<stop offset="0.815625" stop-color="#9096E7"/>
<stop offset="1" stop-color="#879DEC"/>
</linearGradient>
<linearGradient id="paint4_linear_3_1141" x1="-6.5" y1="120" x2="83.5" y2="123" gradientUnits="userSpaceOnUse">
<stop stop-color="#F2F7FF"/>
<stop offset="0.169792" stop-color="#E2DEFE"/>
<stop offset="0.341667" stop-color="#D1E5F5"/>
<stop offset="0.596875" stop-color="#D3EAFF"/>
<stop offset="0.815625" stop-color="#CBDDFF"/>
<stop offset="1" stop-color="#C4FAFF"/>
</linearGradient>
<linearGradient id="paint5_linear_3_1141" x1="40" y1="137" x2="40.0252" y2="102" gradientUnits="userSpaceOnUse">
<stop offset="0.14375" stop-color="#478EED"/>
<stop offset="0.411458" stop-color="#68E9FF"/>
<stop offset="0.796875" stop-color="#9EFFFB"/>
<stop offset="1" stop-color="#A7FFFA"/>
</linearGradient>
</defs>
</svg>
