<svg width="91" height="124" viewBox="0 0 91 124" fill="none" xmlns="http://www.w3.org/2000/svg">
<g style="mix-blend-mode:multiply">
<path d="M18.1084 94.2172L40.3203 103.827L37.5465 110.238L36.7077 109.875L32.8765 118.731L33.5262 113.776L15.3687 105.921L12.2025 109.786L16.0337 100.931L15.3346 100.628L18.1084 94.2172ZM79.7826 38.6045L75.6932 36.8353C74.1378 36.1624 73.3939 37.3545 72.712 38.9307L71.4477 41.853L60.8748 37.2788C61.0663 36.836 61.2579 36.3932 61.4418 35.9682L63.7136 36.9511L65.1771 33.5683L62.7655 32.5249C64.1198 29.0108 65.262 25.6993 66.1581 22.7649C66.2347 22.5878 66.3114 22.4107 66.388 22.2336L69.6385 23.6399L69.6332 27.6325L79.9614 32.1008L79.609 32.9155L80.7303 36.7017L84.7559 26.4376C84.8169 26.34 84.8555 26.23 84.869 26.1158C84.8825 26.0016 84.8706 25.886 84.834 25.7776C84.8108 25.5652 84.7313 25.3636 84.604 25.1939C84.4767 25.0242 84.3062 24.8925 84.1104 24.8127L67.5607 17.6527C67.7063 17.3162 67.7295 16.9268 67.7899 16.5954C68.6779 12.8165 68.6132 10.3285 67.6695 9.92023C66.7258 9.51195 64.6297 11.5277 62.1257 15.3013L45.6284 8.16403C45.4348 8.08171 45.2232 8.05075 45.0135 8.07405C44.8037 8.09736 44.6028 8.17417 44.4297 8.29723C44.3288 8.34879 44.2399 8.42163 44.1692 8.51075C44.0984 8.59988 44.0473 8.7032 44.0196 8.81364L39.2774 18.7677L42.8221 17.0003L43.1746 16.1856L53.4854 20.6464L56.3918 17.9089L59.6423 19.3152C59.2407 20.0035 58.8414 20.7348 58.4092 21.494C57.1706 23.7335 55.8924 26.2083 54.6076 28.8904L52.2308 27.8621L50.7673 31.2449L53.0217 32.2202C52.8378 32.6453 52.6463 33.0881 52.4547 33.5308L41.7944 28.9188L43.0204 26.0851C43.7023 24.5088 44.1142 23.1732 42.5064 22.4776L38.4695 20.7311C36.9141 20.0582 36.1702 21.2502 35.4883 22.8264L31.7261 31.5224C31.0441 33.0987 30.6322 34.4344 32.24 35.13L36.3294 36.8992C37.8847 37.5721 38.6287 36.3801 39.3106 34.8038L40.5749 31.8815L48.756 42.1282L45.5761 49.4782C44.0757 50.4325 42.3688 51.0012 40.6067 51.1339L33.6163 48.1096L33.9075 47.4366L30.4123 45.9244L27.9067 51.7159L29.5145 52.4115C28.9536 53.0723 28.4624 53.79 28.0487 54.5527C27.995 54.6767 27.9491 54.783 27.9108 54.8715L27.7958 55.1372L27.5861 55.0464L27.5172 55.2058C27.5172 55.2058 27.2255 56.5514 26.8327 58.6103L26.6055 58.512L17.7632 78.9503L18.759 82.4509L18.2303 83.6729L21.2362 84.9734C24.1372 86.2284 22.6507 89.6643 22.1603 90.7978L20.352 94.9776L38.1076 102.659L39.9159 98.4795C40.4063 97.346 41.8927 93.9101 44.7938 95.1652L47.7996 96.4656L48.3283 95.2436L51.5616 93.5726L60.3886 73.1698L60.0915 73.0412C61.3231 71.3454 62.0867 70.2039 62.0867 70.2039L62.1556 70.0445C62.1962 69.9712 62.2296 69.894 62.2553 69.8142C62.309 69.7115 62.3551 69.6049 62.3932 69.4955C62.6658 68.6717 62.8525 67.8223 62.9502 66.961L64.558 67.6566L67.0942 61.7943L63.4593 60.2217L63.1681 60.8947L56.1777 57.8705C55.0981 56.5014 54.3738 54.8806 54.0694 53.1527L57.2493 45.8027L70.3189 44.7498L69.0546 47.6721C68.3727 49.2484 67.9433 50.5765 69.5686 51.2796L73.658 53.0488C75.2308 53.7293 75.9572 52.5297 76.6392 50.9534L80.4014 42.2574C80.8954 40.684 81.3554 39.285 79.7826 38.6045ZM15.5822 91.5683L14.8307 91.2432L16.1486 88.197C16.8306 86.6207 17.2424 85.285 15.6347 84.5894L11.5977 82.8429C10.0424 82.17 9.29843 83.362 8.61649 84.9383L4.85429 93.6343C4.17234 95.2106 3.76046 96.5462 5.36824 97.2418L9.45761 99.011C11.013 99.6839 11.7569 98.4919 12.4388 96.9157L13.8947 93.5506L14.6461 93.8757L14.7687 93.5923C14.9203 93.5325 15.0584 93.4419 15.1743 93.3263L15.7975 92.7969L15.3063 92.2059L15.5822 91.5683ZM52.9108 100.716L48.8214 98.9472C47.2661 98.2743 46.5222 99.4663 45.8402 101.043L44.5223 104.089L43.8407 103.794L43.5649 104.432L42.8481 104.458L42.8715 105.267C42.8772 105.438 42.9176 105.606 42.9902 105.76L42.8676 106.043L43.6191 106.368L42.1632 109.733C41.4813 111.31 41.0519 112.638 42.6772 113.341L46.7666 115.11C48.3394 115.791 49.0658 114.591 49.7478 113.015L53.4947 104.354C54.0773 102.672 54.4836 101.397 52.9108 100.716Z" fill="#C5C5C5"/>
</g>
<path d="M40.197 103.584L17.9677 93.9671L15.2015 100.361L37.4309 109.978L40.197 103.584Z" fill="url(#paint0_linear_26_4704)"/>
<path d="M21.078 84.7157C23.979 85.9708 22.4925 89.4067 22.0021 90.5402L20.1938 94.7199L37.9493 102.402L39.7577 98.2218C40.248 97.0883 41.7345 93.6524 44.6355 94.9075L47.6414 96.208L63.0273 60.6446L33.4581 47.8519L18.0721 83.4153L21.078 84.7157Z" fill="url(#paint1_linear_26_4704)"/>
<path d="M64.984 33.2955L52.0343 27.6931L50.5708 31.0758L63.5205 36.6783L64.984 33.2955Z" fill="url(#paint2_linear_26_4704)"/>
<path d="M55.2537 38.0429L40.3817 31.6087L48.7538 42.0852L52.7558 43.8166L56.7578 45.548L70.1257 44.477L55.2537 38.0429Z" fill="url(#paint3_linear_26_4704)"/>
<path d="M72.9497 42.3136L38.8891 27.5778L37.6631 30.4116L71.7237 45.1474L72.9497 42.3136Z" fill="url(#paint4_linear_26_4704)"/>
<path d="M73.4124 52.7533L69.323 50.9841C67.7676 50.3112 68.1271 48.9529 68.809 47.3766L72.5712 38.6806C73.2532 37.1043 73.9447 35.8896 75.5525 36.5852L79.6418 38.3544C81.1972 39.0273 80.8377 40.3857 80.1558 41.9619L76.3936 50.658C75.6592 52.2115 74.9677 53.4262 73.4124 52.7533Z" fill="url(#paint5_linear_26_4704)"/>
<path d="M32.1517 34.9025L36.1886 36.6491C37.744 37.322 38.4879 36.1299 39.1699 34.5537L42.9321 25.8577C43.614 24.2814 44.0259 22.9457 42.4181 22.2501L38.3812 20.5036C36.8258 19.8307 36.0819 21.0227 35.3999 22.599L31.6377 31.295C30.9558 32.8713 30.5439 34.2069 32.1517 34.9025Z" fill="url(#paint6_linear_26_4704)"/>
<path d="M43.8614 8.55598L41.0569 15.0381L53.2901 20.3306L56.2161 17.6437L69.3929 23.3444L69.4378 27.3167L81.671 32.6092L84.4754 26.127C84.6016 25.8228 84.6046 25.4819 84.4838 25.1779C84.363 24.8738 84.1281 24.6311 83.8299 24.5021L45.4877 7.91393C45.1894 7.78485 44.8517 7.77984 44.5474 7.89997C44.2431 8.02009 43.9967 8.25573 43.8614 8.55598Z" fill="url(#paint7_linear_26_4704)"/>
<path style="mix-blend-mode:multiply" d="M69.8841 18.4687L59.5733 14.0079L57.7113 18.3116L68.0221 22.7724L69.8841 18.4687Z" fill="url(#paint8_linear_26_4704)"/>
<path style="mix-blend-mode:multiply" d="M63.1969 38.2414L49.7579 32.4272L48.5779 35.1547L62.0169 40.9689L63.1969 38.2414Z" fill="url(#paint9_linear_26_4704)"/>
<path style="mix-blend-mode:multiply" d="M61.9995 40.9613L55.2537 38.0428L48.5779 35.1547L46.9076 39.0156L48.7538 42.0852L52.7558 43.8166L56.7578 45.548L60.3521 44.7691L61.9995 40.9613Z" fill="url(#paint10_linear_26_4704)"/>
<path d="M67.5288 9.67013C65.1695 8.64943 57.7324 20.6125 50.913 36.3752L45.2429 49.4812L53.7711 53.1708L59.4412 40.0648C66.2607 24.3022 69.8705 10.6833 67.5288 9.67013Z" fill="url(#paint11_linear_26_4704)"/>
<path d="M46.3265 8.27685L42.6639 16.7426L39.224 18.5555L43.9487 8.59379C43.9487 8.59379 44.0896 7.30908 46.3265 8.27685Z" fill="url(#paint12_linear_26_4704)"/>
<path d="M83.0609 24.1694L79.3983 32.6352L80.5196 36.4214L84.5453 26.1573C84.5453 26.1573 85.2804 25.1296 83.0609 24.1694Z" fill="url(#paint13_linear_26_4704)"/>
<path d="M66.9011 61.5216L63.3185 59.9716L60.8129 65.7631L64.3955 67.313L66.9011 61.5216Z" fill="url(#paint14_linear_26_4704)"/>
<path d="M33.7493 47.1789L30.1667 45.629L27.6611 51.4204L31.2437 52.9704L33.7493 47.1789Z" fill="url(#paint15_linear_26_4704)"/>
<path d="M46.5329 114.883L42.4436 113.114C40.8882 112.441 41.2553 111.065 41.9373 109.489L45.6995 100.792C46.3814 99.2162 47.0729 98.0015 48.6807 98.6971L52.7701 100.466C54.3254 101.139 53.966 102.498 53.284 104.074L49.5218 112.77C48.7874 114.323 48.0883 115.556 46.5329 114.883Z" fill="url(#paint16_linear_26_4704)"/>
<path d="M5.27224 97.0321L9.30918 98.7786C10.8645 99.4515 11.6161 98.2418 12.2981 96.6656L16.0603 87.9695C16.7422 86.3933 17.1541 85.0576 15.5463 84.362L11.5094 82.6155C9.95401 81.9426 9.21009 83.1346 8.52814 84.7109L4.76594 93.4069C4.08399 94.9832 3.66445 96.3365 5.27224 97.0321Z" fill="url(#paint17_linear_26_4704)"/>
<path d="M51.4034 93.315L48.1701 94.9859L58.1158 71.9973L60.2304 72.9121L51.4034 93.315Z" fill="url(#paint18_linear_26_4704)"/>
<path d="M17.605 78.6926L18.6008 82.1932L28.5465 59.2046L26.4319 58.2897L17.605 78.6926Z" fill="url(#paint19_linear_26_4704)"/>
<g style="mix-blend-mode:multiply">
<g style="mix-blend-mode:multiply" opacity="0.05">
<g style="mix-blend-mode:multiply" opacity="0.05">
<path d="M57.2242 66.4812C55.6952 65.799 54.3573 64.7499 53.3259 63.4245C52.2944 62.0992 51.6005 60.5373 51.3038 58.8737L42.7756 55.1841C41.36 56.1069 39.7465 56.6705 38.0743 56.8262C36.4021 56.9819 34.7214 56.725 33.1773 56.0777C27.9345 53.8095 24.816 61.0178 24.816 61.0178C24.816 61.0178 19.2715 86.5414 22.9764 88.1442C30.2115 91.2744 26.474 104.565 26.474 104.565C26.474 104.565 34.1261 92.968 40.8368 95.8713C44.5417 97.4741 59.3309 75.9502 59.3309 75.9502C59.3309 75.9502 62.4495 68.7419 57.2242 66.4812Z" fill="#F8F8F8"/>
</g>
</g>
<g style="mix-blend-mode:multiply" opacity="0.1">
<g style="mix-blend-mode:multiply" opacity="0.1">
<path d="M57.3315 66.2332C55.8025 65.551 54.4646 64.5019 53.4331 63.1765C52.4017 61.8512 51.7077 60.2893 51.4111 58.6257L42.8829 54.9361C41.4672 55.8589 39.8537 56.4225 38.1816 56.5782C36.5094 56.7339 34.8287 56.477 33.2846 55.8297C28.0418 53.5615 24.9232 60.7698 24.9232 60.7698C24.9232 60.7698 19.4018 86.2403 23.1067 87.8431C30.3417 90.9732 26.6043 104.264 26.6043 104.264C26.6043 104.264 34.2563 92.6668 40.9671 95.5702C44.637 97.1579 59.4918 75.5782 59.4918 75.5782C59.4918 75.5782 62.5568 68.4939 57.3315 66.2332Z" fill="#F1F1F1"/>
</g>
</g>
<g style="mix-blend-mode:multiply" opacity="0.14">
<g style="mix-blend-mode:multiply" opacity="0.14">
<path d="M57.4847 65.8791C55.9557 65.1968 54.6178 64.1477 53.5864 62.8224C52.555 61.497 51.861 59.9351 51.5644 58.2715L43.0361 54.5819C41.6205 55.5047 40.007 56.0683 38.3348 56.224C36.6626 56.3797 34.982 56.1228 33.4378 55.4755C28.1951 53.2073 25.0765 60.4156 25.0765 60.4156C25.0765 60.4156 19.5321 85.9392 23.237 87.5421C30.472 90.6722 26.7346 103.963 26.7346 103.963C26.7346 103.963 34.3866 92.3658 41.0974 95.2691C44.8022 96.872 59.5915 75.348 59.5915 75.348C59.5915 75.348 62.71 68.1397 57.4847 65.8791Z" fill="#EAEAEA"/>
</g>
</g>
<g style="mix-blend-mode:multiply" opacity="0.19">
<g style="mix-blend-mode:multiply" opacity="0.19">
<path d="M57.615 65.578C56.086 64.8957 54.7481 63.8466 53.7166 62.5213C52.6852 61.1959 51.9912 59.634 51.6946 57.9704L43.1664 54.2808C41.7508 55.2036 40.1372 55.7672 38.4651 55.9229C36.7929 56.0786 35.1122 55.8217 33.5681 55.1744C28.3253 52.9062 25.2068 60.1145 25.2068 60.1145C25.2068 60.1145 19.647 85.6735 23.3519 87.2764C30.5869 90.4065 26.8495 103.697 26.8495 103.697C26.8495 103.697 34.5015 92.1001 41.2123 95.0034C44.8822 96.5912 59.7217 75.0469 59.7217 75.0469C59.7217 75.0469 62.8403 67.8386 57.615 65.578Z" fill="#E3E3E3"/>
</g>
</g>
<g style="mix-blend-mode:multiply" opacity="0.24">
<g style="mix-blend-mode:multiply" opacity="0.24">
<path d="M57.7453 65.2769C56.217 64.5972 54.8789 63.5513 53.8462 62.2292C52.8136 60.907 52.1173 59.3482 51.8172 57.687L43.289 53.9974C41.8728 54.9161 40.26 55.4759 38.5893 55.6285C36.9186 55.781 35.2401 55.5219 33.6984 54.8733C28.4556 52.6051 25.337 59.8134 25.337 59.8134C25.337 59.8134 19.7926 85.337 23.4975 86.9399C30.7325 90.07 26.9951 103.36 26.9951 103.36C26.9951 103.36 34.6471 91.7636 41.3579 94.6669C45.0628 96.2698 59.852 74.7458 59.852 74.7458C59.852 74.7458 62.9706 67.5375 57.7453 65.2769Z" fill="#DCDCDC"/>
</g>
</g>
<g style="mix-blend-mode:multiply" opacity="0.29">
<g style="mix-blend-mode:multiply" opacity="0.29">
<path d="M57.8755 64.9758C56.3472 64.2962 55.0092 63.2502 53.9765 61.9281C52.9438 60.6059 52.2475 59.0471 51.9475 57.3859L43.4192 53.6963C42.0031 54.615 40.3902 55.1748 38.7195 55.3274C37.0488 55.48 35.3703 55.2208 33.8286 54.5723C28.5858 52.3041 25.4673 59.5124 25.4673 59.5124C25.4673 59.5124 19.9228 85.0359 23.6277 86.6388C30.8628 89.7689 27.1253 103.059 27.1253 103.059C27.1253 103.059 34.7774 91.4625 41.4881 94.3658C45.193 95.9687 59.9822 74.4447 59.9822 74.4447C59.9822 74.4447 63.1008 67.2364 57.8755 64.9758Z" fill="#D6D6D6"/>
</g>
</g>
<g style="mix-blend-mode:multiply" opacity="0.33">
<g style="mix-blend-mode:multiply" opacity="0.33">
<path d="M58.0058 64.6747C56.4775 63.9951 55.1394 62.9492 54.1067 61.627C53.0741 60.3048 52.3777 58.746 52.0777 57.0849L43.5495 53.3952C42.1333 54.3139 40.5204 54.8737 38.8498 55.0263C37.1791 55.1789 35.5006 54.9197 33.9589 54.2712C28.7161 52.003 25.5975 59.2113 25.5975 59.2113C25.5975 59.2113 20.0454 84.7526 23.7503 86.3554C30.9854 89.4855 27.2556 102.758 27.2556 102.758C27.2556 102.758 34.9 91.1791 41.6107 94.0825C45.3156 95.6853 60.1125 74.1437 60.1125 74.1437C60.1125 74.1437 63.2311 66.9353 58.0058 64.6747Z" fill="#CFCFCF"/>
</g>
</g>
<g style="mix-blend-mode:multiply" opacity="0.38">
<g style="mix-blend-mode:multiply" opacity="0.38">
<path d="M58.0977 64.4622C56.5694 63.7825 55.2314 62.7366 54.1987 61.4145C53.166 60.0923 52.4697 58.5335 52.1697 56.8723L43.6414 53.1827C42.2253 54.1014 40.6124 54.6612 38.9417 54.8138C37.271 54.9663 35.5925 54.7072 34.0508 54.0587C28.808 51.7904 25.6895 58.9987 25.6895 58.9987C25.6895 58.9987 20.1757 84.4515 23.8806 86.0543C31.1156 89.1845 27.3782 102.475 27.3782 102.475C27.3782 102.475 35.0302 90.8781 41.741 93.7814C45.4109 95.3691 60.2581 73.8072 60.2581 73.8072C60.2581 73.8072 63.323 66.7228 58.0977 64.4622Z" fill="#C8C8C8"/>
</g>
</g>
<g style="mix-blend-mode:multiply" opacity="0.43">
<g style="mix-blend-mode:multiply" opacity="0.43">
<path d="M58.2663 64.0725C56.738 63.3929 55.3999 62.347 54.3673 61.0248C53.3346 59.7027 52.6383 58.1439 52.3383 56.4827L43.81 52.7931C42.3938 53.7118 40.781 54.2715 39.1103 54.4241C37.4396 54.5767 35.7611 54.3176 34.2194 53.669C28.9766 51.4008 25.8581 58.6091 25.8581 58.6091C25.8581 58.6091 20.306 84.1504 24.0108 85.7532C31.2459 88.8834 27.5085 102.174 27.5085 102.174C27.5085 102.174 35.1605 90.577 41.8712 93.4803C45.5761 95.0831 60.373 73.5415 60.373 73.5415C60.373 73.5415 63.4916 66.3332 58.2663 64.0725Z" fill="#C1C1C1"/>
</g>
</g>
<g style="mix-blend-mode:multiply" opacity="0.48">
<g style="mix-blend-mode:multiply" opacity="0.48">
<path d="M58.3965 63.7714C56.8683 63.0918 55.5302 62.0459 54.4975 60.7237C53.4648 59.4016 52.7685 57.8428 52.4685 56.1816L43.9403 52.492C42.5241 53.4107 40.9112 53.9704 39.2405 54.123C37.5698 54.2756 35.8914 54.0165 34.3497 53.3679C29.1069 51.0997 25.9883 58.308 25.9883 58.308C25.9883 58.308 20.4132 83.9024 24.1181 85.5053C31.3531 88.6354 27.6157 101.926 27.6157 101.926C27.6157 101.926 35.2678 90.329 41.9785 93.2323C45.6834 94.8352 60.4803 73.2935 60.4803 73.2935C60.4803 73.2935 63.6218 66.0321 58.3965 63.7714Z" fill="#BABABA"/>
</g>
</g>
<g style="mix-blend-mode:multiply" opacity="0.52">
<g style="mix-blend-mode:multiply" opacity="0.52">
<path d="M58.5268 63.4704C56.9985 62.7907 55.6605 61.7448 54.6278 60.4226C53.5951 59.1005 52.8988 57.5417 52.5988 55.8805L44.0705 52.1909C42.6544 53.1096 41.0415 53.6694 39.3708 53.8219C37.7001 53.9745 36.0216 53.7154 34.4799 53.0668C29.2372 50.7986 26.1186 58.0069 26.1186 58.0069C26.1186 58.0069 20.5665 83.5482 24.2714 85.1511C31.5064 88.2812 27.769 101.572 27.769 101.572C27.769 101.572 35.421 89.9748 42.1318 92.8781C45.8367 94.481 60.6335 72.9393 60.6335 72.9393C60.6335 72.9393 63.7521 65.731 58.5268 63.4704Z" fill="#B3B3B3"/>
</g>
</g>
<g style="mix-blend-mode:multiply" opacity="0.57">
<g style="mix-blend-mode:multiply" opacity="0.57">
<path d="M58.6571 63.1693C57.1288 62.4896 55.7907 61.4437 54.758 60.1216C53.7254 58.7994 53.0291 57.2406 52.729 55.5794L44.2008 51.8898C42.7846 52.8085 41.1718 53.3683 39.5011 53.5209C37.8304 53.6734 36.1519 53.4143 34.6102 52.7657C29.3674 50.4975 26.2488 57.7058 26.2488 57.7058C26.2488 57.7058 20.6967 83.2471 24.4016 84.85C31.6367 87.9801 27.8992 101.27 27.8992 101.27C27.8992 101.27 35.5513 89.6737 42.262 92.577C45.9669 94.1799 60.7638 72.6382 60.7638 72.6382C60.7638 72.6382 63.8824 65.4299 58.6571 63.1693Z" fill="#ACACAC"/>
</g>
</g>
<g style="mix-blend-mode:multiply" opacity="0.62">
<g style="mix-blend-mode:multiply" opacity="0.62">
<path d="M58.7873 62.8682C57.259 62.1886 55.921 61.1426 54.8883 59.8205C53.8556 58.4983 53.1593 56.9395 52.8593 55.2783L44.331 51.5887C42.9149 52.5074 41.302 53.0672 39.6313 53.2198C37.9606 53.3724 36.2821 53.1132 34.7404 52.4647C29.4977 50.1965 26.3714 57.4225 26.3714 57.4225C26.3714 57.4225 20.827 82.946 24.5319 84.5489C31.7669 87.679 28.0295 100.969 28.0295 100.969C28.0295 100.969 35.6815 89.3726 42.3923 92.2759C46.0972 93.8788 60.8864 72.3548 60.8864 72.3548C60.8864 72.3548 64.0126 65.1288 58.7873 62.8682Z" fill="#A5A5A5"/>
</g>
</g>
<g style="mix-blend-mode:multiply" opacity="0.67">
<g style="mix-blend-mode:multiply" opacity="0.67">
<path d="M58.9099 62.5848C57.3809 61.9025 56.043 60.8535 55.0116 59.5281C53.9802 58.2027 53.2862 56.6409 52.9896 54.9773L44.4613 51.2876C43.0457 52.2105 41.4322 52.774 39.76 52.9297C38.0878 53.0854 36.4072 52.8286 34.863 52.1813C29.6203 49.9131 26.5017 57.1214 26.5017 57.1214C26.5017 57.1214 20.9573 82.6449 24.6622 84.2478C31.8972 87.3779 28.1598 100.668 28.1598 100.668C28.1598 100.668 35.8118 89.0715 42.5226 91.9749C46.1925 93.5626 61.0243 72.036 61.0243 72.036C61.0243 72.036 64.1352 64.8455 58.9099 62.5848Z" fill="#9E9E9E"/>
</g>
</g>
<g style="mix-blend-mode:multiply" opacity="0.71">
<g style="mix-blend-mode:multiply" opacity="0.71">
<path d="M59.0402 62.2838C57.5112 61.6015 56.1733 60.5524 55.1418 59.2271C54.1104 57.9017 53.4164 56.3398 53.1198 54.6762L44.5916 50.9866C43.176 51.9094 41.5625 52.473 39.8903 52.6287C38.2181 52.7844 36.5374 52.5275 34.9933 51.8803C29.7505 49.612 26.632 56.8204 26.632 56.8204C26.632 56.8204 21.0875 82.3439 24.7924 83.9468C32.0274 87.0769 28.29 100.367 28.29 100.367C28.29 100.367 35.942 88.7705 42.6528 91.6738C46.3577 93.2767 61.1469 71.7527 61.1469 71.7527C61.1469 71.7527 64.2655 64.5444 59.0402 62.2838Z" fill="#979797"/>
</g>
</g>
<g style="mix-blend-mode:multiply" opacity="0.76">
<g style="mix-blend-mode:multiply" opacity="0.76">
<path d="M59.1704 61.9827C57.6414 61.3004 56.3035 60.2514 55.2721 58.926C54.2407 57.6006 53.5467 56.0388 53.2501 54.3751L44.7218 50.6855C43.3062 51.6084 41.6927 52.1719 40.0205 52.3276C38.3483 52.4833 36.6677 52.2264 35.1235 51.5792C29.8808 49.311 26.7622 56.5193 26.7622 56.5193C26.7622 56.5193 21.1794 82.1314 24.8843 83.7343C32.1194 86.8644 28.4509 99.9954 28.4509 99.9954C28.4509 99.9954 36.034 88.558 42.7447 91.4613C46.4496 93.0642 61.2388 71.5402 61.2388 71.5402C61.2388 71.5402 64.3957 64.2433 59.1704 61.9827Z" fill="#919191"/>
</g>
</g>
<g style="mix-blend-mode:multiply" opacity="0.81">
<g style="mix-blend-mode:multiply" opacity="0.81">
<path d="M59.3007 61.6816C57.7695 60.9914 56.4321 59.9329 55.4043 58.5979C54.3766 57.2629 53.6898 55.6918 53.4033 54.0209L44.8751 50.3313C43.4595 51.2541 41.846 51.8177 40.1738 51.9734C38.5016 52.1291 36.8209 51.8722 35.2768 51.2249C30.034 48.9567 26.9155 56.165 26.9155 56.165C26.9155 56.165 21.348 81.7417 25.0529 83.3446C32.288 86.4747 28.5505 99.7651 28.5505 99.7651C28.5505 99.7651 36.2026 88.1683 42.9133 91.0716C46.6182 92.6745 61.4074 71.1505 61.4074 71.1505C61.4074 71.1505 64.526 63.9422 59.3007 61.6816Z" fill="#8A8A8A"/>
</g>
</g>
<g style="mix-blend-mode:multiply" opacity="0.86">
<g style="mix-blend-mode:multiply" opacity="0.86">
<path d="M59.431 61.3805C57.902 60.6983 56.564 59.6492 55.5326 58.3238C54.5012 56.9984 53.8072 55.4366 53.5106 53.773L44.9823 50.0834C43.5667 51.0062 41.9532 51.5698 40.281 51.7255C38.6089 51.8811 36.9282 51.6243 35.3841 50.977C30.1413 48.7088 27.0227 55.9171 27.0227 55.9171C27.0227 55.9171 21.4783 81.4407 25.1832 83.0435C32.4182 86.1737 28.6808 99.464 28.6808 99.464C28.6808 99.464 36.3328 87.8673 43.0436 90.7706C46.7485 92.3734 61.5377 70.8495 61.5377 70.8495C61.5377 70.8495 64.6563 63.6412 59.431 61.3805Z" fill="#838383"/>
</g>
</g>
<g style="mix-blend-mode:multiply" opacity="0.9">
<g style="mix-blend-mode:multiply" opacity="0.9">
<path d="M59.5612 61.0794C58.0329 60.3998 56.6949 59.3539 55.6622 58.0317C54.6295 56.7096 53.9332 55.1508 53.6332 53.4896L45.1049 49.8C43.6888 50.7187 42.0759 51.2784 40.4052 51.431C38.7345 51.5836 37.056 51.3245 35.5143 50.6759C30.2715 48.4077 27.153 55.616 27.153 55.616C27.153 55.616 21.6085 81.1396 25.3134 82.7424C32.5485 85.8726 28.811 99.1629 28.811 99.1629C28.811 99.1629 36.4631 87.5662 43.1738 90.4695C46.8787 92.0723 61.6679 70.5484 61.6679 70.5484C61.6679 70.5484 64.7865 63.3401 59.5612 61.0794Z" fill="#7C7C7C"/>
</g>
</g>
<g style="mix-blend-mode:multiply" opacity="0.95">
<g style="mix-blend-mode:multiply" opacity="0.95">
<path d="M59.6915 60.7783C58.1632 60.0987 56.8251 59.0528 55.7925 57.7306C54.7598 56.4085 54.0635 54.8497 53.7635 53.1885L45.2352 49.4989C43.819 50.4176 42.2062 50.9773 40.5355 51.1299C38.8648 51.2825 37.1863 51.0234 35.6446 50.3748C30.4018 48.1066 27.2833 55.3149 27.2833 55.3149C27.2833 55.3149 21.7388 80.8385 25.4437 82.4413C32.6787 85.5715 28.9413 98.8618 28.9413 98.8618C28.9413 98.8618 36.5934 87.2651 43.3041 90.1684C46.9741 91.7561 61.7906 70.265 61.7906 70.265C61.7906 70.265 64.9168 63.039 59.6915 60.7783Z" fill="#757575"/>
</g>
</g>
<g style="mix-blend-mode:multiply">
<path d="M59.8217 60.4772C58.2935 59.7976 56.9554 58.7517 55.9227 57.4295C54.89 56.1074 54.1937 54.5486 53.8937 52.8874L45.3655 49.1978C43.9493 50.1165 42.3364 50.6762 40.6657 50.8288C38.995 50.9814 37.3166 50.7223 35.7749 50.0737C30.5321 47.8055 27.4135 55.0138 27.4135 55.0138C27.4135 55.0138 21.8691 80.5374 25.574 82.1402C32.809 85.2704 29.0716 98.5607 29.0716 98.5607C29.0716 98.5607 36.7236 86.964 43.4344 89.8673C47.1393 91.4701 61.9285 69.9462 61.9285 69.9462C61.9285 69.9462 65.047 62.7379 59.8217 60.4772Z" fill="#6E6E6E"/>
</g>
</g>
<path d="M59.8217 60.4772C58.2935 59.7976 56.9554 58.7517 55.9227 57.4295C54.89 56.1074 54.1937 54.5486 53.8937 52.8874L45.3655 49.1978C43.9493 50.1165 42.3364 50.6762 40.6657 50.8288C38.995 50.9814 37.3166 50.7223 35.7749 50.0737C30.5321 47.8055 27.4135 55.0138 27.4135 55.0138C27.4135 55.0138 21.8691 80.5374 25.574 82.1402C32.809 85.2704 29.0716 98.5607 29.0716 98.5607C29.0716 98.5607 36.7236 86.964 43.4344 89.8673C47.1393 91.4701 61.9285 69.9462 61.9285 69.9462C61.9285 69.9462 65.047 62.7379 59.8217 60.4772Z" fill="url(#paint20_linear_26_4704)"/>
<path d="M50.6396 51.9211L48.2978 50.908C46.7342 50.2315 44.911 50.9677 44.2254 52.5523L39.7583 62.8777C39.0727 64.4623 39.7845 66.2953 41.3481 66.9717L43.6899 67.9849C45.2534 68.6613 47.0767 67.9251 47.7622 66.3405L52.2294 56.0151C52.9149 54.4305 52.2032 52.5976 50.6396 51.9211Z" fill="url(#paint21_linear_26_4704)"/>
<path d="M50.3867 52.5056L48.0275 51.4849C46.7824 50.9463 45.3305 51.5325 44.7846 52.7943L40.3098 63.1374C39.7639 64.3992 40.3307 65.8588 41.5758 66.3974L43.935 67.4181C45.1801 67.9568 46.632 67.3706 47.1779 66.1088L51.6527 55.7656C52.1986 54.5038 51.6318 53.0443 50.3867 52.5056Z" fill="url(#paint22_linear_26_4704)"/>
<path d="M13.9828 105.048L16.8332 98.4594C17.0554 97.9458 18.5425 96.5707 28.1368 100.721C37.731 104.872 37.6988 106.961 37.5072 107.404L34.6569 113.992L13.9828 105.048Z" fill="url(#paint23_linear_26_4704)"/>
<path d="M27.8916 101.288C22.4915 98.9519 17.8007 97.8056 17.41 98.7089L14.8124 104.713L34.3505 113.166L36.948 107.162C37.3388 106.258 33.2917 103.624 27.8916 101.288Z" fill="url(#paint24_linear_26_4704)"/>
<path d="M13.9828 105.048L12.0749 109.458L15.2411 105.592L13.9828 105.048Z" fill="url(#paint25_linear_26_4704)"/>
<path d="M34.6569 113.992L32.749 118.402L33.4161 113.455L34.6569 113.992Z" fill="url(#paint26_linear_26_4704)"/>
<g style="mix-blend-mode:multiply">
<path d="M27.5 54.862L35.7474 55.844L38.7975 50.8558L38.1344 50.7582L35.4223 55.1567L27.8031 54.2573C27.6707 54.5154 27.5613 54.7203 27.5 54.862Z" fill="#DEDEDE"/>
</g>
<g style="mix-blend-mode:multiply">
<path d="M61.9974 69.7869L55.635 64.448L57.1822 58.8097L57.7074 59.2262L56.341 64.2068L62.2132 69.1443C62.1332 69.4251 62.0413 69.6376 61.9974 69.7869Z" fill="#DEDEDE"/>
</g>
<g style="mix-blend-mode:multiply">
<g style="mix-blend-mode:multiply">
<path d="M51.7427 64.9087C51.7427 64.9087 51.5664 65.3161 51.4096 66.1103C51.2527 66.9045 50.8356 67.9645 50.3593 69.2092C49.8194 70.6497 49.2082 72.0624 48.528 73.4421C48.1909 74.2214 47.7587 74.9806 47.3014 75.7499C46.844 76.5193 46.3867 77.2886 45.9042 78.0681C45.4133 78.827 44.882 79.5587 44.3128 80.2601C43.8009 80.9638 43.1841 81.6221 42.6428 82.2499C42.1014 82.8778 41.5251 83.4905 41.0494 84.0626C40.5736 84.6348 40.1252 85.2397 39.7675 85.7788C39.1653 86.6714 38.7338 87.6688 38.4955 88.7188C38.3885 89.1087 38.3825 89.5189 38.4782 89.9098C38.4334 89.8156 38.3998 89.7164 38.3779 89.6141C38.3171 89.3141 38.3103 89.0049 38.3579 88.7013C38.4033 88.2175 38.5117 87.7413 38.6802 87.2849C38.8805 86.6722 39.137 86.0793 39.4465 85.5138C39.8177 84.8753 40.2234 84.2576 40.6618 83.6637C41.1431 83.0309 41.6691 82.4384 42.2356 81.8004C42.802 81.1624 43.351 80.5168 43.863 79.8132C44.3749 79.1095 44.9021 78.3704 45.4216 77.649C45.9412 76.9277 46.3985 76.1583 46.8307 75.3991C47.2629 74.64 47.6951 73.8808 48.0847 73.1242C48.8834 71.6615 49.539 70.2421 50.0754 69.0023C51.1622 66.634 51.7427 64.9087 51.7427 64.9087Z" fill="#B8B8B8"/>
</g>
</g>
<g style="mix-blend-mode:multiply">
<g style="mix-blend-mode:multiply">
<path d="M38.2862 59.087C38.2862 59.087 37.566 60.7518 36.5009 63.2136C35.9645 64.4534 35.3439 65.888 34.8597 67.4867C34.5226 68.266 34.3001 69.1159 34.0601 69.9582C33.8202 70.8006 33.59 71.6682 33.385 72.5257C33.1801 73.3832 33.0023 74.2735 32.8749 75.1435C32.7475 76.0135 32.6354 76.8481 32.5407 77.6902C32.4461 78.5323 32.3919 79.3289 32.2602 80.113C32.1275 80.8391 31.9551 81.5578 31.7439 82.2655C31.5436 82.8782 31.2871 83.4711 30.9777 84.0366C30.7577 84.4685 30.4913 84.8751 30.1835 85.2489C29.9892 85.4906 29.7532 85.6949 29.487 85.8517C29.3975 85.9058 29.3021 85.9492 29.2028 85.981C29.5619 85.7922 29.864 85.5085 30.0764 85.1605C30.6685 84.2624 31.0991 83.267 31.3484 82.2205C31.4964 81.5907 31.6226 80.8674 31.7216 80.1112C31.8205 79.355 31.8823 78.5407 31.9518 77.7087C32.0213 76.8767 32.1138 75.9916 32.2587 75.1292C32.4036 74.2667 32.5672 73.2652 32.7296 72.4103C32.892 71.5554 33.1975 70.6574 33.4626 69.8049C33.7277 68.9524 34.0201 68.1327 34.3048 67.3307C34.9791 65.7722 35.5997 64.3376 36.1361 63.0978C36.6724 61.8581 37.2818 60.8812 37.6757 60.2106C38.0695 59.5399 38.2862 59.087 38.2862 59.087Z" fill="#B8B8B8"/>
</g>
</g>
<path d="M47.2183 66.0631L50.9346 57.4734L49.7617 58.1224L46.2064 66.3402L40.9636 64.072L44.5189 55.8542L44.1573 54.4362L40.4027 63.1145C40.1385 63.7251 40.1245 64.4143 40.3638 65.0304C40.603 65.6465 41.076 66.1391 41.6785 66.3998L44.0203 67.4129C44.6186 67.6499 45.2871 67.6415 45.8841 67.3895C46.4811 67.1376 46.9597 66.6618 47.2183 66.0631Z" fill="url(#paint27_linear_26_4704)"/>
<path d="M62.835 31.693C63.2411 30.7543 63.6012 29.9219 63.8828 28.8873L52.1433 33.6274C51.7448 34.5484 51.377 35.3985 50.9479 36.3903L50.8866 36.532L62.835 31.693Z" fill="url(#paint28_radial_26_4704)"/>
<path d="M55.3588 26.8185C54.9373 27.7926 54.3957 28.7567 53.9087 29.7865L65.1455 25.2494C65.4489 24.3084 65.737 23.4027 66.0174 22.5148L55.3588 26.8185Z" fill="url(#paint29_radial_26_4704)"/>
<path d="M59.0847 19.7888C58.5354 20.7707 57.9708 21.788 57.3832 22.8584L67.0112 18.9709C67.2468 18.0426 67.4978 17.0788 67.6492 16.3453L59.0847 19.7888Z" fill="url(#paint30_radial_26_4704)"/>
<path d="M18.2901 106.217L19.7057 106.83L22.9162 99.409L21.3933 99.0446L18.2901 106.217Z" fill="url(#paint31_radial_26_4704)"/>
<path d="M26.713 100.799L25.3324 100.202L22.0529 107.782L23.4335 108.38L26.713 100.799Z" fill="url(#paint32_radial_26_4704)"/>
<path d="M25.7523 109.446L27.1329 110.043L30.4124 102.463L29.0318 101.866L25.7523 109.446Z" fill="url(#paint33_radial_26_4704)"/>
<path d="M33.976 104.488L32.6644 103.732L29.4539 111.152L30.8345 111.75L33.976 104.488Z" fill="url(#paint34_radial_26_4704)"/>
<defs>
<linearGradient id="paint0_linear_26_4704" x1="26.3831" y1="104.967" x2="29.1951" y2="98.4671" gradientUnits="userSpaceOnUse">
<stop stop-color="#5E5E5E"/>
<stop offset="1" stop-color="#1B1C1C"/>
</linearGradient>
<linearGradient id="paint1_linear_26_4704" x1="23.8725" y1="70.0082" x2="53.4418" y2="82.8009" gradientUnits="userSpaceOnUse">
<stop stop-color="#5E5E5E"/>
<stop offset="1" stop-color="#1B1C1C"/>
</linearGradient>
<linearGradient id="paint2_linear_26_4704" x1="58.5255" y1="30.4804" x2="57.0544" y2="33.8808" gradientUnits="userSpaceOnUse">
<stop stop-color="#1B1C1C"/>
<stop offset="1" stop-color="#5E5E5E"/>
</linearGradient>
<linearGradient id="paint3_linear_26_4704" x1="55.2461" y1="38.0606" x2="52.7558" y2="43.8166" gradientUnits="userSpaceOnUse">
<stop stop-color="#1B1C1C"/>
<stop offset="1" stop-color="#5E5E5E"/>
</linearGradient>
<linearGradient id="paint4_linear_26_4704" x1="55.903" y1="34.9597" x2="54.677" y2="37.7934" gradientUnits="userSpaceOnUse">
<stop stop-color="#5E5E5E"/>
<stop offset="0.11" stop-color="#B8B8B8"/>
<stop offset="0.25" stop-color="#4D4D4D"/>
<stop offset="0.52" stop-color="#2D2E2E"/>
<stop offset="0.85" stop-color="#7F8282"/>
<stop offset="1" stop-color="#1B1C1C"/>
</linearGradient>
<linearGradient id="paint5_linear_26_4704" x1="77.352" y1="38.0366" x2="71.3677" y2="51.8687" gradientUnits="userSpaceOnUse">
<stop stop-color="#5E5E5E"/>
<stop offset="0.09" stop-color="#616161"/>
<stop offset="0.17" stop-color="#6B6C6C"/>
<stop offset="0.24" stop-color="#7C7D7D"/>
<stop offset="0.28" stop-color="#898B8B"/>
<stop offset="0.35" stop-color="#696B6B"/>
<stop offset="0.42" stop-color="#505252"/>
<stop offset="0.5" stop-color="#3F4040"/>
<stop offset="0.58" stop-color="#343535"/>
<stop offset="0.67" stop-color="#313232"/>
<stop offset="0.89" stop-color="#222323"/>
<stop offset="1" stop-color="#9BA1A1"/>
</linearGradient>
<linearGradient id="paint6_linear_26_4704" x1="40.3964" y1="21.3124" x2="34.144" y2="35.7644" gradientUnits="userSpaceOnUse">
<stop stop-color="#5E5E5E"/>
<stop offset="0.09" stop-color="#616161"/>
<stop offset="0.17" stop-color="#6B6C6C"/>
<stop offset="0.24" stop-color="#7C7D7D"/>
<stop offset="0.28" stop-color="#898B8B"/>
<stop offset="0.35" stop-color="#696B6B"/>
<stop offset="0.42" stop-color="#505252"/>
<stop offset="0.5" stop-color="#3F4040"/>
<stop offset="0.58" stop-color="#343535"/>
<stop offset="0.67" stop-color="#313232"/>
<stop offset="0.89" stop-color="#222323"/>
<stop offset="1" stop-color="#9BA1A1"/>
</linearGradient>
<linearGradient id="paint7_linear_26_4704" x1="42.6967" y1="11.248" x2="83.3806" y2="28.8493" gradientUnits="userSpaceOnUse">
<stop stop-color="#FF473F"/>
<stop offset="1" stop-color="#D40A00"/>
</linearGradient>
<linearGradient id="paint8_linear_26_4704" x1="58.6461" y1="16.1509" x2="68.9569" y2="20.6117" gradientUnits="userSpaceOnUse">
<stop stop-color="white"/>
<stop offset="0.48" stop-color="#7A7A7A"/>
<stop offset="1" stop-color="white"/>
</linearGradient>
<linearGradient id="paint9_linear_26_4704" x1="49.1679" y1="33.791" x2="62.5894" y2="39.5976" gradientUnits="userSpaceOnUse">
<stop stop-color="white"/>
<stop offset="0.48" stop-color="#7A7A7A"/>
<stop offset="1" stop-color="white"/>
</linearGradient>
<linearGradient id="paint10_linear_26_4704" x1="47.329" y1="38.0415" x2="60.7505" y2="43.8481" gradientUnits="userSpaceOnUse">
<stop stop-color="white"/>
<stop offset="0.48" stop-color="#7A7A7A"/>
<stop offset="1" stop-color="white"/>
</linearGradient>
<linearGradient id="paint11_linear_26_4704" x1="54.2538" y1="28.6533" x2="62.782" y2="32.3429" gradientUnits="userSpaceOnUse">
<stop stop-color="#FF473F"/>
<stop offset="1" stop-color="#D40A00"/>
</linearGradient>
<linearGradient id="paint12_linear_26_4704" x1="41.5733" y1="12.8856" x2="43.8976" y2="13.8912" gradientUnits="userSpaceOnUse">
<stop stop-color="#5E5E5E"/>
<stop offset="1" stop-color="#1B1C1C"/>
</linearGradient>
<linearGradient id="paint13_linear_26_4704" x1="80.632" y1="29.7838" x2="82.9563" y2="30.7893" gradientUnits="userSpaceOnUse">
<stop stop-color="#5E5E5E"/>
<stop offset="1" stop-color="#1B1C1C"/>
</linearGradient>
<linearGradient id="paint14_linear_26_4704" x1="62.0619" y1="62.8762" x2="65.6445" y2="64.4261" gradientUnits="userSpaceOnUse">
<stop stop-color="#5E5E5E"/>
<stop offset="1" stop-color="#1B1C1C"/>
</linearGradient>
<linearGradient id="paint15_linear_26_4704" x1="32.5101" y1="50.091" x2="28.9275" y2="48.5411" gradientUnits="userSpaceOnUse">
<stop stop-color="#5E5E5E"/>
<stop offset="1" stop-color="#1B1C1C"/>
</linearGradient>
<linearGradient id="paint16_linear_26_4704" x1="50.4802" y1="100.148" x2="44.4959" y2="113.981" gradientUnits="userSpaceOnUse">
<stop stop-color="#5E5E5E"/>
<stop offset="0.09" stop-color="#616161"/>
<stop offset="0.17" stop-color="#6B6C6C"/>
<stop offset="0.24" stop-color="#7C7D7D"/>
<stop offset="0.28" stop-color="#898B8B"/>
<stop offset="0.35" stop-color="#696B6B"/>
<stop offset="0.42" stop-color="#505252"/>
<stop offset="0.5" stop-color="#3F4040"/>
<stop offset="0.58" stop-color="#343535"/>
<stop offset="0.67" stop-color="#313232"/>
<stop offset="0.89" stop-color="#222323"/>
<stop offset="1" stop-color="#9BA1A1"/>
</linearGradient>
<linearGradient id="paint17_linear_26_4704" x1="13.517" y1="83.442" x2="7.27216" y2="97.8763" gradientUnits="userSpaceOnUse">
<stop stop-color="#5E5E5E"/>
<stop offset="0.09" stop-color="#616161"/>
<stop offset="0.17" stop-color="#6B6C6C"/>
<stop offset="0.24" stop-color="#7C7D7D"/>
<stop offset="0.28" stop-color="#898B8B"/>
<stop offset="0.35" stop-color="#696B6B"/>
<stop offset="0.42" stop-color="#505252"/>
<stop offset="0.5" stop-color="#3F4040"/>
<stop offset="0.58" stop-color="#343535"/>
<stop offset="0.67" stop-color="#313232"/>
<stop offset="0.89" stop-color="#222323"/>
<stop offset="1" stop-color="#9BA1A1"/>
</linearGradient>
<linearGradient id="paint18_linear_26_4704" x1="53.1429" y1="83.4916" x2="55.2575" y2="84.4064" gradientUnits="userSpaceOnUse">
<stop stop-color="#1B1C1C"/>
<stop offset="1" stop-color="#5E5E5E"/>
</linearGradient>
<linearGradient id="paint19_linear_26_4704" x1="23.5912" y1="70.7065" x2="21.4766" y2="69.7916" gradientUnits="userSpaceOnUse">
<stop stop-color="#5E5E5E"/>
<stop offset="1" stop-color="#1B1C1C"/>
</linearGradient>
<linearGradient id="paint20_linear_26_4704" x1="22.1057" y1="67.3304" x2="56.6032" y2="82.2552" gradientUnits="userSpaceOnUse">
<stop stop-color="#FF473F"/>
<stop offset="1" stop-color="#D40A00"/>
</linearGradient>
<linearGradient id="paint21_linear_26_4704" x1="42.7105" y1="67.0355" x2="49.7905" y2="50.6707" gradientUnits="userSpaceOnUse">
<stop stop-color="#1B1C1C"/>
<stop offset="1" stop-color="#5E5E5E"/>
</linearGradient>
<linearGradient id="paint22_linear_26_4704" x1="42.9481" y1="66.4865" x2="49.5223" y2="51.2906" gradientUnits="userSpaceOnUse">
<stop stop-color="#5E5E5E"/>
<stop offset="1" stop-color="#1B1C1C"/>
</linearGradient>
<linearGradient id="paint23_linear_26_4704" x1="24.4359" y1="109.276" x2="28.313" y2="100.314" gradientUnits="userSpaceOnUse">
<stop stop-color="#5E5E5E"/>
<stop offset="1" stop-color="#1B1C1C"/>
</linearGradient>
<linearGradient id="paint24_linear_26_4704" x1="24.6734" y1="108.727" x2="28.0448" y2="100.934" gradientUnits="userSpaceOnUse">
<stop stop-color="#940700"/>
<stop offset="1" stop-color="#FF473F"/>
</linearGradient>
<linearGradient id="paint25_linear_26_4704" x1="12.7577" y1="109.606" x2="14.7039" y2="105.108" gradientUnits="userSpaceOnUse">
<stop stop-color="#5E5E5E"/>
<stop offset="1" stop-color="#1B1C1C"/>
</linearGradient>
<linearGradient id="paint26_linear_26_4704" x1="32.1909" y1="118.014" x2="34.1372" y2="113.515" gradientUnits="userSpaceOnUse">
<stop stop-color="#5E5E5E"/>
<stop offset="1" stop-color="#1B1C1C"/>
</linearGradient>
<linearGradient id="paint27_linear_26_4704" x1="42.8944" y1="66.6104" x2="47.7523" y2="55.3818" gradientUnits="userSpaceOnUse">
<stop stop-color="#1B1C1C"/>
<stop offset="1" stop-color="#5E5E5E"/>
</linearGradient>
<radialGradient id="paint28_radial_26_4704" cx="0" cy="0" r="1" gradientUnits="userSpaceOnUse" gradientTransform="translate(55.5199 26.1102) rotate(23.395) scale(8.72093 8.83815)">
<stop offset="0.47" stop-color="white"/>
<stop offset="0.62" stop-color="#FCFCFC"/>
<stop offset="0.73" stop-color="#F3F3F2"/>
<stop offset="0.84" stop-color="#E3E3E1"/>
<stop offset="0.94" stop-color="#CDCDCA"/>
<stop offset="1" stop-color="#BBBAB6"/>
</radialGradient>
<radialGradient id="paint29_radial_26_4704" cx="0" cy="0" r="1" gradientUnits="userSpaceOnUse" gradientTransform="translate(55.5199 26.1102) rotate(23.395) scale(8.72093 8.83815)">
<stop offset="0.47" stop-color="white"/>
<stop offset="0.62" stop-color="#FCFCFC"/>
<stop offset="0.73" stop-color="#F3F3F2"/>
<stop offset="0.84" stop-color="#E3E3E1"/>
<stop offset="0.94" stop-color="#CDCDCA"/>
<stop offset="1" stop-color="#BBBAB6"/>
</radialGradient>
<radialGradient id="paint30_radial_26_4704" cx="0" cy="0" r="1" gradientUnits="userSpaceOnUse" gradientTransform="translate(55.5199 26.1102) rotate(23.395) scale(8.72093 8.83815)">
<stop offset="0.47" stop-color="white"/>
<stop offset="0.62" stop-color="#FCFCFC"/>
<stop offset="0.73" stop-color="#F3F3F2"/>
<stop offset="0.84" stop-color="#E3E3E1"/>
<stop offset="0.94" stop-color="#CDCDCA"/>
<stop offset="1" stop-color="#BBBAB6"/>
</radialGradient>
<radialGradient id="paint31_radial_26_4704" cx="0" cy="0" r="1" gradientUnits="userSpaceOnUse" gradientTransform="translate(20.5731 102.811) rotate(23.395) scale(2.87524 2.91388)">
<stop offset="0.47" stop-color="white"/>
<stop offset="0.62" stop-color="#FCFCFC"/>
<stop offset="0.73" stop-color="#F3F3F2"/>
<stop offset="0.84" stop-color="#E3E3E1"/>
<stop offset="0.94" stop-color="#CDCDCA"/>
<stop offset="1" stop-color="#BBBAB6"/>
</radialGradient>
<radialGradient id="paint32_radial_26_4704" cx="0" cy="0" r="1" gradientUnits="userSpaceOnUse" gradientTransform="translate(24.3589 104.322) rotate(23.395) scale(2.95141 2.99107)">
<stop offset="0.47" stop-color="white"/>
<stop offset="0.62" stop-color="#FCFCFC"/>
<stop offset="0.73" stop-color="#F3F3F2"/>
<stop offset="0.84" stop-color="#E3E3E1"/>
<stop offset="0.94" stop-color="#CDCDCA"/>
<stop offset="1" stop-color="#BBBAB6"/>
</radialGradient>
<radialGradient id="paint33_radial_26_4704" cx="0" cy="0" r="1" gradientUnits="userSpaceOnUse" gradientTransform="translate(28.0988 105.94) rotate(23.395) scale(2.95141 2.99107)">
<stop offset="0.47" stop-color="white"/>
<stop offset="0.62" stop-color="#FCFCFC"/>
<stop offset="0.73" stop-color="#F3F3F2"/>
<stop offset="0.84" stop-color="#E3E3E1"/>
<stop offset="0.94" stop-color="#CDCDCA"/>
<stop offset="1" stop-color="#BBBAB6"/>
</radialGradient>
<radialGradient id="paint34_radial_26_4704" cx="0" cy="0" r="1" gradientUnits="userSpaceOnUse" gradientTransform="translate(31.7927 107.665) rotate(23.395) scale(2.87524 2.91389)">
<stop offset="0.47" stop-color="white"/>
<stop offset="0.62" stop-color="#FCFCFC"/>
<stop offset="0.73" stop-color="#F3F3F2"/>
<stop offset="0.84" stop-color="#E3E3E1"/>
<stop offset="0.94" stop-color="#CDCDCA"/>
<stop offset="1" stop-color="#BBBAB6"/>
</radialGradient>
</defs>
</svg>
