<svg width="118" height="141" viewBox="0 0 118 141" fill="none" xmlns="http://www.w3.org/2000/svg">
<g style="mix-blend-mode:multiply">
<path d="M22.5342 102.3L46.3717 117.344L42.0868 124.133L41.1866 123.565L35.2682 132.943L36.8652 127.42L17.3788 115.122L13.0811 118.94L18.9995 109.562L18.2493 109.089L22.5342 102.3ZM102.866 50.3528L98.4773 47.583C96.8081 46.5296 95.7496 47.7497 94.6961 49.4189L92.743 52.5135L81.3963 45.3522C81.6922 44.8834 81.9881 44.4145 82.2722 43.9644L84.7104 45.5031L86.9712 41.921L84.383 40.2875C86.5411 36.5356 88.421 32.9752 89.9536 29.7989C90.072 29.6113 90.1904 29.4238 90.3087 29.2362L93.7971 31.4379L93.1048 35.9838L104.189 42.9793L103.644 43.842L104.281 48.3608L110.664 37.415C110.751 37.3151 110.814 37.197 110.849 37.0694C110.884 36.9418 110.891 36.808 110.867 36.6777C110.877 36.4316 110.821 36.1874 110.704 35.9706C110.587 35.7538 110.414 35.5724 110.203 35.4453L92.4418 24.2359C92.6667 23.8796 92.7603 23.4404 92.8865 23.0742C94.555 18.9346 94.9084 16.0892 93.8956 15.4501C92.8829 14.8109 90.131 16.7194 86.609 20.5547L68.9044 9.38078C68.6964 9.2513 68.4588 9.17696 68.2141 9.16478C67.9695 9.15259 67.7257 9.20297 67.5059 9.31116C67.3813 9.35126 67.2668 9.41779 67.1702 9.50623C67.0737 9.59466 66.9973 9.7029 66.9465 9.82354L59.7938 20.284L64.1654 18.9256L64.7099 18.0629L75.7753 25.0466L79.5809 22.4656L83.0693 24.6672C82.4903 25.377 81.9063 26.1361 81.2798 26.9209C79.4736 29.2427 77.5815 31.825 75.6461 34.6423L73.0955 33.0325L70.8346 36.6147L73.254 38.1416C72.9699 38.5917 72.674 39.0606 72.3781 39.5295L60.9376 32.309L62.8315 29.3083C63.8849 27.6391 64.5872 26.194 62.8617 25.105L58.5293 22.3707C56.8601 21.3173 55.8016 22.5374 54.7481 24.2066L48.9363 33.4153C47.8828 35.0845 47.1806 36.5295 48.906 37.6185L53.2947 40.3883C54.9639 41.4418 56.0224 40.2216 57.0759 38.5524L59.029 35.4579L66.656 48.6374L61.7438 56.4207C59.8579 57.2306 57.8015 57.5631 55.7566 57.3888L48.2546 52.6541L48.7044 51.9414L44.9534 49.5741L41.0828 55.707L42.8082 56.7959C42.0511 57.445 41.364 58.1716 40.7582 58.9638C40.6753 59.0951 40.6043 59.2077 40.5451 59.3014C40.5049 59.3892 40.4531 59.4712 40.3912 59.5452L40.1662 59.4032L40.0596 59.572C40.0596 59.572 39.4936 61.0505 38.689 63.3227L38.4452 63.1688L24.7619 84.8495L25.3031 89.0199L24.4864 90.314L27.7122 92.3499C30.8255 94.3148 28.5292 97.9533 27.7717 99.1536L24.9782 103.58L44.0332 115.606L46.8267 111.18C47.5842 109.979 49.8806 106.341 52.9939 108.306L56.2197 110.342L57.0364 109.048L61.034 107.742L74.6699 86.1361L74.3511 85.9349C76.0559 84.2309 77.1283 83.072 77.1283 83.072L77.2348 82.9032C77.294 82.8272 77.3455 82.7455 77.3887 82.6593C77.468 82.5523 77.5392 82.4394 77.6017 82.3218C78.0562 81.434 78.4165 80.5011 78.6766 79.5383L80.402 80.6273L84.32 74.4195L80.419 71.9574L79.9692 72.6701L72.4672 67.9354C71.4636 66.1769 70.911 64.1974 70.8587 62.1734L75.7709 54.3901L90.9311 55.5922L88.978 58.6868C87.9246 60.3559 87.2223 61.801 88.9478 62.89L93.3364 65.6598C95.0244 66.7251 96.0642 65.4931 97.1177 63.8239L102.93 54.6152C103.786 52.9264 104.554 51.4181 102.866 50.3528ZM20.0905 98.8166L19.284 98.3076L21.32 95.0818C22.3734 93.4126 23.0756 91.9675 21.3502 90.8786L17.0178 88.1443C15.3486 87.0908 14.2901 88.3109 13.2366 89.9801L7.42475 99.1888C6.37128 100.858 5.66907 102.303 7.39453 103.392L11.7832 106.162C13.4524 107.215 14.5109 105.995 15.5644 104.326L17.8134 100.763L18.6198 101.272L18.8092 100.971C18.9934 100.931 19.1674 100.854 19.3204 100.743L20.1265 100.255L19.6644 99.4918L20.0905 98.8166ZM61.3544 116.126L56.9658 113.357C55.2966 112.303 54.2381 113.523 53.1846 115.192L51.1487 118.418L50.4172 117.957L49.9911 118.632L49.164 118.529L49.0518 119.455C49.0289 119.651 49.0465 119.85 49.1033 120.038L48.914 120.339L49.7017 120.836L47.4527 124.399C46.3992 126.068 45.697 127.513 47.4225 128.602L51.8111 131.372C53.4991 132.437 54.5388 131.205 55.5923 129.536L61.3805 120.365C62.3569 118.569 63.0424 117.192 61.3544 116.126Z" fill="#C5C5C5"/>
</g>
<path d="M46.2719 117.045L22.4156 101.989L18.1426 108.759L41.9988 123.816L46.2719 117.045Z" fill="url(#paint0_linear_26_5406)"/>
<path d="M27.575 92.0273C30.6883 93.9922 28.3919 97.6306 27.6344 98.831L24.8409 103.257L43.8959 115.283L46.6894 110.857C47.4469 109.657 49.7433 106.018 52.8566 107.983L56.0824 110.019L79.8506 72.3593L48.1173 52.3315L24.3491 89.9914L27.575 92.0273Z" fill="url(#paint1_linear_26_5406)"/>
<path d="M86.7964 41.5746L72.899 32.8036L70.6382 36.3858L84.5356 45.1568L86.7964 41.5746Z" fill="url(#paint2_linear_26_5406)"/>
<path d="M74.8146 45.1846L58.8541 35.1115L66.6609 48.5881L70.9558 51.2987L75.2507 54.0093L90.775 55.2577L74.8146 45.1846Z" fill="url(#paint3_linear_26_5406)"/>
<path d="M94.3875 53.3153L57.8341 30.2454L55.9402 33.2462L92.4936 56.3161L94.3875 53.3153Z" fill="url(#paint4_linear_26_5406)"/>
<path d="M93.1241 65.2897L88.7355 62.5199C87.0663 61.4665 87.7122 59.9859 88.7657 58.3167L94.5776 49.108C95.631 47.4389 96.6333 46.1832 98.3588 47.2722L102.747 50.042C104.417 51.0955 103.771 52.576 102.717 54.2452L96.9054 63.4539C95.7956 65.0875 94.7933 66.3432 93.1241 65.2897Z" fill="url(#paint5_linear_26_5406)"/>
<path d="M48.8438 37.3432L53.1761 40.0775C54.8453 41.1309 55.9039 39.9108 56.9574 38.2416L62.7692 29.0329C63.8227 27.3637 64.5249 25.9187 62.7994 24.8297L58.467 22.0954C56.7979 21.0419 55.7393 22.2621 54.6858 23.9313L48.874 33.14C47.8205 34.8091 47.1183 36.2542 48.8438 37.3432Z" fill="url(#paint6_linear_26_5406)"/>
<path d="M66.8092 9.50085L62.477 16.3652L75.6054 24.6509L79.4249 22.1311L93.5661 31.056L92.935 35.588L106.063 43.8738L110.396 37.0095C110.597 36.6911 110.663 36.306 110.58 35.9388C110.497 35.5717 110.271 35.2525 109.953 35.0516L68.7858 9.06993C68.4658 8.86787 68.0791 8.7998 67.7092 8.88043C67.3394 8.96106 67.0161 9.1839 66.8092 9.50085Z" fill="url(#paint7_linear_26_5406)"/>
<path style="mix-blend-mode:multiply" d="M94.9677 25.594L83.9023 18.6104L81.0378 23.149L92.1033 30.1327L94.9677 25.594Z" fill="url(#paint8_linear_26_5406)"/>
<path style="mix-blend-mode:multiply" d="M83.8957 46.8772L69.4731 37.7747L67.6503 40.663L82.0728 49.7654L83.8957 46.8772Z" fill="url(#paint9_linear_26_5406)"/>
<path style="mix-blend-mode:multiply" d="M82.054 49.7536L74.8146 45.1846L67.6503 40.663L65.0699 44.7515L66.661 48.5881L70.9559 51.2987L75.2507 54.0093L79.5091 53.7859L82.054 49.7536Z" fill="url(#paint10_linear_26_5406)"/>
<path d="M93.7771 15.1392C91.2452 13.5412 80.6548 25.7921 70.1201 42.484L61.3609 56.3626L70.5133 62.139L79.2725 48.2603C89.8072 31.5684 96.2903 16.7253 93.7771 15.1392Z" fill="url(#paint11_linear_26_5406)"/>
<path d="M69.686 9.63809L64.0281 18.6029L59.7691 20.0324L66.9029 9.56004C66.9029 9.56004 67.2854 8.12299 69.686 9.63809Z" fill="url(#paint12_linear_26_5406)"/>
<path d="M109.109 34.519L103.451 43.4838L104.087 48.0026L110.452 37.045C110.452 37.045 111.491 36.0223 109.109 34.519Z" fill="url(#paint13_linear_26_5406)"/>
<path d="M84.1452 74.0731L80.3004 71.6465L76.4298 77.7794L80.2746 80.2059L84.1452 74.0731Z" fill="url(#paint14_linear_26_5406)"/>
<path d="M48.5672 51.6188L44.7224 49.1923L40.8518 55.3251L44.6966 57.7517L48.5672 51.6188Z" fill="url(#paint15_linear_26_5406)"/>
<path d="M51.6008 131.082L47.2122 128.312C45.543 127.259 46.2008 125.759 47.2542 124.09L53.0661 114.882C54.1196 113.212 55.1218 111.957 56.8473 113.046L61.2359 115.816C62.9051 116.869 62.2592 118.35 61.2057 120.019L55.3939 129.227C54.2841 130.861 53.27 132.136 51.6008 131.082Z" fill="url(#paint16_linear_26_5406)"/>
<path d="M7.32045 103.135L11.6528 105.87C13.322 106.923 14.3924 105.684 15.4459 104.015L21.2577 94.8064C22.3112 93.1372 23.0134 91.6922 21.288 90.6032L16.9556 87.8689C15.2864 86.8154 14.2278 88.0356 13.1744 89.7048L7.36251 98.9135C6.30904 100.583 5.595 102.046 7.32045 103.135Z" fill="url(#paint17_linear_26_5406)"/>
<path d="M60.8967 107.419L56.8992 108.725L72.2633 84.3812L74.5327 85.8134L60.8967 107.419Z" fill="url(#paint18_linear_26_5406)"/>
<path d="M24.6247 84.5268L25.1659 88.6973L40.53 64.3534L38.2606 62.9211L24.6247 84.5268Z" fill="url(#paint19_linear_26_5406)"/>
<g style="mix-blend-mode:multiply">
<g style="mix-blend-mode:multiply" opacity="0.05">
<g style="mix-blend-mode:multiply" opacity="0.05">
<path d="M72.1881 77.9347C70.5508 76.8755 69.1958 75.4338 68.24 73.734C67.2842 72.0342 66.7562 70.1274 66.7018 68.178L57.5494 62.4017C55.7663 63.1913 53.8179 63.5352 51.8722 63.4038C49.9265 63.2724 48.0421 62.6696 46.3814 61.6474C40.7549 58.0963 35.9373 65.7296 35.9373 65.7296C35.9373 65.7296 25.1882 93.7729 29.1642 96.2823C36.9287 101.183 30.3557 115.628 30.3557 115.628C30.3557 115.628 41.1299 103.834 48.3317 108.379C52.3078 110.889 72.9783 89.1072 72.9783 89.1072C72.9783 89.1072 77.7959 81.4739 72.1881 77.9347Z" fill="#F8F8F8"/>
</g>
</g>
<g style="mix-blend-mode:multiply" opacity="0.1">
<g style="mix-blend-mode:multiply" opacity="0.1">
<path d="M72.3539 77.6722C70.7166 76.6129 69.3616 75.1712 68.4058 73.4714C67.4499 71.7716 66.922 69.8648 66.8675 67.9155L57.7151 62.1391C55.9321 62.9287 53.9836 63.2727 52.038 63.1412C50.0923 63.0098 48.2078 62.407 46.5471 61.3848C40.9207 57.8338 36.1031 65.467 36.1031 65.467C36.1031 65.467 25.3894 93.454 29.3655 95.9634C37.13 100.864 30.557 115.309 30.557 115.309C30.557 115.309 41.3311 103.515 48.533 108.061C52.4716 110.546 73.2269 88.7133 73.2269 88.7133C73.2269 88.7133 77.9616 81.2114 72.3539 77.6722Z" fill="#F1F1F1"/>
</g>
</g>
<g style="mix-blend-mode:multiply" opacity="0.14">
<g style="mix-blend-mode:multiply" opacity="0.14">
<path d="M72.5906 77.297C70.9533 76.2378 69.5983 74.7961 68.6424 73.0963C67.6866 71.3965 67.1587 69.4897 67.1042 67.5403L57.9518 61.764C56.1687 62.5536 54.2203 62.8975 52.2747 62.7661C50.329 62.6347 48.4445 62.0319 46.7838 61.0097C41.1573 57.4586 36.3398 65.0919 36.3398 65.0919C36.3398 65.0919 25.5906 93.1352 29.5667 95.6446C37.3312 100.545 30.7582 114.99 30.7582 114.99C30.7582 114.99 41.5323 103.196 48.7342 107.742C52.7103 110.251 73.3808 88.4695 73.3808 88.4695C73.3808 88.4695 78.1983 80.8362 72.5906 77.297Z" fill="#EAEAEA"/>
</g>
</g>
<g style="mix-blend-mode:multiply" opacity="0.19">
<g style="mix-blend-mode:multiply" opacity="0.19">
<path d="M72.7919 76.9782C71.1546 75.9189 69.7996 74.4772 68.8437 72.7774C67.8879 71.0776 67.36 69.1708 67.3055 67.2215L58.1531 61.4452C56.37 62.2348 54.4216 62.5787 52.476 62.4473C50.5303 62.3158 48.6458 61.713 46.9851 60.6908C41.3586 57.1398 36.5411 64.773 36.5411 64.773C36.5411 64.773 25.7682 92.8538 29.7443 95.3632C37.5088 100.264 30.9358 114.709 30.9358 114.709C30.9358 114.709 41.7099 102.915 48.9118 107.46C52.8504 109.946 73.5821 88.1506 73.5821 88.1506C73.5821 88.1506 78.3996 80.5174 72.7919 76.9782Z" fill="#E3E3E3"/>
</g>
</g>
<g style="mix-blend-mode:multiply" opacity="0.24">
<g style="mix-blend-mode:multiply" opacity="0.24">
<path d="M72.9931 76.6594C71.3561 75.6033 70.0004 74.1651 69.0426 72.4687C68.0848 70.7724 67.5536 68.8686 67.4949 66.9214L58.3425 61.1451C56.5595 61.9299 54.6124 62.2696 52.669 62.1349C50.7256 62.0002 48.844 61.3952 47.1863 60.372C41.5598 56.821 36.7422 64.4542 36.7422 64.4542C36.7422 64.4542 25.9931 92.4975 29.9691 95.0069C37.7337 99.9073 31.1606 114.353 31.1606 114.353C31.1606 114.353 41.9348 102.559 49.1367 107.104C53.1127 109.613 73.7832 87.8318 73.7832 87.8318C73.7832 87.8318 78.6008 80.1986 72.9931 76.6594Z" fill="#DCDCDC"/>
</g>
</g>
<g style="mix-blend-mode:multiply" opacity="0.29">
<g style="mix-blend-mode:multiply" opacity="0.29">
<path d="M73.1942 76.3406C71.5573 75.2844 70.2015 73.8463 69.2438 72.1499C68.286 70.4535 67.7548 68.5498 67.696 66.6026L58.5436 60.8263C56.7606 61.6111 54.8136 61.9507 52.8702 61.8161C50.9267 61.6814 49.0452 61.0764 47.3875 60.0532C41.761 56.5021 36.9434 64.1354 36.9434 64.1354C36.9434 64.1354 26.1943 92.1787 30.1703 94.6881C37.9348 99.5885 31.3618 114.034 31.3618 114.034C31.3618 114.034 42.136 102.24 49.3378 106.785C53.3139 109.295 73.9844 87.513 73.9844 87.513C73.9844 87.513 78.802 79.8797 73.1942 76.3406Z" fill="#D6D6D6"/>
</g>
</g>
<g style="mix-blend-mode:multiply" opacity="0.33">
<g style="mix-blend-mode:multiply" opacity="0.33">
<path d="M73.3955 76.0217C71.7586 74.9656 70.4028 73.5274 69.445 71.831C68.4873 70.1347 67.9561 68.2309 67.8973 66.2838L58.7449 60.5074C56.9619 61.2922 55.0149 61.6319 53.0715 61.4972C51.128 61.3625 49.2465 60.7576 47.5888 59.7343C41.9623 56.1833 37.1447 63.8165 37.1447 63.8165C37.1447 63.8165 26.3956 91.8598 30.3716 94.3692C38.1361 99.2696 31.5631 113.715 31.5631 113.715C31.5631 113.715 42.3372 101.921 49.5391 106.466C53.5152 108.976 74.1857 87.1941 74.1857 87.1941C74.1857 87.1941 79.0033 79.5609 73.3955 76.0217Z" fill="#CFCFCF"/>
</g>
</g>
<g style="mix-blend-mode:multiply" opacity="0.38">
<g style="mix-blend-mode:multiply" opacity="0.38">
<path d="M73.5375 75.7967C71.9005 74.7405 70.5448 73.3024 69.587 71.606C68.6292 69.9096 68.0981 68.0059 68.0393 66.0587L58.8869 60.2824C57.1039 61.0672 55.1569 61.4069 53.2134 61.2722C51.27 61.1375 49.3884 60.5325 47.7307 59.5093C42.1042 55.9583 37.2867 63.5915 37.2867 63.5915C37.2867 63.5915 26.5849 91.5598 30.5609 94.0692C38.3255 98.9696 31.7524 113.415 31.7524 113.415C31.7524 113.415 42.5266 101.621 49.7285 106.166C53.667 108.652 74.4105 86.8378 74.4105 86.8378C74.4105 86.8378 79.1452 79.3359 73.5375 75.7967Z" fill="#C8C8C8"/>
</g>
</g>
<g style="mix-blend-mode:multiply" opacity="0.43">
<g style="mix-blend-mode:multiply" opacity="0.43">
<path d="M73.798 75.3841C72.161 74.3279 70.8053 72.8898 69.8475 71.1934C68.8897 69.497 68.3586 67.5933 68.2998 65.6461L59.1474 59.8698C57.3644 60.6546 55.4173 60.9943 53.4739 60.8596C51.5305 60.7249 49.6489 60.1199 47.9912 59.0967C42.3647 55.5457 37.5472 63.1789 37.5472 63.1789C37.5472 63.1789 26.7862 91.2409 30.7622 93.7503C38.5268 98.6508 31.9537 113.096 31.9537 113.096C31.9537 113.096 42.7279 101.302 49.9298 105.848C53.9058 108.357 74.5882 86.5565 74.5882 86.5565C74.5882 86.5565 79.4057 78.9233 73.798 75.3841Z" fill="#C1C1C1"/>
</g>
</g>
<g style="mix-blend-mode:multiply" opacity="0.48">
<g style="mix-blend-mode:multiply" opacity="0.48">
<path d="M73.9992 75.0652C72.3622 74.0091 71.0065 72.5709 70.0487 70.8746C69.0909 69.1782 68.5597 67.2745 68.501 65.3273L59.3486 59.5509C57.5656 60.3357 55.6185 60.6754 53.6751 60.5407C51.7317 60.4061 49.8501 59.8011 48.1924 58.7778C42.5659 55.2268 37.7484 62.8601 37.7484 62.8601C37.7484 62.8601 26.9518 90.9784 30.9279 93.4878C38.6924 98.3882 32.1194 112.834 32.1194 112.834C32.1194 112.834 42.8935 101.04 50.0954 105.585C54.0715 108.094 74.7538 86.2939 74.7538 86.2939C74.7538 86.2939 79.6069 78.6044 73.9992 75.0652Z" fill="#BABABA"/>
</g>
</g>
<g style="mix-blend-mode:multiply" opacity="0.52">
<g style="mix-blend-mode:multiply" opacity="0.52">
<path d="M74.2005 74.7464C72.5635 73.6902 71.2078 72.2521 70.25 70.5557C69.2922 68.8594 68.761 66.9556 68.7023 65.0084L59.5499 59.2321C57.7669 60.0169 55.8198 60.3566 53.8764 60.2219C51.933 60.0872 50.0514 59.4822 48.3937 58.459C42.7672 54.908 37.9496 62.5412 37.9496 62.5412C37.9496 62.5412 27.1887 90.6033 31.1647 93.1126C38.9292 98.0131 32.3562 112.458 32.3562 112.458C32.3562 112.458 43.1303 100.664 50.3322 105.21C54.3083 107.719 74.9906 85.9188 74.9906 85.9188C74.9906 85.9188 79.8082 78.2856 74.2005 74.7464Z" fill="#B3B3B3"/>
</g>
</g>
<g style="mix-blend-mode:multiply" opacity="0.57">
<g style="mix-blend-mode:multiply" opacity="0.57">
<path d="M74.4016 74.4276C72.7647 73.3715 71.4089 71.9333 70.4511 70.2369C69.4934 68.5406 68.9622 66.6368 68.9034 64.6896L59.751 58.9133C57.968 59.6981 56.021 60.0378 54.0776 59.9031C52.1341 59.7684 50.2526 59.1634 48.5949 58.1402C42.9684 54.5892 38.1508 62.2224 38.1508 62.2224C38.1508 62.2224 27.3898 90.2845 31.3659 92.7939C39.1304 97.6943 32.5574 112.14 32.5574 112.14C32.5574 112.14 43.3315 100.346 50.5334 104.891C54.5094 107.4 75.1918 85.6 75.1918 85.6C75.1918 85.6 80.0094 77.9668 74.4016 74.4276Z" fill="#ACACAC"/>
</g>
</g>
<g style="mix-blend-mode:multiply" opacity="0.62">
<g style="mix-blend-mode:multiply" opacity="0.62">
<path d="M74.6029 74.1087C72.966 73.0526 71.6102 71.6144 70.6524 69.9181C69.6946 68.2217 69.1635 66.318 69.1047 64.3708L59.9523 58.5945C58.1693 59.3792 56.2223 59.7189 54.2789 59.5843C52.3354 59.4496 50.4539 58.8446 48.7961 57.8214C43.1697 54.2703 38.3521 61.9036 38.3521 61.9036C38.3521 61.9036 27.5911 89.9656 31.5672 92.475C39.3317 97.3754 32.7587 111.821 32.7587 111.821C32.7587 111.821 43.5328 100.027 50.7347 104.572C54.7107 107.082 75.3931 85.2812 75.3931 85.2812C75.3931 85.2812 80.2107 77.6479 74.6029 74.1087Z" fill="#A5A5A5"/>
</g>
</g>
<g style="mix-blend-mode:multiply" opacity="0.67">
<g style="mix-blend-mode:multiply" opacity="0.67">
<path d="M74.7923 73.8086C73.1549 72.7494 71.7999 71.3077 70.8441 69.6079C69.8883 67.9081 69.3604 66.0013 69.3059 64.0519L60.1535 58.2756C58.3704 59.0652 56.422 59.4091 54.4763 59.2777C52.5307 59.1463 50.6462 58.5435 48.9855 57.5213C43.359 53.9702 38.5414 61.6035 38.5414 61.6035C38.5414 61.6035 27.7923 89.6468 31.7683 92.1562C39.5329 97.0566 32.9598 111.502 32.9598 111.502C32.9598 111.502 43.734 99.708 50.9359 104.253C54.8744 106.739 75.5943 84.9623 75.5943 84.9623C75.5943 84.9623 80.4 77.3478 74.7923 73.8086Z" fill="#9E9E9E"/>
</g>
</g>
<g style="mix-blend-mode:multiply" opacity="0.71">
<g style="mix-blend-mode:multiply" opacity="0.71">
<path d="M74.9934 73.4898C73.3561 72.4305 72.0011 70.9888 71.0453 69.289C70.0895 67.5892 69.5615 65.6824 69.5071 63.7331L60.3547 57.9568C58.5716 58.7464 56.6232 59.0903 54.6775 58.9589C52.7318 58.8274 50.8474 58.2246 49.1867 57.2024C43.5602 53.6514 38.7426 61.2846 38.7426 61.2846C38.7426 61.2846 27.9935 89.3279 31.9695 91.8373C39.734 96.7377 33.161 111.183 33.161 111.183C33.161 111.183 43.9352 99.3892 51.137 103.934C55.1131 106.444 75.7836 84.6622 75.7836 84.6622C75.7836 84.6622 80.6012 77.029 74.9934 73.4898Z" fill="#979797"/>
</g>
</g>
<g style="mix-blend-mode:multiply" opacity="0.76">
<g style="mix-blend-mode:multiply" opacity="0.76">
<path d="M75.1947 73.1709C73.5574 72.1117 72.2024 70.67 71.2466 68.9702C70.2907 67.2704 69.7628 65.3636 69.7084 63.4142L60.556 57.6379C58.7729 58.4275 56.8245 58.7714 54.8788 58.64C52.9331 58.5086 51.0487 57.9058 49.388 56.8836C43.7615 53.3325 38.9439 60.9658 38.9439 60.9658C38.9439 60.9658 28.1356 89.1029 32.1116 91.6122C39.8762 96.5127 33.4097 110.789 33.4097 110.789C33.4097 110.789 44.0773 99.1641 51.2792 103.709C55.2552 106.219 75.9257 84.4372 75.9257 84.4372C75.9257 84.4372 80.8025 76.7101 75.1947 73.1709Z" fill="#919191"/>
</g>
</g>
<g style="mix-blend-mode:multiply" opacity="0.81">
<g style="mix-blend-mode:multiply" opacity="0.81">
<path d="M75.3959 72.8522C73.7575 71.7835 72.4046 70.3311 71.4547 68.621C70.5048 66.911 69.9866 64.9949 69.9451 63.0392L60.7927 57.2628C59.0096 58.0524 57.0611 58.3964 55.1155 58.265C53.1698 58.1335 51.2854 57.5307 49.6246 56.5085C43.9982 52.9575 39.1806 60.5907 39.1806 60.5907C39.1806 60.5907 28.3959 88.6903 32.372 91.1997C40.1365 96.1001 33.5635 110.545 33.5635 110.545C33.5635 110.545 44.3376 98.7515 51.5395 103.297C55.5156 105.806 76.1861 84.0246 76.1861 84.0246C76.1861 84.0246 81.0036 76.3913 75.3959 72.8522Z" fill="#8A8A8A"/>
</g>
</g>
<g style="mix-blend-mode:multiply" opacity="0.86">
<g style="mix-blend-mode:multiply" opacity="0.86">
<path d="M75.5972 72.5333C73.9599 71.474 72.6049 70.0323 71.649 68.3325C70.6932 66.6328 70.1653 64.7259 70.1108 62.7766L60.9584 57.0003C59.1753 57.7899 57.2269 58.1338 55.2813 58.0024C53.3356 57.871 51.4511 57.2681 49.7904 56.2459C44.1639 52.6949 39.3464 60.3282 39.3464 60.3282C39.3464 60.3282 28.5972 88.3715 32.5733 90.8808C40.3378 95.7813 33.7648 110.227 33.7648 110.227C33.7648 110.227 44.5389 98.4327 51.7408 102.978C55.7168 105.487 76.3874 83.7058 76.3874 83.7058C76.3874 83.7058 81.2049 76.0725 75.5972 72.5333Z" fill="#838383"/>
</g>
</g>
<g style="mix-blend-mode:multiply" opacity="0.9">
<g style="mix-blend-mode:multiply" opacity="0.9">
<path d="M75.7984 72.2145C74.1614 71.1584 72.8057 69.7202 71.8479 68.0239C70.8901 66.3275 70.3589 64.4238 70.3002 62.4766L61.1478 56.7002C59.3648 57.485 57.4177 57.8247 55.4743 57.69C53.5309 57.5554 51.6493 56.9504 49.9916 55.9271C44.3651 52.3761 39.5475 60.0094 39.5475 60.0094C39.5475 60.0094 28.7984 88.0526 32.7744 90.562C40.539 95.4624 33.9659 109.908 33.9659 109.908C33.9659 109.908 44.7401 98.1139 51.942 102.659C55.918 105.169 76.5885 83.387 76.5885 83.387C76.5885 83.387 81.4061 75.7537 75.7984 72.2145Z" fill="#7C7C7C"/>
</g>
</g>
<g style="mix-blend-mode:multiply" opacity="0.95">
<g style="mix-blend-mode:multiply" opacity="0.95">
<path d="M75.9997 71.8957C74.3627 70.8395 73.007 69.4014 72.0492 67.705C71.0914 66.0086 70.5602 64.1049 70.5015 62.1577L61.3491 56.3814C59.566 57.1662 57.619 57.5059 55.6756 57.3712C53.7322 57.2365 51.8506 56.6315 50.1929 55.6083C44.5664 52.0573 39.7488 59.6905 39.7488 59.6905C39.7488 59.6905 28.9997 87.7338 32.9757 90.2432C40.7403 95.1436 34.1672 109.589 34.1672 109.589C34.1672 109.589 44.9414 97.795 52.1433 102.34C56.0818 104.826 76.778 83.0869 76.778 83.0869C76.778 83.0869 81.6074 75.4349 75.9997 71.8957Z" fill="#757575"/>
</g>
</g>
<g style="mix-blend-mode:multiply">
<path d="M76.2008 71.5768C74.5639 70.5207 73.2081 69.0825 72.2503 67.3862C71.2926 65.6898 70.7614 63.7861 70.7026 61.8389L61.5502 56.0625C59.7672 56.8473 57.8202 57.187 55.8768 57.0523C53.9333 56.9177 52.0518 56.3127 50.3941 55.2894C44.7676 51.7384 39.95 59.3717 39.95 59.3717C39.95 59.3717 29.2009 87.4149 33.1769 89.9243C40.9414 94.8247 34.3684 109.27 34.3684 109.27C34.3684 109.27 45.1425 97.4762 52.3444 102.021C56.3205 104.531 76.991 82.7493 76.991 82.7493C76.991 82.7493 81.8086 75.116 76.2008 71.5768Z" fill="#6E6E6E"/>
</g>
</g>
<path d="M76.2008 71.5768C74.5639 70.5207 73.2081 69.0825 72.2503 67.3862C71.2926 65.6898 70.7614 63.7861 70.7026 61.8389L61.5502 56.0625C59.7672 56.8473 57.8202 57.187 55.8768 57.0523C53.9333 56.9177 52.0518 56.3127 50.3941 55.2894C44.7676 51.7384 39.95 59.3717 39.95 59.3717C39.95 59.3717 29.2009 87.4149 33.1769 89.9243C40.9414 94.8247 34.3684 109.27 34.3684 109.27C34.3684 109.27 45.1425 97.4762 52.3444 102.021C56.3205 104.531 76.991 82.7493 76.991 82.7493C76.991 82.7493 81.8086 75.116 76.2008 71.5768Z" fill="url(#paint20_linear_26_5406)"/>
<path d="M67.1345 60.1377L64.6213 58.5515C62.9433 57.4925 60.7245 57.9943 59.6655 59.6723L52.7646 70.6064C51.7056 72.2844 52.2074 74.5032 53.8854 75.5622L56.3985 77.1484C58.0765 78.2074 60.2953 77.7056 61.3544 76.0276L68.2552 65.0935C69.3142 63.4155 68.8125 61.1967 67.1345 60.1377Z" fill="url(#paint21_linear_26_5406)"/>
<path d="M66.7438 60.7566L64.2119 59.1586C62.8757 58.3153 61.1088 58.7149 60.2655 60.051L53.3529 71.0039C52.5096 72.3401 52.9091 74.1069 54.2453 74.9502L56.7772 76.5482C58.1134 77.3915 59.8803 76.992 60.7236 75.6558L67.6362 64.7029C68.4795 63.3667 68.08 61.5999 66.7438 60.7566Z" fill="url(#paint22_linear_26_5406)"/>
<path d="M15.9385 113.872L20.3418 106.895C20.6851 106.351 22.6279 105.06 32.9243 111.558C43.2208 118.057 42.8248 120.429 42.5289 120.898L38.1256 127.875L15.9385 113.872Z" fill="url(#paint23_linear_26_5406)"/>
<path d="M32.5455 112.158C26.7503 108.501 21.5644 106.329 20.9607 107.286L16.9481 113.644L37.9161 126.877L41.9287 120.519C42.5324 119.563 38.3408 115.816 32.5455 112.158Z" fill="url(#paint24_linear_26_5406)"/>
<path d="M15.9386 113.872L12.9913 118.542L17.289 114.724L15.9386 113.872Z" fill="url(#paint25_linear_26_5406)"/>
<path d="M38.1256 127.875L35.1783 132.545L36.7753 127.023L38.1256 127.875Z" fill="url(#paint26_linear_26_5406)"/>
<g style="mix-blend-mode:multiply">
<path d="M40.0753 59.2147L49.3708 61.8556L53.7283 56.7381L52.9841 56.5045L49.1159 61.0129L40.5271 58.582C40.3308 58.8514 40.17 59.0647 40.0753 59.2147Z" fill="#DEDEDE"/>
</g>
<g style="mix-blend-mode:multiply">
<path d="M77.0976 82.5805L70.7139 75.3259L73.4585 69.1904L73.9896 69.7617L71.5656 75.1815L77.4556 81.8886C77.3504 82.1263 77.2309 82.3574 77.0976 82.5805Z" fill="#DEDEDE"/>
</g>
<g style="mix-blend-mode:multiply">
<g style="mix-blend-mode:multiply">
<path d="M66.1682 75.1319C66.1682 75.1319 65.896 75.5633 65.5795 76.4388C65.263 77.3142 64.6021 78.4445 63.8416 79.7741C63.0812 81.1037 62.0543 82.6061 61.0126 84.2565C60.4918 85.0817 59.8654 85.8665 59.2084 86.6582C58.5514 87.4499 57.8943 88.2416 57.2067 89.0402C56.5186 89.8093 55.787 90.5384 55.0155 91.224C54.2953 91.9496 53.4744 92.5854 52.7453 93.2005C52.0162 93.8155 51.2495 94.4069 50.6053 94.9707C49.961 95.5344 49.3424 96.1406 48.8393 96.6884C47.9948 97.5938 47.3283 98.6499 46.8744 99.8018C46.6918 100.228 46.6147 100.692 46.6498 101.155C46.6146 101.039 46.5931 100.92 46.5855 100.8C46.5691 100.444 46.6079 100.088 46.7007 99.7446C46.8539 99.209 47.0659 98.6919 47.3328 98.2028C47.6679 97.5421 48.0642 96.9142 48.5165 96.3273C49.0522 95.6687 49.6239 95.0402 50.2291 94.4448C50.8901 93.8129 51.5956 93.2354 52.3553 92.6134C53.115 91.9914 53.856 91.3576 54.5643 90.6507C55.2727 89.9439 56.0047 89.1995 56.7249 88.4739C57.4451 87.7483 58.1022 86.9566 58.7286 86.1718C59.355 85.387 59.9814 84.6022 60.5585 83.8125C61.7265 82.2943 62.7228 80.7988 63.5514 79.486C65.2175 76.9708 66.1682 75.1319 66.1682 75.1319Z" fill="#B8B8B8"/>
</g>
</g>
<g style="mix-blend-mode:multiply">
<g style="mix-blend-mode:multiply">
<path d="M51.7269 66.0176C51.7269 66.0176 50.6261 67.7618 48.9689 70.3875C48.1404 71.7004 47.1816 73.2195 46.3512 74.9508C45.8304 75.776 45.429 76.7028 45.0089 77.6178C44.5887 78.5328 44.1755 79.4784 43.7929 80.4171C43.4103 81.3557 43.0534 82.3368 42.7576 83.3041C42.4618 84.2714 42.1898 85.2011 41.9364 86.1427C41.6831 87.0843 41.484 87.9814 41.1981 88.85C40.921 89.6525 40.5997 90.439 40.2357 91.206C39.9005 91.8668 39.5042 92.4947 39.052 93.0815C38.7253 93.5328 38.3498 93.9467 37.9323 94.3155C37.6678 94.5549 37.3618 94.744 37.0294 94.8734C36.9174 94.9185 36.8005 94.9503 36.6811 94.9683C37.1222 94.8129 37.516 94.5466 37.8246 94.1951C38.6584 93.2816 39.3236 92.2275 39.7895 91.0818C40.0676 90.3919 40.3368 89.5914 40.5803 88.7485C40.8238 87.9056 41.0347 86.9897 41.2574 86.0551C41.4802 85.1204 41.7384 84.1295 42.0648 83.1553C42.3911 82.1811 42.7273 81.1083 43.0606 80.1647C43.3938 79.2211 43.8988 78.2547 44.3495 77.3328C44.8002 76.4109 45.2766 75.5314 45.7412 74.6707C46.7828 73.0203 47.7416 71.5011 48.5702 70.1883C49.3987 68.8754 50.2659 67.8754 50.8331 67.1844C51.4004 66.4934 51.7269 66.0176 51.7269 66.0176Z" fill="#B8B8B8"/>
</g>
</g>
<path d="M60.7778 75.6113L66.5187 66.5152L65.0612 67.0377L59.5689 75.74L53.9424 72.189L59.4347 63.4867L59.2634 61.8051L53.4634 70.995C53.0553 71.6416 52.9208 72.4239 53.0894 73.1697C53.2581 73.9155 53.7161 74.5638 54.3628 74.9719L56.8759 76.558C57.5218 76.9384 58.2904 77.0522 59.0188 76.8755C59.7472 76.6988 60.3781 76.2453 60.7778 75.6113Z" fill="url(#paint27_linear_26_5406)"/>
<path d="M20.6803 115.999L22.1994 116.958L27.159 109.1L25.4742 108.404L20.6803 115.999Z" fill="url(#paint28_linear_26_5406)"/>
<path d="M31.2772 111.384C30.7708 111.065 30.2644 110.745 29.7955 110.449L24.7294 118.476L26.211 119.411L31.2772 111.384Z" fill="url(#paint29_linear_26_5406)"/>
<path d="M28.6886 121.054L30.1703 121.989L35.2364 113.962C34.7675 113.666 34.2611 113.346 33.7548 113.027L28.6886 121.054Z" fill="url(#paint30_linear_26_5406)"/>
<path d="M38.9778 116.926L37.6027 115.822L32.6431 123.68L34.1247 124.616L38.9778 116.926Z" fill="url(#paint31_linear_26_5406)"/>
<path d="M76.228 33.3048L84.9303 38.7971C87.5105 34.2101 89.6448 29.9973 91.2474 26.4193L84.6081 22.2291C82.1241 25.2508 79.2584 29.0019 76.228 33.3048Z" fill="url(#paint32_linear_26_5406)"/>
<defs>
<linearGradient id="paint0_linear_26_5406" x1="30.1822" y1="116.069" x2="34.5263" y2="109.186" gradientUnits="userSpaceOnUse">
<stop stop-color="#5E5E5E"/>
<stop offset="1" stop-color="#1B1C1C"/>
</linearGradient>
<linearGradient id="paint1_linear_26_5406" x1="33.3095" y1="75.7939" x2="65.0429" y2="95.8217" gradientUnits="userSpaceOnUse">
<stop stop-color="#5E5E5E"/>
<stop offset="1" stop-color="#1B1C1C"/>
</linearGradient>
<linearGradient id="paint2_linear_26_5406" x1="79.869" y1="37.1763" x2="77.5963" y2="40.7772" gradientUnits="userSpaceOnUse">
<stop stop-color="#1B1C1C"/>
<stop offset="1" stop-color="#5E5E5E"/>
</linearGradient>
<linearGradient id="paint3_linear_26_5406" x1="74.8027" y1="45.2033" x2="70.9558" y2="51.2987" gradientUnits="userSpaceOnUse">
<stop stop-color="#1B1C1C"/>
<stop offset="1" stop-color="#5E5E5E"/>
</linearGradient>
<linearGradient id="paint4_linear_26_5406" x1="76.0896" y1="41.7932" x2="74.1957" y2="44.794" gradientUnits="userSpaceOnUse">
<stop stop-color="#5E5E5E"/>
<stop offset="0.11" stop-color="#B8B8B8"/>
<stop offset="0.25" stop-color="#4D4D4D"/>
<stop offset="0.52" stop-color="#2E2D2E"/>
<stop offset="0.85" stop-color="#817F82"/>
<stop offset="1" stop-color="#1B1C1C"/>
</linearGradient>
<linearGradient id="paint5_linear_26_5406" x1="100.174" y1="49.2572" x2="90.9298" y2="63.9048" gradientUnits="userSpaceOnUse">
<stop stop-color="#5E5E5E"/>
<stop offset="0.09" stop-color="#616161"/>
<stop offset="0.17" stop-color="#6B6B6C"/>
<stop offset="0.24" stop-color="#7C7C7D"/>
<stop offset="0.28" stop-color="#8A898B"/>
<stop offset="0.35" stop-color="#6A696B"/>
<stop offset="0.42" stop-color="#515052"/>
<stop offset="0.5" stop-color="#403F40"/>
<stop offset="0.58" stop-color="#353435"/>
<stop offset="0.67" stop-color="#323132"/>
<stop offset="0.89" stop-color="#232223"/>
<stop offset="1" stop-color="#9E9BA1"/>
</linearGradient>
<linearGradient id="paint6_linear_26_5406" x1="60.6406" y1="23.3885" x2="50.9818" y2="38.6926" gradientUnits="userSpaceOnUse">
<stop stop-color="#5E5E5E"/>
<stop offset="0.09" stop-color="#616161"/>
<stop offset="0.17" stop-color="#6B6B6C"/>
<stop offset="0.24" stop-color="#7C7C7D"/>
<stop offset="0.28" stop-color="#8A898B"/>
<stop offset="0.35" stop-color="#6A696B"/>
<stop offset="0.42" stop-color="#515052"/>
<stop offset="0.5" stop-color="#403F40"/>
<stop offset="0.58" stop-color="#353435"/>
<stop offset="0.67" stop-color="#323132"/>
<stop offset="0.89" stop-color="#232223"/>
<stop offset="1" stop-color="#9E9BA1"/>
</linearGradient>
<linearGradient id="paint7_linear_26_5406" x1="65.01" y1="12.3516" x2="108.653" y2="39.8957" gradientUnits="userSpaceOnUse">
<stop stop-color="#FFDC3F"/>
<stop offset="1" stop-color="#D4AE00"/>
</linearGradient>
<linearGradient id="paint8_linear_26_5406" x1="82.4701" y1="20.8797" x2="93.5355" y2="27.8634" gradientUnits="userSpaceOnUse">
<stop stop-color="white"/>
<stop offset="0.48" stop-color="#7A7A7A"/>
<stop offset="1" stop-color="white"/>
</linearGradient>
<linearGradient id="paint9_linear_26_5406" x1="68.5617" y1="39.2188" x2="82.9655" y2="48.3095" gradientUnits="userSpaceOnUse">
<stop stop-color="white"/>
<stop offset="0.48" stop-color="#7A7A7A"/>
<stop offset="1" stop-color="white"/>
</linearGradient>
<linearGradient id="paint10_linear_26_5406" x1="65.7209" y1="43.72" x2="80.1247" y2="52.8106" gradientUnits="userSpaceOnUse">
<stop stop-color="white"/>
<stop offset="0.48" stop-color="#7A7A7A"/>
<stop offset="1" stop-color="white"/>
</linearGradient>
<linearGradient id="paint11_linear_26_5406" x1="75.2809" y1="34.3068" x2="84.4333" y2="40.0832" gradientUnits="userSpaceOnUse">
<stop stop-color="#FFDC3F"/>
<stop offset="1" stop-color="#D4AE00"/>
</linearGradient>
<linearGradient id="paint12_linear_26_5406" x1="63.4394" y1="14.0091" x2="65.9338" y2="15.5834" gradientUnits="userSpaceOnUse">
<stop stop-color="#5E5E5E"/>
<stop offset="1" stop-color="#1B1C1C"/>
</linearGradient>
<linearGradient id="paint13_linear_26_5406" x1="105.357" y1="40.4643" x2="107.851" y2="42.0386" gradientUnits="userSpaceOnUse">
<stop stop-color="#5E5E5E"/>
<stop offset="1" stop-color="#1B1C1C"/>
</linearGradient>
<linearGradient id="paint14_linear_26_5406" x1="78.3592" y1="74.7224" x2="82.2039" y2="77.1489" gradientUnits="userSpaceOnUse">
<stop stop-color="#5E5E5E"/>
<stop offset="1" stop-color="#1B1C1C"/>
</linearGradient>
<linearGradient id="paint15_linear_26_5406" x1="46.6259" y1="54.6946" x2="42.7812" y2="52.2681" gradientUnits="userSpaceOnUse">
<stop stop-color="#5E5E5E"/>
<stop offset="1" stop-color="#1B1C1C"/>
</linearGradient>
<linearGradient id="paint16_linear_26_5406" x1="58.6628" y1="115.031" x2="49.4183" y2="129.678" gradientUnits="userSpaceOnUse">
<stop stop-color="#5E5E5E"/>
<stop offset="0.09" stop-color="#616161"/>
<stop offset="0.17" stop-color="#6B6B6C"/>
<stop offset="0.24" stop-color="#7C7C7D"/>
<stop offset="0.28" stop-color="#8A898B"/>
<stop offset="0.35" stop-color="#6A696B"/>
<stop offset="0.42" stop-color="#515052"/>
<stop offset="0.5" stop-color="#403F40"/>
<stop offset="0.58" stop-color="#353435"/>
<stop offset="0.67" stop-color="#323132"/>
<stop offset="0.89" stop-color="#232223"/>
<stop offset="1" stop-color="#9E9BA1"/>
</linearGradient>
<linearGradient id="paint17_linear_26_5406" x1="19.1291" y1="89.162" x2="9.47035" y2="104.466" gradientUnits="userSpaceOnUse">
<stop stop-color="#5E5E5E"/>
<stop offset="0.09" stop-color="#616161"/>
<stop offset="0.17" stop-color="#6B6B6C"/>
<stop offset="0.24" stop-color="#7C7C7D"/>
<stop offset="0.28" stop-color="#8A898B"/>
<stop offset="0.35" stop-color="#6A696B"/>
<stop offset="0.42" stop-color="#515052"/>
<stop offset="0.5" stop-color="#403F40"/>
<stop offset="0.58" stop-color="#353435"/>
<stop offset="0.67" stop-color="#323132"/>
<stop offset="0.89" stop-color="#232223"/>
<stop offset="1" stop-color="#9E9BA1"/>
</linearGradient>
<linearGradient id="paint18_linear_26_5406" x1="64.5813" y1="96.5531" x2="66.8506" y2="97.9854" gradientUnits="userSpaceOnUse">
<stop stop-color="#1B1C1C"/>
<stop offset="1" stop-color="#5E5E5E"/>
</linearGradient>
<linearGradient id="paint19_linear_26_5406" x1="32.8479" y1="76.5253" x2="30.5786" y2="75.0931" gradientUnits="userSpaceOnUse">
<stop stop-color="#5E5E5E"/>
<stop offset="1" stop-color="#1B1C1C"/>
</linearGradient>
<linearGradient id="paint20_linear_26_5406" x1="31.7422" y1="72.4182" x2="68.7644" y2="95.7839" gradientUnits="userSpaceOnUse">
<stop stop-color="#FFDC3F"/>
<stop offset="1" stop-color="#D4AE00"/>
</linearGradient>
<linearGradient id="paint21_linear_26_5406" x1="55.4379" y1="75.8864" x2="66.375" y2="58.5569" gradientUnits="userSpaceOnUse">
<stop stop-color="#1B1C1C"/>
<stop offset="1" stop-color="#5E5E5E"/>
</linearGradient>
<linearGradient id="paint22_linear_26_5406" x1="55.8047" y1="75.305" x2="65.9607" y2="59.2133" gradientUnits="userSpaceOnUse">
<stop stop-color="#5E5E5E"/>
<stop offset="1" stop-color="#1B1C1C"/>
</linearGradient>
<linearGradient id="paint23_linear_26_5406" x1="27.2072" y1="120.617" x2="33.1966" y2="111.127" gradientUnits="userSpaceOnUse">
<stop stop-color="#5E5E5E"/>
<stop offset="1" stop-color="#1B1C1C"/>
</linearGradient>
<linearGradient id="paint24_linear_26_5406" x1="27.5741" y1="120.035" x2="32.7823" y2="111.783" gradientUnits="userSpaceOnUse">
<stop stop-color="#947900"/>
<stop offset="1" stop-color="#FFDC3F"/>
</linearGradient>
<linearGradient id="paint25_linear_26_5406" x1="13.7493" y1="118.837" x2="16.7558" y2="114.073" gradientUnits="userSpaceOnUse">
<stop stop-color="#5E5E5E"/>
<stop offset="1" stop-color="#1B1C1C"/>
</linearGradient>
<linearGradient id="paint26_linear_26_5406" x1="34.586" y1="131.988" x2="37.5925" y2="127.224" gradientUnits="userSpaceOnUse">
<stop stop-color="#5E5E5E"/>
<stop offset="1" stop-color="#1B1C1C"/>
</linearGradient>
<linearGradient id="paint27_linear_26_5406" x1="55.7219" y1="75.4363" x2="63.2264" y2="63.5457" gradientUnits="userSpaceOnUse">
<stop stop-color="#1B1C1C"/>
<stop offset="1" stop-color="#5E5E5E"/>
</linearGradient>
<linearGradient id="paint28_linear_26_5406" x1="23.1542" y1="112.08" x2="24.6358" y2="113.015" gradientUnits="userSpaceOnUse">
<stop stop-color="#5E5E5E"/>
<stop offset="0.09" stop-color="#616161"/>
<stop offset="0.17" stop-color="#6B6B6C"/>
<stop offset="0.24" stop-color="#7C7C7D"/>
<stop offset="0.28" stop-color="#8A898B"/>
<stop offset="0.35" stop-color="#6A696B"/>
<stop offset="0.42" stop-color="#515052"/>
<stop offset="0.5" stop-color="#403F40"/>
<stop offset="0.58" stop-color="#353435"/>
<stop offset="0.67" stop-color="#323132"/>
<stop offset="0.89" stop-color="#232223"/>
<stop offset="1" stop-color="#9E9BA1"/>
</linearGradient>
<linearGradient id="paint29_linear_26_5406" x1="27.2388" y1="114.5" x2="28.7204" y2="115.435" gradientUnits="userSpaceOnUse">
<stop stop-color="#5E5E5E"/>
<stop offset="0.09" stop-color="#616161"/>
<stop offset="0.17" stop-color="#6B6B6C"/>
<stop offset="0.24" stop-color="#7C7C7D"/>
<stop offset="0.28" stop-color="#8A898B"/>
<stop offset="0.35" stop-color="#6A696B"/>
<stop offset="0.42" stop-color="#515052"/>
<stop offset="0.5" stop-color="#403F40"/>
<stop offset="0.58" stop-color="#353435"/>
<stop offset="0.67" stop-color="#323132"/>
<stop offset="0.89" stop-color="#232223"/>
<stop offset="1" stop-color="#9E9BA1"/>
</linearGradient>
<linearGradient id="paint30_linear_26_5406" x1="31.2335" y1="117.021" x2="32.7152" y2="117.956" gradientUnits="userSpaceOnUse">
<stop stop-color="#5E5E5E"/>
<stop offset="0.09" stop-color="#616161"/>
<stop offset="0.17" stop-color="#6B6B6C"/>
<stop offset="0.24" stop-color="#7C7C7D"/>
<stop offset="0.28" stop-color="#8A898B"/>
<stop offset="0.35" stop-color="#6A696B"/>
<stop offset="0.42" stop-color="#515052"/>
<stop offset="0.5" stop-color="#403F40"/>
<stop offset="0.58" stop-color="#353435"/>
<stop offset="0.67" stop-color="#323132"/>
<stop offset="0.89" stop-color="#232223"/>
<stop offset="1" stop-color="#9E9BA1"/>
</linearGradient>
<linearGradient id="paint31_linear_26_5406" x1="35.1761" y1="119.667" x2="36.6578" y2="120.602" gradientUnits="userSpaceOnUse">
<stop stop-color="#5E5E5E"/>
<stop offset="0.09" stop-color="#616161"/>
<stop offset="0.17" stop-color="#6B6B6C"/>
<stop offset="0.24" stop-color="#7C7C7D"/>
<stop offset="0.28" stop-color="#8A898B"/>
<stop offset="0.35" stop-color="#6A696B"/>
<stop offset="0.42" stop-color="#515052"/>
<stop offset="0.5" stop-color="#403F40"/>
<stop offset="0.58" stop-color="#353435"/>
<stop offset="0.67" stop-color="#323132"/>
<stop offset="0.89" stop-color="#232223"/>
<stop offset="1" stop-color="#9E9BA1"/>
</linearGradient>
<linearGradient id="paint32_linear_26_5406" x1="79.9211" y1="27.4533" x2="88.6233" y2="32.9455" gradientUnits="userSpaceOnUse">
<stop stop-color="#5E5E5E"/>
<stop offset="1" stop-color="#1B1C1C"/>
</linearGradient>
</defs>
</svg>
