<svg width="92" height="119" viewBox="0 0 92 119" fill="none" xmlns="http://www.w3.org/2000/svg">
<g style="mix-blend-mode:multiply">
<path d="M17.9773 88.6621L38.9887 99.1511L36.0036 105.131L35.1942 104.727L31.0712 112.986L31.9351 108.279L14.7725 99.7114L11.5299 103.231L15.6529 94.9716L14.9922 94.6418L17.9773 88.6621ZM80.2002 38.9592L76.3514 37.0379C74.8648 36.2957 74.1059 37.4026 73.372 38.8727L72.0114 41.5983L62.0012 36.6011C62.2074 36.1882 62.4053 35.7917 62.6114 35.3788L64.7588 36.4508L66.3338 33.2958L64.0543 32.1578C65.5301 28.8708 66.7914 25.7655 67.7969 23.0071C67.8794 22.842 67.9619 22.6768 68.0443 22.5116L71.1167 24.0454L70.921 27.8683L80.6834 32.7417L80.3041 33.5015L81.2064 37.1917L85.5845 27.5947C85.648 27.5047 85.6906 27.4017 85.7091 27.2931C85.7276 27.1845 85.7216 27.0731 85.6914 26.9672C85.6791 26.7625 85.612 26.5649 85.4971 26.395C85.3823 26.2252 85.2239 26.0893 85.0386 26.0016L69.3956 18.1925C69.5523 17.8787 69.5934 17.5071 69.6675 17.1933C70.7055 13.6258 70.7618 11.2396 69.8698 10.7944C68.9778 10.3491 66.857 12.1586 64.2584 15.628L48.6651 7.84374C48.482 7.75377 48.2791 7.71193 48.0754 7.72217C47.8717 7.73241 47.674 7.7944 47.5009 7.90227C47.401 7.94584 47.3117 8.01047 47.2391 8.09174C47.1665 8.17301 47.1122 8.26901 47.0801 8.37316L42.0247 17.632L45.5328 16.1436L45.9122 15.3837L55.658 20.2489L58.5958 17.7948L61.6682 19.3286C61.2475 19.9646 60.8269 20.6419 60.3732 21.344C59.07 23.4173 57.7174 25.7135 56.3484 28.2078L54.1019 27.0863L52.5269 30.2414L54.6577 31.3051C54.4516 31.7181 54.2537 32.1145 54.0475 32.5275L43.9713 27.4974L45.2907 24.8544C46.0246 23.3843 46.5027 22.1372 44.9665 21.3704L41.1507 19.4655C39.6806 18.7316 38.9052 19.8302 38.1713 21.3004L34.1224 29.4109C33.3885 30.881 32.927 32.1363 34.4467 32.895L38.312 34.8246C39.7986 35.5667 40.5575 34.4598 41.2914 32.9897L42.652 30.2642L50.0647 40.5471L46.6426 47.4023C45.1505 48.2363 43.4731 48.683 41.7638 48.7017L35.1564 45.4032L35.4698 44.7755L32.1661 43.1263L29.4696 48.5278L30.9893 49.2865C30.4161 49.887 29.9073 50.546 29.4714 51.2525C29.4137 51.3681 29.3642 51.4672 29.323 51.5498C29.2969 51.6259 29.2609 51.6981 29.2158 51.7646L29.0175 51.6656L28.9433 51.8143C28.9433 51.8143 28.5974 53.086 28.1197 55.0349L27.905 54.9277L18.3725 74.0229L19.1673 77.4324L18.5983 78.5722L21.4395 79.9905C24.1816 81.3593 22.5818 84.5639 22.0541 85.6211L20.108 89.5194L36.8907 97.8974L38.8368 93.9991C39.3645 92.9419 40.9642 89.7373 43.7063 91.1062L46.5475 92.5245L47.1164 91.3847L50.3191 89.9708L59.8186 70.9416L59.5377 70.8014C60.8083 69.2484 61.6002 68.1993 61.6002 68.1993L61.6744 68.0506L61.7981 67.8029C61.8549 67.7076 61.9045 67.6082 61.9466 67.5055C62.2492 66.7325 62.4701 65.9298 62.6056 65.1107L64.1253 65.8694L66.8382 60.4348L63.4024 58.7196L63.089 59.3473L56.4817 56.0489C55.4974 54.6795 54.8744 53.0839 54.6705 51.4099L58.0927 44.5547L70.7663 44.299L69.4057 47.0245C68.6718 48.4946 68.1937 49.7417 69.73 50.5086L73.5787 52.4299C75.0654 53.172 75.8243 52.0652 76.5582 50.595L80.607 42.4845C81.1758 41.0145 81.6869 39.7013 80.2002 38.9592ZM15.6637 85.9802L14.9534 85.6256L16.3718 82.7844C17.1057 81.3143 17.5837 80.0673 16.0475 79.3004L12.2318 77.3955C10.7616 76.6616 9.98623 77.7602 9.25233 79.2304L5.20351 87.3409C4.46961 88.8111 4.00804 90.0663 5.52773 90.825L9.39304 92.7546C10.8797 93.4967 11.6386 92.3898 12.3725 90.9197L13.9392 87.7812L14.6495 88.1358L14.7815 87.8715C14.9273 87.8154 15.0637 87.7374 15.1859 87.6401L15.7966 87.1608L15.3669 86.5748L15.6637 85.9802ZM51.2813 96.8892L47.4325 94.9679C45.9458 94.2257 45.1869 95.3326 44.453 96.8027L43.0347 99.6439L42.374 99.3141L42.0771 99.9087L41.3835 99.8926L41.3675 100.669C41.3648 100.833 41.3958 100.996 41.4586 101.148L41.3267 101.412L42.037 101.766L40.4702 104.905C39.7363 106.375 39.2583 107.622 40.7945 108.389L44.6433 110.31C46.1299 111.053 46.8888 109.946 47.6227 108.476L51.655 100.398C52.3146 98.8288 52.7679 97.6314 51.2813 96.8892Z" fill="#C5C5C5"/>
</g>
<path d="M38.8647 98.9034L17.8533 88.4144L14.8764 94.3776L35.8878 104.867L38.8647 98.9034Z" fill="url(#paint0_linear_26_4617)"/>
<path d="M21.299 79.7346C24.0411 81.1034 22.4413 84.308 21.9136 85.3652L19.9675 89.2635L36.7502 97.6415L38.6963 93.7432C39.224 92.686 40.8237 89.4814 43.5658 90.8503L46.407 92.2686L62.9651 59.0997L35.0159 45.1473L18.4578 78.3163L21.299 79.7346Z" fill="url(#paint1_linear_26_4617)"/>
<path d="M66.1602 33.0234L53.9201 26.9131L52.3451 30.0681L64.5852 36.1784L66.1602 33.0234Z" fill="url(#paint2_linear_26_4617)"/>
<path d="M56.5356 37.0092L42.4785 29.9918L50.0647 40.5058L53.8474 42.3942L57.6301 44.2825L70.5928 44.0266L56.5356 37.0092Z" fill="url(#paint3_linear_26_4617)"/>
<path d="M73.4235 42.1175L41.2292 26.046L39.9098 28.6889L72.1042 44.7605L73.4235 42.1175Z" fill="url(#paint4_linear_26_4617)"/>
<path d="M73.3721 52.141L69.5068 50.2115C68.0367 49.4776 68.4487 48.1975 69.1826 46.7274L73.2314 38.6169C73.9653 37.1467 74.6912 36.0234 76.2109 36.782L80.0762 38.7116C81.5463 39.4455 81.1343 40.7255 80.4004 42.1956L76.3516 50.3062C75.5681 51.7516 74.8423 52.8749 73.3721 52.141Z" fill="url(#paint5_linear_26_4617)"/>
<path d="M34.3722 32.6721L38.188 34.5769C39.6581 35.3108 40.4335 34.2122 41.1674 32.7421L45.2163 24.6315C45.9501 23.1614 46.4117 21.9061 44.892 21.1475L41.0763 19.2426C39.6061 18.5087 38.8307 19.6074 38.0968 21.0775L34.048 29.188C33.3141 30.6582 32.8525 31.9135 34.3722 32.6721Z" fill="url(#paint6_linear_26_4617)"/>
<path d="M46.9396 8.1173L43.9215 14.163L55.4844 19.9353L58.4387 17.5307L70.8936 23.7483L70.7474 27.5546L82.3103 33.3269L85.3284 27.2811C85.4647 26.9971 85.4839 26.6708 85.3818 26.3727C85.2796 26.0746 85.0643 25.8287 84.7824 25.688L48.541 7.59611C48.2591 7.45534 47.9332 7.4311 47.6335 7.52861C47.3339 7.62612 47.0847 7.83757 46.9396 8.1173Z" fill="url(#paint7_linear_26_4617)"/>
<path d="M75.3762 22.4987L56.8095 13.2301L54.4143 12.0344L53.8123 13.2403L51.3798 18.1132L53.7749 19.3089L56.2075 14.4359L74.7742 23.7045L72.3416 28.5774L74.7368 29.7731L77.1694 24.9002L77.7713 23.6944L75.3762 22.4987Z" fill="url(#paint8_radial_26_4617)"/>
<path style="mix-blend-mode:multiply" d="M71.6007 19.1076L61.8549 14.2424L59.8511 18.2564L69.5969 23.1216L71.6007 19.1076Z" fill="url(#paint9_linear_26_4617)"/>
<path style="mix-blend-mode:multiply" d="M64.1981 37.6566L51.4955 31.3154L50.2256 33.8592L62.9282 40.2004L64.1981 37.6566Z" fill="url(#paint10_linear_26_4617)"/>
<path style="mix-blend-mode:multiply" d="M62.9117 40.1922L56.5356 37.0092L50.2256 33.8592L48.4279 37.4602L50.0647 40.5058L53.8474 42.3942L57.6301 44.2825L61.1388 43.7436L62.9117 40.1922Z" fill="url(#paint11_linear_26_4617)"/>
<path d="M69.7458 10.5467C67.5158 9.43349 59.7617 20.461 52.4227 35.1623L46.3206 47.3859L54.3816 51.41L60.4837 39.1864C67.8227 24.485 71.9593 11.6517 69.7458 10.5467Z" fill="url(#paint12_linear_26_4617)"/>
<path d="M49.3339 7.9919L45.3923 15.8877L41.9833 17.4256L47.0222 8.1585C47.0222 8.1585 47.2195 6.9364 49.3339 7.9919Z" fill="url(#paint13_linear_26_4617)"/>
<path d="M84.0556 25.3251L80.114 33.2209L81.0163 36.911L85.3944 27.3141C85.3944 27.3141 86.1534 26.3724 84.0556 25.3251Z" fill="url(#paint14_linear_26_4617)"/>
<path d="M66.6646 60.1624L63.2784 58.472L60.5819 63.8735L63.9682 65.5639L66.6646 60.1624Z" fill="url(#paint15_linear_26_4617)"/>
<path d="M35.3293 44.5197L31.943 42.8292L29.2465 48.2307L32.6328 49.9212L35.3293 44.5197Z" fill="url(#paint16_linear_26_4617)"/>
<path d="M44.4532 110.071L40.5879 108.141C39.1177 107.408 39.5297 106.128 40.2636 104.657L44.3125 96.5469C45.0464 95.0767 45.7722 93.9534 47.2919 94.712L51.1572 96.6416C52.6274 97.3755 52.2153 98.6555 51.4814 100.126L47.4326 108.236C46.6492 109.682 45.9233 110.805 44.4532 110.071Z" fill="url(#paint17_linear_26_4617)"/>
<path d="M5.45329 90.6021L9.26904 92.5069C10.7392 93.2408 11.5146 92.1422 12.2485 90.6721L16.2973 82.5615C17.0312 81.0914 17.4928 79.8361 15.9731 79.0775L12.1573 77.1726C10.6872 76.4387 9.91178 77.5373 9.17788 79.0075L5.12906 87.118C4.39516 88.5881 3.9336 89.8434 5.45329 90.6021Z" fill="url(#paint18_linear_26_4617)"/>
<path d="M50.1786 89.715L46.9759 91.1289L57.6793 69.688L59.678 70.6858L50.1786 89.715Z" fill="url(#paint19_linear_26_4617)"/>
<path d="M18.232 73.767L19.0268 77.1765L29.7302 55.7356L27.7314 54.7379L18.232 73.767Z" fill="url(#paint20_linear_26_4617)"/>
<g style="mix-blend-mode:multiply">
<g style="mix-blend-mode:multiply" opacity="0.05">
<g style="mix-blend-mode:multiply" opacity="0.05">
<path d="M57.0814 64.3546C55.6372 63.6132 54.3951 62.5316 53.4621 61.2031C52.5291 59.8746 51.9334 58.339 51.7263 56.7289L43.6654 52.7048C42.254 53.507 40.6687 53.9538 39.0462 54.0066C37.4237 54.0594 35.8127 53.7167 34.3521 53.008C29.3966 50.5342 26.0405 57.2572 26.0405 57.2572C26.0405 57.2572 19.4671 81.3788 22.969 83.127C29.8076 86.5408 25.5634 99.0522 25.5634 99.0522C25.5634 99.0522 33.5077 88.388 39.8508 91.5544C43.3527 93.3026 58.6643 73.5431 58.6643 73.5431C58.6643 73.5431 62.0204 66.8201 57.0814 64.3546Z" fill="#F8F8F8"/>
</g>
</g>
<g style="mix-blend-mode:multiply" opacity="0.1">
<g style="mix-blend-mode:multiply" opacity="0.1">
<path d="M57.1969 64.1233C55.7526 63.382 54.5105 62.3004 53.5775 60.9718C52.6446 59.6433 52.0488 58.1078 51.8418 56.4976L43.7808 52.4736C42.3694 53.2758 40.7841 53.7225 39.1616 53.7754C37.5391 53.8282 35.9281 53.4854 34.4676 52.7767C29.512 50.3029 26.1559 57.0259 26.1559 57.0259C26.1559 57.0259 19.6072 81.098 23.1091 82.8461C29.9477 86.26 25.7036 98.7714 25.7036 98.7714C25.7036 98.7714 33.6479 88.1071 39.9909 91.2736C43.4598 93.0053 58.8374 73.1962 58.8374 73.1962C58.8374 73.1962 62.1359 66.5889 57.1969 64.1233Z" fill="#F1F1F1"/>
</g>
</g>
<g style="mix-blend-mode:multiply" opacity="0.14">
<g style="mix-blend-mode:multiply" opacity="0.14">
<path d="M57.3618 63.793C55.9176 63.0516 54.6754 61.9701 53.7425 60.6415C52.8095 59.313 52.2138 57.7774 52.0067 56.1673L43.9458 52.1432C42.5344 52.9454 40.9491 53.3922 39.3266 53.445C37.7041 53.4979 36.093 53.1551 34.6325 52.4464C29.677 49.9726 26.3209 56.6956 26.3209 56.6956C26.3209 56.6956 19.7475 80.8172 23.2494 82.5654C30.088 85.9793 25.8438 98.4907 25.8438 98.4907C25.8438 98.4907 33.7881 87.8264 40.1312 90.9929C43.6331 92.741 58.9447 72.9816 58.9447 72.9816C58.9447 72.9816 62.3008 66.2586 57.3618 63.793Z" fill="#EAEAEA"/>
</g>
</g>
<g style="mix-blend-mode:multiply" opacity="0.19">
<g style="mix-blend-mode:multiply" opacity="0.19">
<path d="M57.502 63.5122C56.0583 62.7734 54.8159 61.6948 53.8816 60.3693C52.9472 59.0438 52.3491 57.511 52.1386 55.903L44.0777 51.879C42.666 52.6772 41.0815 53.1203 39.4605 53.1703C37.8396 53.2202 36.2308 52.8754 34.7727 52.1656C29.8172 49.6918 26.461 56.4148 26.461 56.4148C26.461 56.4148 19.8711 80.5694 23.373 82.3176C30.2116 85.7315 25.9675 98.2429 25.9675 98.2429C25.9675 98.2429 33.9118 87.5786 40.2548 90.7451C43.7237 92.4768 59.0848 72.7008 59.0848 72.7008C59.0848 72.7008 62.441 65.9778 57.502 63.5122Z" fill="#E3E3E3"/>
</g>
</g>
<g style="mix-blend-mode:multiply" opacity="0.24">
<g style="mix-blend-mode:multiply" opacity="0.24">
<path d="M57.6422 63.2314C56.1985 62.4926 54.9561 61.414 54.0218 60.0885C53.0874 58.763 52.4893 57.2302 52.2788 55.6222L44.2178 51.5981C42.8062 52.3964 41.2217 52.8395 39.6007 52.8894C37.9798 52.9394 36.371 52.5946 34.9129 51.8848C29.9574 49.411 26.6012 56.134 26.6012 56.134C26.6012 56.134 20.0278 80.2556 23.5297 82.0038C30.3683 85.4176 26.1242 97.929 26.1242 97.929C26.1242 97.929 34.0684 87.2647 40.4115 90.4312C43.9134 92.1794 59.225 72.4199 59.225 72.4199C59.225 72.4199 62.5812 65.6969 57.6422 63.2314Z" fill="#DCDCDC"/>
</g>
</g>
<g style="mix-blend-mode:multiply" opacity="0.29">
<g style="mix-blend-mode:multiply" opacity="0.29">
<path d="M57.7824 62.9505C56.3387 62.2118 55.0963 61.1332 54.1619 59.8077C53.2276 58.4821 52.6295 56.9494 52.419 55.3414L44.358 51.3173C42.9464 52.1155 41.3619 52.5587 39.7409 52.6086C38.12 52.6585 36.5112 52.3138 35.0531 51.604C30.0975 49.1301 26.7414 55.8531 26.7414 55.8531C26.7414 55.8531 20.168 79.9748 23.6699 81.7229C30.5085 85.1368 26.2643 97.6482 26.2643 97.6482C26.2643 97.6482 34.2086 86.9839 40.5517 90.1504C44.0536 91.8986 59.3652 72.1391 59.3652 72.1391C59.3652 72.1391 62.7214 65.4161 57.7824 62.9505Z" fill="#D6D6D6"/>
</g>
</g>
<g style="mix-blend-mode:multiply" opacity="0.33">
<g style="mix-blend-mode:multiply" opacity="0.33">
<path d="M57.9226 62.6697C56.4789 61.9309 55.2365 60.8524 54.3021 59.5268C53.3678 58.2013 52.7697 56.6686 52.5592 55.0606L44.4982 51.0365C43.0866 51.8347 41.5021 52.2779 39.8811 52.3278C38.2602 52.3777 36.6514 52.0329 35.1933 51.3231C30.2377 48.8493 26.8816 55.5723 26.8816 55.5723C26.8816 55.5723 20.3 79.7105 23.8019 81.4586C30.6405 84.8725 26.4045 97.3674 26.4045 97.3674C26.4045 97.3674 34.3406 86.7196 40.6837 89.8861C44.1856 91.6343 59.5054 71.8583 59.5054 71.8583C59.5054 71.8583 62.8616 65.1353 57.9226 62.6697Z" fill="#CFCFCF"/>
</g>
</g>
<g style="mix-blend-mode:multiply" opacity="0.38">
<g style="mix-blend-mode:multiply" opacity="0.38">
<path d="M58.0215 62.4715C56.5779 61.7327 55.3354 60.6541 54.4011 59.3286C53.4668 58.0031 52.8686 56.4703 52.6582 54.8623L44.5972 50.8383C43.1855 51.6365 41.601 52.0796 39.9801 52.1295C38.3591 52.1795 36.7503 51.8347 35.2922 51.1249C30.3367 48.6511 26.9805 55.3741 26.9805 55.3741C26.9805 55.3741 20.4401 79.4296 23.942 81.1778C30.7806 84.5917 26.5365 97.1031 26.5365 97.1031C26.5365 97.1031 34.4808 86.4388 40.8238 89.6053C44.2927 91.3369 59.6621 71.5444 59.6621 71.5444C59.6621 71.5444 62.9605 64.9371 58.0215 62.4715Z" fill="#C8C8C8"/>
</g>
</g>
<g style="mix-blend-mode:multiply" opacity="0.43">
<g style="mix-blend-mode:multiply" opacity="0.43">
<path d="M58.2029 62.1081C56.7593 61.3693 55.5168 60.2907 54.5825 58.9652C53.6482 57.6397 53.05 56.1069 52.8396 54.4989L44.7786 50.4749C43.3669 51.2731 41.7824 51.7162 40.1615 51.7661C38.5405 51.8161 36.9317 51.4713 35.4736 50.7615C30.5181 48.2877 27.1619 55.0107 27.1619 55.0107C27.1619 55.0107 20.5803 79.1488 24.0822 80.897C30.9208 84.3109 26.6766 96.8223 26.6766 96.8223C26.6766 96.8223 34.6209 86.158 40.964 89.3245C44.4659 91.0726 59.7858 71.2966 59.7858 71.2966C59.7858 71.2966 63.1419 64.5737 58.2029 62.1081Z" fill="#C1C1C1"/>
</g>
</g>
<g style="mix-blend-mode:multiply" opacity="0.48">
<g style="mix-blend-mode:multiply" opacity="0.48">
<path d="M58.3431 61.8273C56.8995 61.0885 55.657 60.0099 54.7227 58.6844C53.7884 57.3588 53.1902 55.8261 52.9798 54.2181L44.9188 50.194C43.5071 50.9922 41.9226 51.4354 40.3017 51.4853C38.6807 51.5353 37.0719 51.1905 35.6138 50.4807C30.6583 48.0069 27.3021 54.7298 27.3021 54.7298C27.3021 54.7298 20.6957 78.9176 24.1976 80.6657C31.0363 84.0796 26.7921 96.591 26.7921 96.591C26.7921 96.591 34.7364 85.9267 41.0794 89.0932C44.5813 90.8414 59.9012 71.0654 59.9012 71.0654C59.9012 71.0654 63.2821 64.2928 58.3431 61.8273Z" fill="#BABABA"/>
</g>
</g>
<g style="mix-blend-mode:multiply" opacity="0.52">
<g style="mix-blend-mode:multiply" opacity="0.52">
<path d="M58.4833 61.5465C57.0397 60.8077 55.7972 59.7291 54.8629 58.4036C53.9286 57.0781 53.3304 55.5453 53.1199 53.9373L45.059 49.9133C43.6473 50.7115 42.0628 51.1546 40.4418 51.2046C38.8209 51.2545 37.2121 50.9097 35.754 50.1999C30.7985 47.7261 27.4423 54.4491 27.4423 54.4491C27.4423 54.4491 20.8607 78.5872 24.3626 80.3354C31.2012 83.7493 26.957 96.2607 26.957 96.2607C26.957 96.2607 34.9013 85.5964 41.2444 88.7629C44.7463 90.511 60.0662 70.7351 60.0662 70.7351C60.0662 70.7351 63.4223 64.0121 58.4833 61.5465Z" fill="#B3B3B3"/>
</g>
</g>
<g style="mix-blend-mode:multiply" opacity="0.57">
<g style="mix-blend-mode:multiply" opacity="0.57">
<path d="M58.6234 61.2657C57.1798 60.5269 55.9373 59.4483 55.003 58.1228C54.0687 56.7973 53.4706 55.2645 53.2601 53.6565L45.1991 49.6324C43.7874 50.4307 42.2029 50.8738 40.582 50.9237C38.961 50.9737 37.3523 50.6289 35.8941 49.9191C30.9386 47.4453 27.5825 54.1683 27.5825 54.1683C27.5825 54.1683 21.0008 78.3064 24.5027 80.0546C31.3413 83.4684 27.0972 95.9799 27.0972 95.9799C27.0972 95.9799 35.0415 85.3156 41.3845 88.4821C44.8864 90.2302 60.2063 70.4542 60.2063 70.4542C60.2063 70.4542 63.5624 63.7312 58.6234 61.2657Z" fill="#ACACAC"/>
</g>
</g>
<g style="mix-blend-mode:multiply" opacity="0.62">
<g style="mix-blend-mode:multiply" opacity="0.62">
<path d="M58.7554 61.0014C57.3112 60.26 56.069 59.1784 55.136 57.8499C54.2031 56.5214 53.6074 54.9858 53.4003 53.3757L45.3393 49.3516C43.928 50.1538 42.3427 50.6006 40.7201 50.6534C39.0976 50.7062 37.4866 50.3635 36.0261 49.6548C31.0706 47.181 27.7144 53.904 27.7144 53.904C27.7144 53.904 21.141 78.0256 24.6429 79.7738C31.4815 83.1876 27.2374 95.699 27.2374 95.699C27.2374 95.699 35.1817 85.0348 41.5247 88.2012C45.0266 89.9494 60.3382 70.1899 60.3382 70.1899C60.3382 70.1899 63.6944 63.4669 58.7554 61.0014Z" fill="#A5A5A5"/>
</g>
</g>
<g style="mix-blend-mode:multiply" opacity="0.67">
<g style="mix-blend-mode:multiply" opacity="0.67">
<path d="M58.8956 60.7205C57.4514 59.9792 56.2092 58.8976 55.2762 57.5691C54.3433 56.2406 53.7476 54.705 53.5405 53.0949L45.4795 49.0708C44.0682 49.873 42.4829 50.3198 40.8603 50.3726C39.2378 50.4254 37.6268 50.0827 36.1663 49.374C31.2108 46.9001 27.8546 53.6231 27.8546 53.6231C27.8546 53.6231 21.2812 77.7448 24.7831 79.4929C31.6217 82.9068 27.3776 95.4182 27.3776 95.4182C27.3776 95.4182 35.3219 84.7539 41.6649 87.9204C45.1338 89.6521 60.4867 69.8926 60.4867 69.8926C60.4867 69.8926 63.8346 63.1861 58.8956 60.7205Z" fill="#9E9E9E"/>
</g>
</g>
<g style="mix-blend-mode:multiply" opacity="0.71">
<g style="mix-blend-mode:multiply" opacity="0.71">
<path d="M59.0358 60.4397C57.5916 59.6984 56.3494 58.6168 55.4164 57.2883C54.4835 55.9597 53.8878 54.4242 53.6807 52.8141L45.6197 48.79C44.2084 49.5922 42.6231 50.0389 41.0005 50.0918C39.378 50.1446 37.767 49.8018 36.3065 49.0931C31.351 46.6193 27.9948 53.3423 27.9948 53.3423C27.9948 53.3423 21.4214 77.4639 24.9233 79.2121C31.7619 82.626 27.5178 95.1374 27.5178 95.1374C27.5178 95.1374 35.4621 84.4731 41.8051 87.6396C45.307 89.3877 60.6186 69.6283 60.6186 69.6283C60.6186 69.6283 63.9748 62.9053 59.0358 60.4397Z" fill="#979797"/>
</g>
</g>
<g style="mix-blend-mode:multiply" opacity="0.76">
<g style="mix-blend-mode:multiply" opacity="0.76">
<path d="M59.1759 60.159C57.7317 59.4176 56.4895 58.336 55.5566 57.0075C54.6236 55.679 54.0279 54.1434 53.8208 52.5333L45.7598 48.5092C44.3485 49.3114 42.7632 49.7582 41.1407 49.811C39.5181 49.8638 37.9071 49.5211 36.4466 48.8124C31.4911 46.3386 28.135 53.0615 28.135 53.0615C28.135 53.0615 21.5203 77.2658 25.0222 79.0139C31.8608 82.4278 27.6909 94.7905 27.6909 94.7905C27.6909 94.7905 35.561 84.2749 41.904 87.4414C45.4059 89.1896 60.7176 69.4301 60.7176 69.4301C60.7176 69.4301 64.1149 62.6245 59.1759 60.159Z" fill="#919191"/>
</g>
</g>
<g style="mix-blend-mode:multiply" opacity="0.81">
<g style="mix-blend-mode:multiply" opacity="0.81">
<path d="M59.3161 59.8781C57.8702 59.1291 56.6289 58.0385 55.7 56.7009C54.7711 55.3634 54.1826 53.8194 53.9857 52.2029L45.9248 48.1788C44.5134 48.981 42.9281 49.4278 41.3056 49.4806C39.6831 49.5334 38.072 49.1907 36.6115 48.482C31.656 46.0082 28.2999 52.7312 28.2999 52.7312C28.2999 52.7312 21.7017 76.9023 25.2036 78.6505C32.0423 82.0644 27.7981 94.5758 27.7981 94.5758C27.7981 94.5758 35.7424 83.9115 42.0854 87.078C45.5873 88.8262 60.899 69.0667 60.899 69.0667C60.899 69.0667 64.2551 62.3437 59.3161 59.8781Z" fill="#8A8A8A"/>
</g>
</g>
<g style="mix-blend-mode:multiply" opacity="0.86">
<g style="mix-blend-mode:multiply" opacity="0.86">
<path d="M59.4563 59.5973C58.0121 58.856 56.7699 57.7744 55.837 56.4458C54.904 55.1173 54.3083 53.5818 54.1012 51.9716L46.0402 47.9476C44.6289 48.7498 43.0436 49.1965 41.4211 49.2494C39.7985 49.3022 38.1875 48.9594 36.727 48.2507C31.7715 45.7769 28.4153 52.4999 28.4153 52.4999C28.4153 52.4999 21.842 76.6215 25.3439 78.3697C32.1825 81.7836 27.9383 94.295 27.9383 94.295C27.9383 94.295 35.8826 83.6307 42.2256 86.7972C45.7276 88.5453 61.0392 68.7859 61.0392 68.7859C61.0392 68.7859 64.3953 62.0629 59.4563 59.5973Z" fill="#838383"/>
</g>
</g>
<g style="mix-blend-mode:multiply" opacity="0.9">
<g style="mix-blend-mode:multiply" opacity="0.9">
<path d="M59.5965 59.3165C58.1528 58.5777 56.9103 57.4991 55.976 56.1736C55.0417 54.8481 54.4436 53.3154 54.2331 51.7074L46.1721 47.6833C44.7605 48.4815 43.1759 48.9246 41.555 48.9746C39.9341 49.0245 38.3253 48.6797 36.8672 47.9699C31.9116 45.4961 28.5555 52.2191 28.5555 52.2191C28.5555 52.2191 21.9821 76.3407 25.484 78.0889C32.3226 81.5028 28.0784 94.0142 28.0784 94.0142C28.0784 94.0142 36.0227 83.3499 42.3658 86.5164C45.8677 88.2645 61.1793 68.5051 61.1793 68.5051C61.1793 68.5051 64.5355 61.7821 59.5965 59.3165Z" fill="#7C7C7C"/>
</g>
</g>
<g style="mix-blend-mode:multiply" opacity="0.95">
<g style="mix-blend-mode:multiply" opacity="0.95">
<path d="M59.7367 59.0357C58.293 58.2969 57.0505 57.2183 56.1162 55.8928C55.1819 54.5673 54.5838 53.0345 54.3733 51.4265L46.3123 47.4025C44.9007 48.2007 43.3161 48.6438 41.6952 48.6938C40.0743 48.7437 38.4655 48.3989 37.0074 47.6891C32.0518 45.2153 28.6957 51.9383 28.6957 51.9383C28.6957 51.9383 22.1223 76.0599 25.6242 77.8081C32.4628 81.2219 28.2186 93.7334 28.2186 93.7334C28.2186 93.7334 36.1629 83.0691 42.506 86.2356C45.9749 87.9672 61.3113 68.2408 61.3113 68.2408C61.3113 68.2408 64.6757 61.5013 59.7367 59.0357Z" fill="#757575"/>
</g>
</g>
<g style="mix-blend-mode:multiply">
<path d="M59.8769 58.7549C58.4332 58.0161 57.1907 56.9375 56.2564 55.612C55.3221 54.2865 54.724 52.7537 54.5135 51.1457L46.4525 47.1216C45.0409 47.9198 43.4563 48.363 41.8354 48.4129C40.2145 48.4629 38.6057 48.1181 37.1476 47.4083C32.192 44.9345 28.8359 51.6575 28.8359 51.6575C28.8359 51.6575 22.2625 75.7791 25.7644 77.5273C32.603 80.9411 28.3588 93.4525 28.3588 93.4525C28.3588 93.4525 36.3031 82.7882 42.6462 85.9547C46.1481 87.7029 61.4597 67.9434 61.4597 67.9434C61.4597 67.9434 64.8159 61.2204 59.8769 58.7549Z" fill="#6E6E6E"/>
</g>
</g>
<path d="M59.8769 58.7549C58.4332 58.0161 57.1907 56.9375 56.2564 55.612C55.3221 54.2865 54.724 52.7537 54.5135 51.1457L46.4525 47.1216C45.0409 47.9198 43.4563 48.363 41.8354 48.4129C40.2145 48.4629 38.6057 48.1181 37.1476 47.4083C32.192 44.9345 28.8359 51.6575 28.8359 51.6575C28.8359 51.6575 22.2625 75.7791 25.7644 77.5273C32.603 80.9411 28.3588 93.4525 28.3588 93.4525C28.3588 93.4525 36.3031 82.7882 42.6462 85.9547C46.1481 87.7029 61.4597 67.9434 61.4597 67.9434C61.4597 67.9434 64.8159 61.2204 59.8769 58.7549Z" fill="url(#paint21_linear_26_4617)"/>
<path d="M51.4165 50.0331L49.2031 48.9281C47.7252 48.1903 45.929 48.7903 45.1912 50.2682L40.3838 59.8984C39.646 61.3763 40.246 63.1725 41.7239 63.9103L43.9374 65.0152C45.4153 65.753 47.2114 65.153 47.9492 63.6751L52.7567 54.0449C53.4944 52.567 52.8944 50.7708 51.4165 50.0331Z" fill="url(#paint22_linear_26_4617)"/>
<path d="M51.1444 50.5781L48.9144 49.4649C47.7376 48.8774 46.3073 49.3552 45.7198 50.5321L40.9041 60.1788C40.3166 61.3556 40.7944 62.7859 41.9713 63.3734L44.2012 64.4866C45.3781 65.0741 46.8084 64.5964 47.3959 63.4195L52.2116 53.7728C52.799 52.5959 52.3213 51.1656 51.1444 50.5781Z" fill="url(#paint23_linear_26_4617)"/>
<path d="M13.4756 98.7958L16.5432 92.6509C16.7823 92.1719 18.2842 90.9407 27.3528 95.4678C36.4214 99.9949 36.2906 101.993 36.0844 102.406L33.0169 108.551L13.4756 98.7958Z" fill="url(#paint24_linear_26_4617)"/>
<path d="M27.0889 95.9964C21.9848 93.4484 17.5088 92.0806 17.0883 92.9231L14.2929 98.5228L32.7604 107.742L35.5558 102.142C35.9764 101.3 32.1931 98.5444 27.0889 95.9964Z" fill="url(#paint25_linear_26_4617)"/>
<path d="M13.4921 98.804L11.4389 102.917L14.6649 99.3895L13.4921 98.804Z" fill="url(#paint26_linear_26_4617)"/>
<path d="M33.0169 108.551L30.9636 112.664L31.8276 107.957L33.0169 108.551Z" fill="url(#paint27_linear_26_4617)"/>
<g style="mix-blend-mode:multiply">
<path d="M28.9266 51.5171L36.8455 52.9322L40.0297 48.3312L39.3938 48.1995L36.5644 52.2553L29.2482 50.9554C29.108 51.1949 28.9926 51.3849 28.9266 51.5171Z" fill="#DEDEDE"/>
</g>
<g style="mix-blend-mode:multiply">
<path d="M61.5339 67.7948L55.6435 62.3161L57.407 57.006L57.8945 57.4351L56.3369 62.1258L61.773 67.1919C61.7057 67.3975 61.6258 67.5988 61.5339 67.7948Z" fill="#DEDEDE"/>
</g>
<g style="mix-blend-mode:multiply">
<g style="mix-blend-mode:multiply">
<path d="M51.8621 62.5332C51.8621 62.5332 51.6724 62.9131 51.483 63.6646C51.2936 64.4161 50.8401 65.4072 50.3207 66.5717C49.8013 67.7362 49.0755 69.0659 48.3499 70.5196C47.9871 71.2464 47.5334 71.9485 47.055 72.6588C46.5765 73.3692 46.0981 74.0796 45.5949 74.7982C45.0917 75.5169 44.5555 76.1777 43.9696 76.8139C43.3838 77.45 42.8145 78.0531 42.2369 78.6314C41.6593 79.2097 41.1065 79.7385 40.6197 80.259C40.1493 80.764 39.7059 81.2934 39.2914 81.8451C38.67 82.6597 38.2084 83.5844 37.9308 84.5706C37.8088 84.9378 37.7834 85.3302 37.8572 85.7101C37.8185 85.6173 37.7907 85.5204 37.7744 85.4212C37.7312 85.128 37.7338 84.83 37.7821 84.5377C37.8646 84.0813 37.9972 83.6354 38.1776 83.2081C38.4003 82.633 38.6764 82.08 39.0022 81.5563C39.3912 80.9662 39.8126 80.3981 40.2644 79.8546C40.7594 79.2764 41.2957 78.7393 41.8733 78.161C42.4509 77.5827 43.012 76.9961 43.54 76.3518C44.068 75.7074 44.6125 75.03 45.1488 74.3692C45.685 73.7083 46.1635 72.9979 46.6171 72.2958C47.0708 71.5937 47.5245 70.8916 47.9286 70.2061C48.7782 68.8349 49.4791 67.5134 50.0563 66.3572C51.2191 64.1519 51.8621 62.5332 51.8621 62.5332Z" fill="#B8B8B8"/>
</g>
</g>
<g style="mix-blend-mode:multiply">
<g style="mix-blend-mode:multiply">
<path d="M39.143 56.1838C39.143 56.1838 38.3678 57.7365 37.2216 60.0325C36.6444 61.1888 35.9765 62.5268 35.4242 64.0464C35.0697 64.7567 34.8142 65.5577 34.5423 66.3505C34.2703 67.1433 34.0066 67.9609 33.7677 68.7702C33.5288 69.5795 33.3146 70.4218 33.15 71.2476C32.9854 72.0733 32.8373 72.866 32.7057 73.667C32.5741 74.468 32.4838 75.2276 32.3191 75.9708C32.1544 76.714 31.9485 77.3747 31.7342 78.0106C31.5029 78.5819 31.2272 79.1342 30.9096 79.6624C30.6765 80.0634 30.3999 80.4374 30.0846 80.7776C29.8855 80.9979 29.6478 81.1799 29.3832 81.3147C29.2977 81.369 29.2023 81.4055 29.1025 81.4222C29.4583 81.2621 29.7637 81.0078 29.9855 80.6868C30.5975 79.8665 31.0583 78.9435 31.3461 77.9613C31.5379 77.2984 31.6945 76.6258 31.8154 75.9464C31.9388 75.2445 32.0457 74.4518 32.1443 73.6756C32.2428 72.8994 32.3827 72.0407 32.572 71.2066C32.7614 70.3726 32.9755 69.5303 33.2062 68.6962C33.4368 67.8622 33.7253 67.0363 34.022 66.2353C34.3187 65.4342 34.6403 64.6661 34.9535 63.9146C35.6792 62.461 36.3471 61.123 36.9243 59.9667C37.5016 58.8104 38.1368 57.91 38.5492 57.2905C38.9616 56.671 39.143 56.1838 39.143 56.1838Z" fill="#B8B8B8"/>
</g>
</g>
<path d="M47.4371 63.3782L51.4365 55.3668L50.2726 55.9207L46.4465 63.5853L41.491 61.1114L45.3171 53.4469L45.0355 52.0682L40.995 60.1623C40.7106 60.7318 40.6642 61.3909 40.8659 61.9947C41.0676 62.5984 41.5008 63.0973 42.0704 63.3816L44.2838 64.4866C44.8504 64.748 45.4965 64.7784 46.0851 64.5715C46.6738 64.3646 47.1587 63.9366 47.4371 63.3782Z" fill="url(#paint28_linear_26_4617)"/>
<path d="M17.58 100.164L18.918 100.832L22.3731 93.9105L20.9197 93.4738L17.58 100.164Z" fill="url(#paint29_radial_26_4617)"/>
<path d="M25.974 95.4604L24.669 94.809L21.1397 101.879L22.4446 102.53L25.974 95.4604Z" fill="url(#paint30_radial_26_4617)"/>
<path d="M24.6333 103.685L25.9383 104.336L29.4676 97.2664L28.1627 96.6149L24.6333 103.685Z" fill="url(#paint31_radial_26_4617)"/>
<path d="M32.8129 99.4109L31.5822 98.6108L28.1271 105.532L29.432 106.183L32.8129 99.4109Z" fill="url(#paint32_radial_26_4617)"/>
<defs>
<linearGradient id="paint0_linear_26_4617" x1="25.4563" y1="99.4321" x2="28.4826" y2="93.3699" gradientUnits="userSpaceOnUse">
<stop stop-color="#5E5E5E"/>
<stop offset="1" stop-color="#1B1C1C"/>
</linearGradient>
<linearGradient id="paint1_linear_26_4617" x1="24.7001" y1="65.8118" x2="52.6492" y2="79.7642" gradientUnits="userSpaceOnUse">
<stop stop-color="#5E5E5E"/>
<stop offset="1" stop-color="#1B1C1C"/>
</linearGradient>
<linearGradient id="paint2_linear_26_4617" x1="60.0567" y1="29.9559" x2="58.4734" y2="33.1274" gradientUnits="userSpaceOnUse">
<stop stop-color="#1B1C1C"/>
<stop offset="1" stop-color="#5E5E5E"/>
</linearGradient>
<linearGradient id="paint3_linear_26_4617" x1="56.5274" y1="37.0257" x2="53.8474" y2="42.3942" gradientUnits="userSpaceOnUse">
<stop stop-color="#1B1C1C"/>
<stop offset="1" stop-color="#5E5E5E"/>
</linearGradient>
<linearGradient id="paint4_linear_26_4617" x1="57.3099" y1="34.0941" x2="55.9905" y2="36.7371" gradientUnits="userSpaceOnUse">
<stop stop-color="#5E5E5E"/>
<stop offset="0.11" stop-color="#B8B8B8"/>
<stop offset="0.25" stop-color="#4D4D4D"/>
<stop offset="0.52" stop-color="#2E2E2D"/>
<stop offset="0.85" stop-color="#82817F"/>
<stop offset="1" stop-color="#1B1C1C"/>
</linearGradient>
<linearGradient id="paint5_linear_26_4617" x1="77.8796" y1="38.2754" x2="71.4395" y2="51.1762" gradientUnits="userSpaceOnUse">
<stop stop-color="#5E5E5E"/>
<stop offset="0.09" stop-color="#616161"/>
<stop offset="0.17" stop-color="#6C6B6B"/>
<stop offset="0.24" stop-color="#7D7C7C"/>
<stop offset="0.28" stop-color="#8B8A89"/>
<stop offset="0.35" stop-color="#6B6A69"/>
<stop offset="0.42" stop-color="#525150"/>
<stop offset="0.5" stop-color="#40403F"/>
<stop offset="0.58" stop-color="#353534"/>
<stop offset="0.67" stop-color="#323231"/>
<stop offset="0.89" stop-color="#232322"/>
<stop offset="1" stop-color="#A19F9B"/>
</linearGradient>
<linearGradient id="paint6_linear_26_4617" x1="42.9841" y1="20.1331" x2="36.2553" y2="33.6121" gradientUnits="userSpaceOnUse">
<stop stop-color="#5E5E5E"/>
<stop offset="0.09" stop-color="#616161"/>
<stop offset="0.17" stop-color="#6C6B6B"/>
<stop offset="0.24" stop-color="#7D7C7C"/>
<stop offset="0.28" stop-color="#8B8A89"/>
<stop offset="0.35" stop-color="#6B6A69"/>
<stop offset="0.42" stop-color="#525150"/>
<stop offset="0.5" stop-color="#40403F"/>
<stop offset="0.58" stop-color="#353534"/>
<stop offset="0.67" stop-color="#323231"/>
<stop offset="0.89" stop-color="#232322"/>
<stop offset="1" stop-color="#A19F9B"/>
</linearGradient>
<linearGradient id="paint7_linear_26_4617" x1="45.6862" y1="10.6281" x2="84.141" y2="29.8249" gradientUnits="userSpaceOnUse">
<stop stop-color="#3FAEFF"/>
<stop offset="1" stop-color="#0077D4"/>
</linearGradient>
<radialGradient id="paint8_radial_26_4617" cx="0" cy="0" r="1" gradientUnits="userSpaceOnUse" gradientTransform="translate(64.5755 20.9038) rotate(26.5286) scale(9.52652)">
<stop offset="0.47" stop-color="white"/>
<stop offset="0.62" stop-color="#FCFCFC"/>
<stop offset="0.73" stop-color="#F3F3F2"/>
<stop offset="0.84" stop-color="#E3E3E1"/>
<stop offset="0.94" stop-color="#CDCDCA"/>
<stop offset="1" stop-color="#BBBAB6"/>
</radialGradient>
<linearGradient id="paint9_linear_26_4617" x1="60.8571" y1="16.2412" x2="70.6029" y2="21.1063" gradientUnits="userSpaceOnUse">
<stop stop-color="white"/>
<stop offset="0.48" stop-color="#7A7A7A"/>
<stop offset="1" stop-color="white"/>
</linearGradient>
<linearGradient id="paint10_linear_26_4617" x1="50.8605" y1="32.5873" x2="63.5467" y2="38.9203" gradientUnits="userSpaceOnUse">
<stop stop-color="white"/>
<stop offset="0.48" stop-color="#7A7A7A"/>
<stop offset="1" stop-color="white"/>
</linearGradient>
<linearGradient id="paint11_linear_26_4617" x1="48.8815" y1="36.5517" x2="61.5676" y2="42.8847" gradientUnits="userSpaceOnUse">
<stop stop-color="white"/>
<stop offset="0.48" stop-color="#7A7A7A"/>
<stop offset="1" stop-color="white"/>
</linearGradient>
<linearGradient id="paint12_linear_26_4617" x1="56.018" y1="27.9603" x2="64.0789" y2="31.9844" gradientUnits="userSpaceOnUse">
<stop stop-color="#3FAEFF"/>
<stop offset="1" stop-color="#0077D4"/>
</linearGradient>
<linearGradient id="paint13_linear_26_4617" x1="44.5229" y1="12.1315" x2="46.7199" y2="13.2282" gradientUnits="userSpaceOnUse">
<stop stop-color="#5E5E5E"/>
<stop offset="1" stop-color="#1B1C1C"/>
</linearGradient>
<linearGradient id="paint14_linear_26_4617" x1="81.4416" y1="30.5615" x2="83.6385" y2="31.6582" gradientUnits="userSpaceOnUse">
<stop stop-color="#5E5E5E"/>
<stop offset="1" stop-color="#1B1C1C"/>
</linearGradient>
<linearGradient id="paint15_linear_26_4617" x1="61.926" y1="61.181" x2="65.3123" y2="62.8714" gradientUnits="userSpaceOnUse">
<stop stop-color="#5E5E5E"/>
<stop offset="1" stop-color="#1B1C1C"/>
</linearGradient>
<linearGradient id="paint16_linear_26_4617" x1="33.9769" y1="47.2287" x2="30.5906" y2="45.5382" gradientUnits="userSpaceOnUse">
<stop stop-color="#5E5E5E"/>
<stop offset="1" stop-color="#1B1C1C"/>
</linearGradient>
<linearGradient id="paint17_linear_26_4617" x1="48.9607" y1="96.2054" x2="42.5205" y2="109.106" gradientUnits="userSpaceOnUse">
<stop stop-color="#5E5E5E"/>
<stop offset="0.09" stop-color="#616161"/>
<stop offset="0.17" stop-color="#6C6B6B"/>
<stop offset="0.24" stop-color="#7D7C7C"/>
<stop offset="0.28" stop-color="#8B8A89"/>
<stop offset="0.35" stop-color="#6B6A69"/>
<stop offset="0.42" stop-color="#525150"/>
<stop offset="0.5" stop-color="#40403F"/>
<stop offset="0.58" stop-color="#353534"/>
<stop offset="0.67" stop-color="#323231"/>
<stop offset="0.89" stop-color="#232322"/>
<stop offset="1" stop-color="#A19F9B"/>
</linearGradient>
<linearGradient id="paint18_linear_26_4617" x1="14.0652" y1="78.0631" x2="7.33639" y2="91.5421" gradientUnits="userSpaceOnUse">
<stop stop-color="#5E5E5E"/>
<stop offset="0.09" stop-color="#616161"/>
<stop offset="0.17" stop-color="#6C6B6B"/>
<stop offset="0.24" stop-color="#7D7C7C"/>
<stop offset="0.28" stop-color="#8B8A89"/>
<stop offset="0.35" stop-color="#6B6A69"/>
<stop offset="0.42" stop-color="#525150"/>
<stop offset="0.5" stop-color="#40403F"/>
<stop offset="0.58" stop-color="#353534"/>
<stop offset="0.67" stop-color="#323231"/>
<stop offset="0.89" stop-color="#232322"/>
<stop offset="1" stop-color="#A19F9B"/>
</linearGradient>
<linearGradient id="paint19_linear_26_4617" x1="52.3276" y1="80.4084" x2="54.3264" y2="81.4062" gradientUnits="userSpaceOnUse">
<stop stop-color="#1B1C1C"/>
<stop offset="1" stop-color="#5E5E5E"/>
</linearGradient>
<linearGradient id="paint20_linear_26_4617" x1="24.3785" y1="66.4561" x2="22.3798" y2="65.4583" gradientUnits="userSpaceOnUse">
<stop stop-color="#5E5E5E"/>
<stop offset="1" stop-color="#1B1C1C"/>
</linearGradient>
<linearGradient id="paint21_linear_26_4617" x1="23.1131" y1="63.1625" x2="55.7205" y2="79.4402" gradientUnits="userSpaceOnUse">
<stop stop-color="#3FAEFF"/>
<stop offset="1" stop-color="#0077D4"/>
</linearGradient>
<linearGradient id="paint22_linear_26_4617" x1="43.0368" y1="64.0498" x2="50.6561" y2="48.7868" gradientUnits="userSpaceOnUse">
<stop stop-color="#1B1C1C"/>
<stop offset="1" stop-color="#5E5E5E"/>
</linearGradient>
<linearGradient id="paint23_linear_26_4617" x1="43.2924" y1="63.5377" x2="50.3675" y2="49.3649" gradientUnits="userSpaceOnUse">
<stop stop-color="#5E5E5E"/>
<stop offset="1" stop-color="#1B1C1C"/>
</linearGradient>
<linearGradient id="paint24_linear_26_4617" x1="23.37" y1="103.446" x2="27.5425" y2="95.0879" gradientUnits="userSpaceOnUse">
<stop stop-color="#5E5E5E"/>
<stop offset="1" stop-color="#1B1C1C"/>
</linearGradient>
<linearGradient id="paint25_linear_26_4617" x1="23.6256" y1="102.934" x2="27.2539" y2="95.666" gradientUnits="userSpaceOnUse">
<stop stop-color="#005394"/>
<stop offset="1" stop-color="#3FAEFF"/>
</linearGradient>
<linearGradient id="paint26_linear_26_4617" x1="12.0747" y1="103.09" x2="14.1692" y2="98.8944" gradientUnits="userSpaceOnUse">
<stop stop-color="#5E5E5E"/>
<stop offset="1" stop-color="#1B1C1C"/>
</linearGradient>
<linearGradient id="paint27_linear_26_4617" x1="30.4267" y1="112.251" x2="32.5212" y2="108.056" gradientUnits="userSpaceOnUse">
<stop stop-color="#5E5E5E"/>
<stop offset="1" stop-color="#1B1C1C"/>
</linearGradient>
<linearGradient id="paint28_linear_26_4617" x1="43.2347" y1="63.6534" x2="48.4627" y2="53.1807" gradientUnits="userSpaceOnUse">
<stop stop-color="#1B1C1C"/>
<stop offset="1" stop-color="#5E5E5E"/>
</linearGradient>
<radialGradient id="paint29_radial_26_4617" cx="0" cy="0" r="1" gradientUnits="userSpaceOnUse" gradientTransform="translate(19.9476 97.033) rotate(26.5286) scale(2.78781)">
<stop offset="0.47" stop-color="white"/>
<stop offset="0.62" stop-color="#FCFCFC"/>
<stop offset="0.73" stop-color="#F3F2F3"/>
<stop offset="0.84" stop-color="#E3E1E3"/>
<stop offset="0.94" stop-color="#CDCACD"/>
<stop offset="1" stop-color="#BBB6BB"/>
</radialGradient>
<radialGradient id="paint30_radial_26_4617" cx="0" cy="0" r="1" gradientUnits="userSpaceOnUse" gradientTransform="translate(23.5321 98.6985) rotate(26.5286) scale(2.86165)">
<stop offset="0.47" stop-color="white"/>
<stop offset="0.62" stop-color="#FCFCFC"/>
<stop offset="0.73" stop-color="#F3F2F3"/>
<stop offset="0.84" stop-color="#E3E1E3"/>
<stop offset="0.94" stop-color="#CDCACD"/>
<stop offset="1" stop-color="#BBB6BB"/>
</radialGradient>
<radialGradient id="paint31_radial_26_4617" cx="0" cy="0" r="1" gradientUnits="userSpaceOnUse" gradientTransform="translate(27.067 100.463) rotate(26.5286) scale(2.86165)">
<stop offset="0.47" stop-color="white"/>
<stop offset="0.62" stop-color="#FCFCFC"/>
<stop offset="0.73" stop-color="#F3F2F3"/>
<stop offset="0.84" stop-color="#E3E1E3"/>
<stop offset="0.94" stop-color="#CDCACD"/>
<stop offset="1" stop-color="#BBB6BB"/>
</radialGradient>
<radialGradient id="paint32_radial_26_4617" cx="0" cy="0" r="1" gradientUnits="userSpaceOnUse" gradientTransform="translate(30.5524 102.327) rotate(26.5286) scale(2.78781)">
<stop offset="0.47" stop-color="white"/>
<stop offset="0.62" stop-color="#FCFCFC"/>
<stop offset="0.73" stop-color="#F3F2F3"/>
<stop offset="0.84" stop-color="#E3E1E3"/>
<stop offset="0.94" stop-color="#CDCACD"/>
<stop offset="1" stop-color="#BBB6BB"/>
</radialGradient>
</defs>
</svg>
