<svg width="117" height="103" viewBox="0 0 117 103" fill="none" xmlns="http://www.w3.org/2000/svg">
<g clip-path="url(#clip0_7_206)">
<path d="M91.3937 22.3711L91.3746 22.351L88.633 24.784L88.6593 24.7965L91.3937 22.3711Z" fill="#058944"/>
<path d="M76.9897 35.1561L77.4965 34.6961L86.3745 26.8261L86.3798 26.7929L78.7913 33.5264L78.7514 33.5526L76.2598 35.7802L76.1432 35.8864C75.8549 36.1526 75.5666 36.4188 75.2797 36.6871L75.4202 36.5623L76.9897 35.1561Z" fill="#058944"/>
<path d="M88.414 25.0137L88.4433 24.953L86.6231 26.5681L86.6648 26.5675L88.414 25.0137Z" fill="#058944"/>
<path d="M8.14685 68.179C8.30817 68.5052 8.56978 68.7709 8.89417 68.9381C9.30029 69.099 9.7485 68.9712 10.1546 68.8206C13.926 67.4152 17.0457 64.6574 18.8953 61.0941C20.8077 57.374 20.741 53.7205 20.1194 49.7572C19.6975 49.7372 19.2709 49.7054 18.8516 49.6985C16.0868 49.5801 13.268 49.6633 10.6405 50.5378C8.10505 51.3877 6.3459 52.8025 5.26322 54.5155C4.60704 59.2832 5.62583 64.1105 8.14685 68.179ZM11.5693 52.1601C13.0152 51.4686 14.6013 51.1259 16.1975 51.1603C16.963 51.1864 17.0755 51.8574 16.5326 52.3174C15.8519 52.8973 14.9106 53.2357 14.1636 53.7465C13.3892 54.256 12.7223 54.9123 12.2017 55.6771C11.1455 57.2748 10.902 59.0161 10.9631 60.8691C11.0019 61.3609 10.9548 61.8565 10.8239 62.3343C10.2433 64.1987 7.90903 63.8751 6.94034 62.5905C6.5457 62.0314 6.28945 61.3864 6.19218 60.7074C5.83914 58.5651 6.68327 56.3141 8.10058 54.708C9.07102 53.6323 10.2519 52.7649 11.5693 52.1601Z" fill="#058944"/>
<path d="M48.4184 82.6863C50.6538 82.9094 52.9101 82.8818 55.1452 82.6039C55.3108 82.5814 55.475 82.5567 55.6315 82.5342C56.0873 82.4638 56.5433 82.3754 56.9925 82.2766C63.5571 80.8288 69.0229 76.4132 74.1627 72.0275L74.048 71.7793L74.014 71.7274L73.999 71.7046C70.1251 68.456 64.4085 67.778 59.3787 68.9492C55.003 69.9674 50.8129 72.3089 48.3391 76.1539C47.6569 77.2183 47.1307 78.3729 46.7764 79.5823C46.7348 79.7342 46.5504 80.5851 46.4123 81.4056L46.4414 81.5645C46.5086 81.8791 46.592 82.1899 46.6913 82.4956C47.1426 82.5557 47.5967 82.6021 48.0469 82.6422L48.4184 82.6863ZM62.8257 70.7953C62.3595 70.8636 61.8311 70.9698 61.3661 70.7971C60.9011 70.6243 60.5596 70.2044 60.8116 69.7958L60.8845 69.6916C61.3419 69.1424 62.4875 69.0972 63.1679 69.0486C64.4518 68.9445 65.7383 69.1477 66.9199 69.6412C67.8071 70.0219 68.6098 70.5705 69.284 71.2568C69.66 71.6423 70.843 72.8456 70.6133 73.4028C70.459 73.777 69.8912 73.4016 69.6565 73.241C69.0661 72.8448 68.5309 72.3175 67.9606 71.8696C67.1495 71.2539 66.1938 70.8524 65.1808 70.7017C64.397 70.6125 63.6027 70.6441 62.8257 70.7953Z" fill="#058944"/>
<path d="M27.8721 50.6251C28.1894 50.6781 28.5034 50.7214 28.8165 50.7772L29.4346 50.8763C29.758 50.9342 30.0796 50.9845 30.4009 51.0437L30.8796 51.1274L31.5239 51.239L31.9642 51.3329L32.3105 51.4026L34.5483 51.8221L35.2327 51.949L35.2432 51.9421L35.9356 52.0814L35.9647 52.089L36.5936 52.2047C36.3769 52.1629 36.1678 52.1191 35.9538 52.0724L35.9248 52.0648C35.6899 52.0229 35.4628 51.979 35.2323 51.9255L32.2969 51.3818L31.9574 51.3226L30.4009 51.0437C30.0761 50.9838 29.7567 50.9321 29.4311 50.8756L28.8165 50.7772C28.5034 50.7214 28.1894 50.6781 27.8735 50.6272C27.6878 50.6006 27.502 50.5741 27.3157 50.542C26.4016 50.4085 25.4882 50.2806 24.5779 50.1714C25.4907 50.2829 26.4046 50.4085 27.3198 50.5482C27.5007 50.572 27.6919 50.6068 27.8721 50.6251Z" fill="#017737"/>
<path d="M66.8525 44.4929C66.6451 44.6853 66.4369 44.8812 66.2274 45.075L66.5227 44.8012C66.6339 44.6957 66.7435 44.597 66.8525 44.4929Z" fill="#017737"/>
<path d="M73.7878 38.0602L73.5241 38.3044L73.6711 38.1664L73.7878 38.0602Z" fill="#017737"/>
<path d="M18.8911 61.0968C17.0415 64.6602 13.9218 67.4179 10.1504 68.8234C9.74426 68.974 9.28765 69.1073 8.88993 68.9409C8.56554 68.7737 8.30392 68.5079 8.14261 68.1818C5.62243 64.112 4.6051 59.2837 5.26318 54.5156C3.42596 57.4475 3.56755 61.2655 5.19607 64.7019C5.76634 65.9027 6.49339 67.022 7.35861 68.0313L7.39943 68.0935C8.92914 69.8433 10.6818 71.3866 12.6141 72.6853L12.6409 72.7033C15.9955 71.0794 18.8511 68.5797 20.8992 65.4741C22.202 63.4278 23.1312 61.1715 23.6436 58.8108L23.7312 58.3853C23.9756 57.1389 24.0876 55.872 24.0654 54.6054C24.0021 53.0817 23.8471 51.5644 23.601 50.0613C22.4404 49.9323 21.2815 49.8289 20.1152 49.76C20.7367 53.7232 20.8035 57.3767 18.8911 61.0968Z" fill="#017737"/>
<path d="M46.7801 79.565C47.1344 78.3556 47.6606 77.201 48.3428 76.1366C50.8166 72.2916 55.0067 69.9501 59.3824 68.9319C64.4122 67.7607 70.1288 68.4387 74.0027 71.6873L74.0177 71.7101C73.5336 70.7661 72.8877 69.9147 72.1087 69.1936C71.9887 69.0794 71.8625 68.9693 71.7354 68.8627L71.6111 68.7603L71.5274 68.6876C70.2859 67.7191 68.8637 67.0029 67.3403 66.5792L67.0256 66.4888L66.9115 66.4569C66.7073 66.4068 66.5037 66.3623 66.2974 66.3225C64.5108 65.9638 62.6728 65.9064 60.86 66.1528C60.6994 66.1691 60.5373 66.1923 60.3744 66.219L60.057 66.2758C59.1424 66.4322 58.2403 66.6578 57.3586 66.9506C57.187 67.0098 57.021 67.0682 56.8486 67.1308L56.7404 67.1721C56.0215 67.4344 55.3193 67.7414 54.638 68.091C54.429 68.1985 54.2276 68.3038 54.026 68.4182C53.8245 68.5326 53.6461 68.6318 53.4627 68.7462C49.5817 71.0778 46.9781 74.6103 46.3847 78.2012L46.3293 78.6025C46.2117 79.5268 46.237 80.4619 46.4044 81.3752C46.5541 80.5678 46.7385 79.7169 46.7801 79.565Z" fill="#017737"/>
<path d="M23.7312 58.3853L23.6436 58.8107C23.135 61.174 22.2088 63.4334 20.9081 65.483C18.8601 68.5887 16.0045 71.0884 12.6499 72.7122L13.0118 72.9525L13.3236 73.1576L13.6981 73.3986L13.7415 73.4235L13.9743 73.5676L14.2416 73.7276L14.7996 74.056C15.1702 74.2729 15.5486 74.4787 15.9286 74.6776L15.9367 74.69L21.6349 71.0686L22.5618 77.4635L22.7865 77.5358C23.0991 77.6275 23.4184 77.7385 23.7366 77.8295L24.0429 77.9254C24.345 78.024 24.6598 78.1143 24.9682 78.2088C26.7487 78.7146 28.5468 79.1465 30.3636 79.5336L30.6862 79.6039C30.9009 79.6471 31.11 79.691 31.317 79.7362C31.6683 79.8105 32.0254 79.8829 32.3883 79.9535C33.0337 80.0851 33.6861 80.2091 34.3329 80.3338L36.151 80.6815L41.6695 74.9851L42.0748 81.7993L42.1081 81.8042L42.4475 81.8634C43.0834 81.9805 43.7228 82.0894 44.3576 82.1864C44.6741 82.2429 44.9922 82.2925 45.3075 82.3379C45.6228 82.3833 45.9382 82.4287 46.2577 82.4714L46.6562 82.5245L46.6913 82.4956C46.5922 82.1823 46.5098 81.864 46.4445 81.5417L46.4154 81.3828C46.248 80.4695 46.2227 79.5344 46.3403 78.6101L46.3956 78.2088C46.9891 74.6179 49.5843 71.091 53.4737 68.7538C53.6544 68.6352 53.8447 68.5312 54.037 68.4258C54.2294 68.3204 54.44 68.2061 54.649 68.0986C55.3303 67.749 56.0325 67.4421 56.7514 67.1797L56.8596 67.1384C57.032 67.0758 57.198 67.0174 57.3696 66.9582C58.2535 66.671 59.1574 66.4512 60.0733 66.3007L60.3907 66.2439C60.5536 66.2172 60.7157 66.194 60.8763 66.1777C62.6891 65.9313 64.5271 65.9887 66.3137 66.3474C66.5201 66.3872 66.7236 66.4317 66.9278 66.4818L67.0419 66.5137L67.3566 66.6041C68.8806 67.0238 70.3043 67.736 71.5481 68.7008L71.6318 68.7734L71.7561 68.8759C71.8831 68.9825 72.0094 69.0925 72.1294 69.2067C72.9083 69.9278 73.5542 70.7793 74.0383 71.7233L74.0723 71.7751L74.187 72.0233L74.2945 71.9351C74.4736 71.782 74.6471 71.6296 74.8255 71.48C75.0039 71.3303 75.2231 71.1421 75.4205 70.971L76.0149 70.4566L76.5136 70.0346C77.5879 69.1124 78.6559 68.1973 79.7176 67.2894C80.5858 66.5478 81.4512 65.8081 82.3138 65.0703L82.396 64.9986L78.6094 59.6602L86.28 58.0656L85.258 62.543C86.1857 61.7486 87.1127 60.9546 88.0391 60.1611L89.7533 58.6778L90.8669 57.7131L92.0429 56.7014L93.2312 55.6491L89.7587 54.6714L93.8006 49.8811L95.5969 53.5367L102.272 47.628L98.7916 46.9964L103.706 39.9159L106.275 44.0854L108.857 41.7986L107.533 40.32L107.388 40.1595L106.617 39.2947L105.553 38.1316L105.451 38.0174L105.075 37.594L104.776 37.2674L103.482 35.8255L103.424 35.7598L102.653 34.9005L101.599 33.725L101.588 33.7084L100.815 32.8504L99.6319 31.5317L99.3453 31.2093L98.813 30.6177L97.6734 29.3384L96.9722 28.558L96.9025 28.4791L95.7293 27.1714L94.9692 26.3287L94.9797 26.3218L94.8627 26.1938L93.6278 24.8197L92.8691 23.9791L92.7036 23.7909L91.4072 22.3504L88.6727 24.7758L93.3592 26.8208L86.3481 33.1697L86.3745 26.8261L77.4966 34.6961L82.3743 36.7165L77.0996 42.253L74.9256 36.9905L74.752 37.1519C74.6408 37.2574 74.5129 37.374 74.3779 37.4981L74.2788 37.5898L74.1592 37.7009L73.9722 37.874L73.7718 38.0588L73.6565 38.1671L73.5095 38.305L73.4569 38.3395L73.3317 38.4602L73.3002 38.4809L73.0829 38.6857L72.9978 38.7623L72.8937 38.8602C72.7094 39.0375 72.5105 39.2154 72.3178 39.3982C72.1251 39.5809 71.9008 39.7844 71.6948 39.9789C71.1527 40.4768 70.6119 40.9858 70.0663 41.4831L70.0558 41.49C69.8814 41.6548 69.7035 41.8189 69.5256 41.9831C69.2515 42.2341 68.9848 42.4921 68.7058 42.7404C68.5329 42.8983 68.3578 43.0576 68.1835 43.2135L71.0838 42.7594L69.5651 49.5684L65.1287 46.0715L64.9986 46.1895C64.8398 46.3322 64.6796 46.4729 64.5159 46.6129C64.3275 46.7839 64.1377 46.9529 63.9306 47.1274C63.6748 47.3515 63.4135 47.5763 63.1529 47.7976C63.006 47.9266 62.8235 48.07 62.674 48.1948L62.4125 48.4286C62.1815 48.6217 62.1561 48.6472 61.9231 48.8327C61.6901 49.0181 61.4967 49.1954 61.2512 49.3801L61.1088 49.4884L60.8409 49.6848C60.7064 49.7731 60.5719 49.8613 60.449 49.9626L60.1611 50.1515L60.0728 50.2094L66.615 51.9216L59.3625 60.8769L57.9469 51.5829L57.6497 51.7392C57.3169 51.91 56.9688 52.076 56.6293 52.2274C56.2898 52.3789 55.9226 52.5247 55.5731 52.6471C54.6483 52.98 53.6982 53.2359 52.7325 53.4122C52.5626 53.4465 52.3915 53.4697 52.2224 53.5005C51.2063 53.6602 50.1808 53.7477 49.1539 53.7622L49.4124 57.9784L42.2663 55.4279L44.1472 53.4792L43.7694 53.4302C43.4205 53.384 43.0708 53.3335 42.7202 53.2786C42.452 53.2408 42.181 53.1989 41.9087 53.155L41.8159 53.1417C41.6364 53.111 41.4549 53.0817 41.2741 53.0489L41.0095 53.0029L40.9464 52.9938C40.3299 52.8878 39.7175 52.779 39.1045 52.6647L38.54 52.5602L38.1938 52.4906C37.6585 52.3847 37.1182 52.285 36.5822 52.1826L35.9532 52.0669L35.9242 52.0592L35.2317 51.9199L35.2212 51.9268L36.2855 55.4928L28.79 54.6047L30.889 51.1509L30.401 51.0437C30.0796 50.9845 29.7581 50.9342 29.4346 50.8763L28.8165 50.7772C28.5034 50.7214 28.1895 50.6781 27.8722 50.6251C27.6864 50.5985 27.5007 50.572 27.3157 50.542C26.3987 50.4055 25.4847 50.2799 24.5739 50.1651C24.2467 50.1245 23.9208 50.086 23.5977 50.0516C23.8452 51.5578 24.0015 53.0784 24.0655 54.6053C24.0876 55.8719 23.9756 57.1389 23.7312 58.3853ZM56.8152 67.0845L56.7091 67.1244L56.7901 65.0802L51.641 67.1694L54.0269 68.3049L53.9968 68.3691C53.8031 68.4724 53.6169 68.5827 53.4321 68.695L50.141 67.1324L57.4384 64.1713L57.3328 66.9112C57.1571 66.9641 56.9861 67.0288 56.8179 67.0886L56.8152 67.0845ZM74.9074 67.7735L72.0695 69.1154C71.9495 69.0013 71.8246 68.8933 71.6983 68.7832L71.5719 68.6821L73.4097 67.8181L66.862 65.1303L66.8816 66.4023C66.6754 66.3536 66.4753 66.3097 66.2675 66.2679L66.2334 64.2132L74.9074 67.7735ZM75.2004 60.1957L68.0064 57.5994L74.844 54.029L75.2004 60.1957ZM99.7053 34.0176L97.2011 40.74L93.9211 34.4373L99.7053 34.0176ZM86.2493 38.7478L92.009 42.0028L85.3374 46.9035L86.2493 38.7478ZM79.9025 46.3434L83.1531 52.977L76.0081 50.9599L79.9025 46.3434ZM25.4734 65.1387L26.2089 57.7544L31.1968 63.2011L25.4734 65.1387ZM27.401 70.4976L36.7563 70.074L30.6938 77.237L27.401 70.4976ZM36.5818 63.1856L45.8711 61.4789L44.0205 68.8587L36.5818 63.1856Z" fill="#49AE4D"/>
<path d="M79.6365 60.0578L82.8508 64.5875C83.3924 64.1255 83.9361 63.6621 84.4742 63.1994L85.4619 58.8485L79.6365 60.0578Z" fill="#49AE4D"/>
<path d="M90.8409 54.3325L93.7684 55.1573L95.1211 53.9615L93.6662 50.987L90.8409 54.3325Z" fill="#49AE4D"/>
<path d="M60.0549 50.2508L59.9558 50.3336L60.0753 50.2315L60.0549 50.2508Z" fill="#49AE4D"/>
<path d="M16.5797 75.0012L16.9025 75.1634L17.0887 75.2549L17.6711 75.5288C17.8663 75.6203 18.0637 75.7104 18.2605 75.795L18.4565 75.8831L18.7292 76.001C18.9107 76.0807 19.0965 76.1577 19.2808 76.2326C19.4652 76.3075 19.6544 76.3852 19.843 76.4574L20.3272 76.6502L20.8371 76.841C21.1728 76.968 21.5156 77.0874 21.857 77.2047L21.9241 77.229L21.1775 72.0807L16.5797 75.0012Z" fill="#49AE4D"/>
<path d="M35.419 54.7674L34.5415 51.8117L32.3037 51.3922L31.9574 51.3226L31.512 51.2438L29.7766 54.0971L35.419 54.7674Z" fill="#49AE4D"/>
<path d="M59.7611 59.4315L65.5414 52.2874L59.4358 50.6954L59.1226 50.9008C58.9251 51.0304 58.7222 51.1426 58.5199 51.2605L59.7611 59.4315Z" fill="#49AE4D"/>
<path d="M99.8948 46.5429L102.887 47.0763L105.769 44.5274L103.659 41.1097L99.8948 46.5429Z" fill="#49AE4D"/>
<path d="M70.2919 43.5043L67.4038 43.986C67.2167 44.1591 67.0297 44.3322 66.8566 44.4991C66.7476 44.6033 66.6379 44.7019 66.5268 44.8074L66.2315 45.0812L66.1407 45.1674C66.017 45.2812 65.8954 45.3936 65.764 45.5095L65.5876 45.6667L69.1734 48.4899L70.2919 43.5043Z" fill="#49AE4D"/>
<path d="M77.313 41.1576L81.3228 36.9463L76.9897 35.1561L75.4135 36.5519L77.313 41.1576Z" fill="#49AE4D"/>
<path d="M43.3606 55.1671L48.7431 57.0909L48.5379 53.7716C47.8227 53.7718 47.103 53.7423 46.3863 53.699C46.2094 53.6904 46.0387 53.6777 45.8633 53.6622C45.5664 53.6403 45.2661 53.6088 44.9736 53.5751L44.6143 53.5407L44.5776 53.5351L44.7641 53.7095L43.3606 55.1671Z" fill="#49AE4D"/>
<path d="M75.2729 36.6767L75.2575 36.6898L75.4135 36.5519L75.2729 36.6767Z" fill="#49AE4D"/>
<path d="M36.8724 80.787L38.8235 81.1543L39.9433 81.3723L41.0757 81.5911L41.458 81.6608L41.1466 76.3785L36.8724 80.787Z" fill="#49AE4D"/>
<path d="M98.8032 34.6953L94.8943 34.9771L97.1187 39.2303L98.8032 34.6953Z" fill="#49AE4D"/>
<path d="M74.5299 59.3061L74.2802 55.007L69.5166 57.4962L74.5299 59.3061Z" fill="#49AE4D"/>
<path d="M86.9898 26.568L86.9567 31.8062L92.2372 27.0255L88.2872 25.3016L88.414 25.0137L86.6648 26.5675L86.9898 26.568Z" fill="#49AE4D"/>
<path d="M86.7486 39.7289L86.0995 45.5907L90.8887 42.0729L86.7486 39.7289Z" fill="#49AE4D"/>
<path d="M26.1768 64.259L30.1124 62.9271L26.6827 59.1825L26.1768 64.259Z" fill="#49AE4D"/>
<path d="M81.9913 52.0031L79.7551 47.4431L77.0765 50.6182L81.9913 52.0031Z" fill="#49AE4D"/>
<path d="M28.3689 71.0616L29.6048 73.5922L30.8421 76.1249L35.3975 70.7427L28.3689 71.0616Z" fill="#49AE4D"/>
<path d="M43.6605 67.8011L45.0546 62.2459L38.0576 63.5293L43.6605 67.8011Z" fill="#49AE4D"/>
<path d="M6.1861 60.6935C6.28337 61.3726 6.53962 62.0176 6.93425 62.5767C7.90295 63.8613 10.222 64.18 10.8178 62.3205C10.9487 61.8427 10.9958 61.347 10.957 60.8553C10.8959 59.0023 11.1478 57.2554 12.1956 55.6633C12.7163 54.8984 13.3831 54.2422 14.1575 53.7326C14.9025 53.2233 15.8437 52.8849 16.5265 52.3036C17.0694 51.8436 16.9569 51.1726 16.1914 51.1465C14.5967 51.1164 13.013 51.4626 11.57 52.1567C10.2511 52.7576 9.06794 53.6215 8.0945 54.6942C6.6668 56.2982 5.83306 58.5512 6.1861 60.6935Z" fill="#F6F6F6"/>
<path d="M86.3346 33.1904L93.3458 26.8415L88.6593 24.7965L88.6331 24.784L88.5371 24.7431L88.4433 24.953L88.414 25.0137L88.2872 25.3016L92.2372 27.0255L86.9567 31.8062L86.9897 26.568L86.6648 26.5675L86.6231 26.5681L86.3773 26.5691L86.3758 26.7867L86.3745 26.8261L86.3346 33.1904Z" fill="#FFED00"/>
<path d="M99.7053 34.0176L93.9211 34.4373L97.2095 40.7345L99.7053 34.0176ZM98.8032 34.6953L97.1187 39.2303L94.8964 34.9757L98.8032 34.6953Z" fill="#FFED00"/>
<path d="M77.1079 42.2565L82.3826 36.72L77.4965 34.6961L76.987 35.1519L81.3173 36.938L77.3075 41.1493L75.408 36.5436L75.252 36.6815C75.2057 36.7118 75.0895 36.8326 74.9243 36.9884L77.1079 42.2565Z" fill="#FFED00"/>
<path d="M92.009 42.0028L86.2493 38.7478L85.3442 46.9139L92.009 42.0028ZM86.7485 39.7289L90.8887 42.0729L86.0995 45.5907L86.7485 39.7289Z" fill="#FFED00"/>
<path d="M66.2633 66.2707C66.4711 66.3125 66.6712 66.3563 66.8774 66.405L66.862 65.1303L73.4049 67.8153L71.5671 68.6794L71.6935 68.7804C71.8198 68.8905 71.9447 68.9985 72.0647 69.1127L74.9074 67.7735L66.2319 64.2201L66.2633 66.2707Z" fill="#FFED00"/>
<path d="M59.3616 60.8893L66.615 51.9216L60.0845 50.2135L59.9651 50.3156L59.7357 50.4928L59.4477 50.6816L65.5507 52.2695L59.7703 59.4135L58.5292 51.2425L58.4052 51.3238C58.2644 51.4162 58.1106 51.4933 57.9658 51.5705L59.3616 60.8893Z" fill="#FFED00"/>
<path d="M36.3231 80.7378L36.6612 80.795L36.8364 80.8284L36.8766 80.7843L41.1508 76.3757L41.4643 81.6567L41.4677 81.7168C41.6741 81.7565 41.8839 81.7969 42.0904 81.8276L42.0863 81.771L41.681 74.9568L36.1625 80.6532L36.1141 80.6849L36.3231 80.7378Z" fill="#FFED00"/>
<path d="M49.4102 57.9798L49.1518 53.7636L49.1489 53.718L48.5366 53.7605L48.5379 53.7716L48.7431 57.0909L43.3606 55.1671L44.7668 53.7137L44.5735 53.5289L44.326 53.2936L44.1472 53.4792L42.2662 55.4279L49.4102 57.9798Z" fill="#FFED00"/>
<path d="M69.5651 49.5684L71.0838 42.7594L68.2076 43.2273C67.939 43.4777 67.6669 43.7273 67.3997 43.9798L70.2919 43.5043L69.1734 48.4899L65.5856 45.6591C65.4358 45.8019 65.2798 45.9398 65.1251 46.0798L69.5651 49.5684Z" fill="#FFED00"/>
<path d="M35.419 54.7674L29.8056 54.1048L31.5411 51.2514L30.8968 51.1399L28.7977 54.5936L36.2855 55.4928L35.2326 51.949L34.5483 51.8221L35.419 54.7674Z" fill="#FFED00"/>
<path d="M68.0021 57.6022L75.1962 60.1984L74.8398 54.0317L68.0021 57.6022ZM74.5299 59.3061L69.5145 57.4976L74.2802 55.007L74.5299 59.3061Z" fill="#FFED00"/>
<path d="M36.5881 63.1815L44.0268 68.8546L45.8774 61.4748L36.5881 63.1815ZM43.6647 67.7983L38.0576 63.5293L45.0546 62.2459L43.6647 67.7983Z" fill="#FFED00"/>
<path d="M50.141 67.1324L53.4369 68.6978C53.6176 68.5792 53.8079 68.4752 54.0016 68.3719L54.0317 68.3077L51.6459 67.1722L56.795 65.0829L56.7139 67.1271L56.82 67.0872C56.9924 67.0247 57.1592 66.9627 57.3335 66.9078L57.4392 64.1679L50.141 67.1324Z" fill="#FFED00"/>
<path d="M83.1463 52.9667L79.8957 46.3331L76.0076 50.9453L83.1463 52.9667ZM81.9913 52.0031L77.0765 50.6182L79.7619 47.4535L81.9913 52.0031Z" fill="#FFED00"/>
<path d="M90.8409 54.3325L93.6662 50.987L95.1211 53.9615L95.599 53.5353L93.8069 49.877L89.765 54.6673L93.2258 55.6408L93.7683 55.1573L90.8409 54.3325Z" fill="#FFED00"/>
<path d="M25.4734 65.1388L31.1968 63.2011L26.2089 57.7544L25.4734 65.1388ZM26.1768 64.259L26.6813 59.1805L30.111 62.9251L26.1768 64.259Z" fill="#FFED00"/>
<path d="M21.1776 72.0807L21.9241 77.229L22.2199 77.3317L22.5738 77.4498L21.6469 71.0548L15.9487 74.6762C16.1562 74.7864 16.3645 74.8931 16.5756 74.995L21.1776 72.0807Z" fill="#FFED00"/>
<path d="M79.6365 60.0577L85.4563 58.8491L84.47 63.2022C84.7285 62.9822 84.9891 62.7608 85.2399 62.5429L86.2676 58.0559L78.597 59.6505L82.3837 64.9889C82.5424 64.8551 82.6977 64.7206 82.8529 64.5862L79.6365 60.0577Z" fill="#FFED00"/>
<path d="M27.4009 70.4976L30.6952 77.239L36.7577 70.0761L27.4009 70.4976ZM29.5985 73.5963L28.3751 71.0664L35.4036 70.7475L30.8483 76.1297L29.5985 73.5963Z" fill="#FFED00"/>
<path d="M99.8949 46.5429L103.659 41.1097L105.769 44.5274L106.266 44.0854L103.697 39.9159L98.7854 47.0006L102.265 47.6321L102.887 47.0763L99.8949 46.5429Z" fill="#FFED00"/>
<path d="M92.6901 23.8116L92.8543 23.9977L96.5716 20.7199L97.3178 21.5688L93.6095 24.8376L94.8444 26.2117L94.9614 26.3397L98.6471 23.0916L99.3953 23.9392L95.7194 27.1838L96.8871 28.4832L96.9569 28.5621L100.612 25.3312L101.359 26.1822L97.7073 29.3993L97.656 29.3439L97.6574 29.346L98.8054 30.6198L99.3355 31.2127L98.8485 30.6627L102.462 27.4414L103.227 28.3193L99.6242 31.5337L100.808 32.8525L104.407 29.6609L105.167 30.5305L101.583 33.709L101.597 33.7263L102.651 34.8984L106.219 31.7275L106.979 32.5971L103.422 35.7577L103.481 35.8234L104.775 37.2653L105.073 37.5919L104.676 37.1519L108.212 34.0051L108.975 34.8789L105.451 38.0119L105.555 38.1247L106.606 39.296L110.114 36.1762L110.878 37.052L107.381 40.1616L107.525 40.3221L108.852 41.7993L108.89 41.762L110.05 40.7345L112.339 38.7077L112.346 38.7001L95.1041 19.0415L94.7738 19.3353L91.3745 22.351L91.3937 22.3711L92.6901 23.8116Z" fill="#FFED00"/>
<path d="M96.5716 20.7199L92.8543 23.9977L92.8459 24.0032L93.6025 24.8452L93.6095 24.8376L97.3178 21.5688L96.5716 20.7199Z" fill="#017737"/>
<path d="M99.3953 23.9392L98.6471 23.0916L94.9614 26.3397L94.9522 26.3487L95.7123 27.1914L95.7194 27.1838L99.3953 23.9392Z" fill="#017737"/>
<path d="M101.359 26.1822L100.612 25.3312L96.9569 28.5621L96.9548 28.5635L97.656 29.3439L97.7073 29.3993L101.359 26.1822Z" fill="#017737"/>
<path d="M103.227 28.3194L102.462 27.4414L98.8485 30.6627L99.3355 31.2127L99.6242 31.5337L103.227 28.3194Z" fill="#017737"/>
<path d="M105.167 30.5305L104.407 29.6609L100.808 32.8525L100.805 32.8573L101.578 33.7152L101.583 33.709L105.167 30.5305Z" fill="#017737"/>
<path d="M106.979 32.5972L106.219 31.7275L102.651 34.8984L102.649 34.8998L103.42 35.7591L103.422 35.7577L106.979 32.5972Z" fill="#017737"/>
<path d="M108.975 34.8789L108.212 34.0051L104.676 37.1519L105.073 37.5919L105.45 38.0153L105.451 38.0119L108.975 34.8789Z" fill="#017737"/>
<path d="M110.878 37.0521L110.114 36.1762L106.606 39.2961L106.605 39.2995L107.377 40.1644L107.381 40.1616L110.878 37.0521Z" fill="#017737"/>
<path d="M69.6628 73.2368C69.8974 73.3975 70.4652 73.7729 70.6196 73.3987C70.8535 72.8387 69.6718 71.6464 69.2903 71.2527C68.6161 70.5663 67.8134 70.0177 66.9262 69.637C65.7446 69.1435 64.458 68.9403 63.1742 69.0444C62.4875 69.0972 61.3418 69.1423 60.8908 69.6874L60.8179 69.7916C60.5659 70.2002 60.9454 70.6368 61.3724 70.7929C61.7994 70.949 62.3658 70.8594 62.832 70.7911C63.6108 70.6379 64.4073 70.605 65.1934 70.6934C66.2058 70.8448 67.1608 71.2469 67.9711 71.8627C68.5413 72.3196 69.0724 72.8407 69.6628 73.2368Z" fill="white"/>
</g>
<defs>
<clipPath id="clip0_7_206">
<rect width="54" height="104" fill="white" transform="translate(86.9651) rotate(56.7413)"/>
</clipPath>
</defs>
</svg>
