<svg width="103" height="105" viewBox="0 0 103 105" fill="none" xmlns="http://www.w3.org/2000/svg">
<g clip-path="url(#clip0_7_141)">
<path d="M42.9422 48.6641C42.7068 48.6922 42.4741 48.7172 42.2412 48.7393C42.4393 48.7225 42.6384 48.6984 42.838 48.6831L42.9422 48.6641Z" fill="#FFE006"/>
<path d="M73.7868 20.4355L73.8221 20.3759L73.7342 20.5212L73.7383 20.5166L73.7868 20.4355Z" fill="#FFE006"/>
<path d="M68.0336 29.9323C67.3987 30.9787 66.7555 32.0345 66.1016 33.1028C65.3285 34.3713 64.5462 35.6536 63.7201 36.898C64.5506 35.6548 65.333 34.3724 66.1045 33.1026C66.7577 32.0373 67.4007 30.9805 68.0336 29.9323Z" fill="#FFE006"/>
<path d="M11.9832 74.3306C12.2763 74.5988 12.6079 74.8732 12.9991 74.9148C13.4677 74.9716 13.9086 74.7006 14.289 74.4235C17.831 71.847 20.275 68.0338 21.1374 63.7384C22.0152 59.2581 20.8313 55.4196 18.9631 51.4161C18.5095 51.5093 18.058 51.6096 17.6055 51.7173C14.6603 52.4014 11.723 53.3004 9.22547 54.9864C6.81193 56.6167 5.39027 58.6161 4.77604 60.7395C5.53943 65.9634 8.08568 70.765 11.9832 74.3306ZM10.6949 56.427C12.0038 55.2767 13.5658 54.4512 15.2542 54.0173C16.07 53.8257 16.3934 54.5006 15.9628 55.1445C15.4194 55.9531 14.5321 56.5834 13.9043 57.3377C13.2435 58.0991 12.7414 58.9849 12.4274 59.9431C11.8031 61.9237 12.0772 63.8446 12.7068 65.7788C12.8972 66.2876 12.9993 66.8252 13.0086 67.3681C12.9493 69.5056 10.4087 69.8407 8.9972 68.7624C8.40492 68.2886 7.93501 67.6796 7.62705 66.9867C6.60516 64.8321 6.79988 62.2075 7.80842 60.1064C8.50786 58.6948 9.49038 57.4423 10.6949 56.427Z" fill="#FFE006"/>
<path d="M73.5065 57.8217C74.3666 57.8212 75.2214 57.9586 76.0383 58.2287C76.6385 58.4272 78.5277 59.0503 78.6555 59.7989C78.7425 60.3013 77.9619 60.2252 77.6385 60.1906C76.8235 60.1037 75.9785 59.8431 75.1528 59.6896C74.0093 59.4931 72.8339 59.6211 71.7603 60.0591C70.9183 60.3976 70.2356 60.9784 69.5596 61.5706C69.1539 61.9241 68.7154 62.3532 68.1603 62.4402C67.6562 62.5222 67.0184 62.2691 67.0006 61.6681L67.007 61.5094C67.1032 60.6353 68.1707 59.9016 68.8019 59.443C69.287 59.0838 69.8083 58.7765 70.3576 58.5259C68.9099 58.9662 67.511 59.5525 66.1823 60.276C61.885 62.6177 58.1856 66.3024 56.753 71.0807C56.3594 72.4012 56.1581 73.7718 56.1553 75.1502C56.1574 75.3244 56.2269 76.3453 56.3393 77.2884C56.5176 77.6318 56.7168 77.9639 56.936 78.2828C57.4351 78.2129 57.9363 78.1311 58.4326 78.0423C58.5689 78.0211 58.6977 77.999 58.832 77.9706C61.2545 77.5583 63.6225 76.8744 65.8911 75.9319C66.059 75.8616 66.2239 75.7886 66.3857 75.7157C66.8399 75.5083 67.3009 75.2931 67.741 75.0514C74.2171 71.6115 78.6144 65.3726 82.6922 59.2556C82.6056 59.1503 82.5147 59.0467 82.4178 58.9406C79.6547 57.6897 76.5606 57.3908 73.5065 57.8217Z" fill="#FFE006"/>
<path d="M70.8153 25.3546L70.8667 25.2734L71.5598 24.1159L71.5504 24.1078L71.822 23.6816C72.2004 23.0525 72.5803 22.4248 72.9618 21.7985L73.7288 20.5275C71.9921 22.94 70.5169 25.5688 69.0778 28.2097C69.4939 27.5204 69.9091 26.8321 70.3234 26.1449L70.8153 25.3546Z" fill="#FCD114"/>
<path d="M56.1518 75.1417C56.1545 73.7632 56.3558 72.3926 56.7495 71.0721C58.1807 66.2954 61.8814 62.6091 66.1788 60.2674C67.5074 59.544 68.9063 58.9576 70.354 58.5174C71.1155 58.1671 71.9291 57.9432 72.763 57.8544C73.0118 57.8298 73.2601 57.8184 73.5092 57.8186C76.5606 57.3908 79.6543 57.6839 82.4205 58.9375C81.4894 57.9188 80.3596 57.1013 79.1009 56.5356L78.8287 56.4168C78.4437 56.2546 78.0506 56.1123 77.6511 55.9903C76.6111 55.6805 75.5378 55.4969 74.4543 55.4436C74.2324 55.4341 74.0091 55.4262 73.7819 55.4259L73.4319 55.4283C72.8893 55.4368 72.3475 55.473 71.8086 55.5369C71.2576 55.6056 70.7078 55.6971 70.159 55.8115C69.6062 55.9305 69.051 56.0776 68.4979 56.2538C67.9448 56.4301 67.3906 56.6328 66.8414 56.8644C66.6748 56.9332 66.5127 57.0031 66.3511 57.0788L66.2602 57.1203L66.2728 57.1531L66.0358 57.2209C65.7694 57.3479 65.5048 57.482 65.2394 57.6236C64.7112 57.9036 64.1907 58.2094 63.6779 58.5411C63.4215 58.7069 63.1685 58.8784 62.916 59.0586C62.7348 59.1884 62.5564 59.3181 62.3798 59.452C61.8558 59.8533 61.3566 60.2734 60.8834 60.7078L60.7339 60.9146L60.7011 60.8861C60.2616 61.3006 59.8436 61.7282 59.4528 62.1686C59.0148 62.6633 58.6029 63.1806 58.219 63.7183C57.8455 64.2402 57.501 64.7822 57.1869 65.3419C56.7311 66.1475 56.3438 66.99 56.0292 67.8606C55.8283 68.4194 55.6613 68.9898 55.5291 69.5687C55.4642 69.8517 55.4098 70.1382 55.3639 70.4213C55.2731 70.9806 55.2192 71.5452 55.2026 72.1117C55.1885 72.6648 55.2131 73.2183 55.2762 73.7682L55.3036 73.989L55.3366 74.2065C55.4013 74.6069 55.4886 75.0035 55.5982 75.3941C55.7806 76.0447 56.0291 76.675 56.3398 77.2752C56.2234 76.3367 56.1566 75.3128 56.1518 75.1417Z" fill="#FCD114"/>
<path d="M82.8699 62.543L83.7809 61.1535L82.9015 62.4939L82.8699 62.543Z" fill="#FCD114"/>
<path d="M94.9318 40.7459L84.5395 56.4603C87.6438 51.7825 90.6624 47.2382 93.6782 42.697L95.0294 40.6336L95.0138 40.6201L94.9318 40.7459Z" fill="#FCD114"/>
<path d="M96.2656 38.7468L96.6014 38.234L96.6942 38.0957L96.2656 38.7468Z" fill="#FCD114"/>
<path d="M21.1374 63.7384C20.275 68.0338 17.831 71.847 14.289 74.4235C13.9086 74.7006 13.4677 74.9715 12.9992 74.9148C12.6032 74.8691 12.2763 74.5988 11.9832 74.3305C8.08655 70.7651 5.54089 65.964 4.77762 60.7409C3.81351 64.0872 4.85741 67.7495 7.19404 70.7752C8.29521 72.1854 9.61611 73.4095 11.106 74.4004L11.1716 74.4574C13.3172 75.8649 15.6362 76.988 18.0704 77.7985C18.2595 77.6344 18.4425 77.4678 18.6252 77.2954C18.7104 77.2162 18.7925 77.1343 18.876 77.0508C18.9595 76.9673 19.0639 76.8692 19.157 76.7778C19.2502 76.6863 19.3782 76.5484 19.4872 76.4324L19.6659 76.2456C19.7896 76.1032 19.9129 75.9613 20.0357 75.8199L20.1454 75.6935C20.2809 75.5376 20.4164 75.3816 20.56 75.2163L20.6209 75.1461C20.7699 74.9746 20.9049 74.7908 21.0416 74.6113L21.0687 74.5802C21.212 74.3899 21.3538 74.1984 21.491 74.0057L21.4978 73.9979C21.6378 73.8021 21.7746 73.6035 21.9068 73.4009C23.0688 71.666 23.9719 69.771 24.5877 67.7753C25.3349 65.2325 25.6223 62.5763 25.4363 59.9314C25.4251 59.7739 25.4128 59.6209 25.3987 59.4636C25.2775 58.0777 25.0094 56.7083 24.5988 55.3785C24.1011 53.775 23.4098 52.2524 22.7298 50.7232C21.4701 50.9242 20.2146 51.1552 18.9631 51.4162C20.8313 55.4196 22.0136 59.2568 21.1374 63.7384Z" fill="#FCD114"/>
<path d="M73.8208 20.3775L94.5366 33.8765L73.836 20.3852L73.8221 20.3759L73.7868 20.4355L73.8208 20.3775Z" fill="#5977BA"/>
<path d="M73.7383 20.5166L72.9618 21.7985L73.7383 20.5166Z" fill="#5977BA"/>
<path d="M42.3078 57.7092C41.8754 57.3336 41.3415 57.0945 40.7735 57.0221C40.2056 56.9497 39.6292 57.0473 39.1171 57.3025C38.6051 57.5577 38.1805 57.9591 37.8969 58.4559C37.6134 58.9527 37.4837 59.5226 37.5242 60.0936C37.5647 60.6645 37.7737 61.2109 38.1246 61.6635C38.4755 62.1162 38.9527 62.4548 39.4957 62.6365C40.0388 62.8183 40.6233 62.8351 41.1754 62.6847C41.7276 62.5343 42.2225 62.2236 42.5976 61.7917C43.1006 61.2127 43.3526 60.4572 43.2983 59.6916C43.244 58.926 42.8877 58.2129 42.3078 57.7092Z" fill="#5977BA"/>
<path d="M70.2875 34.3528C70.5228 34.5599 70.8142 34.6925 71.1247 34.7339C71.4353 34.7753 71.751 34.7236 72.0319 34.5853C72.3127 34.447 72.5461 34.2284 72.7023 33.9572C72.8586 33.686 72.9307 33.3744 72.9096 33.0619C72.8884 32.7494 72.775 32.4501 72.5836 32.202C72.3921 31.9538 72.1314 31.768 71.8344 31.668C71.5374 31.5681 71.2176 31.5585 70.9154 31.6405C70.6132 31.7226 70.3423 31.8925 70.137 32.1288C69.8638 32.4441 69.7264 32.8546 69.7546 33.2711C69.7828 33.6876 69.9743 34.0764 70.2875 34.3528Z" fill="#5977BA"/>
<path d="M51.5247 61.5645C51.6697 61.691 51.849 61.7717 52.0398 61.7963C52.2306 61.8209 52.4243 61.7884 52.5965 61.7028C52.7686 61.6173 52.9114 61.4825 53.0068 61.3156C53.1022 61.1487 53.1458 60.9572 53.1322 60.7654C53.1186 60.5735 53.0483 60.3899 52.9303 60.2379C52.8123 60.0859 52.6519 59.9722 52.4693 59.9113C52.2868 59.8504 52.0904 59.8451 51.9049 59.8959C51.7195 59.9467 51.5533 60.0514 51.4276 60.1968C51.2596 60.391 51.1755 60.644 51.1937 60.9003C51.2119 61.1566 51.3309 61.3954 51.5247 61.5645Z" fill="#5977BA"/>
<path d="M24.5988 55.3785C25.0094 56.7083 25.2775 58.0776 25.3987 59.4636C25.4128 59.6209 25.4319 59.7661 25.4363 59.9314C25.6203 62.5693 25.3335 65.2184 24.5892 67.7547C23.9734 69.7503 23.0703 71.6454 21.9082 73.3803C24.526 73.8017 27.1811 74.1297 29.7958 74.4254C32.4164 74.7444 35.0661 74.7362 37.6837 74.4009C37.1562 74.4056 36.6461 74.2104 36.2563 73.8544C35.8665 73.4984 35.6259 73.0081 35.583 72.4823C35.5401 71.9565 35.698 71.4342 36.0249 71.0207C36.3519 70.6072 36.8236 70.333 37.3451 70.2536C37.8665 70.1741 38.399 70.2952 38.8352 70.5925C39.2715 70.8897 39.5791 71.3411 39.6961 71.8556C39.8131 72.3701 39.7308 72.9095 39.4658 73.3653C39.2008 73.8211 38.7728 74.1593 38.2679 74.3118C38.9312 74.2012 39.5835 74.0591 40.2429 73.893C44.0512 72.8997 47.3113 70.85 50.1195 68.1313C53.5639 64.797 56.2816 60.6809 59.5696 57.186C59.7405 56.6066 60.0592 56.0817 60.4945 55.663C60.9298 55.2443 61.4667 54.9461 62.0524 54.7977C63.097 53.8921 64.2235 53.0852 65.4173 52.3876C66.6857 51.6561 68.058 51.1078 69.5314 51.036C71.2542 50.9453 72.9336 51.3398 74.6398 51.5111C78.5084 51.9027 81.7983 50.0677 84.4743 47.4067C84.893 46.9878 85.297 46.5552 85.6864 46.1091C85.1952 46.0248 84.7339 45.8151 84.3472 45.5005C83.9605 45.1858 83.6614 44.7768 83.479 44.313C83.2965 43.8491 83.2369 43.3462 83.3058 42.8529C83.3747 42.3596 83.5699 41.8927 83.8724 41.4972C84.1749 41.1017 84.5744 40.7912 85.0324 40.5956C85.4904 40.4 85.9914 40.326 86.4867 40.3808C86.982 40.4356 87.455 40.6173 87.8598 40.9083C88.2646 41.1992 88.5876 41.5897 88.7974 42.0418C89.4142 41.152 90.0154 40.2486 90.6198 39.3508C90.184 39.3746 89.7511 39.264 89.3796 39.0342C89.0721 38.8477 88.8174 38.5853 88.6402 38.2723C88.463 37.9593 88.3692 37.6061 88.3677 37.2467C88.0408 37.4081 87.6777 37.4829 87.3134 37.4639C86.949 37.4448 86.5955 37.3326 86.2867 37.138C85.978 36.9433 85.7242 36.6728 85.5497 36.3522C85.3753 36.0316 85.286 35.6717 85.2905 35.307C84.9709 35.4566 84.6192 35.5248 84.2667 35.5053C83.9141 35.4859 83.5718 35.3794 83.2702 35.1955C82.9686 35.0116 82.7172 34.756 82.5384 34.4514C82.3596 34.1468 82.259 33.8028 82.2455 33.45C81.9298 33.6077 81.5797 33.6846 81.2267 33.6736C80.8738 33.6627 80.5289 33.5643 80.2231 33.3874C79.9173 33.2104 79.6601 32.9604 79.4746 32.6598C79.2891 32.3591 79.181 32.0172 79.1602 31.6648C78.8666 31.7895 78.5488 31.8471 78.23 31.8332C77.9112 31.8194 77.5994 31.7345 77.3174 31.5847C77.0354 31.435 76.7903 31.2242 76.6002 30.9677C76.41 30.7113 76.2795 30.4157 76.2182 30.1025C75.9147 30.2086 75.5912 30.245 75.2715 30.2089C74.9519 30.1729 74.6444 30.0654 74.3718 29.8943C74.0993 29.7233 73.8686 29.4931 73.6971 29.2209C73.5255 28.9487 73.4174 28.6414 73.3808 28.3219C73.0785 28.4332 72.7546 28.4737 72.4339 28.4404C72.1133 28.4071 71.8044 28.3009 71.5311 28.1298C71.07 27.8558 70.7357 27.4109 70.6008 26.8919C70.466 26.373 70.5417 25.8222 70.8113 25.3593L70.8613 25.2796L70.8099 25.3609L70.3328 26.1531C69.9194 26.8393 69.5042 27.5275 69.0872 28.2179L69.0791 28.2272C68.9427 28.4536 68.8048 28.6786 68.6671 28.9065C68.4554 29.2479 68.2457 29.5966 68.0376 29.9466C67.4036 30.994 66.7601 32.0503 66.1069 33.1156C65.3354 34.3854 64.553 35.6678 63.7225 36.911C63.6089 37.0859 63.4854 37.2659 63.3646 37.4429L63.3263 37.5027C63.1419 37.7748 62.9544 38.0443 62.7623 38.3097C62.5701 38.5751 62.3822 38.8388 62.1808 39.0989L62.0778 39.2365C61.8256 39.5647 61.5719 39.8852 61.3166 40.198C61.1717 40.3648 61.024 40.5348 60.879 40.7017C60.7978 40.7953 60.7192 40.8857 60.6393 40.9777C60.5593 41.0697 60.4564 41.1883 60.3683 41.2896C60.1559 41.5183 59.9432 41.7412 59.73 41.9583C59.5168 42.1753 59.2908 42.3977 59.0691 42.5992C58.767 42.8839 58.4602 43.1456 58.1463 43.4092C57.8324 43.6728 57.4997 43.9202 57.165 44.1603C56.2911 44.7803 55.3673 45.3269 54.403 45.7944C54.2361 45.8793 54.0643 45.9572 53.8925 46.0351C51.9434 46.8985 49.9015 47.5357 47.8068 47.9342C47.6208 47.9779 47.4343 48.0129 47.2462 48.0465C46.9254 48.1108 46.6035 48.166 46.2805 48.2119L45.8879 48.2759L44.9747 48.4156C44.5943 48.4656 44.2141 48.5184 43.8304 48.5627C43.5292 48.5939 43.2375 48.6333 42.9393 48.6643L42.8305 48.6792C42.6355 48.6986 42.4364 48.7227 42.2336 48.7354C41.4321 48.819 40.6285 48.8925 39.8302 48.9598C39.6234 48.9772 39.4167 48.9974 39.2067 49.012L38.8403 49.0522C38.0098 49.1188 37.1823 49.1881 36.3534 49.2561L36.3168 49.2572C36.0606 49.2809 35.8026 49.3003 35.5477 49.3224L32.2964 49.5956L31.9301 49.6168L30.1979 49.7813C29.8398 49.815 29.4851 49.8544 29.1285 49.8894C28.8988 49.9142 28.6733 49.9372 28.448 49.9632C28.1031 49.9974 27.76 50.036 27.4099 50.0794L26.7969 50.1543C25.796 50.2782 24.7985 50.4077 23.7981 50.5594C23.4413 50.6106 23.0891 50.6659 22.7315 50.7274C23.4098 52.2524 24.1011 53.775 24.5988 55.3785ZM79.5252 47.297C79.6034 47.3648 79.6597 47.4543 79.687 47.5541C79.7143 47.6539 79.7114 47.7595 79.6787 47.8576C79.6459 47.9557 79.5849 48.0418 79.5031 48.1051C79.4214 48.1684 79.3227 48.206 79.2195 48.2132C79.1163 48.2204 79.0133 48.1968 78.9234 48.1455C78.8335 48.0941 78.7609 48.0173 78.7146 47.9247C78.6684 47.8321 78.6506 47.728 78.6636 47.6254C78.6765 47.5228 78.7196 47.4264 78.7874 47.3483C78.8322 47.2963 78.887 47.2536 78.9484 47.2228C79.0099 47.1921 79.0768 47.1738 79.1454 47.169C79.214 47.1642 79.2829 47.173 79.3481 47.195C79.4132 47.217 79.4735 47.2516 79.5252 47.297ZM69.4402 49.7089C69.3991 49.6733 69.3695 49.6262 69.3552 49.5738C69.3408 49.5213 69.3423 49.4658 69.3595 49.4142C69.3767 49.3627 69.4088 49.3174 69.4518 49.2841C69.4948 49.2508 69.5466 49.2311 69.6009 49.2273C69.6551 49.2235 69.7093 49.2359 69.7566 49.2629C69.8038 49.2899 69.842 49.3303 69.8663 49.3789C69.8906 49.4276 69.9 49.4824 69.8932 49.5363C69.8863 49.5902 69.8637 49.6409 69.8281 49.6819C69.7803 49.737 69.7126 49.7707 69.6398 49.7758C69.5671 49.7808 69.4953 49.7568 69.4402 49.7089ZM75.7893 41.8982C75.9731 42.0579 76.1055 42.2685 76.1697 42.5033C76.2339 42.7381 76.227 42.9866 76.15 43.2173C76.0729 43.448 75.9291 43.6505 75.7367 43.7993C75.5443 43.9481 75.312 44.0364 75.0693 44.0531C74.8265 44.0698 74.5841 44.0141 74.3728 43.8931C74.1615 43.7721 73.9908 43.5911 73.8822 43.3732C73.7737 43.1553 73.7322 42.9101 73.763 42.6688C73.7938 42.4275 73.8956 42.2008 74.0554 42.0175C74.2693 41.772 74.5721 41.6216 74.8972 41.5992C75.2222 41.5769 75.5431 41.6844 75.7893 41.8982ZM29.8143 62.4838C29.7732 62.4481 29.7436 62.4009 29.7292 62.3484C29.7149 62.2958 29.7165 62.2402 29.7338 62.1886C29.7512 62.137 29.7834 62.0917 29.8266 62.0585C29.8697 62.0253 29.9217 62.0057 29.9761 62.0021C30.0304 61.9985 30.0846 62.0112 30.1318 62.0384C30.179 62.0657 30.2171 62.1063 30.2411 62.1552C30.2652 62.2041 30.2742 62.259 30.2671 62.313C30.2599 62.367 30.2369 62.4176 30.2008 62.4584C30.1529 62.5128 30.0853 62.546 30.0129 62.5507C29.9405 62.5555 29.8691 62.5314 29.8143 62.4838ZM27.0897 70.7558C27.0174 70.693 26.9653 70.6102 26.9401 70.5179C26.9148 70.4256 26.9175 70.328 26.9477 70.2372C26.978 70.1465 27.0345 70.0669 27.1101 70.0083C27.1857 69.9498 27.277 69.915 27.3724 69.9084C27.4679 69.9017 27.5632 69.9235 27.6463 69.971C27.7294 70.0185 27.7966 70.0895 27.8394 70.1752C27.8821 70.2608 27.8986 70.3571 27.8866 70.452C27.8746 70.5469 27.8348 70.6361 27.7721 70.7083C27.7306 70.7564 27.68 70.7959 27.6232 70.8244C27.5663 70.8529 27.5044 70.8698 27.441 70.8742C27.3775 70.8786 27.3138 70.8704 27.2535 70.8501C27.1932 70.8298 27.1375 70.7977 27.0897 70.7558ZM38.1936 62.4456C37.6868 62.0053 37.3217 61.4248 37.1445 60.7775C36.9674 60.1303 36.9861 59.4452 37.1983 58.8091C37.4106 58.173 37.8068 57.6143 38.3369 57.2038C38.867 56.7932 39.5072 56.5493 40.1765 56.5027C40.8458 56.4561 41.5142 56.609 42.0971 56.942C42.68 57.2751 43.1512 57.7734 43.4512 58.3738C43.7512 58.9743 43.8665 59.65 43.7825 60.3155C43.6986 60.9809 43.419 61.6063 42.9794 62.1124C42.3892 62.7902 41.5539 63.2059 40.6567 63.2684C39.7595 63.3308 38.8737 63.0349 38.1936 62.4456ZM68.2203 37.7862C68.1667 37.8479 68.096 37.8923 68.0171 37.9137C67.9383 37.9352 67.8548 37.9328 67.7772 37.9069C67.6996 37.8809 67.6314 37.8325 67.5813 37.7679C67.5312 37.7032 67.5013 37.6251 67.4955 37.5436C67.4897 37.462 67.5083 37.3806 67.5488 37.3096C67.5893 37.2387 67.65 37.1813 67.7231 37.1449C67.7962 37.1084 67.8786 37.0945 67.9597 37.1048C68.0409 37.1151 68.1171 37.1493 68.1789 37.203C68.2617 37.2749 68.3126 37.3768 68.3204 37.4862C68.3282 37.5955 68.2922 37.7035 68.2203 37.7862ZM47.6166 57.2503C47.5758 57.2144 47.5466 57.1672 47.5326 57.1147C47.5187 57.0623 47.5205 57.0068 47.538 56.9555C47.5554 56.9041 47.5877 56.8591 47.6308 56.826C47.6738 56.793 47.7257 56.7735 47.7799 56.7699C47.8341 56.7664 47.8881 56.7789 47.9352 56.806C47.9823 56.8331 48.0203 56.8735 48.0445 56.9221C48.0687 56.9707 48.0779 57.0254 48.0711 57.0793C48.0642 57.1331 48.0416 57.1837 48.006 57.2247C47.9577 57.2795 47.8897 57.3129 47.8167 57.3177C47.7437 57.3225 47.6718 57.2983 47.6166 57.2503ZM44.5949 68.6874C44.5112 68.6146 44.4509 68.5188 44.4216 68.4119C44.3924 68.305 44.3955 68.1919 44.4305 68.0868C44.4656 67.9818 44.531 67.8895 44.6185 67.8217C44.7061 67.7539 44.8118 67.7136 44.9223 67.7059C45.0329 67.6982 45.1432 67.7235 45.2395 67.7785C45.3358 67.8335 45.4136 67.9158 45.4631 68.0149C45.5127 68.1141 45.5317 68.2257 45.5178 68.3356C45.504 68.4455 45.4578 68.5488 45.3852 68.6323C45.2878 68.7444 45.1499 68.8132 45.0017 68.8235C44.8534 68.8338 44.7071 68.7849 44.5949 68.6874ZM77.6659 34.4795C77.7073 34.5154 77.7371 34.5628 77.7516 34.6157C77.7661 34.6685 77.7646 34.7245 77.7472 34.7764C77.7299 34.8284 77.6975 34.874 77.6542 34.9075C77.611 34.941 77.5587 34.961 77.504 34.9648C77.4494 34.9686 77.3948 34.9561 77.3472 34.9289C77.2996 34.9017 77.2611 34.861 77.2366 34.812C77.2121 34.7629 77.2027 34.7078 77.2096 34.6534C77.2164 34.5991 77.2393 34.548 77.2752 34.5067C77.2987 34.4783 77.3277 34.4549 77.3604 34.4379C77.3932 34.4209 77.429 34.4106 77.4658 34.4077C77.5025 34.4047 77.5396 34.4091 77.5746 34.4206C77.6097 34.4322 77.6421 34.4506 77.67 34.4748L77.6659 34.4795ZM53.1232 59.7242C53.3438 59.9158 53.5026 60.1683 53.5797 60.45C53.6568 60.7316 53.6486 61.0296 53.5563 61.3064C53.4639 61.5832 53.2915 61.8263 53.0609 62.0049C52.8302 62.1835 52.5517 62.2897 52.2605 62.31C51.9693 62.3302 51.6785 62.2637 51.4248 62.1188C51.1712 61.9739 50.9662 61.7571 50.8357 61.4958C50.7051 61.2346 50.655 60.9406 50.6915 60.651C50.728 60.3615 50.8497 60.0894 51.041 59.8692C51.1679 59.7222 51.3225 59.6018 51.4961 59.5148C51.6697 59.4277 51.8588 59.3757 52.0525 59.3618C52.2463 59.348 52.441 59.3724 52.6254 59.4338C52.8098 59.4951 52.9804 59.5922 53.1273 59.7195L53.1232 59.7242ZM63.3486 46.8391C63.1573 47.0594 62.9049 47.2178 62.6233 47.2945C62.3417 47.3712 62.0436 47.3627 61.7666 47.27C61.4897 47.1773 61.2463 47.0046 61.0674 46.7737C60.8884 46.5429 60.7818 46.2642 60.7612 45.9731C60.7405 45.6819 60.8066 45.3912 60.9513 45.1378C61.0959 44.8845 61.3124 44.6798 61.5736 44.5496C61.8347 44.4194 62.1287 44.3697 62.4183 44.4066C62.708 44.4435 62.9803 44.5655 63.2008 44.757C63.4957 45.0132 63.6773 45.3756 63.7057 45.765C63.7342 46.1543 63.6072 46.5389 63.3527 46.8344L63.3486 46.8391ZM72.6921 31.5846C73.0041 31.8556 73.2288 32.2129 73.3378 32.6112C73.4469 33.0096 73.4353 33.4312 73.3047 33.8228C73.1741 34.2143 72.9302 34.5581 72.6039 34.8108C72.2776 35.0635 71.8836 35.2137 71.4717 35.2423C71.0598 35.271 70.6484 35.1769 70.2896 34.9719C69.9309 34.7669 69.6408 34.4602 69.4562 34.0907C69.2715 33.7211 69.2006 33.3052 69.2523 32.8957C69.304 32.4861 69.476 32.1012 69.7466 31.7896C70.1098 31.3724 70.6239 31.1164 71.1761 31.078C71.7284 31.0396 72.2736 31.2217 72.6921 31.5846ZM55.4027 48.7095C55.4845 48.7811 55.5433 48.8754 55.5716 48.9803C55.6 49.0852 55.5966 49.1962 55.562 49.2991C55.5273 49.402 55.4629 49.4923 55.3769 49.5586C55.2908 49.6249 55.1871 49.6642 55.0787 49.6716C54.9702 49.6789 54.862 49.654 54.7677 49.5999C54.6734 49.5458 54.5971 49.465 54.5486 49.3677C54.5001 49.2704 54.4815 49.161 54.4952 49.0532C54.5089 48.9454 54.5541 48.8441 54.6254 48.7622C54.6728 48.7076 54.7306 48.6629 54.7953 48.6306C54.8601 48.5984 54.9306 48.5793 55.0029 48.5744C55.0751 48.5695 55.1476 48.579 55.2162 48.6021C55.2848 48.6253 55.3482 48.6618 55.4027 48.7095ZM46.1158 50.3919C46.3363 50.5835 46.4952 50.8361 46.5722 51.1177C46.6493 51.3993 46.6412 51.6974 46.5488 51.9742C46.4565 52.2509 46.2841 52.494 46.0534 52.6726C45.8228 52.8513 45.5442 52.9574 45.253 52.9777C44.9618 52.998 44.671 52.9315 44.4174 52.7865C44.1638 52.6416 43.9587 52.4248 43.8282 52.1636C43.6977 51.9023 43.6475 51.6083 43.684 51.3188C43.7206 51.0292 43.8422 50.7571 44.0335 50.5369C44.29 50.2416 44.6535 50.0604 45.044 50.0332C45.4345 50.006 45.8201 50.1351 46.1158 50.3919ZM38.6262 51.9199C38.6679 51.9556 38.6981 52.0029 38.713 52.0557C38.7278 52.1086 38.7266 52.1646 38.7095 52.2168C38.6925 52.2689 38.6603 52.3147 38.6171 52.3485C38.5739 52.3823 38.5216 52.4025 38.4669 52.4065C38.4122 52.4105 38.3575 52.3982 38.3097 52.3711C38.262 52.344 38.2233 52.3033 38.1987 52.2542C38.1741 52.2052 38.1645 52.1499 38.1714 52.0955C38.1782 52.041 38.201 51.9899 38.237 51.9485C38.2849 51.8933 38.3527 51.8594 38.4256 51.854C38.4985 51.8487 38.5706 51.8724 38.6262 51.9199ZM30.7348 52.6583C31.0471 52.9291 31.2722 53.2863 31.3816 53.6848C31.491 54.0833 31.4797 54.5051 31.3492 54.8968C31.2187 55.2886 30.9749 55.6327 30.6485 55.8855C30.3222 56.1384 29.928 56.2887 29.5159 56.3174C29.1038 56.3461 28.6922 56.2519 28.3334 56.0467C27.9745 55.8415 27.6845 55.5346 27.4999 55.1648C27.3154 54.795 27.2446 54.3789 27.2967 53.9692C27.3487 53.5594 27.5211 53.1745 27.7922 52.8631C28.1553 52.4468 28.6688 52.1914 29.2203 52.153C29.7718 52.1146 30.3164 52.2963 30.7348 52.6583Z" fill="#5977BA"/>
<path d="M74.5104 43.3705C74.6185 43.4644 74.752 43.5241 74.894 43.5422C75.036 43.5603 75.1801 43.5359 75.3081 43.4721C75.4361 43.4083 75.5422 43.308 75.6131 43.1838C75.684 43.0596 75.7164 42.9171 75.7063 42.7744C75.6962 42.6316 75.6439 42.4951 75.5562 42.3819C75.4685 42.2687 75.3492 42.1841 75.2134 42.1386C75.0777 42.0932 74.9315 42.089 74.7935 42.1266C74.6555 42.1642 74.5317 42.2419 74.438 42.3498C74.3122 42.4946 74.2492 42.6835 74.2628 42.8749C74.2764 43.0663 74.3654 43.2445 74.5104 43.3705Z" fill="#5977BA"/>
<path d="M28.3302 55.4265C28.5666 55.6324 28.8586 55.7636 29.1694 55.8036C29.4802 55.8436 29.7957 55.7905 30.0761 55.6511C30.3565 55.5117 30.5891 55.2922 30.7445 55.0204C30.8999 54.7487 30.9711 54.4368 30.9491 54.1243C30.9271 53.8118 30.813 53.5127 30.621 53.2649C30.4291 53.0171 30.168 52.8316 29.8708 52.7321C29.5737 52.6325 29.2537 52.6232 28.9515 52.7055C28.6494 52.7877 28.3785 52.9578 28.1732 53.1941C27.8982 53.5107 27.7603 53.9236 27.7897 54.3422C27.8192 54.7607 28.0135 55.1507 28.3302 55.4265Z" fill="#5977BA"/>
<path d="M62.8743 45.1329C62.7294 45.0064 62.5502 44.9258 62.3595 44.9011C62.1688 44.8764 61.9751 44.9089 61.803 44.9943C61.6309 45.0797 61.4881 45.2144 61.3926 45.3811C61.2972 45.5478 61.2534 45.7392 61.2668 45.931C61.2802 46.1228 61.3502 46.3063 61.4679 46.4584C61.5857 46.6106 61.7459 46.7244 61.9282 46.7856C62.1106 46.8467 62.3069 46.8524 62.4924 46.802C62.6778 46.7515 62.8441 46.6471 62.97 46.5021C63.1387 46.308 63.2233 46.0548 63.2054 45.7981C63.1874 45.5414 63.0684 45.3022 62.8743 45.1329Z" fill="#5977BA"/>
<path d="M38.6936 71.1217C38.457 70.9161 38.1647 70.7852 37.8539 70.7457C37.5431 70.7061 37.2276 70.7596 36.9474 70.8994C36.6672 71.0391 36.4349 71.2589 36.2799 71.5309C36.1248 71.8029 36.054 72.1148 36.0764 72.4273C36.0988 72.7397 36.2133 73.0387 36.4056 73.2863C36.5979 73.5338 36.8592 73.7189 37.1565 73.8181C37.4538 73.9173 37.7737 73.9261 38.0758 73.8435C38.3779 73.7608 38.6485 73.5904 38.8535 73.3538C39.1281 73.0369 39.2655 72.6238 39.2355 72.2053C39.2055 71.7868 39.0106 71.397 38.6936 71.1217Z" fill="#5977BA"/>
<path d="M44.5132 52.2369C44.658 52.3627 44.8369 52.4428 45.0272 52.4671C45.2174 52.4913 45.4105 52.4586 45.5821 52.3731C45.7536 52.2876 45.8958 52.1532 45.9908 51.9868C46.0858 51.8203 46.1293 51.6294 46.1157 51.4381C46.1021 51.2469 46.0321 51.0638 45.9146 50.9122C45.797 50.7606 45.6371 50.6471 45.4552 50.5862C45.2733 50.5253 45.0775 50.5197 44.8925 50.5701C44.7076 50.6205 44.5418 50.7246 44.4161 50.8692C44.2481 51.0635 44.164 51.3164 44.1822 51.5727C44.2004 51.829 44.3194 52.0678 44.5132 52.2369Z" fill="#5977BA"/>
<path d="M23.347 79.1587L23.5609 79.1995L23.347 79.1587Z" fill="#5977BA"/>
<path d="M87.7402 41.4546C87.451 41.2026 87.1056 41.0236 86.733 40.9327C86.3604 40.8418 85.9716 40.8417 85.5992 40.9323C85.2268 41.023 84.8818 41.2018 84.5931 41.4536C84.3044 41.7055 84.0805 42.0231 83.9403 42.3796C83.8001 42.7362 83.7477 43.1214 83.7874 43.5027C83.8271 43.884 83.9578 44.2503 84.1685 44.5708C84.3792 44.8913 84.6638 45.1567 84.9983 45.3445C85.3327 45.5323 85.7073 45.6371 86.0905 45.6501C86.9243 44.6587 87.7014 43.6127 88.4522 42.5465C88.3215 42.1233 88.0749 41.745 87.7402 41.4546Z" fill="#5977BA"/>
<path d="M18.9632 78.0733C19.1145 78.12 19.2735 78.1704 19.4345 78.209L19.4853 78.2231L19.7801 78.3095L20.1121 78.4036L20.7963 78.5875C21.2441 78.7029 21.715 78.8137 22.1764 78.9134C22.4816 78.9816 22.7891 79.0407 23.0967 79.0999C23.3978 77.2108 25.0544 75.8998 26.8863 76.1283C28.7945 76.3603 29.9601 78.2676 29.8631 79.9154L29.9454 79.9184L30.2792 79.9348C30.6439 79.9533 31.0053 79.9663 31.3651 79.9779L31.7129 79.9844C32.0674 79.9969 32.419 80.0022 32.7676 80.0004C33.2749 80.0032 33.7818 80.0021 34.2885 79.9971C35.3038 79.987 36.3191 79.9568 37.3345 79.9066C37.8409 79.8851 38.3486 79.86 38.8575 79.8314L39.218 79.8107L39.9226 79.766C40.3167 79.7445 40.7161 79.7137 41.1185 79.6857C41.842 79.6383 42.5689 79.5774 43.2847 79.5261L45.4428 79.3539L45.8127 79.3223C46.6318 79.2594 47.4402 79.19 48.2604 79.1226L49.5107 79.0239C49.9291 78.9933 50.3502 78.9596 50.7697 78.9245C51.1893 78.8894 51.5377 78.8637 51.9175 78.827L52.292 78.7965C52.9953 78.7344 53.6983 78.6664 54.3944 78.5843C54.7444 78.5472 55.0947 78.5067 55.4452 78.4627C55.791 78.4211 56.1382 78.3779 56.4836 78.3304C56.6317 78.3113 56.7861 78.2976 56.9248 78.2704C56.7057 77.9515 56.5064 77.6194 56.3282 77.276C56.0175 76.6758 55.769 76.0455 55.5865 75.3949C55.477 75.0043 55.3896 74.6077 55.3249 74.2073L55.2919 73.9898L55.2645 73.769C55.2014 73.2191 55.1769 72.6656 55.1909 72.1125C55.2076 71.546 55.2615 70.9814 55.3523 70.4221C55.3981 70.139 55.4525 69.8525 55.5174 69.5695C55.6496 68.9906 55.8166 68.4202 56.0175 67.8614C56.3331 66.9906 56.7213 66.148 57.1781 65.3425C57.4922 64.7828 57.8368 64.2408 58.2103 63.7189C58.5942 63.1812 59.006 62.6639 59.4441 62.1692C59.8301 61.7248 60.2529 61.3012 60.6924 60.8867L60.6268 60.8297C60.1188 60.3857 59.749 59.8051 59.5617 59.1572C59.3744 58.5093 59.3774 57.8214 59.5703 57.1757C56.2824 60.6706 53.5662 64.788 50.1202 68.121C47.312 70.8397 44.0566 72.8934 40.2436 73.8827C39.5889 74.0528 38.932 74.1909 38.2687 74.3015C38.0788 74.3571 37.8823 74.387 37.6844 74.3905C35.0668 74.7258 32.4171 74.7341 29.7966 74.4151C27.1764 74.1257 24.5267 73.7914 21.9089 73.37C21.7768 73.5726 21.6399 73.7711 21.5 73.967L21.4932 73.9748C21.3559 74.1675 21.2142 74.359 21.0709 74.5492L21.0438 74.5804C20.9071 74.7599 20.7659 74.9382 20.6231 75.1152L20.5622 75.1854C20.4267 75.3413 20.2912 75.4973 20.1476 75.6626L20.0379 75.7889C19.9142 75.9314 19.7909 76.0733 19.6681 76.2147L19.4893 76.4015C19.385 76.5216 19.27 76.6351 19.1592 76.7468C19.0485 76.8586 18.9714 76.9284 18.8782 77.0199C18.7851 77.1114 18.7126 77.1853 18.6274 77.2645C18.4447 77.4369 18.2617 77.6035 18.0726 77.7676C18.2364 77.825 18.3953 77.8755 18.5656 77.9223L18.9632 78.0733ZM50.7694 73.717C51.0903 73.9963 51.3213 74.3643 51.4332 74.7746C51.5451 75.1848 51.5329 75.6188 51.3981 76.0218C51.2634 76.4248 51.0121 76.7786 50.676 77.0385C50.34 77.2984 49.9342 77.4528 49.5101 77.4821C49.086 77.5115 48.6626 77.4144 48.2933 77.2032C47.9241 76.992 47.6256 76.6762 47.4356 76.2957C47.2456 75.9152 47.1726 75.4871 47.2259 75.0654C47.2791 74.6438 47.4562 74.2475 47.7348 73.9268C48.1093 73.4974 48.6391 73.2341 49.2079 73.1948C49.7768 73.1554 50.3383 73.3433 50.7694 73.717ZM53.5019 67.682C53.5426 67.7178 53.5718 67.7649 53.5858 67.8173C53.5998 67.8696 53.598 67.925 53.5807 67.9763C53.5634 68.0276 53.5312 68.0727 53.4883 68.1057C53.4454 68.1388 53.3937 68.1585 53.3396 68.1622C53.2856 68.166 53.2316 68.1537 53.1844 68.1269C53.1373 68.1001 53.0991 68.0599 53.0747 68.0115C53.0503 67.9631 53.0407 67.9086 53.0472 67.8548C53.0537 67.801 53.0759 67.7503 53.1111 67.7092C53.1593 67.6537 53.2275 67.6197 53.3008 67.6146C53.3741 67.6095 53.4464 67.6337 53.5019 67.682ZM33.4914 76.6942C33.5464 76.7421 33.5803 76.8098 33.5854 76.8825C33.5906 76.9553 33.5667 77.027 33.5189 77.0821C33.4711 77.1371 33.4034 77.1708 33.3306 77.1759C33.2579 77.1809 33.1861 77.1569 33.131 77.1091C33.0759 77.0612 33.0421 76.9935 33.0369 76.9207C33.0317 76.848 33.0557 76.7762 33.1035 76.7212C33.1513 76.6662 33.219 76.6325 33.2917 76.6274C33.3645 76.6223 33.4363 76.6464 33.4914 76.6942Z" fill="#3C67AF"/>
<path d="M48.2836 76.5788C48.531 76.7937 48.8366 76.9304 49.1616 76.9716C49.4866 77.0128 49.8164 76.9565 50.1091 76.81C50.4019 76.6635 50.6444 76.4334 50.806 76.1487C50.9675 75.8641 51.0409 75.5377 51.0167 75.2111C50.9924 74.8845 50.8718 74.5723 50.67 74.3141C50.4682 74.0559 50.1943 73.8633 49.8831 73.7607C49.5719 73.6582 49.2373 73.6503 48.9219 73.7381C48.6065 73.8258 48.3243 74.0053 48.1112 74.2537C47.827 74.5851 47.6856 75.0155 47.7179 75.4512C47.7502 75.8868 47.9536 76.2922 48.2836 76.5788Z" fill="#3C67AF"/>
<path d="M88.4563 42.5418C87.7055 43.608 86.9283 44.6541 86.0945 45.6455C86.4769 45.6597 86.8569 45.5818 87.2026 45.4185C87.5483 45.2551 87.8496 45.0111 88.081 44.7069C88.3125 44.4027 88.4674 44.0472 88.5327 43.6704C88.598 43.2936 88.5718 42.9066 88.4563 42.5418Z" fill="#3C67AF"/>
<path d="M62.9102 59.059C63.1627 58.8788 63.4157 58.7073 63.6721 58.5415C64.1849 58.2098 64.7054 57.904 65.2336 57.624C65.4963 57.4855 65.7608 57.3514 66.03 57.2213L65.7946 57.2904C65.657 56.8469 65.4183 56.4412 65.0973 56.1053C64.7763 55.7695 64.3819 55.5126 63.945 55.3549C63.5081 55.1972 63.0407 55.143 62.5795 55.1966C62.1184 55.2501 61.6761 55.41 61.2876 55.6636C60.899 55.9172 60.5748 56.2576 60.3404 56.658C60.1059 57.0584 59.9678 57.5078 59.9367 57.971C59.9056 58.4341 59.9825 58.8983 60.1613 59.3269C60.3401 59.7556 60.6159 60.137 60.967 60.4412L61.0326 60.4982L60.8843 60.7005C61.3576 60.266 61.8568 59.8459 62.3807 59.4446C62.5537 59.3212 62.7321 59.1916 62.9102 59.059Z" fill="#3C67AF"/>
<path d="M26.8142 76.6403C25.2575 76.4483 23.8368 77.5729 23.5816 79.201L23.3414 79.162L23.5553 79.2028C23.7887 79.2496 24.0197 79.2833 24.2542 79.3256L24.9552 79.4365L25.1954 79.4755L25.5149 79.5177C25.7313 79.5524 25.95 79.5782 26.1703 79.6054L26.5013 79.6439L26.8293 79.6826L27.1157 79.7125L27.4037 79.7437L27.9967 79.7991C28.3934 79.8345 28.7881 79.8627 29.1856 79.8878L29.6023 79.916L29.3391 79.9035C29.4417 78.4795 28.4473 76.8358 26.8142 76.6403Z" fill="#3C67AF"/>
<path d="M65.2212 55.5501C65.7038 55.9705 66.0618 56.5153 66.2562 57.1249L66.347 57.0835C66.5087 57.0077 66.6708 56.9378 66.8373 56.8691C67.3875 56.6374 67.9397 56.4339 68.4939 56.2585C69.047 56.0823 69.5991 55.9325 70.155 55.8161C70.7109 55.6998 71.2581 55.606 71.8046 55.5416C72.3434 55.4777 72.8852 55.4414 73.4278 55.433L73.7779 55.4306C74.005 55.4309 74.2283 55.4388 74.4503 55.4483C75.5338 55.5016 76.6071 55.6852 77.647 55.995C78.0465 56.117 78.4396 56.2593 78.8247 56.4215L79.0969 56.5402C80.3556 57.106 81.4853 57.9235 82.4164 58.9422C82.5071 59.0428 82.598 59.1464 82.6908 59.2572C82.8603 59.0021 83.0395 58.7391 83.202 58.489L83.6756 57.7703L84.1453 57.0592L84.5372 56.4692L94.9318 40.7459L95.0124 40.6216L94.862 40.5266C94.5379 40.8929 94.0931 41.1307 93.6083 41.197C93.1234 41.2633 92.6306 41.1536 92.2192 40.8878C91.9315 40.7131 91.6896 40.4722 91.5138 40.1852C91.3379 39.8983 91.2332 39.5735 91.2082 39.238C91.0216 39.3017 90.827 39.3389 90.6299 39.3486C90.0254 40.2464 89.4243 41.1498 88.8075 42.0397C89.0302 42.5186 89.1178 43.0492 89.0606 43.5739C89.0034 44.0987 88.8037 44.5976 88.4832 45.0167C88.1626 45.4358 87.7334 45.759 87.2419 45.9515C86.7505 46.1439 86.2156 46.1982 85.6951 46.1085C85.3059 46.5566 84.9018 46.9891 84.483 47.4061C81.8071 50.0671 78.5171 51.9021 74.6485 51.5105C72.9424 51.3392 71.266 50.9474 69.5402 51.0354C68.0586 51.1165 66.6904 51.6601 65.426 52.387C64.2308 53.0831 63.1027 53.8886 62.0564 54.793C62.6055 54.6539 63.1803 54.6501 63.7315 54.782C64.2828 54.9139 64.7939 55.1774 65.2212 55.5501ZM78.9391 51.4888C79.151 51.4401 79.3705 51.4337 79.585 51.47C79.7995 51.5062 80.0048 51.5844 80.1891 51.7001C80.3735 51.8157 80.5332 51.9666 80.6593 52.144C80.7853 52.3213 80.8752 52.5218 80.9237 52.7338C80.9985 53.0534 80.9765 53.3879 80.8607 53.6947C80.7448 54.0015 80.5402 54.2667 80.2729 54.4567C80.0056 54.6467 79.6877 54.7529 79.3597 54.7616C79.0317 54.7704 78.7083 54.6814 78.4308 54.506L78.2218 54.3491C77.991 54.1485 77.8203 53.888 77.7284 53.5965C77.6366 53.3049 77.6273 52.9938 77.7016 52.6975C77.7759 52.4013 77.9309 52.1315 78.1493 51.9181C78.3677 51.7048 78.6411 51.5562 78.9391 51.4888Z" fill="#3C67AF"/>
<path d="M78.7034 54.0723C78.9621 54.2338 79.2743 54.2862 79.5713 54.218C79.8684 54.1498 80.1261 53.9666 80.288 53.7085C80.3692 53.5814 80.424 53.4393 80.4492 53.2905C80.4744 53.1418 80.4694 52.9895 80.4346 52.8426C80.3917 52.6588 80.3041 52.4884 80.1798 52.3464C80.0554 52.2044 79.898 52.0951 79.7215 52.0282C79.545 51.9613 79.3548 51.9388 79.1677 51.9628C78.9806 51.9868 78.8023 52.0565 78.6486 52.1657C78.4949 52.2749 78.3705 52.4203 78.2864 52.5891C78.2023 52.7579 78.1611 52.9448 78.1664 53.1333C78.1716 53.3219 78.2233 53.5064 78.3167 53.6704C78.4101 53.8344 78.5424 53.973 78.702 54.0739L78.7034 54.0723Z" fill="#3C67AF"/>
<path d="M83.9409 60.9094L83.0666 60.3387L80.4914 58.6601L83.9409 60.9094Z" fill="#3C67AF"/>
<path d="M92.2179 40.8894C92.6292 41.1551 93.122 41.2648 93.6069 41.1985C94.0918 41.1323 94.5366 40.8944 94.8607 40.5281L95.0111 40.6232L95.0267 40.6367L95.7657 39.5083L71.5598 24.1159L70.8648 25.2662L70.8147 25.3459C70.5452 25.8107 70.471 26.3636 70.6084 26.8835C70.7458 27.4034 71.0837 27.848 71.5479 28.1198C71.8213 28.2909 72.1302 28.3972 72.4508 28.4305C72.7714 28.4638 73.0954 28.4232 73.3977 28.3119C73.4343 28.6314 73.5424 28.9387 73.7139 29.2109C73.8855 29.4831 74.1161 29.7133 74.3887 29.8843C74.6613 30.0554 74.9688 30.1629 75.2884 30.199C75.608 30.235 75.9316 30.1986 76.235 30.0925C76.2963 30.4057 76.4269 30.7013 76.617 30.9578C76.8072 31.2142 77.0523 31.425 77.3342 31.5748C77.6162 31.7245 77.928 31.8094 78.2469 31.8233C78.5657 31.8371 78.8835 31.7795 79.177 31.6548C79.1979 32.0073 79.3059 32.3491 79.4915 32.6498C79.677 32.9505 79.9342 33.2005 80.24 33.3774C80.5458 33.5544 80.8906 33.6527 81.2436 33.6637C81.5966 33.6746 81.9466 33.5978 82.2624 33.4401C82.2758 33.7928 82.3765 34.1368 82.5553 34.4414C82.7341 34.746 82.9855 35.0017 83.2871 35.1856C83.5887 35.3695 83.931 35.4759 84.2835 35.4954C84.6361 35.5148 84.9878 35.4467 85.3073 35.297C85.3029 35.6617 85.3922 36.0216 85.5666 36.3422C85.7411 36.6628 85.9948 36.9334 86.3036 37.128C86.6124 37.3227 86.9659 37.4349 87.3303 37.4539C87.6946 37.4729 88.0576 37.3982 88.3846 37.2367C88.3861 37.5962 88.4799 37.9493 88.6571 38.2623C88.8343 38.5753 89.0889 38.8377 89.3965 39.0242C89.6655 39.1901 89.9676 39.2949 90.2814 39.331C90.5952 39.3672 90.913 39.3338 91.2123 39.2333C91.2357 39.5694 91.3392 39.8951 91.5141 40.1832C91.689 40.4713 91.9304 40.7135 92.2179 40.8894Z" fill="#FFE006"/>
<path d="M73.8208 20.3775L73.7868 20.4355L73.7383 20.5166L72.9577 21.8032C72.5773 22.4304 72.1973 23.0581 71.8179 23.6862L96.0407 39.0877L96.271 38.7405L96.6996 38.0894L72.4421 22.6933L72.7108 22.2673L96.9703 37.6706L96.9405 37.7049L97.8247 36.3715L97.986 36.1258L94.5366 33.8765L73.8208 20.3775Z" fill="#FFE006"/>
<path d="M88.3679 45.1575C88.791 44.6719 89.0409 44.0595 89.0784 43.4162C89.1159 42.7729 88.9389 42.1351 88.5751 41.6026C88.2114 41.0701 87.6814 40.673 87.0682 40.4735C86.4551 40.2741 85.7933 40.2835 85.1866 40.5003C84.5799 40.7171 84.0626 41.1291 83.7156 41.6717C83.3686 42.2144 83.2116 42.857 83.2691 43.4989C83.3266 44.1408 83.5954 44.7459 84.0335 45.2192C84.4715 45.6926 85.054 46.0075 85.6897 46.1147C86.1811 46.1994 86.6858 46.1557 87.155 45.988C87.6243 45.8203 88.042 45.5343 88.3679 45.1575ZM86.0945 45.6455C85.5535 45.6253 85.0351 45.4219 84.6244 45.0686C84.2137 44.7153 83.9351 44.2331 83.8343 43.7011C83.7335 43.1692 83.8165 42.619 84.0696 42.1408C84.3227 41.6626 84.731 41.2849 85.2274 41.0695C85.7238 40.8541 86.2789 40.8139 86.8017 40.9555C87.3245 41.097 87.7838 41.412 88.1045 41.8486C88.4251 42.2852 88.5879 42.8176 88.5663 43.3584C88.5446 43.8993 88.3398 44.4165 87.9853 44.8252C87.7514 45.0942 87.4602 45.3075 87.1331 45.4494C86.8059 45.5913 86.4511 45.6583 86.0945 45.6455Z" fill="white"/>
<path d="M74.1785 43.7526C74.362 43.9119 74.5884 44.0134 74.8293 44.0444C75.0702 44.0754 75.3148 44.0343 75.5322 43.9265C75.7497 43.8187 75.9303 43.6489 76.0512 43.4385C76.1721 43.2281 76.2281 42.9866 76.2119 42.7443C76.1957 42.502 76.1082 42.2699 75.9603 42.0771C75.8124 41.8843 75.6109 41.7395 75.381 41.6609C75.1511 41.5823 74.9032 41.5735 74.6685 41.6356C74.4338 41.6977 74.2228 41.8278 74.0621 42.0097C73.8477 42.2565 73.7397 42.5782 73.7615 42.9046C73.7832 43.231 73.9332 43.5358 74.1785 43.7526ZM75.4587 42.2788C75.5668 42.3727 75.6447 42.4965 75.6825 42.6345C75.7202 42.7726 75.7163 42.9187 75.671 43.0544C75.6257 43.1901 75.5412 43.3092 75.4281 43.3968C75.3151 43.4843 75.1785 43.5364 75.0358 43.5463C74.893 43.5563 74.7505 43.5236 74.6262 43.4526C74.5018 43.3816 74.4013 43.2753 74.3373 43.1472C74.2734 43.0192 74.2488 42.875 74.2667 42.7331C74.2846 42.5912 74.3442 42.4578 74.438 42.3498C74.5637 42.2051 74.7419 42.1163 74.9333 42.1029C75.1248 42.0896 75.3137 42.1529 75.4587 42.2788Z" fill="white"/>
<path d="M44.1826 52.6174C44.4032 52.809 44.6756 52.931 44.9654 52.9679C45.2551 53.0048 45.5492 52.9549 45.8103 52.8246C46.0715 52.6943 46.2881 52.4895 46.4326 52.2359C46.5771 51.9824 46.6431 51.6916 46.6222 51.4004C46.6013 51.1091 46.4945 50.8305 46.3153 50.5997C46.1361 50.3689 45.8925 50.1964 45.6153 50.104C45.3382 50.0115 45.04 50.0033 44.7584 50.0804C44.4768 50.1575 44.2245 50.3163 44.0335 50.5369C43.7776 50.8323 43.6496 51.2173 43.6775 51.6074C43.7055 51.9975 43.8872 52.3608 44.1826 52.6174ZM45.7839 50.774C45.9287 50.8999 46.0331 51.0658 46.0837 51.2507C46.1343 51.4357 46.129 51.6315 46.0683 51.8133C46.0077 51.9951 45.8944 52.1548 45.7429 52.2721C45.5914 52.3895 45.4084 52.4592 45.2172 52.4725C45.0259 52.4858 44.8349 52.4421 44.6683 52.347C44.5017 52.2518 44.367 52.1094 44.2812 51.9377C44.1955 51.7661 44.1625 51.573 44.1865 51.3828C44.2106 51.1926 44.2904 51.0139 44.4161 50.8692C44.5849 50.6757 44.8236 50.5571 45.0799 50.5392C45.3363 50.5214 45.5894 50.6058 45.7839 50.774Z" fill="white"/>
<path d="M63.2049 44.7524C62.9843 44.5608 62.712 44.4388 62.4224 44.4019C62.1327 44.365 61.8388 44.4148 61.5776 44.5449C61.3165 44.6751 61.0999 44.8798 60.9553 45.1332C60.8107 45.3865 60.7446 45.6772 60.7652 45.9684C60.7859 46.2596 60.8925 46.5382 61.0714 46.769C61.2504 46.9999 61.4937 47.1726 61.7707 47.2653C62.0477 47.358 62.3458 47.3665 62.6274 47.2898C62.9089 47.2132 63.1613 47.0547 63.3527 46.8344C63.6092 46.5391 63.7377 46.1538 63.71 45.7634C63.6823 45.3729 63.5006 45.0092 63.2049 44.7524ZM62.97 46.5021C62.8441 46.6464 62.6782 46.7501 62.4932 46.8001C62.3083 46.8502 62.1125 46.8442 61.9308 46.783C61.7491 46.7219 61.5895 46.6083 61.4722 46.4565C61.3549 46.3048 61.2851 46.1218 61.2717 45.9306C61.2584 45.7394 61.302 45.5486 61.3971 45.3824C61.4921 45.2161 61.6344 45.0818 61.8059 44.9964C61.9774 44.911 62.1704 44.8784 62.3606 44.9027C62.5508 44.927 62.7295 45.0071 62.8743 45.1329C63.0684 45.3022 63.1874 45.5414 63.2054 45.7981C63.2233 46.0548 63.1387 46.308 62.97 46.5021Z" fill="white"/>
<path d="M51.045 59.8645C50.8537 60.0847 50.7321 60.3568 50.6956 60.6463C50.659 60.9359 50.7092 61.2299 50.8397 61.4911C50.9703 61.7524 51.1753 61.9692 51.4289 62.1141C51.6825 62.259 51.9733 62.3256 52.2645 62.3053C52.5557 62.285 52.8343 62.1789 53.0649 62.0002C53.2956 61.8216 53.468 61.5785 53.5603 61.3018C53.6527 61.025 53.6608 60.7269 53.5838 60.4453C53.5067 60.1637 53.3478 59.9111 53.1273 59.7195C52.8313 59.4632 52.4459 59.3345 52.0556 59.3616C51.6653 59.3888 51.3018 59.5696 51.045 59.8645ZM52.7968 60.1001C52.9423 60.2259 53.0472 60.392 53.0983 60.5774C53.1494 60.7628 53.1444 60.9591 53.0839 61.1415C53.0233 61.3238 52.91 61.4841 52.7583 61.6019C52.6065 61.7198 52.4232 61.7899 52.2314 61.8035C52.0397 61.817 51.8481 61.7734 51.681 61.6781C51.5139 61.5828 51.3788 61.4401 51.2927 61.2681C51.2067 61.0961 51.1735 60.9025 51.1976 60.7118C51.2216 60.5211 51.3016 60.3419 51.4276 60.1968C51.5966 60.0032 51.8353 59.8843 52.0919 59.8662C52.3484 59.8481 52.6018 59.9321 52.7968 60.1001Z" fill="white"/>
<path d="M47.9516 76.9609C48.2731 77.2396 48.6698 77.4168 49.0916 77.4702C49.5135 77.5236 49.9416 77.4508 50.3217 77.261C50.7019 77.0712 51.017 76.7729 51.2274 76.4038C51.4378 76.0346 51.5339 75.6113 51.5036 75.1873C51.4733 74.7632 51.3179 74.3575 51.0572 74.0215C50.7964 73.6854 50.442 73.434 50.0386 73.2991C49.6352 73.1642 49.2011 73.1518 48.7911 73.2635C48.381 73.3753 48.0134 73.6061 47.7348 73.9268C47.3615 74.3575 47.1746 74.919 47.2152 75.4879C47.2559 76.0568 47.5208 76.5866 47.9516 76.9609ZM50.4375 74.0991C50.6849 74.3141 50.8631 74.5975 50.9493 74.9136C51.0355 75.2296 51.026 75.564 50.9219 75.8744C50.8178 76.1847 50.6238 76.4571 50.3646 76.6569C50.1053 76.8567 49.7924 76.975 49.4656 76.9967C49.1388 77.0184 48.8128 76.9426 48.5289 76.7789C48.245 76.6152 48.016 76.371 47.8709 76.0772C47.7258 75.7834 47.6712 75.4532 47.714 75.1286C47.7568 74.804 47.895 74.4995 48.1112 74.2537C48.3995 73.926 48.806 73.7258 49.2418 73.6968C49.6777 73.6678 50.1075 73.8125 50.4375 74.0991Z" fill="white"/>
<path d="M69.9556 34.7349C70.2676 35.0059 70.6528 35.1784 71.0625 35.2306C71.4722 35.2829 71.8881 35.2125 72.2575 35.0283C72.6269 34.8442 72.9332 34.5546 73.1378 34.1962C73.3423 33.8378 73.4359 33.4267 73.4067 33.0148C73.3774 32.6029 73.2267 32.2087 72.9735 31.8822C72.7204 31.5556 72.3761 31.3113 71.9844 31.1802C71.5926 31.0491 71.1709 31.037 70.7726 31.1455C70.3742 31.2539 70.0172 31.4781 69.7466 31.7897C69.3842 32.2076 69.2027 32.7525 69.2419 33.3047C69.2811 33.8569 69.5378 34.3712 69.9556 34.7349ZM72.3602 31.9667C72.5982 32.1707 72.7703 32.4406 72.8547 32.7423C72.9391 33.044 72.9321 33.3639 72.8345 33.6613C72.7368 33.9588 72.553 34.2204 72.3063 34.4131C72.0597 34.6058 71.7612 34.7208 71.4488 34.7436C71.1365 34.7663 70.8242 34.6958 70.5517 34.541C70.2792 34.3862 70.0588 34.154 69.9182 33.874C69.7777 33.5939 69.7235 33.2785 69.7624 32.9678C69.8014 32.6571 69.9318 32.3651 70.137 32.1288C70.411 31.8142 70.7983 31.6207 71.2146 31.5903C71.631 31.5599 72.0427 31.6952 72.3602 31.9667Z" fill="white"/>
<path d="M42.6397 57.3271C42.1329 56.8869 41.507 56.6066 40.8413 56.5217C40.1756 56.4368 39.4999 56.5512 38.8998 56.8504C38.2996 57.1495 37.8019 57.62 37.4695 58.2023C37.1372 58.7847 36.9851 59.4527 37.0326 60.1219C37.0801 60.7912 37.325 61.4316 37.7364 61.9621C38.1477 62.4927 38.707 62.8896 39.3435 63.1026C39.9801 63.3157 40.6652 63.3354 41.3124 63.1591C41.9596 62.9828 42.5397 62.6186 42.9794 62.1124C43.5679 61.4332 43.8627 60.548 43.799 59.6509C43.7353 58.7538 43.3184 57.9181 42.6397 57.3271ZM38.5255 62.0635C38.0931 61.6879 37.7816 61.1926 37.6305 60.6404C37.4793 60.0882 37.4953 59.5038 37.6764 58.9611C37.8575 58.4184 38.1955 57.9418 38.6478 57.5915C39.1 57.2413 39.6462 57.0331 40.2172 56.9934C40.7882 56.9536 41.3584 57.0841 41.8557 57.3682C42.353 57.6524 42.755 58.0775 43.011 58.5897C43.2669 59.102 43.3653 59.6785 43.2936 60.2462C43.222 60.8139 42.9835 61.3474 42.6084 61.7793C42.1054 62.3583 41.3927 62.7136 40.627 62.7669C39.8613 62.8202 39.1054 62.5672 38.5255 62.0635Z" fill="white"/>
<path d="M39.2408 73.6902C39.5572 73.3289 39.7398 72.8698 39.758 72.3897C39.7763 71.9095 39.6292 71.4374 39.3412 71.0523C39.0532 70.6672 38.6419 70.3924 38.176 70.2739C37.7101 70.1554 37.2178 70.2003 36.7814 70.4012C36.3451 70.6021 35.9912 70.9467 35.7788 71.3775C35.5664 71.8083 35.5085 72.2991 35.6147 72.7679C35.7209 73.2367 35.9848 73.655 36.3622 73.953C36.7397 74.251 37.2078 74.4105 37.6884 74.4049C37.8863 74.4014 38.0828 74.3715 38.2726 74.3159C38.6477 74.2022 38.9832 73.9855 39.2408 73.6902ZM36.6243 73.5134C36.3877 73.3079 36.2172 73.0369 36.1346 72.7348C36.0519 72.4326 36.0606 72.1129 36.1597 71.8159C36.2587 71.519 36.4437 71.2582 36.6912 71.0666C36.9386 70.8749 37.2374 70.7611 37.5499 70.7393C37.8623 70.7176 38.1743 70.7889 38.4463 70.9444C38.7184 71.0999 38.9384 71.3325 39.0784 71.6128C39.2185 71.893 39.2723 72.2084 39.2331 72.5191C39.1939 72.8297 39.0634 73.1216 38.8582 73.3579C38.7216 73.5152 38.5552 73.6439 38.3686 73.7366C38.1821 73.8294 37.979 73.8844 37.771 73.8985C37.563 73.9126 37.3542 73.8854 37.1566 73.8186C36.959 73.7519 36.7765 73.6467 36.6196 73.5093L36.6243 73.5134Z" fill="white"/>
<path d="M60.6301 60.8354L60.7285 60.9208L60.878 60.7141L61.0263 60.5118L60.9607 60.4548C60.6095 60.1506 60.3337 59.7692 60.1549 59.3406C59.9761 58.9119 59.8992 58.4477 59.9303 57.9846C59.9614 57.5215 60.0996 57.072 60.334 56.6716C60.5684 56.2712 60.8927 55.9308 61.2812 55.6772C61.6698 55.4236 62.112 55.2638 62.5732 55.2102C63.0343 55.1566 63.5017 55.2108 63.9386 55.3685C64.3755 55.5262 64.77 55.7831 65.0909 56.119C65.4119 56.4548 65.6506 56.8605 65.7882 57.304L66.0236 57.2349L66.2606 57.1671L66.248 57.1343C66.0821 56.6196 65.7994 56.1501 65.422 55.7626C65.0446 55.375 64.5828 55.0799 64.0726 54.9004C63.5624 54.7208 63.0178 54.6616 62.4813 54.7275C61.9447 54.7933 61.4309 54.9825 60.9799 55.28C60.529 55.5776 60.1532 55.9755 59.8819 56.4427C59.6106 56.9099 59.4512 57.4337 59.4161 57.973C59.381 58.5124 59.4713 59.0527 59.6798 59.5517C59.8883 60.0507 60.2094 60.4948 60.6179 60.8494L60.6301 60.8354Z" fill="white"/>
<path d="M77.7006 53.4667C77.7778 53.8076 77.9619 54.1151 78.2259 54.3444L78.4349 54.5013C78.7124 54.6767 79.0358 54.7657 79.3638 54.757C79.6918 54.7482 80.0097 54.6421 80.277 54.4521C80.5442 54.262 80.7488 53.9968 80.8647 53.69C80.9806 53.3832 81.0025 53.0487 80.9277 52.7291C80.8293 52.3011 80.565 51.9295 80.1928 51.696C79.8206 51.4626 79.3711 51.3863 78.9432 51.4841C78.5152 51.5819 78.1439 51.8457 77.9109 52.2175C77.6778 52.5893 77.6022 53.0387 77.7006 53.4667ZM79.0557 51.9759C79.3533 51.9083 79.6657 51.9617 79.9242 52.1242C80.1828 52.2867 80.3664 52.5451 80.4346 52.8426C80.4695 52.9895 80.4744 53.1418 80.4492 53.2906C80.424 53.4393 80.3692 53.5814 80.288 53.7085C80.1873 53.8679 80.0489 54 79.885 54.0932C79.721 54.1864 79.5366 54.2378 79.348 54.2428C79.1594 54.2478 78.9724 54.2064 78.8035 54.122C78.6346 54.0377 78.489 53.9132 78.3796 53.7594C78.2701 53.6056 78.2002 53.4272 78.1759 53.2401C78.1517 53.053 78.1739 52.8628 78.2406 52.6865C78.3072 52.5101 78.4163 52.3529 78.5582 52.2287C78.7001 52.1046 78.8705 52.0173 79.0542 51.9746L79.0557 51.9759Z" fill="white"/>
<path d="M27.9983 55.8086C28.31 56.0799 28.695 56.2528 29.1047 56.3054C29.5143 56.358 29.9302 56.288 30.2998 56.1043C30.6694 55.9205 30.976 55.6313 31.1809 55.2731C31.3858 54.9149 31.4798 54.5038 31.451 54.0919C31.4222 53.6799 31.2718 53.2856 31.019 52.9588C30.7661 52.632 30.4222 52.3874 30.0305 52.2559C29.6389 52.1244 29.2172 52.1119 28.8188 52.22C28.4203 52.328 28.0631 52.5519 27.7921 52.8631C27.4294 53.2808 27.2473 53.8254 27.286 54.3777C27.3246 54.9299 27.5808 55.4445 27.9983 55.8086ZM30.4042 53.0388C30.6412 53.2441 30.812 53.5151 30.8951 53.8173C30.9781 54.1195 30.9696 54.4395 30.8707 54.7367C30.7717 55.0338 30.5868 55.2948 30.3393 55.4867C30.0918 55.6785 29.7928 55.7925 29.4802 55.8143C29.1676 55.836 28.8554 55.7646 28.5832 55.6089C28.311 55.4533 28.0911 55.2204 27.9511 54.9399C27.8112 54.6594 27.7576 54.3437 27.7971 54.033C27.8366 53.7222 27.9675 53.4303 28.1732 53.1941C28.4486 52.8787 28.838 52.6853 29.256 52.6562C29.6741 52.6271 30.0869 52.7646 30.4042 53.0388Z" fill="white"/>
<path d="M77.3083 34.8912C77.3498 34.9272 77.401 34.9501 77.4554 34.957C77.5099 34.9639 77.5651 34.9544 77.6142 34.9299C77.6632 34.9053 77.7038 34.8667 77.7309 34.819C77.7579 34.7713 77.7702 34.7167 77.7661 34.6619C77.762 34.6072 77.7417 34.5549 77.7079 34.5117C77.6741 34.4685 77.6281 34.4362 77.576 34.4191C77.5238 34.402 77.4678 34.4007 77.4149 34.4155C77.3621 34.4302 77.3149 34.4603 77.2792 34.502C77.2317 34.5575 77.2081 34.6296 77.2136 34.7025C77.219 34.7754 77.2531 34.8432 77.3083 34.8912Z" fill="white"/>
<path d="M67.605 37.2517C67.5512 37.3137 67.517 37.3904 67.507 37.472C67.497 37.5536 67.5116 37.6363 67.5488 37.7097C67.586 37.783 67.6443 37.8436 67.7161 37.8837C67.7879 37.9238 67.87 37.9417 67.9519 37.9349C68.0338 37.9282 68.1119 37.8972 68.176 37.8458C68.2402 37.7945 68.2875 37.7252 68.3121 37.6468C68.3366 37.5684 68.3372 37.4844 68.3137 37.4056C68.2903 37.3268 68.2439 37.2567 68.1805 37.2043C68.0972 37.1356 67.9905 37.1021 67.8829 37.1109C67.7754 37.1198 67.6757 37.1703 67.605 37.2517Z" fill="white"/>
<path d="M78.8411 48.0845C78.9193 48.1525 79.0159 48.1957 79.1186 48.2087C79.2213 48.2218 79.3256 48.2041 79.4182 48.1578C79.5107 48.1115 79.5874 48.0388 79.6386 47.9489C79.6897 47.859 79.713 47.7559 79.7055 47.6526C79.698 47.5494 79.6599 47.4506 79.5963 47.3689C79.5326 47.2872 79.4461 47.2262 79.3478 47.1936C79.2495 47.161 79.1438 47.1583 79.044 47.1859C78.9442 47.2134 78.8549 47.27 78.7874 47.3483C78.7424 47.4001 78.7082 47.4602 78.6865 47.5252C78.6649 47.5903 78.6563 47.659 78.6613 47.7274C78.6663 47.7958 78.6848 47.8625 78.7156 47.9238C78.7465 47.9851 78.7891 48.0397 78.8411 48.0845Z" fill="white"/>
<path d="M54.682 49.5392C54.7643 49.6102 54.8658 49.6552 54.9737 49.6686C55.0816 49.682 55.1909 49.6632 55.288 49.6144C55.3851 49.5657 55.4655 49.4893 55.5191 49.3949C55.5727 49.3004 55.5971 49.1922 55.5892 49.0838C55.5813 48.9754 55.5415 48.8718 55.4747 48.7859C55.408 48.7001 55.3173 48.6359 55.2142 48.6015C55.1111 48.5671 55.0001 48.564 54.8953 48.5926C54.7905 48.6212 54.6966 48.6802 54.6253 48.7622C54.5779 48.8168 54.5417 48.8802 54.5189 48.9489C54.4961 49.0175 54.487 49.09 54.4923 49.1622C54.4975 49.2344 54.517 49.3049 54.5495 49.3696C54.5821 49.4343 54.6271 49.4919 54.682 49.5392Z" fill="white"/>
<path d="M47.9769 56.8355C47.9357 56.8001 47.8849 56.7778 47.831 56.7713C47.7771 56.7648 47.7224 56.7744 47.674 56.7989C47.6256 56.8233 47.5855 56.8616 47.5588 56.9089C47.5322 56.9561 47.5201 57.0102 47.5241 57.0643C47.5282 57.1185 47.5482 57.1702 47.5816 57.2131C47.615 57.2559 47.6603 57.2879 47.7119 57.3051C47.7634 57.3222 47.8188 57.3237 47.8712 57.3094C47.9235 57.2951 47.9705 57.2656 48.006 57.2247C48.0298 57.1973 48.0479 57.1655 48.0593 57.1311C48.0708 57.0966 48.0752 57.0603 48.0725 57.0241C48.0698 56.9879 48.06 56.9526 48.0436 56.9203C48.0272 56.8879 48.0045 56.8591 47.9769 56.8355Z" fill="white"/>
<path d="M33.1364 77.1028C33.1776 77.1381 33.2283 77.1604 33.2822 77.1669C33.336 77.1735 33.3905 77.164 33.4389 77.1396C33.4873 77.1153 33.5274 77.0772 33.5541 77.0301C33.5809 76.983 33.5931 76.929 33.5893 76.875C33.5855 76.8209 33.5657 76.7691 33.5326 76.7262C33.4994 76.6833 33.4543 76.6511 33.403 76.6337C33.3516 76.6163 33.2963 76.6145 33.2439 76.6284C33.1916 76.6423 33.1445 76.6714 33.1087 76.7121C33.0846 76.7394 33.0662 76.7712 33.0545 76.8058C33.0429 76.8403 33.0382 76.8768 33.0408 76.9131C33.0433 76.9495 33.0531 76.985 33.0696 77.0176C33.086 77.0501 33.1087 77.0791 33.1364 77.1028Z" fill="white"/>
<path d="M27.7236 70.0259C27.6514 69.9631 27.5621 69.9232 27.4672 69.9111C27.3723 69.899 27.2759 69.9153 27.1903 69.9579C27.1048 70.0006 27.0338 70.0677 26.9864 70.1507C26.939 70.2338 26.9173 70.329 26.9241 70.4245C26.9309 70.5199 26.9658 70.6112 27.0244 70.6869C27.0831 70.7625 27.1629 70.8191 27.2536 70.8495C27.3444 70.8799 27.4421 70.8827 27.5344 70.8575C27.6267 70.8324 27.7094 70.7805 27.7721 70.7083C27.814 70.6605 27.8459 70.6049 27.8662 70.5446C27.8864 70.4843 27.8946 70.4206 27.8901 70.3572C27.8856 70.2938 27.8685 70.2318 27.84 70.175C27.8114 70.1181 27.7719 70.0675 27.7236 70.0259Z" fill="white"/>
<path d="M38.2645 52.3363C38.3057 52.3727 38.3569 52.396 38.4114 52.4033C38.4659 52.4105 38.5213 52.4014 38.5705 52.3771C38.6198 52.3528 38.6606 52.3143 38.688 52.2667C38.7153 52.219 38.7278 52.1643 38.7239 52.1095C38.72 52.0547 38.6999 52.0022 38.6661 51.9588C38.6323 51.9154 38.5864 51.883 38.5342 51.8658C38.482 51.8485 38.4259 51.8471 38.3729 51.8619C38.32 51.8766 38.2727 51.9068 38.237 51.9485C38.1897 52.0037 38.1661 52.0754 38.1712 52.1479C38.1764 52.2205 38.2099 52.2882 38.2645 52.3363Z" fill="white"/>
<path d="M45.3291 67.8421C45.2454 67.7694 45.1421 67.7231 45.0321 67.7091C44.9222 67.6951 44.8106 67.7139 44.7115 67.7633C44.6124 67.8128 44.5302 67.8904 44.4753 67.9866C44.4204 68.0828 44.3953 68.1931 44.4032 68.3036C44.411 68.4141 44.4514 68.5199 44.5194 68.6075C44.5873 68.6951 44.6797 68.7607 44.7848 68.7959C44.8899 68.8311 45.0031 68.8343 45.1099 68.8052C45.2168 68.7761 45.3126 68.7159 45.3852 68.6323C45.4826 68.5203 45.5314 68.374 45.5209 68.2258C45.5103 68.0776 45.4414 67.9396 45.3291 67.8421Z" fill="white"/>
<path d="M69.8005 49.2941C69.7594 49.2584 69.7087 49.2357 69.6548 49.2288C69.6008 49.2219 69.546 49.2312 69.4974 49.2555C69.4487 49.2797 69.4084 49.3178 69.3815 49.365C69.3545 49.4122 69.3422 49.4664 69.3461 49.5206C69.3499 49.5749 69.3698 49.6268 69.4031 49.6698C69.4364 49.7128 69.4818 49.7449 69.5334 49.7622C69.585 49.7795 69.6405 49.7811 69.6929 49.7668C69.7454 49.7525 69.7924 49.723 69.8281 49.682C69.8758 49.6269 69.8998 49.5552 69.8946 49.4824C69.8895 49.4097 69.8556 49.342 69.8005 49.2941Z" fill="white"/>
<path d="M53.1416 68.0968C53.1829 68.1322 53.2338 68.1545 53.2878 68.161C53.3418 68.1674 53.3965 68.1578 53.4449 68.1331C53.4934 68.1085 53.5335 68.0701 53.56 68.0227C53.5866 67.9753 53.5985 67.9211 53.5943 67.8669C53.59 67.8127 53.5698 67.7609 53.5361 67.7182C53.5025 67.6754 53.4569 67.6436 53.4052 67.6267C53.3535 67.6098 53.2979 67.6086 53.2456 67.6233C53.1932 67.638 53.1464 67.6679 53.1111 67.7092C53.0877 67.7366 53.0698 67.7684 53.0587 67.8027C53.0475 67.837 53.0432 67.8732 53.046 67.9092C53.0489 67.9452 53.0588 67.9803 53.0751 68.0125C53.0915 68.0446 53.1141 68.0733 53.1416 68.0968Z" fill="white"/>
<path d="M30.1747 62.069C30.1196 62.0211 30.0478 61.9971 29.975 62.0022C29.9023 62.0072 29.8346 62.041 29.7868 62.096C29.739 62.151 29.7151 62.2228 29.7202 62.2955C29.7254 62.3682 29.7592 62.436 29.8143 62.4838C29.8694 62.5317 29.9412 62.5557 30.014 62.5506C30.0867 62.5456 30.1544 62.5118 30.2022 62.4568C30.25 62.4018 30.2739 62.33 30.2688 62.2573C30.2636 62.1846 30.2298 62.1168 30.1747 62.069Z" fill="white"/>
<path d="M26.8809 76.1346C25.051 75.9132 23.3965 77.2123 23.0913 79.1062L23.0845 79.114L23.3424 79.1546L23.5825 79.1936C23.8377 77.5655 25.2584 76.4409 26.8151 76.6329C28.4426 76.8317 29.437 78.4754 29.3468 79.8883L29.61 79.9008L29.8485 79.9164C29.9593 78.2779 28.7891 76.3666 26.8809 76.1346Z" fill="white"/>
<path d="M96.9703 37.6706L72.7175 22.2595L72.4488 22.6855L96.6942 38.0957L96.7002 38.0982L96.9137 37.761L96.9467 37.7103L96.9703 37.6706Z" fill="#5977BA"/>
<path d="M95.7684 39.5052L95.8006 39.525L96.0693 39.0989L96.0448 39.083L71.818 23.6862L71.5463 24.1125L71.5571 24.1191L95.7684 39.5052Z" fill="#5977BA"/>
<path d="M7.62861 66.988C7.9363 67.6803 8.40565 68.2888 8.99719 68.7624C10.4087 69.8408 12.9493 69.5057 13.0086 67.3681C12.9993 66.8252 12.8972 66.2877 12.7068 65.7788C12.0814 63.8428 11.8093 61.9291 12.429 59.9445C12.743 58.9863 13.2451 58.1005 13.9058 57.3391C14.5337 56.5847 15.4209 55.9544 15.9644 55.1459C16.3949 54.502 16.0715 53.827 15.2557 54.0186C13.5673 54.4525 12.0054 55.2781 10.6965 56.4284C9.49194 57.4437 8.50942 58.6961 7.80998 60.1078C6.79988 62.2075 6.60516 64.8321 7.62861 66.988Z" fill="#F6F6F6"/>
<path d="M70.354 58.5174C69.8048 58.7679 69.2834 59.0753 68.7984 59.4345C68.1734 59.8985 67.1059 60.6322 67.0034 61.5009L66.9971 61.6596C67.0196 62.2646 67.6581 62.5074 68.1568 62.4316C68.7119 62.3446 69.1465 61.9232 69.5561 61.562C70.2321 60.9699 70.9117 60.3863 71.7568 60.0506C72.8304 59.6125 74.0057 59.4845 75.1493 59.6811C75.9763 59.833 76.8199 60.0952 77.635 60.182C77.9584 60.2167 78.739 60.2927 78.652 59.7903C78.5241 59.0417 76.635 58.4186 76.0348 58.2201C75.2185 57.9533 74.365 57.8188 73.5065 57.8217C73.2574 57.8215 73.0091 57.8329 72.7603 57.8576C71.9276 57.9456 71.1149 58.1685 70.354 58.5174Z" fill="white"/>
</g>
<defs>
<clipPath id="clip0_7_141">
<rect width="61" height="86" fill="white" transform="translate(56.3974) rotate(40.9791)"/>
</clipPath>
</defs>
</svg>
