<svg width="94" height="92" viewBox="0 0 94 92" fill="none" xmlns="http://www.w3.org/2000/svg">
<g clip-path="url(#clip0_7_10)">
<path d="M48.2246 44.2913L48.2681 44.2698L48.3605 44.227L48.5272 44.1475C48.3424 44.2331 48.1491 44.3238 47.959 44.4064L48.149 44.3265L48.2246 44.2913Z" fill="#FCC10A"/>
<path d="M55.1148 38.799C55.0006 38.9299 54.8837 39.058 54.7695 39.1862L54.8353 39.1258C54.9202 39.0088 55.0169 38.9018 55.1148 38.799Z" fill="#FCC10A"/>
<path d="M48.9241 43.9488C49.0686 43.8739 49.2146 43.7977 49.358 43.7186C49.1415 43.8385 48.9198 43.9527 48.6969 44.0627L48.9241 43.9488Z" fill="#FCC10A"/>
<path d="M65.2076 25.9186C64.7671 26.4968 64.3217 27.0716 63.8715 27.643C64.3155 27.0686 64.7608 26.4938 65.2076 25.9186Z" fill="#FCC10A"/>
<path d="M65.734 57.6589C66.2989 58.0916 66.9359 58.6833 66.8673 59.0996C66.7987 59.5159 66.1358 59.2463 65.871 59.1382C65.1894 58.857 64.5379 58.4304 63.8643 58.0974C62.9166 57.6376 61.8654 57.4291 60.8113 57.4917C59.9806 57.533 59.221 57.8129 58.4598 58.0995C58.0053 58.2699 57.5006 58.4889 56.9916 58.416C56.6271 58.36 56.2575 58.1175 56.1975 57.785C54.1106 58.4173 52.047 59.4628 50.5106 60.9284C48.9241 62.4399 47.7887 64.5642 47.1624 66.6409C46.68 68.2428 46.5393 70.0682 47.208 71.5734L47.5201 71.5492C47.806 71.528 48.092 71.5069 48.3796 71.4789C49.0894 71.4148 49.7968 71.3251 50.5017 71.2097C51.5142 71.0446 52.5152 70.8138 53.4983 70.5187C53.644 70.4768 53.7858 70.4333 53.9277 70.387C54.3207 70.2625 54.7121 70.1219 55.102 69.9653C60.1773 67.9611 64.0938 63.9399 67.6897 59.7701C68.0879 59.3084 68.4848 58.8425 68.8734 58.3791C68.8004 58.2679 68.7246 58.1593 68.6447 58.052C68.0188 58.0484 67.3948 57.9884 66.7803 57.8729C66.4298 57.8093 66.0798 57.7347 65.734 57.6589Z" fill="#FCC10A"/>
<path d="M67.5616 22.8895L67.2995 23.2239C67.386 23.1028 67.4743 23.001 67.5616 22.8895Z" fill="#FCC10A"/>
<path d="M65.9844 24.9108C65.7233 25.2444 65.4645 25.5776 65.208 25.9104C65.3361 25.7458 65.4644 25.5785 65.5912 25.4152C65.7179 25.2519 65.8573 25.0823 65.9844 24.9108Z" fill="#FCC10A"/>
<path d="M58.6268 34.4025C58.3545 34.7515 58.0834 35.102 57.8082 35.4537L57.1046 36.3603C57.3405 36.0586 57.575 35.7564 57.8082 35.4537C58.0834 35.102 58.3545 34.7515 58.6268 34.4025Z" fill="#FCC10A"/>
<path d="M32.7106 71.3554L32.8377 71.362L32.7802 71.3596L32.7106 71.3554Z" fill="#FCC10A"/>
<path d="M59.0551 33.8502L58.8934 34.0586L59.0551 33.8502Z" fill="#FCC10A"/>
<path d="M27.0548 45.8656L26.7769 45.8611L26.7782 45.8625L27.0548 45.8656Z" fill="#FCC10A"/>
<path d="M28.0869 45.8832C27.8365 45.877 27.5861 45.8709 27.3341 45.8688L28.0869 45.8832Z" fill="#FCC10A"/>
<path d="M30.617 45.947L30.8904 45.9582C30.0989 45.9313 29.3091 45.909 28.5208 45.8913L28.3785 45.8882L28.5208 45.8913C29.2205 45.9081 29.9192 45.9267 30.617 45.947Z" fill="#FCC10A"/>
<path d="M20.5725 45.9496L20.4777 45.9553L20.5738 45.951L20.5725 45.9496Z" fill="#FCC10A"/>
<path d="M5.00564 55.6024C5.81226 58.9813 8.2326 61.947 11.2352 63.6983C13.4415 64.9857 15.5223 63.3013 16.8078 61.5446C18.6143 59.0184 19.7478 56.0764 20.101 52.9974C20.3508 51.0046 20.1105 48.9835 19.4009 47.1096C19.2582 46.745 19.0823 46.3944 18.8754 46.0623C18.0081 46.124 17.1402 46.1994 16.2723 46.3036C13.7985 46.5941 11.3011 47.0685 9.08697 48.2283C6.65116 49.5024 5.23001 51.2891 4.63169 53.2642C4.68602 54.0536 4.81118 54.8361 5.00564 55.6024ZM11.9562 48.0075C13.3087 47.5109 14.7576 47.3403 16.185 47.5094C16.8712 47.6005 16.9154 48.2145 16.3915 48.582C15.7317 49.0454 14.8624 49.2686 14.1537 49.6615C13.4179 50.0525 12.7664 50.5854 12.2372 51.2293C11.1681 52.573 10.795 54.1218 10.7023 55.7985C10.6951 56.2457 10.6116 56.6888 10.4553 57.1087C9.75681 58.7333 7.71697 58.2307 6.95096 56.9927C6.63937 56.453 6.46131 55.8461 6.43152 55.2225C6.28815 53.2594 7.2321 51.3053 8.63707 49.9863C9.5971 49.1067 10.7269 48.4331 11.9562 48.0075Z" fill="#FCC10A"/>
<path d="M25.154 45.8508L24.7868 45.8522L25.1526 45.8521L25.154 45.8508Z" fill="#FCC10A"/>
<path d="M44.2699 45.5278C43.992 45.5836 43.7142 45.6366 43.434 45.6812C43.6285 45.6522 43.8205 45.6176 44.0112 45.5816L44.2699 45.5278Z" fill="#FCC10A"/>
<path d="M45.1125 45.3473L45.4091 45.2745L45.448 45.2624C45.1998 45.3276 44.949 45.3871 44.6972 45.4426L44.8341 45.4139L45.1125 45.3473Z" fill="#FCC10A"/>
<path d="M51.7974 42.0722L51.8531 42.0238L51.9172 41.9703L51.732 42.1243L51.7974 42.0722Z" fill="#F3A803"/>
<path d="M50.6919 42.8994C50.5617 42.9899 50.4274 43.0789 50.2932 43.1679L50.2043 43.2232L50.2932 43.1679C50.4246 43.0816 50.5602 42.9912 50.6919 42.8994Z" fill="#F3A803"/>
<path d="M55.7486 38.0401L55.3703 38.489C55.4818 38.3579 55.5934 38.2269 55.7036 38.0945L55.7486 38.0401Z" fill="#F3A803"/>
<path d="M46.9904 44.7914C46.8454 44.8457 46.698 44.8944 46.5467 44.9362C46.3424 45.0004 46.1302 45.0561 45.9284 45.1232C46.1367 45.0632 46.345 45.0033 46.5467 44.9362C46.7038 44.8865 46.8499 44.839 46.9904 44.7914Z" fill="#F3A803"/>
<path d="M53.8943 40.1296C53.6683 40.3655 53.4385 40.5944 53.2077 40.8164L53.3936 40.646C53.5671 40.4792 53.7273 40.3036 53.8943 40.1296Z" fill="#F3A803"/>
<path d="M23.0542 70.4315C23.3504 70.4847 23.6441 70.5324 23.9392 70.5787L23.9787 70.5844L23.942 70.5788C23.6454 70.5338 23.3491 70.4833 23.0542 70.4315Z" fill="#F3A803"/>
<path d="M34.2439 46.0502C34.4068 46.0528 34.5681 46.0594 34.731 46.0619C34.5681 46.0594 34.4068 46.0528 34.2426 46.0488L33.9375 46.0404C33.3905 46.018 32.854 46.007 32.3123 45.9903C32.8592 46.0127 33.3957 46.0237 33.9388 46.0418L34.2439 46.0502Z" fill="#F3A803"/>
<path d="M25.8977 45.8552L25.8909 45.8536L25.8485 45.8532L25.8909 45.8536L25.8977 45.8552Z" fill="#F3A803"/>
<path d="M39.7814 46.044L40.1082 46.0272C40.3472 46.0151 40.5876 45.9989 40.8268 45.9813C40.5834 46.0029 40.3472 46.0151 40.1082 46.0272L39.7814 46.044C39.5288 46.0556 39.2736 46.0643 39.0184 46.073C38.8414 46.0781 38.666 46.0792 38.4962 46.0777L39.0197 46.0745C39.2746 46.0712 39.5298 46.0625 39.7814 46.044Z" fill="#F3A803"/>
<path d="M42.0676 71.6424L42.0813 71.643L42.418 71.6486L42.084 71.6431L42.0676 71.6424Z" fill="#F3A803"/>
<path d="M60.3108 32.2334C60.5906 31.8724 60.8688 31.5153 61.1471 31.1555C60.8688 31.5153 60.5906 31.8724 60.3094 32.2347C60.1053 32.5003 59.8986 32.763 59.6917 33.0312C59.4847 33.2994 59.3042 33.5303 59.1105 33.7785C59.3029 33.5289 59.498 33.2794 59.693 33.0327C59.888 32.7859 60.1068 32.499 60.3108 32.2334Z" fill="#F3A803"/>
<path d="M56.3541 37.302L56.4559 37.1747C56.3311 37.3258 56.2163 37.4676 56.0971 37.6161C56.1799 37.5141 56.264 37.4134 56.3454 37.3126L56.3541 37.302Z" fill="#F3A803"/>
<path d="M66.8275 23.8319L66.8376 23.8227C66.6948 24.0059 66.5548 24.1891 66.4122 24.3696C66.5449 24.1956 66.6852 24.0068 66.8275 23.8319Z" fill="#F3A803"/>
<path d="M31.5978 71.3044L31.852 71.3175C32.1333 71.3372 32.4234 71.3436 32.7106 71.3554L32.7802 71.3596L32.038 71.3251L31.8549 71.3149L31.5978 71.3044Z" fill="#F3A803"/>
<path d="M48.6405 44.096L48.7051 44.0631L48.5315 44.1436L48.3648 44.2231C48.4529 44.1842 48.548 44.1415 48.6405 44.096Z" fill="#F3A803"/>
<path d="M48.1448 44.3278L47.9548 44.4076L47.7661 44.4889L47.8429 44.4578C47.9477 44.4142 48.047 44.3703 48.1448 44.3278Z" fill="#F3A803"/>
<path d="M45.5205 45.2352C45.6508 45.2022 45.7772 45.1649 45.9063 45.1278C45.7508 45.1734 45.5955 45.2136 45.4402 45.2539L45.4012 45.266L45.5205 45.2352Z" fill="#F3A803"/>
<path d="M27.3325 45.8728C27.6255 45.8766 27.9185 45.8813 28.2114 45.8869L28.5208 45.8913C29.2205 45.9081 29.9197 45.9262 30.6184 45.9457C29.9188 45.9253 29.2196 45.9072 28.5208 45.8913L28.3785 45.8883L28.2128 45.8856L28.0869 45.8832L27.3327 45.8701L27.3325 45.8728Z" fill="#F3A803"/>
<path d="M44.9713 45.3798L45.0448 45.3596L45.1086 45.343L44.8302 45.4097L44.9713 45.3798Z" fill="#F3A803"/>
<path d="M67.3009 23.2253C67.7015 22.7089 68.1034 22.194 68.5085 21.6709L68.762 21.3444L68.5085 21.6709C68.1909 22.0798 67.8778 22.4819 67.5631 22.8882C67.4757 22.9996 67.3869 23.1124 67.3023 23.224L67.3009 23.2253Z" fill="#F3A803"/>
<path d="M49.0304 43.9011C49.1595 43.8351 49.2901 43.7651 49.418 43.695C49.5459 43.625 49.6489 43.5621 49.7615 43.4954L49.7758 43.4823C49.6561 43.5528 49.5364 43.6232 49.4141 43.6908L49.3593 43.72C49.216 43.7991 49.07 43.8753 48.9254 43.9502L49.0304 43.9011Z" fill="#F3A803"/>
<path d="M23.9537 45.8565C24.125 45.8539 24.2977 45.8527 24.4732 45.849C24.7007 45.8473 24.9295 45.8471 25.1569 45.8482L24.7911 45.8483L24.4719 45.8475L23.9537 45.8565L23.7905 45.8594C23.0495 45.8665 22.3076 45.8831 21.5648 45.9094C22.3607 45.8817 23.1569 45.864 23.9537 45.8565Z" fill="#F3A803"/>
<path d="M54.1147 39.8962L54.0181 40.0005L53.9505 40.0703L54.0181 40.0005L54.1147 39.8962Z" fill="#F3A803"/>
<path d="M25.8668 70.8439L25.9716 70.8577L26.0862 70.8679L25.9703 70.8563L25.8668 70.8439Z" fill="#F3A803"/>
<path d="M27.6554 71.0321L27.8 71.0462L28.0591 71.0705L28.7483 71.1275L28.5138 71.1042C28.2271 71.0815 27.9405 71.0588 27.6554 71.0321Z" fill="#F3A803"/>
<path d="M46.1129 63.2123L46.0963 63.2459C46.0006 63.4488 45.9103 63.6519 45.8269 63.8567L45.8097 63.9012C45.7293 64.1006 45.654 64.3057 45.586 64.5015L45.5591 64.5812C45.4969 64.769 45.4348 64.9568 45.3848 65.1493L45.3481 65.2902C45.3046 65.461 45.2625 65.6305 45.2259 65.8002L45.1793 66.0366C45.1522 66.1793 45.125 66.322 45.1048 66.4636L45.0646 66.8277L45.0276 67.1233C45.0118 67.3473 45.0014 67.5715 45.0021 67.7934L45.0112 68.1595C45.0565 69.372 45.3703 70.558 45.9299 71.632C45.698 71.6404 45.4649 71.6445 45.2331 71.6501C45.4649 71.6445 45.698 71.6404 45.9299 71.632C46.347 71.619 46.7657 71.5991 47.1864 71.567L47.207 71.5665C46.5423 70.0629 46.683 68.2375 47.1614 66.6341C47.7891 64.556 48.9231 62.433 50.5096 60.9215C52.046 59.4559 54.1083 58.409 56.1965 57.7781L56.2163 57.4982L56.2685 57.377C56.6086 56.7171 57.7497 56.4228 58.4276 56.2204C59.6943 55.8387 61.0333 55.7708 62.3287 56.0226C63.3062 56.2244 64.2334 56.6164 65.0576 57.1765C65.2078 57.2772 65.4601 57.4491 65.7301 57.6547C66.0759 57.7304 66.4246 57.8036 66.7777 57.8701C67.3922 57.9856 68.0162 58.0455 68.6421 58.0491L68.6212 58.0264L68.5495 57.9481C68.4824 57.8577 68.4125 57.7699 68.3412 57.6835L68.2721 57.608C68.1808 57.5084 68.0908 57.4102 68.0008 57.3121L67.9839 57.2936C67.8835 57.184 67.7759 57.081 67.6683 56.978L67.637 56.9438C67.5438 56.8564 67.449 56.7731 67.3541 56.6926L67.2698 56.6206C67.1866 56.5528 67.1035 56.4851 67.0187 56.4213L66.921 56.3434L66.7047 56.1907L66.5508 56.0831C66.4272 55.9999 66.3049 55.921 66.1769 55.8445L65.966 55.7236C65.0565 55.2162 64.0743 54.8505 63.0531 54.6388C62.6815 54.5573 62.3057 54.4953 61.9274 54.453L61.637 54.4233L61.6027 54.4233L61.3436 54.399C60.7874 54.3585 60.229 54.3525 59.6717 54.3813L59.5743 54.3841C58.4117 54.4544 57.2602 54.6568 56.1421 54.9874L56.0936 55.0004C55.9505 55.0425 55.8129 55.0848 55.6684 55.1282C55.4515 55.1988 55.2341 55.2775 55.0179 55.3605L54.7656 55.4556C54.5451 55.5424 54.3259 55.6307 54.1077 55.7286C53.6225 55.9402 53.1375 56.1779 52.658 56.4445C52.5188 56.5223 52.3767 56.6028 52.2387 56.6848C50.7699 57.5487 49.4424 58.6336 48.3033 59.9012C48.1198 60.106 47.9458 60.3125 47.7787 60.5207L47.6736 60.6589C47.5396 60.8314 47.4069 61.0054 47.2823 61.1825L47.1384 61.3902C47.0665 61.4928 46.9959 61.5967 46.9281 61.7008C46.8071 61.8876 46.6916 62.0746 46.5814 62.2646C46.5115 62.3836 46.4497 62.5057 46.3853 62.6249C46.3081 62.8135 46.2084 63.0122 46.1129 63.2123Z" fill="#F3A803"/>
<path d="M65.5951 25.4195C65.7261 25.2523 65.8573 25.0823 65.9883 24.9151C65.8573 25.0823 65.7261 25.2523 65.5951 25.4195Z" fill="#F3A803"/>
<path d="M57.0188 36.4678C57.2837 36.1307 57.5473 35.7932 57.8095 35.4551C58.2303 34.9176 58.6441 34.384 59.0564 33.8517L58.8947 34.0601C58.8045 34.1742 58.7156 34.2897 58.6281 34.4039C58.3558 34.7529 58.0847 35.1034 57.8108 35.4565C57.575 35.7564 57.3405 36.0586 57.1072 36.3632L56.7406 36.8248C56.8351 36.7068 56.931 36.5874 57.0242 36.468L57.0188 36.4678Z" fill="#F3A803"/>
<path d="M20.1067 52.9922C19.7527 56.0735 18.6171 59.0175 16.8078 61.5446C15.5236 63.3027 13.4358 64.9909 11.2295 63.7036C8.22687 61.9522 5.80652 58.9866 4.99991 55.6076C4.80828 54.8381 4.68647 54.0524 4.63596 53.2603L4.62309 53.2721C4.58718 53.3966 4.55271 53.5198 4.52227 53.6446L4.46788 53.8725L4.41783 54.1252L4.3694 54.4313L4.32956 54.7297L4.30929 54.9603L4.29663 55.2337L4.28978 55.5594L4.29016 55.847L4.29867 56.0775L4.32185 56.3756L4.35572 56.6797L4.39439 56.9689L4.43609 57.1925C4.45787 57.3139 4.48238 57.4354 4.50689 57.5569L4.56412 57.8003L4.64199 58.1007L4.7023 58.3073C4.74494 58.4515 4.79044 58.593 4.83439 58.7386L4.89634 58.9096L5.01864 59.2269L5.09115 59.4065C5.1502 59.5514 5.21485 59.6937 5.28079 59.8375L5.35848 59.9941C5.41085 60.1058 5.46738 60.2163 5.52391 60.3268L5.60315 60.4794C5.68278 60.6237 5.76383 60.7667 5.84904 60.9085L5.93557 61.0518L6.05823 61.243L6.15258 61.3948L6.23452 61.5187C6.32937 61.6595 6.42838 61.7992 6.53014 61.9389L6.62954 62.0704C6.7159 62.1876 6.80512 62.3022 6.89577 62.4155L6.98053 62.508C7.09205 62.644 7.20642 62.7774 7.32353 62.911L7.43698 63.0348C7.54261 63.15 7.64694 63.2639 7.75126 63.3777L7.82037 63.4531C7.94035 63.584 8.07593 63.7033 8.20579 63.8277L8.33721 63.9482C8.45819 64.0572 8.58048 64.1677 8.70576 64.2728L8.74879 64.3197L8.80419 64.3658C10.4337 65.7041 12.2312 66.8245 14.1515 67.6991C14.3128 67.588 14.4702 67.4725 14.6191 67.3649L14.7837 67.2402C14.8869 67.1613 14.985 67.0845 15.078 67.0098L15.2658 66.8586C15.3502 66.7813 15.4439 66.7111 15.5323 66.6353L15.7126 66.4701C15.8142 66.377 15.9172 66.2826 16.0202 66.1882C16.1232 66.0939 16.2219 66.0034 16.3235 65.9103L16.5223 65.7281C16.6039 65.6533 16.6854 65.5786 16.7565 65.4925L16.9134 65.3304C17.0006 65.2505 17.0747 65.159 17.1555 65.0719L17.2752 64.9412C17.5656 64.6175 17.8452 64.288 18.1103 63.9482L18.18 63.8634C18.263 63.7558 18.3448 63.6469 18.4266 63.5379L18.5026 63.4342C18.5845 63.3225 18.6664 63.2108 18.7442 63.0976L18.7766 63.0496C19.0304 62.6861 19.2667 62.3177 19.4879 61.9474C19.8505 61.3428 20.1746 60.7161 20.4584 60.071C21.3149 58.0609 21.8058 55.9158 21.9079 53.737L21.9217 53.35C21.9552 52.202 21.8669 51.0543 21.6583 49.9261C21.3779 48.5775 21.0168 47.2474 20.5769 45.9429L20.4808 45.9472C19.948 45.9747 19.4164 46.0063 18.8831 46.0448C19.09 46.3769 19.2659 46.7275 19.4086 47.0921C20.1195 48.9699 20.3592 50.9955 20.1067 52.9922Z" fill="#F3A803"/>
<path d="M21.8064 70.1901L21.6111 70.1492L22.0914 70.2483L21.8064 70.1901Z" fill="#E94933"/>
<path d="M70.9173 18.5838C70.7951 18.7377 70.6872 18.8784 70.5736 19.0244L70.9159 18.5851L70.9173 18.5838Z" fill="#E94933"/>
<path d="M73.7178 35.5008C74.0343 34.7289 74.3194 33.9572 74.5812 33.1859L65.9844 24.9109C65.8534 25.0781 65.7222 25.248 65.5912 25.4152C65.4601 25.5824 65.3361 25.7458 65.2079 25.9104C64.7655 26.4903 64.3202 27.0652 63.8719 27.6348L73.7178 35.5008Z" fill="#E94933"/>
<path d="M28.7483 71.1275L28.9995 71.146L28.5138 71.1042L28.7483 71.1275Z" fill="#E94933"/>
<path d="M40.2807 64.6117C41.6141 64.2857 42.9305 63.892 44.2245 63.4323L43.432 45.725L43.4244 45.6822C43.1027 45.7362 42.7786 45.7818 42.4548 45.822L42.3404 45.8378C42.0168 45.8725 41.6947 45.9059 41.3769 45.9354C41.2199 45.9536 41.062 45.9622 40.9065 45.9764L40.8227 45.9825C40.5792 46.0041 40.343 46.0163 40.1041 46.0285L39.7772 46.0452C39.5246 46.0568 39.2694 46.0655 39.0155 46.0757L38.4921 46.0789C38.3495 46.0813 38.2057 46.0795 38.0698 46.0863C38.226 46.0844 38.3823 46.0826 38.5359 46.078L40.2807 64.6117Z" fill="#E94933"/>
<path d="M60.3609 32.1588L71.1307 40.7514C71.5434 40.0242 71.9327 39.3001 72.2985 38.5791L62.5646 29.3303C62.7788 29.0528 62.9929 28.7781 63.2057 28.5019C62.7861 29.0436 62.3655 29.5861 61.944 30.1294C61.6803 30.4679 61.4152 30.8104 61.1514 31.1516C60.8877 31.4928 60.5949 31.8684 60.3152 32.2295L60.3609 32.1588Z" fill="#E94933"/>
<path d="M29.9105 71.2066C29.7233 71.1948 29.5388 71.1859 29.3531 71.1728C29.5388 71.1859 29.7233 71.1948 29.9105 71.2066Z" fill="#E94933"/>
<path d="M32.2606 65.5997C33.6489 65.605 35.0366 65.5167 36.4141 65.3355L36.3981 46.0946C36.9579 46.1051 37.5142 46.1032 38.0707 46.0959C36.9645 46.1095 35.8544 46.0901 34.7611 46.0632L34.731 46.0619C34.5681 46.0594 34.4067 46.0528 34.2438 46.0502L33.9387 46.0418C33.3918 46.0195 32.854 46.007 32.3123 45.9903L31.2184 45.9456C31.8184 45.9665 32.4212 45.9848 33.0269 46.0004L32.2606 65.5997Z" fill="#E94933"/>
<path d="M53.1994 40.8161C53.0406 40.9616 52.8833 41.1059 52.7324 41.2572C52.8908 41.1199 53.0483 40.9729 53.1994 40.8161Z" fill="#E94933"/>
<path d="M62.9883 51.334C63.7985 50.5235 64.5697 49.6963 65.3115 48.8542L55.676 38.1303L55.7117 38.0975C55.6015 38.23 55.4899 38.361 55.3784 38.492C55.3031 38.5793 55.2291 38.6681 55.1524 38.7567L55.1109 38.7947C55.0169 38.9018 54.9202 39.0088 54.8262 39.1159L54.7604 39.1762C54.5465 39.4167 54.3286 39.6557 54.1037 39.8958L54.0071 40L53.9356 40.0656L53.9027 40.0957L53.8755 40.1206C53.7085 40.2946 53.5403 40.4671 53.3655 40.6325L62.9883 51.334Z" fill="#E94933"/>
<path d="M67.3008 23.2253L75.5459 29.8068C75.7116 29.0973 75.8539 28.3909 75.9728 27.6877L75.6177 27.3978L75.4103 27.2319L73.436 25.6376L72.7929 25.1196L70.9018 23.5932L70.5068 23.2771L70.2744 23.0895L68.51 21.6669L69.9852 19.7783C69.7333 20.1008 69.4828 20.422 69.2286 20.7335L68.7566 21.3414L68.5031 21.668C68.0982 22.1883 67.7015 22.7089 67.3008 23.2253Z" fill="#E94933"/>
<path d="M56.17 54.9776C57.2881 54.6469 58.4396 54.4446 59.6022 54.3743L51.7974 42.0722L51.7359 42.1286C51.5395 42.2876 51.3378 42.441 51.1336 42.5915C50.9889 42.6979 50.8444 42.8015 50.6958 42.9037C50.5473 43.0058 50.4299 43.0845 50.2971 43.1722L50.2082 43.2275C50.067 43.3176 49.926 43.4049 49.7824 43.4894L49.7681 43.5026L56.17 54.9776Z" fill="#E94933"/>
<path d="M48.3353 59.8902C49.4745 58.6226 50.802 57.5377 52.2707 56.6738L47.8497 44.4595L47.7729 44.4906C47.516 44.5951 47.2619 44.697 46.9959 44.7916C46.8482 44.8458 46.7021 44.8932 46.5522 44.9364C46.3491 45.0021 46.1356 45.0563 45.9339 45.1234L45.9089 45.1306C45.7798 45.1678 45.6534 45.2051 45.5231 45.2381L48.3353 59.8902Z" fill="#E94933"/>
<path d="M26.5043 45.8595C26.303 45.8581 26.1004 45.8553 25.8977 45.8552C26.0964 45.8538 26.3003 45.858 26.5043 45.8595Z" fill="#E94933"/>
<path d="M25.8513 45.8506C25.676 45.8489 25.5035 45.8473 25.3265 45.8524C25.5155 45.8537 25.704 45.8555 25.8921 45.8577L25.8513 45.8506Z" fill="#E94933"/>
<path d="M28.5208 45.8913L28.2128 45.8856C27.9209 45.8791 27.6279 45.8744 27.334 45.8715L23.2377 63.8937C24.8274 64.5466 26.4892 65.0104 28.1891 65.2755L30.8878 45.9553L31.2107 45.9631L30.8796 45.955L30.6061 45.9438C29.9137 45.9273 29.2186 45.9099 28.5208 45.8913Z" fill="#E94933"/>
<path d="M59.0564 33.8517C58.6441 34.384 58.2303 34.9176 57.8095 35.4551C57.5473 35.7932 57.2837 36.1307 57.0187 36.4678L67.6506 45.9984C68.2787 45.175 68.8725 44.3428 69.432 43.502L59.0564 33.8517Z" fill="#E94933"/>
<path d="M21.6552 49.9342C21.8638 51.0624 21.9521 52.2101 21.9186 53.3581L21.9048 53.7451C21.8028 55.921 21.3129 58.0632 20.4584 60.071C20.1777 60.7155 19.8568 61.3419 19.4976 61.9464L19.5497 61.8568C19.6996 61.9629 19.8496 62.0663 20.0025 62.1671C20.1553 62.2678 20.3099 62.3618 20.4643 62.4585L25.1609 45.8497C24.9336 45.8486 24.7048 45.8488 24.4773 45.8505C24.306 45.8503 24.1334 45.8515 23.9577 45.858C23.1619 45.8647 22.3657 45.8823 21.5689 45.9109L21.4633 45.9134C21.1669 45.9232 20.8677 45.9356 20.5713 45.9454C21.0123 47.2517 21.3743 48.5837 21.6552 49.9342Z" fill="#E94933"/>
<path d="M42.0676 71.6424L42.084 71.6431L42.4166 71.6499L43.2187 71.6635L43.4804 71.6619C43.8516 71.6648 44.2218 71.658 44.5946 71.6541L44.2284 63.4365C42.9344 63.8963 41.618 64.2899 40.2846 64.616L40.9439 71.6197L40.8276 71.6164L41.7785 71.6429L42.0676 71.6424Z" fill="#E23D26"/>
<path d="M44.9669 71.6611L45.2518 71.6618C45.4836 71.6562 45.7167 71.6521 45.9486 71.6438C45.6143 71.6438 45.2838 71.6508 44.9669 71.6611Z" fill="#E23D26"/>
<path d="M32.8376 71.362C34.03 71.4108 35.2236 71.4514 36.4185 71.4839L36.7236 71.4922L38.7537 71.5534L40.8276 71.6164L40.4802 71.6049L36.4199 71.4825L36.4141 65.3355C35.0366 65.5167 33.6489 65.605 32.2606 65.5997L32.0379 71.3251L32.7802 71.3596L32.8376 71.362Z" fill="#E23D26"/>
<path d="M23.0502 70.43C23.3451 70.4818 23.6414 70.5323 23.9379 70.5773L23.9747 70.5829C24.2575 70.6273 24.5391 70.6704 24.8236 70.7108L25.104 70.7496C25.356 70.7805 25.608 70.8113 25.8614 70.8409L25.965 70.8533L26.0809 70.8649C26.5127 70.9169 26.9462 70.9647 27.3785 71.0057L28.1809 65.2752C26.481 65.0101 24.8192 64.5463 23.2295 63.8934L21.7944 70.1828L22.0767 70.2409C22.4041 70.3109 22.7286 70.3739 23.0502 70.43Z" fill="#E23D26"/>
<path d="M14.2077 67.7288C14.3176 67.7799 14.4276 67.831 14.5404 67.8794L14.8531 68.0196L15.217 68.1783L15.2587 68.1951L15.2883 68.2072L15.3273 68.2239L15.4926 68.2923L15.5209 68.303C15.6996 68.3775 15.884 68.4494 16.067 68.5199L16.2984 68.6115C16.6633 68.7483 17.0284 68.8824 17.3967 69.0057C17.5261 69.0494 17.6569 69.0944 17.7823 69.1393C17.9885 69.2121 18.186 69.2667 18.3872 69.3284L18.498 69.3631L20.4586 62.4638C20.3042 62.367 20.1469 62.273 19.9967 62.1723C19.8466 62.0717 19.6938 61.9682 19.5439 61.862L19.4918 61.9517C19.2706 62.322 19.0343 62.6904 18.7805 63.0539L18.7481 63.1018C18.6703 63.2151 18.5884 63.3268 18.5065 63.4385L18.4305 63.5422C18.3487 63.6512 18.267 63.7601 18.1839 63.8677L18.1142 63.9525C17.8491 64.2922 17.5695 64.6218 17.2791 64.9455L17.1594 65.0762C17.0721 65.1562 16.9993 65.249 16.9173 65.3347L16.7604 65.4968C16.6789 65.5715 16.6052 65.6548 16.5262 65.7323L16.3274 65.9146C16.2258 66.0077 16.1257 66.0994 16.0241 66.1925C15.9225 66.2856 15.8181 66.3813 15.7165 66.4744L15.5362 66.6396C15.4504 66.7183 15.3646 66.7969 15.2697 66.8629L15.0819 67.0141C14.9813 67.0958 14.8832 67.1726 14.7877 67.2445L14.623 67.3692C14.4656 67.4846 14.3082 67.6001 14.1554 67.7034L14.2077 67.7288Z" fill="#E23D26"/>
<path d="M59.6996 54.3714C60.2569 54.3427 60.8153 54.3486 61.3715 54.3892C61.1381 54.3701 60.9017 54.3563 60.6608 54.3519C60.3432 54.3471 60.0237 54.3546 59.6996 54.3714Z" fill="#E23D26"/>
<path d="M69.3742 57.7997L71.2951 55.5157L65.3088 48.8514C64.5671 49.6935 63.7959 50.5207 62.9857 51.3312L69.0892 58.1263C69.0182 58.2097 68.9459 58.2917 68.8721 58.3777C69.0424 58.1902 69.209 57.9956 69.3742 57.7997Z" fill="#E23D26"/>
<path d="M76.615 49.2031L77.292 48.3995L76.1583 49.7474L69.4352 43.4939C68.873 44.3337 68.2792 45.1659 67.6537 45.9904L74.2976 51.9448C74.1555 52.1143 74.0106 52.2836 73.8671 52.4544L73.6886 52.6704L76.615 49.2031Z" fill="#E23D26"/>
<path d="M79.4776 45.8127L84.0843 40.3475L83.166 41.4508L74.5812 33.1859C74.3155 33.9529 74.0369 34.7318 73.7178 35.5008L82.3579 42.3956L80.9822 44.0281L79.6863 45.5665L72.3123 38.5769C71.9452 39.3061 71.5559 40.0302 71.1445 40.7493L78.6775 46.7606L77.8119 47.7921L79.4238 45.8804L79.4776 45.8127Z" fill="#E23D26"/>
<path d="M87.1515 36.7093L85.8429 35.6518L85.4718 35.3531L85.1971 35.131L83.5411 33.795L83.1501 33.4804L82.8978 33.2797L81.2273 31.9307L80.7875 31.5772L80.5893 31.4184L78.6956 29.8891L78.6323 29.8372L77.9904 29.3206L76.049 27.7565L75.9724 27.6959C75.8578 28.3952 75.7155 29.1015 75.5455 29.815L85.963 38.1179L85.4598 38.7178L88.227 35.4358L87.1515 36.7093Z" fill="#E23D26"/>
<path d="M83.0861 28.5307C83.0068 28.5903 82.9335 28.6575 82.8672 28.7313C82.526 29.1474 82.3311 29.6637 82.3129 30.2001C82.2829 30.6413 82.2579 31.0621 81.9801 31.411C82.6026 31.9322 83.2107 32.4091 83.8063 32.8293L83.9423 32.6732C84.2263 32.2794 84.141 31.7555 84.2168 31.3012C84.2886 30.8011 84.5125 30.3345 84.8582 29.9646C85.0663 29.7779 85.3033 29.6261 85.5599 29.5154L83.8272 28.1187C83.5713 28.2374 83.3249 28.3756 83.0902 28.5323L83.0861 28.5307Z" fill="#FCC10A"/>
<path d="M77.7307 24.5451C77.3838 24.9622 77.1861 25.4825 77.1691 26.0232C77.1588 26.2303 77.1351 26.4366 77.098 26.6408C77.3054 26.867 77.514 27.0947 77.724 27.3238C78.1586 27.7981 78.5932 28.2551 79.0277 28.6947C79.2855 28.304 79.209 27.7955 79.2844 27.3521C79.3548 26.8513 79.5778 26.3836 79.9231 26.0127L79.9603 25.9786C80.1756 25.8026 80.4137 25.6566 80.6681 25.5446L80.8899 25.7263L81.2594 26.029C81.0022 26.1421 80.7563 26.2797 80.5253 26.44L80.3436 26.6065C80.0009 27.0241 79.805 27.5422 79.7863 28.0807C79.7623 28.4796 79.7378 28.8607 79.5281 29.1891C80.1663 29.8137 80.8022 30.4013 81.4277 30.946L81.5178 30.8346C81.8032 30.4395 81.7236 29.9103 81.7923 29.4625C81.8646 28.9627 82.0884 28.4962 82.4336 28.126L82.5094 28.0565C82.7309 27.8836 82.9738 27.7402 83.232 27.63L81.3284 26.0784L80.7299 25.6006L78.682 23.9404C78.4284 24.0606 78.1831 24.1979 77.9479 24.3513C77.8698 24.4093 77.7971 24.4742 77.7307 24.5451Z" fill="#FCC10A"/>
<path d="M85.2697 30.5745C84.926 30.9909 84.7304 31.5092 84.7138 32.0474C84.6854 32.4845 84.659 32.9066 84.3839 33.2556C85.0062 33.6857 85.6536 34.0785 86.3227 34.432C86.5321 34.0516 86.4692 33.5751 86.5378 33.1588C86.6074 32.6726 86.8213 32.2176 87.1517 31.8527L87.1803 31.8265C87.3764 31.6492 87.6002 31.5052 87.8426 31.4002L86.1387 30.0034C85.8833 30.1175 85.6417 30.2607 85.4189 30.43L85.2697 30.5745Z" fill="#FCC10A"/>
<path d="M72.8355 20.1456C72.7254 20.2148 72.6248 20.2982 72.5363 20.3936C73.0062 21.1935 73.5461 22.0469 74.1686 22.9243C74.2618 22.5074 74.4661 22.1229 74.7598 21.8117L74.817 21.7593C75.0345 21.5874 75.2732 21.4443 75.5272 21.3336L73.5802 19.7433C73.3367 19.8826 73.0742 19.9896 72.8411 20.1431L72.8355 20.1456Z" fill="#FCC10A"/>
<path d="M75.3788 22.2315L75.1785 22.415C74.8935 22.755 74.7122 23.1694 74.6561 23.6085C75.2492 24.408 75.9005 25.2249 76.6021 26.048C76.6318 25.7931 76.6305 25.5246 76.6707 25.2783C76.7414 24.7778 76.9649 24.3105 77.3107 23.9404L77.3894 23.8683C77.6115 23.6995 77.8531 23.558 78.1089 23.4471L76.1074 21.8203C75.8543 21.9373 75.6103 22.0734 75.3776 22.2273L75.3788 22.2315Z" fill="#FCC10A"/>
<path d="M87.6007 32.423C87.2579 32.8375 87.0611 33.3528 87.041 33.8889C87.0368 34.1703 86.9948 34.45 86.9162 34.7206C87.3855 34.943 87.877 35.1155 88.3829 35.2353L88.4329 35.1895L89.5666 33.8416L90.0869 33.226L88.4343 31.8764C88.1762 31.9905 87.9333 32.1366 87.7114 32.3111L87.6007 32.423Z" fill="#FCC10A"/>
<path d="M72.2505 19.6738C72.482 19.5191 72.7256 19.3834 72.9789 19.2681L71.3868 17.9702L71.3403 18.0286C71.5822 18.6144 71.8547 19.187 72.1568 19.7439L72.2505 19.6738Z" fill="#FCC10A"/>
<path d="M73.8328 24.5253C74.1182 24.1302 74.0386 23.601 74.1073 23.1532L74.1604 22.924C73.5379 22.0466 72.9923 21.1984 72.5281 20.3932L72.5095 20.4103C72.167 20.8273 71.9716 21.3452 71.9536 21.8831C71.923 22.3667 71.8962 22.8286 71.5326 23.1958C71.3535 23.3729 71.137 23.5078 70.8992 23.5903L72.7903 25.1168C73.2016 25.0648 73.5765 24.8521 73.8328 24.5253Z" fill="#F3A803"/>
<path d="M70.2729 23.0936C70.631 23.0196 70.951 22.8193 71.1744 22.5292C71.4584 22.1354 71.373 21.6115 71.4502 21.1586C71.5184 20.6573 71.7423 20.1893 72.0902 19.8206L72.1675 19.7498C71.8654 19.1929 71.5929 18.6203 71.351 18.0345L70.9241 18.5854L70.5818 19.0248L70.0795 19.6657L69.9935 19.7786L68.5153 21.6726L70.2729 23.0936Z" fill="#F3A803"/>
<path d="M88.2198 35.4423L88.3881 35.241C87.8823 35.1212 87.3907 34.9487 86.9214 34.7263C86.8617 34.9075 86.7607 35.0727 86.6265 35.2087C86.4092 35.4235 86.1387 35.5765 85.8429 35.6518L87.1515 36.7093L88.2198 35.4423Z" fill="#F3A803"/>
<path d="M86.2632 34.5336L86.3227 34.432C85.6536 34.0785 85.0062 33.6857 84.3839 33.2556L84.2941 33.3615C84.0827 33.5668 83.8226 33.715 83.5385 33.7921L85.1945 35.1281C85.4026 35.104 85.6042 35.0391 85.7876 34.937C85.971 34.835 86.1326 34.6979 86.2632 34.5336Z" fill="#F3A803"/>
<path d="M79.0099 28.7241L79.0356 28.7005C78.6003 28.26 78.1657 27.803 77.7319 27.3296C77.522 27.1005 77.3133 26.8728 77.106 26.6466C77.0623 26.908 76.9402 27.1505 76.756 27.3417C76.5569 27.5381 76.3132 27.6833 76.0459 27.7646L77.9873 29.3287C78.3938 29.2693 78.7613 29.052 79.0099 28.7241Z" fill="#F3A803"/>
<path d="M78.6284 29.833L78.6917 29.8849L80.5919 31.4213C80.9115 31.3568 81.2037 31.1951 81.4285 30.9583C80.803 30.4136 80.1671 29.8261 79.5289 29.2014L79.3702 29.4045C79.162 29.6065 78.9071 29.7537 78.6284 29.833Z" fill="#F3A803"/>
<path d="M76.3906 26.6529C76.5105 26.4736 76.5819 26.2665 76.5978 26.0519C75.8962 25.2288 75.2449 24.4119 74.6518 23.6124L74.6263 23.8976C74.5942 24.3825 74.5688 24.8431 74.2065 25.2117C73.9933 25.4218 73.7295 25.5734 73.4409 25.6515L75.4151 27.2457C75.6564 27.2013 75.8863 27.1082 76.0908 26.9721C76.2076 26.8829 76.3089 26.775 76.3906 26.6529Z" fill="#F3A803"/>
<path d="M82.8978 33.2797C83.234 33.2269 83.5468 33.0735 83.7949 32.8398C83.2064 32.413 82.5983 31.9362 81.9687 31.4214L81.8817 31.5247C81.6945 31.7107 81.4666 31.8505 81.2162 31.933L82.8867 33.282L82.8978 33.2797Z" fill="#F3A803"/>
<path d="M6.43154 55.2224C6.46133 55.8461 6.63939 56.453 6.95097 56.9927C7.71698 58.2307 9.75683 58.7333 10.4488 57.1016C10.6051 56.6817 10.6886 56.2386 10.6958 55.7914C10.7924 54.119 11.1616 52.5659 12.2307 51.2222C12.7599 50.5783 13.4114 50.0454 14.1472 49.6544C14.8585 49.2644 15.7252 49.0382 16.385 48.5749C16.9089 48.2074 16.8647 47.5934 16.1785 47.5023C14.7527 47.3365 13.3061 47.5096 11.9563 48.0074C10.7256 48.4308 9.59395 49.1025 8.63187 49.9806C7.23211 51.3053 6.29338 53.2651 6.43154 55.2224Z" fill="#F6F6F6"/>
<path d="M56.9984 58.4177C57.506 58.4919 58.0134 58.2729 58.4666 58.1011C59.2278 57.8145 59.9874 57.5347 60.8181 57.4934C61.8722 57.4307 62.9234 57.6393 63.871 58.099C64.5418 58.4346 65.1934 58.8612 65.8778 59.1399C66.1478 59.2537 66.8001 59.5173 66.8741 59.1012C66.9482 58.6852 66.3057 58.0932 65.7408 57.6606C65.4708 57.455 65.2185 57.2831 65.0683 57.1825C64.2447 56.6237 63.3184 56.2326 62.342 56.0314C61.0466 55.7796 59.7076 55.8475 58.4409 56.2292C57.763 56.4315 56.6219 56.7259 56.2818 57.3858L56.2296 57.5069L56.2098 57.7869C56.2643 58.1192 56.6287 58.356 56.9984 58.4177Z" fill="white"/>
<path d="M66.4109 24.3681C66.3103 24.4996 66.2142 24.6217 65.9883 24.9151C66.1269 24.7332 66.2696 24.55 66.4109 24.3681Z" fill="#CE2017"/>
<path d="M65.9883 24.9151L74.5812 33.1859L83.1595 41.4437L84.0843 40.3475L85.4527 38.7243L84.5845 39.753L65.9883 24.9151Z" fill="#CE2017"/>
<path d="M80.9823 44.0281L62.5617 29.333L72.3123 38.5769L79.6863 45.5665L80.9823 44.0281Z" fill="#CE2017"/>
<path d="M69.432 43.502L76.1552 49.7555L77.2946 48.4023L59.0564 33.8517L69.432 43.502Z" fill="#CE2017"/>
<path d="M40.4763 71.6006L38.7897 71.5466L36.3981 46.0946L36.4141 65.3355L36.4189 71.4757L40.4763 71.6006Z" fill="#CE2017"/>
<path d="M31.8452 71.3159C31.6552 71.3067 31.4651 71.3003 31.2752 71.2884L31.5992 71.3031L31.8452 71.3159Z" fill="#CE2017"/>
<path d="M27.3891 71.0143L27.6554 71.0321C27.9419 71.0575 28.2271 71.0815 28.5123 71.1055L28.9981 71.1473L29.3517 71.1741C29.5374 71.1872 29.7219 71.1961 29.909 71.2079L30.8917 45.9596L28.1901 65.2824L27.3891 71.0143Z" fill="#CE2017"/>
<path d="M71.3068 55.5285L73.6886 52.6704L73.8583 52.4678C73.5423 52.8411 73.2277 53.2158 72.9143 53.5947L55.676 38.1303L65.3114 48.8542L71.2977 55.5186L71.3068 55.5285Z" fill="#CE2017"/>
<path d="M26.5738 45.8597L26.5042 45.8568L26.5041 45.8588L26.5737 45.8616L26.5738 45.8597Z" fill="#CE2017"/>
<path d="M25.1526 45.8521L20.456 62.4609L18.5079 69.3566C18.6186 69.3913 18.727 69.4176 18.839 69.4537L19.0675 69.5192L19.288 69.5789C19.4016 69.611 19.51 69.6373 19.6332 69.6684L19.6671 69.6766L19.8226 69.72L20.0799 69.7853L20.1029 69.7903C20.4455 69.8769 20.7881 69.9635 21.1395 70.0368L21.3253 70.0787L21.6074 70.1395L21.8028 70.1804L19.7293 69.6929L25.154 45.8508L25.1526 45.8521Z" fill="#CE2017"/>
<path d="M44.5929 71.6609L44.9604 71.654C45.2881 71.6469 45.6143 71.6438 45.9394 71.6338C45.3798 70.5597 45.0661 69.3738 45.0207 68.1612L45.0116 67.7952C45.0109 67.5733 45.0213 67.3491 45.0372 67.1251L45.0741 66.8294L45.1143 66.4654C45.1345 66.3238 45.1617 66.1811 45.1888 66.0384L45.2354 65.802C45.272 65.6323 45.3167 65.4656 45.3577 65.292L45.3943 65.151C45.4469 64.9615 45.5065 64.7708 45.5686 64.5829L45.5956 64.5032C45.6695 64.2967 45.7441 64.1053 45.8193 63.9029L45.8364 63.8584C45.9155 63.6576 46.0101 63.4505 46.1058 63.2476L46.1224 63.2141C46.218 63.0139 46.3176 62.8153 46.4254 62.617C46.4913 62.4964 46.5531 62.3743 46.6215 62.2566L43.4497 45.7271L44.2284 63.4365L44.5971 71.6597L44.5929 71.6609Z" fill="#CE2017"/>
<path d="M54.1369 55.7202L47.8523 44.4623L52.2733 56.6766C52.4114 56.5946 52.5535 56.5142 52.6927 56.4363C53.1667 56.1695 53.6517 55.9318 54.1369 55.7202Z" fill="#CE2017"/>
<path d="M80.9822 44.0281L82.3579 42.3956L73.7178 35.5008L63.8663 27.6373C63.643 27.9222 63.4201 28.2094 63.1976 28.4989C62.9848 28.775 62.7707 29.0498 62.5565 29.3273L80.9822 44.0281Z" fill="white"/>
<path d="M59.0564 33.8517L77.2932 48.4036L77.7963 47.8038L78.6619 46.7723L71.1289 40.761L60.3591 32.1683L60.3053 32.2359C60.1012 32.5015 59.8945 32.7642 59.6888 33.0339C59.4832 33.3035 59.2987 33.5301 59.1063 33.7797L59.0495 33.8527L59.0564 33.8517Z" fill="white"/>
<path d="M55.676 38.1303L72.92 53.5894C73.2374 53.2148 73.5506 52.8414 73.864 52.4625C74.0075 52.2917 74.1524 52.1223 74.2945 51.9528L67.6506 45.9984L57.0188 36.4678C56.9256 36.5872 56.8296 36.7066 56.7351 36.8246C56.6406 36.9426 56.5502 37.0594 56.4572 37.1762L56.3554 37.3035L56.3468 37.3113C56.264 37.4134 56.1799 37.5141 56.0985 37.6148C55.9824 37.7552 55.8662 37.8984 55.7501 38.0388L55.7079 38.0905L55.676 38.1303Z" fill="white"/>
<path d="M60.6608 54.3519C60.9017 54.3563 61.1381 54.3701 61.3715 54.3892L61.6306 54.4135L61.6649 54.4135L61.9553 54.4432C62.3336 54.4855 62.7093 54.5475 63.081 54.629L51.8056 42.0725L59.6104 54.3746L59.7078 54.3718C60.0237 54.3546 60.3432 54.3471 60.6608 54.3519Z" fill="#CE2017"/>
<path d="M51.7974 42.0722L63.0728 54.6287C64.0939 54.8403 65.0761 55.2061 65.9857 55.7134L66.1966 55.8344C66.3245 55.9108 66.4469 55.9898 66.5705 56.0729L66.7244 56.1806L66.9406 56.3332L67.0384 56.4112C67.1231 56.4749 67.2063 56.5427 67.2895 56.6105L67.3738 56.6824C67.4687 56.763 67.5635 56.8463 67.6567 56.9337L67.688 56.9678C67.7956 57.0708 67.9017 57.1752 68.0035 57.2834L68.0205 57.3019C68.1105 57.4001 68.2005 57.4983 68.2917 57.5979L68.3608 57.6733C68.4365 57.7558 68.5021 57.8476 68.5692 57.938L68.6409 58.0162L68.6617 58.039C68.7417 58.1463 68.8175 58.2549 68.8904 58.3661C68.9643 58.2801 69.0366 58.1981 69.1076 58.1148L62.9883 51.334L53.3869 40.6444L53.2009 40.8148C53.0407 40.9616 52.8884 41.1143 52.7296 41.2598L52.6795 41.3057C52.5593 41.4158 52.4406 41.5246 52.3204 41.6348C52.2002 41.7449 52.0551 41.8622 51.9199 41.9704L51.8041 42.0766L51.7974 42.0722Z" fill="white"/>
<path d="M54.1369 55.7202C54.3551 55.6223 54.5743 55.5341 54.7947 55.4472L55.0471 55.3521C55.2633 55.2692 55.4806 55.1904 55.6976 55.1198C55.8408 55.075 55.9784 55.0327 56.1227 54.9921L56.1713 54.979L49.7558 43.5007C49.6431 43.5673 49.5276 43.6365 49.4123 43.7003C49.297 43.7641 49.1537 43.8404 49.0247 43.9063L48.9223 43.9583L48.6993 44.0683L48.6348 44.1013C48.5423 44.1468 48.45 44.1868 48.3547 44.2322L48.2623 44.275L48.2189 44.2965L48.142 44.3304C48.0412 44.3756 47.9419 44.4194 47.8415 44.4591L54.1369 55.7202Z" fill="white"/>
<path d="M46.6135 62.2535C46.7236 62.0636 46.8391 61.8765 46.9601 61.6897C47.028 61.5857 47.0985 61.4818 47.1704 61.3792L47.3143 61.1715C47.4389 60.9944 47.5716 60.8204 47.7057 60.6479L47.8107 60.5097C47.9779 60.3015 48.1518 60.095 48.3353 59.8902L45.5205 45.2352L45.4013 45.266L45.1047 45.3387L45.0409 45.3553L44.9674 45.3756L44.8263 45.4054L44.6893 45.4341L44.266 45.5236L44.0073 45.5773C43.8166 45.6134 43.6246 45.648 43.4301 45.677L43.4377 45.7198L46.6135 62.2535Z" fill="white"/>
<path d="M38.7897 71.5466L40.4763 71.6006L40.8237 71.6121L40.94 71.6155L40.2807 64.6117L38.5368 46.0876C38.3832 46.0922 38.2269 46.0941 38.0707 46.0959C37.5142 46.1032 36.954 46.1009 36.3981 46.0946L38.7897 71.5466Z" fill="white"/>
<path d="M30.8918 45.9569L29.9092 71.2051C30.2629 71.2292 30.618 71.2519 30.9773 71.2735L31.278 71.2885C31.4678 71.3004 31.658 71.3068 31.8479 71.316L32.031 71.3262L32.2537 65.6008L33.0221 46.0153C32.4209 46.0025 31.8185 45.9838 31.215 45.9591L30.8921 45.9514L30.8918 45.9569Z" fill="white"/>
<path d="M19.733 69.7026L21.8064 70.1901L23.2415 63.9007L27.3378 45.8785L27.0571 45.8739L26.7837 45.8627L26.5809 45.8626L26.5111 45.8611C26.3071 45.8596 26.1032 45.8554 25.8977 45.8552C25.6922 45.855 25.5211 45.8521 25.3321 45.8499L25.1582 45.8496L19.733 69.7026Z" fill="white"/>
<path d="M84.5845 39.753L85.4527 38.7243L85.9558 38.1245L75.5459 29.8068L67.3009 23.2253C67.2367 23.3103 67.1727 23.3899 67.1086 23.4722L66.8551 23.7988L66.8337 23.8184L66.8236 23.8276C66.6852 24.0068 66.5468 24.1861 66.407 24.3639C66.2673 24.5417 66.123 24.7289 65.9844 24.9109L84.5845 39.753Z" fill="white"/>
<path d="M75.0547 21.9525L74.9932 22.0089C74.6437 22.3824 74.4156 22.8526 74.3389 23.3572C74.2602 23.8142 74.3413 24.3421 74.0516 24.7411C73.8053 25.0592 73.4469 25.2715 73.0501 25.3342L72.7886 25.1236L73.4318 25.6416C73.7204 25.5634 73.9841 25.4119 74.1974 25.2018C74.5597 24.8331 74.5851 24.3726 74.6171 23.8877L74.6427 23.6025C74.7037 23.164 74.8897 22.7518 75.1785 22.415L75.3788 22.2315C75.6115 22.0775 75.8555 21.9415 76.1086 21.8245L75.5199 21.3429L75.7522 21.5332C75.5026 21.6421 75.2681 21.7831 75.0547 21.9525Z" fill="#F28A15"/>
<path d="M74.8072 21.7657L74.75 21.8182C74.4562 22.1294 74.2519 22.5138 74.1587 22.9307L74.1056 23.16C74.0312 23.6131 74.1165 24.137 73.8311 24.5321C73.5751 24.8573 73.2014 25.0689 72.7915 25.1209L73.053 25.3316C73.4498 25.2689 73.8082 25.0566 74.0544 24.7385C74.3442 24.3394 74.2603 23.8142 74.3418 23.3546C74.4185 22.85 74.6466 22.3798 74.996 22.0063L75.0576 21.9499C75.2704 21.7791 75.5045 21.6367 75.7539 21.5264L75.5216 21.3361C75.2677 21.4468 75.029 21.5899 74.8115 21.7618L74.8072 21.7657Z" fill="#EF8009"/>
<path d="M77.581 24.0199L77.5038 24.0907C77.1527 24.4624 76.9247 24.9329 76.851 25.4377C76.7737 25.8934 76.852 26.4212 76.5664 26.819C76.4793 26.9393 76.3731 27.0446 76.252 27.1307C76.0587 27.26 75.8424 27.3507 75.6149 27.3977L75.97 27.6876L76.0467 27.7482C76.3139 27.6669 76.5577 27.5217 76.7567 27.3253C76.941 27.134 77.0631 26.8916 77.1067 26.6302C77.1404 26.4293 77.1612 26.2266 77.1691 26.0232C77.1855 25.4857 77.3806 24.9679 77.7235 24.5517C77.7922 24.4757 77.8679 24.4063 77.9496 24.3445C78.1848 24.1912 78.4301 24.0539 78.6837 23.9336L78.2799 23.602C78.0285 23.7138 77.7911 23.8549 77.5727 24.0223L77.581 24.0199Z" fill="#F28A15"/>
<path d="M77.3838 23.8708L77.3051 23.9429C76.9593 24.3131 76.7358 24.7803 76.6651 25.2808C76.6263 25.5258 76.629 25.793 76.5965 26.0505C76.5806 26.2651 76.5092 26.4722 76.3893 26.6515C76.304 26.7708 76.1996 26.8752 76.0804 26.9607C75.8759 27.0968 75.646 27.1899 75.4047 27.2344L75.6121 27.4004C75.8395 27.3533 76.0559 27.2627 76.2491 27.1333C76.3702 27.0472 76.4764 26.9419 76.5636 26.8216C76.8491 26.4238 76.7694 25.8973 76.8481 25.4403C76.9227 24.9346 77.1523 24.4636 77.5051 24.0921L77.5852 24.0187C77.8036 23.8513 78.041 23.7102 78.2923 23.5984L78.1075 23.4484C77.8517 23.5594 77.6101 23.7008 77.388 23.8696L77.3838 23.8708Z" fill="#EF8009"/>
<path d="M80.1864 26.1563L80.1492 26.1904C79.8042 26.5605 79.5812 27.0272 79.5105 27.527C79.432 27.9813 79.5186 28.5066 79.2346 28.9004C78.9821 29.2272 78.6113 29.4419 78.2028 29.4978L77.9796 29.3175L78.6215 29.834C78.904 29.7566 79.1629 29.6094 79.3742 29.406L79.5329 29.203C79.7427 28.8746 79.7672 28.4935 79.7911 28.0946C79.8085 27.5555 80.0035 27.0362 80.3458 26.6175L80.5275 26.451C80.7585 26.2908 81.0044 26.1532 81.2616 26.0401L80.8921 25.7373C80.6374 25.8473 80.3995 25.9929 80.1857 26.17L80.1864 26.1563Z" fill="#F28A15"/>
<path d="M77.9865 29.3164L78.2097 29.4967C78.6182 29.4408 78.989 29.2261 79.2415 28.8993C79.5255 28.5055 79.446 27.9736 79.5174 27.5259C79.5881 27.0261 79.8111 26.5594 80.156 26.1893L80.189 26.1592C80.4027 25.9821 80.6406 25.8364 80.8953 25.7265L80.6738 25.5394C80.4195 25.6514 80.1813 25.7974 79.966 25.9734L79.9288 26.0074C79.5839 26.3771 79.3605 26.8432 79.2889 27.3426C79.2136 27.7861 79.29 28.2946 79.0322 28.6853L79.0065 28.7089C78.759 29.0373 78.3925 29.2555 77.9865 29.3164Z" fill="#EF8009"/>
<path d="M82.6349 28.2767C82.2877 28.6497 82.0611 29.1183 81.9849 29.6211C81.9077 30.0767 81.9916 30.602 81.7033 30.9997C81.478 31.2969 81.1523 31.5022 80.7875 31.5772L81.2273 31.9307C81.4777 31.8482 81.7056 31.7084 81.8928 31.5224L81.9798 31.4192C82.2576 31.0703 82.2825 30.6495 82.3126 30.2083C82.3304 29.6697 82.5264 29.1513 82.8699 28.7342C82.9362 28.6604 83.0095 28.5932 83.0888 28.5336C83.3235 28.3769 83.5699 28.2387 83.8258 28.12L83.4193 27.7856C83.1653 27.8952 82.9262 28.0369 82.708 28.2071L82.6349 28.2767Z" fill="#F28A15"/>
<path d="M82.4401 28.1331C82.095 28.5033 81.8711 28.9698 81.7988 29.4696C81.7244 29.9227 81.8097 30.4466 81.5243 30.8417L81.4342 30.9531C81.2086 31.1928 80.9141 31.3565 80.5919 31.4212L80.79 31.58C81.1549 31.5051 81.4806 31.2997 81.7059 31.0025C81.9942 30.6048 81.9117 30.0783 81.9875 29.6239C82.0631 29.1208 82.2892 28.6516 82.6362 28.2781L82.712 28.2086C82.9288 28.0372 83.1665 27.8941 83.4194 27.7829L83.2359 27.6343C82.9776 27.7445 82.7348 27.8879 82.5133 28.0608L82.4401 28.1331Z" fill="#EF8009"/>
<path d="M85.108 30.1625C84.7607 30.5351 84.535 31.0042 84.4607 31.507C84.382 31.964 84.4645 32.4905 84.1777 32.8869C83.926 33.2075 83.5618 33.4205 83.1596 33.4821L83.5506 33.7967C83.8347 33.7196 84.0947 33.5714 84.3062 33.3661L84.396 33.2602C84.6711 32.9112 84.6975 32.4891 84.7259 32.052C84.7425 31.5138 84.9381 30.9955 85.2818 30.5791L85.4249 30.448C85.645 30.2728 85.8845 30.1236 86.1387 30.0034L85.5474 29.519L85.7836 29.7135C85.536 29.8263 85.3079 29.9779 85.108 30.1625Z" fill="#F28A15"/>
<path d="M84.8468 29.9751C84.5011 30.345 84.2771 30.8116 84.2054 31.3117C84.1296 31.766 84.2149 32.2899 83.9309 32.6837L83.7949 32.8398C83.5468 33.0735 83.234 33.2269 82.8978 33.2797L83.1502 33.4804C83.5524 33.4187 83.9166 33.2058 84.1682 32.8852C84.455 32.4888 84.374 31.9609 84.4512 31.5052C84.528 31.0038 84.7556 30.5369 85.1037 30.1664C85.3071 29.9845 85.5383 29.8363 85.7884 29.7274L85.5522 29.5329C85.2956 29.6436 85.0586 29.7954 84.8505 29.9821L84.8468 29.9751Z" fill="#EF8009"/>
<path d="M87.4344 31.9916L87.4043 32.0192C87.0642 32.3931 86.8415 32.8586 86.7643 33.3571C86.6814 33.8153 86.7609 34.3472 86.464 34.7528C86.2174 35.0673 85.8643 35.281 85.4718 35.3531L85.8429 35.6518C86.1386 35.5765 86.4092 35.4235 86.6265 35.2087C86.7607 35.0727 86.8617 34.9075 86.9214 34.7263C86.9987 34.4536 87.039 34.1719 87.041 33.8889C87.0584 33.3515 87.2533 32.834 87.5955 32.4173L87.7114 32.3111C87.9333 32.1366 88.1762 31.9905 88.4343 31.8764L87.8428 31.3948L88.0633 31.575C87.8333 31.6802 87.621 31.8208 87.4344 31.9916Z" fill="#F28A15"/>
<path d="M87.1517 31.8527C86.8213 32.2176 86.6074 32.6726 86.5378 33.1588C86.4692 33.5751 86.5321 34.0516 86.3227 34.432L86.2632 34.5336C86.1331 34.6982 85.972 34.8356 85.7891 34.9381C85.6062 35.0406 85.405 35.1062 85.1971 35.131L85.4718 35.3531C85.8643 35.281 86.2174 35.0673 86.464 34.7528C86.7609 34.3472 86.6814 33.8153 86.7642 33.3571C86.8432 32.8603 87.0667 32.3969 87.4068 32.0247L87.4368 31.9972C87.6235 31.8264 87.8357 31.6858 88.0657 31.5806L87.8453 31.4003C87.6029 31.5054 87.3792 31.6493 87.1831 31.8266L87.1517 31.8527Z" fill="#EF8009"/>
<path d="M72.4956 19.8235L72.3311 19.9743C71.9771 20.3488 71.7458 20.8221 71.6682 21.3305C71.5881 21.7887 71.6677 22.3179 71.3753 22.7168C71.1604 23.0003 70.8544 23.2012 70.5092 23.2854L70.9042 23.6015C71.1419 23.5189 71.3584 23.3841 71.5375 23.207C71.9011 22.8397 71.928 22.3779 71.9586 21.8943C71.9765 21.3563 72.1719 20.8385 72.5145 20.4214L72.5331 20.4044C72.6215 20.309 72.7221 20.2256 72.8322 20.1564C73.0654 20.003 73.3279 19.8959 73.5713 19.7566L72.9838 19.2792L73.1872 19.4437C72.9464 19.5506 72.7151 19.6776 72.4956 19.8235Z" fill="#F28A15"/>
<path d="M72.2505 19.6738L72.1661 19.7511L72.0888 19.8219C71.7409 20.1906 71.517 20.6586 71.4487 21.1599C71.3716 21.6128 71.4569 22.1367 71.1729 22.5305C70.9496 22.8206 70.6295 23.021 70.2714 23.0949L70.5039 23.2824C70.849 23.1982 71.155 22.9973 71.3699 22.7139C71.6624 22.315 71.5771 21.791 71.6629 21.3275C71.7404 20.8191 71.9718 20.3458 72.3257 19.9713L72.4903 19.8206C72.7104 19.6708 72.9428 19.5401 73.1851 19.4299L72.9817 19.2654C72.7284 19.3808 72.4848 19.5165 72.2533 19.6712L72.2505 19.6738Z" fill="#EF8009"/>
</g>
<defs>
<clipPath id="clip0_7_10">
<rect width="48.9674" height="81.0495" fill="white" transform="translate(60.3377 0.763632) rotate(47.4972)"/>
</clipPath>
</defs>
</svg>
